<?xml version="1.0" encoding="UTF-8" standalone="no"?>
<!DOCTYPE svg PUBLIC "-//W3C//DTD SVG 1.1//EN"
 "http://www.w3.org/Graphics/SVG/1.1/DTD/svg11.dtd">
<!-- Generated by graphviz version 14.0.0 (20250921.2048)
 -->
<!-- Title: ast.h Pages: 1 -->
<svg width="201pt" height="138pt"
 viewBox="0.00 0.00 201.00 138.00" xmlns="http://www.w3.org/2000/svg" xmlns:xlink="http://www.w3.org/1999/xlink">
<g id="graph0" class="graph" transform="scale(1 1) rotate(0) translate(4 133.75)">
<title>ast.h</title>
<!-- Node1 -->
<g id="Node000001" class="node">
<title>Node1</title>
<g id="a_Node000001"><a xlink:title=" ">
<polygon fill="#999999" stroke="#666666" points="117.38,-129.75 79.62,-129.75 79.62,-110.5 117.38,-110.5 117.38,-129.75"/>
<text xml:space="preserve" text-anchor="middle" x="98.5" y="-116.25" font-family="Helvetica,sans-Serif" font-size="10.00">ast.h</text>
</a>
</g>
</g>
<!-- Node2 -->
<g id="Node000002" class="node">
<title>Node2</title>
<g id="a_Node000002"><a xlink:href="executor_8h.html" target="_top" xlink:title=" ">
<polygon fill="white" stroke="#666666" points="92,-74.5 31,-74.5 31,-55.25 92,-55.25 92,-74.5"/>
<text xml:space="preserve" text-anchor="middle" x="61.5" y="-61" font-family="Helvetica,sans-Serif" font-size="10.00">executor.h</text>
</a>
</g>
</g>
<!-- Node1&#45;&gt;Node2 -->
<g id="edge1_Node000001_Node000002" class="edge">
<title>Node1&#45;&gt;Node2</title>
<g id="a_edge1_Node000001_Node000002"><a xlink:title=" ">
<path fill="none" stroke="#63b8ff" d="M85.84,-100.9C79.73,-92.11 72.68,-81.96 67.74,-74.86"/>
<polygon fill="#63b8ff" stroke="#63b8ff" points="82.95,-102.87 91.53,-109.09 88.69,-98.88 82.95,-102.87"/>
</a>
</g>
</g>
<!-- Node5 -->
<g id="Node000005" class="node">
<title>Node5</title>
<g id="a_Node000005"><a xlink:href="parser_8h.html" target="_top" xlink:title=" ">
<polygon fill="white" stroke="#666666" points="160.75,-74.5 110.25,-74.5 110.25,-55.25 160.75,-55.25 160.75,-74.5"/>
<text xml:space="preserve" text-anchor="middle" x="135.5" y="-61" font-family="Helvetica,sans-Serif" font-size="10.00">parser.h</text>
</a>
</g>
</g>
<!-- Node1&#45;&gt;Node5 -->
<g id="edge4_Node000001_Node000005" class="edge">
<title>Node1&#45;&gt;Node5</title>
<g id="a_edge4_Node000001_Node000005"><a xlink:title=" ">
<path fill="none" stroke="#63b8ff" d="M111.16,-100.9C117.27,-92.11 124.32,-81.96 129.26,-74.86"/>
<polygon fill="#63b8ff" stroke="#63b8ff" points="108.31,-98.88 105.47,-109.09 114.05,-102.87 108.31,-98.88"/>
</a>
</g>
</g>
<!-- Node3 -->
<g id="Node000003" class="node">
<title>Node3</title>
<g id="a_Node000003"><a xlink:href="executor_8c.html" target="_top" xlink:title=" ">
<polygon fill="white" stroke="#666666" points="61,-19.25 0,-19.25 0,0 61,0 61,-19.25"/>
<text xml:space="preserve" text-anchor="middle" x="30.5" y="-5.75" font-family="Helvetica,sans-Serif" font-size="10.00">executor.c</text>
</a>
</g>
</g>
<!-- Node2&#45;&gt;Node3 -->
<g id="edge2_Node000002_Node000003" class="edge">
<title>Node2&#45;&gt;Node3</title>
<g id="a_edge2_Node000002_Node000003"><a xlink:title=" ">
<path fill="none" stroke="#63b8ff" d="M50.72,-45.37C45.65,-36.64 39.82,-26.64 35.73,-19.61"/>
<polygon fill="#63b8ff" stroke="#63b8ff" points="47.56,-46.89 55.62,-53.77 53.61,-43.37 47.56,-46.89"/>
</a>
</g>
</g>
<!-- Node4 -->
<g id="Node000004" class="node">
<title>Node4</title>
<g id="a_Node000004"><a xlink:href="shell_8c.html" target="_top" xlink:title=" ">
<polygon fill="white" stroke="#666666" points="123.75,-19.25 79.25,-19.25 79.25,0 123.75,0 123.75,-19.25"/>
<text xml:space="preserve" text-anchor="middle" x="101.5" y="-5.75" font-family="Helvetica,sans-Serif" font-size="10.00">shell.c</text>
</a>
</g>
</g>
<!-- Node2&#45;&gt;Node4 -->
<g id="edge3_Node000002_Node000004" class="edge">
<title>Node2&#45;&gt;Node4</title>
<g id="a_edge3_Node000002_Node000004"><a xlink:title=" ">
<path fill="none" stroke="#63b8ff" d="M74.97,-45.94C81.62,-37.09 89.36,-26.79 94.75,-19.61"/>
<polygon fill="#63b8ff" stroke="#63b8ff" points="72.22,-43.77 69.01,-53.87 77.82,-47.98 72.22,-43.77"/>
</a>
</g>
</g>
<!-- Node5&#45;&gt;Node4 -->
<g id="edge6_Node000005_Node000004" class="edge">
<title>Node5&#45;&gt;Node4</title>
<g id="a_edge6_Node000005_Node000004"><a xlink:title=" ">
<path fill="none" stroke="#63b8ff" d="M123.87,-45.65C118.25,-36.86 111.77,-26.71 107.24,-19.61"/>
<polygon fill="#63b8ff" stroke="#63b8ff" points="120.74,-47.26 129.07,-53.81 126.64,-43.49 120.74,-47.26"/>
</a>
</g>
</g>
<!-- Node6 -->
<g id="Node000006" class="node">
<title>Node6</title>
<g id="a_Node000006"><a xlink:href="parser_8c.html" target="_top" xlink:title=" ">
<polygon fill="white" stroke="#666666" points="192.75,-19.25 142.25,-19.25 142.25,0 192.75,0 192.75,-19.25"/>
<text xml:space="preserve" text-anchor="middle" x="167.5" y="-5.75" font-family="Helvetica,sans-Serif" font-size="10.00">parser.c</text>
</a>
</g>
</g>
<!-- Node5&#45;&gt;Node6 -->
<g id="edge5_Node000005_Node000006" class="edge">
<title>Node5&#45;&gt;Node6</title>
<g id="a_edge5_Node000005_Node000006"><a xlink:title=" ">
<path fill="none" stroke="#63b8ff" d="M146.62,-45.37C151.86,-36.64 157.88,-26.64 162.1,-19.61"/>
<polygon fill="#63b8ff" stroke="#63b8ff" points="143.71,-43.41 141.56,-53.78 149.71,-47.02 143.71,-43.41"/>
</a>
</g>
</g>
</g>
</svg>
