<?xml version="1.0" encoding="UTF-8" standalone="no"?>
<!DOCTYPE svg PUBLIC "-//W3C//DTD SVG 1.1//EN"
 "http://www.w3.org/Graphics/SVG/1.1/DTD/svg11.dtd">
<!-- Generated by graphviz version 14.0.0 (20250921.2048)
 -->
<!-- Title: ast.h Pages: 1 -->
<svg width="143pt" height="138pt"
 viewBox="0.00 0.00 143.00 138.00" xmlns="http://www.w3.org/2000/svg" xmlns:xlink="http://www.w3.org/1999/xlink">
<g id="graph0" class="graph" transform="scale(1 1) rotate(0) translate(4 133.75)">
<title>ast.h</title>
<!-- Node1 -->
<g id="Node000001" class="node">
<title>Node1</title>
<g id="a_Node000001"><a xlink:title=" ">
<polygon fill="#999999" stroke="#666666" points="82.75,-129.75 45,-129.75 45,-110.5 82.75,-110.5 82.75,-129.75"/>
<text xml:space="preserve" text-anchor="middle" x="63.88" y="-116.25" font-family="Helvetica,sans-Serif" font-size="10.00">ast.h</text>
</a>
</g>
</g>
<!-- Node2 -->
<g id="Node000002" class="node">
<title>Node2</title>
<g id="a_Node000002"><a xlink:title=" ">
<polygon fill="#e0e0e0" stroke="#999999" points="55.75,-19.25 0,-19.25 0,0 55.75,0 55.75,-19.25"/>
<text xml:space="preserve" text-anchor="middle" x="27.88" y="-5.75" font-family="Helvetica,sans-Serif" font-size="10.00">stdbool.h</text>
</a>
</g>
</g>
<!-- Node1&#45;&gt;Node2 -->
<g id="edge1_Node000001_Node000002" class="edge">
<title>Node1&#45;&gt;Node2</title>
<g id="a_edge1_Node000001_Node000002"><a xlink:title=" ">
<path fill="none" stroke="#63b8ff" d="M53.37,-110.08C44.66,-101.82 32.91,-88.77 27.88,-74.5 22.95,-60.54 23.16,-43.77 24.49,-30.92"/>
<polygon fill="#63b8ff" stroke="#63b8ff" points="27.94,-31.5 25.84,-21.12 21.01,-30.55 27.94,-31.5"/>
</a>
</g>
</g>
<!-- Node3 -->
<g id="Node000003" class="node">
<title>Node3</title>
<g id="a_Node000003"><a xlink:title=" ">
<polygon fill="#e0e0e0" stroke="#999999" points="134.5,-19.25 83.25,-19.25 83.25,0 134.5,0 134.5,-19.25"/>
<text xml:space="preserve" text-anchor="middle" x="108.88" y="-5.75" font-family="Helvetica,sans-Serif" font-size="10.00">stddef.h</text>
</a>
</g>
</g>
<!-- Node1&#45;&gt;Node3 -->
<g id="edge2_Node000001_Node000003" class="edge">
<title>Node1&#45;&gt;Node3</title>
<g id="a_edge2_Node000001_Node000003"><a xlink:title=" ">
<path fill="none" stroke="#63b8ff" d="M73.56,-110.21C81.98,-101.85 93.77,-88.56 99.88,-74.5 105.83,-60.78 108.02,-44 108.75,-31.08"/>
<polygon fill="#63b8ff" stroke="#63b8ff" points="112.25,-31.32 109.04,-21.22 105.25,-31.11 112.25,-31.32"/>
</a>
</g>
</g>
<!-- Node4 -->
<g id="Node000004" class="node">
<title>Node4</title>
<g id="a_Node000004"><a xlink:href="shell_8h.html" target="_top" xlink:title=" ">
<polygon fill="white" stroke="#666666" points="90.62,-74.5 37.12,-74.5 37.12,-55.25 90.62,-55.25 90.62,-74.5"/>
<text xml:space="preserve" text-anchor="middle" x="63.88" y="-61" font-family="Helvetica,sans-Serif" font-size="10.00">../shell.h</text>
</a>
</g>
</g>
<!-- Node1&#45;&gt;Node4 -->
<g id="edge3_Node000001_Node000004" class="edge">
<title>Node1&#45;&gt;Node4</title>
<g id="a_edge3_Node000001_Node000004"><a xlink:title=" ">
<path fill="none" stroke="#63b8ff" d="M63.88,-110.33C63.88,-103.82 63.88,-94.67 63.88,-86.37"/>
<polygon fill="#63b8ff" stroke="#63b8ff" points="67.38,-86.37 63.88,-76.37 60.38,-86.37 67.38,-86.37"/>
</a>
</g>
</g>
<!-- Node4&#45;&gt;Node2 -->
<g id="edge4_Node000004_Node000002" class="edge">
<title>Node4&#45;&gt;Node2</title>
<g id="a_edge4_Node000004_Node000002"><a xlink:title=" ">
<path fill="none" stroke="#63b8ff" d="M57.93,-55.08C53.16,-48.03 46.31,-37.9 40.35,-29.08"/>
<polygon fill="#63b8ff" stroke="#63b8ff" points="43.3,-27.19 34.8,-20.86 37.5,-31.11 43.3,-27.19"/>
</a>
</g>
</g>
<!-- Node4&#45;&gt;Node3 -->
<g id="edge5_Node000004_Node000003" class="edge">
<title>Node4&#45;&gt;Node3</title>
<g id="a_edge5_Node000004_Node000003"><a xlink:title=" ">
<path fill="none" stroke="#63b8ff" d="M71.31,-55.08C77.46,-47.8 86.39,-37.23 94,-28.23"/>
<polygon fill="#63b8ff" stroke="#63b8ff" points="96.52,-30.66 100.31,-20.77 91.18,-26.14 96.52,-30.66"/>
</a>
</g>
</g>
</g>
</svg>
