<?xml version="1.0" encoding="UTF-8" standalone="no"?>
<!DOCTYPE svg PUBLIC "-//W3C//DTD SVG 1.1//EN"
 "http://www.w3.org/Graphics/SVG/1.1/DTD/svg11.dtd">
<!-- Generated by graphviz version 14.0.0 (20250921.2048)
 -->
<!-- Title: builtin.h Pages: 1 -->
<svg width="585pt" height="83pt"
 viewBox="0.00 0.00 585.00 83.00" xmlns="http://www.w3.org/2000/svg" xmlns:xlink="http://www.w3.org/1999/xlink">
<g id="graph0" class="graph" transform="scale(1 1) rotate(0) translate(4 78.5)">
<title>builtin.h</title>
<!-- Node1 -->
<g id="Node000001" class="node">
<title>Node1</title>
<g id="a_Node000001"><a xlink:title=" ">
<polygon fill="#999999" stroke="#666666" points="304.25,-74.5 254.5,-74.5 254.5,-55.25 304.25,-55.25 304.25,-74.5"/>
<text xml:space="preserve" text-anchor="middle" x="279.38" y="-61" font-family="Helvetica,sans-Serif" font-size="10.00">builtin.h</text>
</a>
</g>
</g>
<!-- Node2 -->
<g id="Node000002" class="node">
<title>Node2</title>
<g id="a_Node000002"><a xlink:href="cd_8c.html" target="_top" xlink:title=" ">
<polygon fill="white" stroke="#666666" points="34.75,-19.25 0,-19.25 0,0 34.75,0 34.75,-19.25"/>
<text xml:space="preserve" text-anchor="middle" x="17.38" y="-5.75" font-family="Helvetica,sans-Serif" font-size="10.00">cd.c</text>
</a>
</g>
</g>
<!-- Node1&#45;&gt;Node2 -->
<g id="edge1_Node000001_Node000002" class="edge">
<title>Node1&#45;&gt;Node2</title>
<g id="a_edge1_Node000001_Node000002"><a xlink:title=" ">
<path fill="none" stroke="#63b8ff" d="M243.02,-58.54C196.38,-51.36 113.18,-37.34 43.38,-19.25 40.7,-18.56 37.91,-17.74 35.18,-16.88"/>
<polygon fill="#63b8ff" stroke="#63b8ff" points="242.42,-61.99 252.83,-60.04 243.47,-55.07 242.42,-61.99"/>
</a>
</g>
</g>
<!-- Node3 -->
<g id="Node000003" class="node">
<title>Node3</title>
<g id="a_Node000003"><a xlink:href="echo_8c.html" target="_top" xlink:title=" ">
<polygon fill="white" stroke="#666666" points="98,-19.25 52.75,-19.25 52.75,0 98,0 98,-19.25"/>
<text xml:space="preserve" text-anchor="middle" x="75.38" y="-5.75" font-family="Helvetica,sans-Serif" font-size="10.00">echo.c</text>
</a>
</g>
</g>
<!-- Node1&#45;&gt;Node3 -->
<g id="edge2_Node000001_Node000003" class="edge">
<title>Node1&#45;&gt;Node3</title>
<g id="a_edge2_Node000001_Node000003"><a xlink:title=" ">
<path fill="none" stroke="#63b8ff" d="M243.02,-54.71C207.98,-45.83 153.48,-31.88 106.38,-19.25 103.78,-18.56 101.08,-17.82 98.38,-17.08"/>
<polygon fill="#63b8ff" stroke="#63b8ff" points="242.1,-58.09 252.66,-57.15 243.82,-51.3 242.1,-58.09"/>
</a>
</g>
</g>
<!-- Node4 -->
<g id="Node000004" class="node">
<title>Node4</title>
<g id="a_Node000004"><a xlink:href="executor_8c.html" target="_top" xlink:title=" ">
<polygon fill="white" stroke="#666666" points="176.88,-19.25 115.88,-19.25 115.88,0 176.88,0 176.88,-19.25"/>
<text xml:space="preserve" text-anchor="middle" x="146.38" y="-5.75" font-family="Helvetica,sans-Serif" font-size="10.00">executor.c</text>
</a>
</g>
</g>
<!-- Node1&#45;&gt;Node4 -->
<g id="edge3_Node000001_Node000004" class="edge">
<title>Node1&#45;&gt;Node4</title>
<g id="a_edge3_Node000001_Node000004"><a xlink:title=" ">
<path fill="none" stroke="#63b8ff" d="M246.38,-50.66C222.3,-41.02 190.29,-28.21 169.05,-19.7"/>
<polygon fill="#63b8ff" stroke="#63b8ff" points="244.82,-53.81 255.41,-54.28 247.43,-47.31 244.82,-53.81"/>
</a>
</g>
</g>
<!-- Node5 -->
<g id="Node000005" class="node">
<title>Node5</title>
<g id="a_Node000005"><a xlink:href="exit_8c.html" target="_top" xlink:title=" ">
<polygon fill="white" stroke="#666666" points="235.38,-19.25 195.38,-19.25 195.38,0 235.38,0 235.38,-19.25"/>
<text xml:space="preserve" text-anchor="middle" x="215.38" y="-5.75" font-family="Helvetica,sans-Serif" font-size="10.00">exit.c</text>
</a>
</g>
</g>
<!-- Node1&#45;&gt;Node5 -->
<g id="edge4_Node000001_Node000005" class="edge">
<title>Node1&#45;&gt;Node5</title>
<g id="a_edge4_Node000001_Node000005"><a xlink:title=" ">
<path fill="none" stroke="#63b8ff" d="M259.89,-47.66C248.78,-38.42 235.27,-27.18 226.07,-19.52"/>
<polygon fill="#63b8ff" stroke="#63b8ff" points="257.43,-50.17 267.35,-53.87 261.91,-44.79 257.43,-50.17"/>
</a>
</g>
</g>
<!-- Node6 -->
<g id="Node000006" class="node">
<title>Node6</title>
<g id="a_Node000006"><a xlink:href="export_8c.html" target="_top" xlink:title=" ">
<polygon fill="white" stroke="#666666" points="305,-19.25 253.75,-19.25 253.75,0 305,0 305,-19.25"/>
<text xml:space="preserve" text-anchor="middle" x="279.38" y="-5.75" font-family="Helvetica,sans-Serif" font-size="10.00">export.c</text>
</a>
</g>
</g>
<!-- Node1&#45;&gt;Node6 -->
<g id="edge5_Node000001_Node000006" class="edge">
<title>Node1&#45;&gt;Node6</title>
<g id="a_edge5_Node000001_Node000006"><a xlink:title=" ">
<path fill="none" stroke="#63b8ff" d="M279.38,-43.63C279.38,-35.34 279.38,-26.17 279.38,-19.61"/>
<polygon fill="#63b8ff" stroke="#63b8ff" points="275.88,-43.57 279.38,-53.57 282.88,-43.57 275.88,-43.57"/>
</a>
</g>
</g>
<!-- Node7 -->
<g id="Node000007" class="node">
<title>Node7</title>
<g id="a_Node000007"><a xlink:href="pwd_8c.html" target="_top" xlink:title=" ">
<polygon fill="white" stroke="#666666" points="365.5,-19.25 323.25,-19.25 323.25,0 365.5,0 365.5,-19.25"/>
<text xml:space="preserve" text-anchor="middle" x="344.38" y="-5.75" font-family="Helvetica,sans-Serif" font-size="10.00">pwd.c</text>
</a>
</g>
</g>
<!-- Node1&#45;&gt;Node7 -->
<g id="edge6_Node000001_Node000007" class="edge">
<title>Node1&#45;&gt;Node7</title>
<g id="a_edge6_Node000001_Node000007"><a xlink:title=" ">
<path fill="none" stroke="#63b8ff" d="M299.16,-47.66C310.45,-38.42 324.17,-27.18 333.51,-19.52"/>
<polygon fill="#63b8ff" stroke="#63b8ff" points="297.09,-44.84 291.57,-53.88 301.53,-50.25 297.09,-44.84"/>
</a>
</g>
</g>
<!-- Node8 -->
<g id="Node000008" class="node">
<title>Node8</title>
<g id="a_Node000008"><a xlink:href="registry_8c.html" target="_top" xlink:title=" ">
<polygon fill="white" stroke="#666666" points="438.88,-19.25 383.88,-19.25 383.88,0 438.88,0 438.88,-19.25"/>
<text xml:space="preserve" text-anchor="middle" x="411.38" y="-5.75" font-family="Helvetica,sans-Serif" font-size="10.00">registry.c</text>
</a>
</g>
</g>
<!-- Node1&#45;&gt;Node8 -->
<g id="edge7_Node000001_Node000008" class="edge">
<title>Node1&#45;&gt;Node8</title>
<g id="a_edge7_Node000001_Node000008"><a xlink:title=" ">
<path fill="none" stroke="#63b8ff" d="M312.13,-50.66C336.02,-41.02 367.79,-28.21 388.87,-19.7"/>
<polygon fill="#63b8ff" stroke="#63b8ff" points="311.14,-47.29 303.17,-54.28 313.75,-53.78 311.14,-47.29"/>
</a>
</g>
</g>
<!-- Node9 -->
<g id="Node000009" class="node">
<title>Node9</title>
<g id="a_Node000009"><a xlink:href="umask_8c.html" target="_top" xlink:title=" ">
<polygon fill="white" stroke="#666666" points="510.12,-19.25 456.62,-19.25 456.62,0 510.12,0 510.12,-19.25"/>
<text xml:space="preserve" text-anchor="middle" x="483.38" y="-5.75" font-family="Helvetica,sans-Serif" font-size="10.00">umask.c</text>
</a>
</g>
</g>
<!-- Node1&#45;&gt;Node9 -->
<g id="edge8_Node000001_Node000009" class="edge">
<title>Node1&#45;&gt;Node9</title>
<g id="a_edge8_Node000001_Node000009"><a xlink:title=" ">
<path fill="none" stroke="#63b8ff" d="M315.31,-54.5C355.57,-43.99 419.93,-27.19 456.21,-17.72"/>
<polygon fill="#63b8ff" stroke="#63b8ff" points="314.65,-51.05 305.85,-56.96 316.41,-57.82 314.65,-51.05"/>
</a>
</g>
</g>
<!-- Node10 -->
<g id="Node000010" class="node">
<title>Node10</title>
<g id="a_Node000010"><a xlink:href="unset_8c.html" target="_top" xlink:title=" ">
<polygon fill="white" stroke="#666666" points="576.5,-19.25 528.25,-19.25 528.25,0 576.5,0 576.5,-19.25"/>
<text xml:space="preserve" text-anchor="middle" x="552.38" y="-5.75" font-family="Helvetica,sans-Serif" font-size="10.00">unset.c</text>
</a>
</g>
</g>
<!-- Node1&#45;&gt;Node10 -->
<g id="edge9_Node000001_Node000010" class="edge">
<title>Node1&#45;&gt;Node10</title>
<g id="a_edge9_Node000001_Node000010"><a xlink:title=" ">
<path fill="none" stroke="#63b8ff" d="M315.88,-57.93C363.07,-50.05 447.69,-35.26 519.38,-19.25 522.15,-18.63 525.04,-17.94 527.91,-17.23"/>
<polygon fill="#63b8ff" stroke="#63b8ff" points="315.51,-54.44 306.21,-59.53 316.65,-61.35 315.51,-54.44"/>
</a>
</g>
</g>
</g>
</svg>
