<?xml version="1.0" encoding="UTF-8" standalone="no"?>
<!DOCTYPE svg PUBLIC "-//W3C//DTD SVG 1.1//EN"
 "http://www.w3.org/Graphics/SVG/1.1/DTD/svg11.dtd">
<!-- Generated by graphviz version 14.0.0 (20250921.2048)
 -->
<!-- Title: cd.c Pages: 1 -->
<svg width="489pt" height="193pt"
 viewBox="0.00 0.00 489.00 193.00" xmlns="http://www.w3.org/2000/svg" xmlns:xlink="http://www.w3.org/1999/xlink">
<g id="graph0" class="graph" transform="scale(1 1) rotate(0) translate(4 189)">
<title>cd.c</title>
<!-- Node1 -->
<g id="Node000001" class="node">
<title>Node1</title>
<g id="a_Node000001"><a xlink:title=" ">
<polygon fill="#999999" stroke="#666666" points="240.38,-185 205.62,-185 205.62,-165.75 240.38,-165.75 240.38,-185"/>
<text xml:space="preserve" text-anchor="middle" x="223" y="-171.5" font-family="Helvetica,sans-Serif" font-size="10.00">cd.c</text>
</a>
</g>
</g>
<!-- Node2 -->
<g id="Node000002" class="node">
<title>Node2</title>
<g id="a_Node000002"><a xlink:title=" ">
<polygon fill="#e0e0e0" stroke="#999999" points="46,-129.75 0,-129.75 0,-110.5 46,-110.5 46,-129.75"/>
<text xml:space="preserve" text-anchor="middle" x="23" y="-116.25" font-family="Helvetica,sans-Serif" font-size="10.00">errno.h</text>
</a>
</g>
</g>
<!-- Node1&#45;&gt;Node2 -->
<g id="edge1_Node000001_Node000002" class="edge">
<title>Node1&#45;&gt;Node2</title>
<g id="a_edge1_Node000001_Node000002"><a xlink:title=" ">
<path fill="none" stroke="#63b8ff" d="M205.34,-169.71C176.45,-162.07 117.05,-146.33 57.2,-130.33"/>
<polygon fill="#63b8ff" stroke="#63b8ff" points="58.44,-127.04 47.88,-127.84 56.63,-133.8 58.44,-127.04"/>
</a>
</g>
</g>
<!-- Node3 -->
<g id="Node000003" class="node">
<title>Node3</title>
<g id="a_Node000003"><a xlink:title=" ">
<polygon fill="#e0e0e0" stroke="#999999" points="111.75,-129.75 64.25,-129.75 64.25,-110.5 111.75,-110.5 111.75,-129.75"/>
<text xml:space="preserve" text-anchor="middle" x="88" y="-116.25" font-family="Helvetica,sans-Serif" font-size="10.00">limits.h</text>
</a>
</g>
</g>
<!-- Node1&#45;&gt;Node3 -->
<g id="edge2_Node000001_Node000003" class="edge">
<title>Node1&#45;&gt;Node3</title>
<g id="a_edge2_Node000001_Node000003"><a xlink:title=" ">
<path fill="none" stroke="#63b8ff" d="M205.35,-167.41C184.12,-159.04 148.02,-144.8 121.45,-134.32"/>
<polygon fill="#63b8ff" stroke="#63b8ff" points="123.07,-131.2 112.49,-130.78 120.5,-137.71 123.07,-131.2"/>
</a>
</g>
</g>
<!-- Node4 -->
<g id="Node000004" class="node">
<title>Node4</title>
<g id="a_Node000004"><a xlink:title=" ">
<polygon fill="#e0e0e0" stroke="#999999" points="289.88,-19.25 234.12,-19.25 234.12,0 289.88,0 289.88,-19.25"/>
<text xml:space="preserve" text-anchor="middle" x="262" y="-5.75" font-family="Helvetica,sans-Serif" font-size="10.00">stdbool.h</text>
</a>
</g>
</g>
<!-- Node1&#45;&gt;Node4 -->
<g id="edge3_Node000001_Node000004" class="edge">
<title>Node1&#45;&gt;Node4</title>
<g id="a_edge3_Node000001_Node000004"><a xlink:title=" ">
<path fill="none" stroke="#63b8ff" d="M205.38,-167.19C182.91,-156.83 148.17,-136.09 159,-110.5 174.79,-73.2 212.07,-42.99 237.18,-25.91"/>
<polygon fill="#63b8ff" stroke="#63b8ff" points="239.07,-28.86 245.51,-20.45 235.22,-23.01 239.07,-28.86"/>
</a>
</g>
</g>
<!-- Node5 -->
<g id="Node000005" class="node">
<title>Node5</title>
<g id="a_Node000005"><a xlink:title=" ">
<polygon fill="#e0e0e0" stroke="#999999" points="213.62,-129.75 168.38,-129.75 168.38,-110.5 213.62,-110.5 213.62,-129.75"/>
<text xml:space="preserve" text-anchor="middle" x="191" y="-116.25" font-family="Helvetica,sans-Serif" font-size="10.00">stdio.h</text>
</a>
</g>
</g>
<!-- Node1&#45;&gt;Node5 -->
<g id="edge4_Node000001_Node000005" class="edge">
<title>Node1&#45;&gt;Node5</title>
<g id="a_edge4_Node000001_Node000005"><a xlink:title=" ">
<path fill="none" stroke="#63b8ff" d="M217.72,-165.58C213.53,-158.61 207.52,-148.62 202.27,-139.87"/>
<polygon fill="#63b8ff" stroke="#63b8ff" points="205.33,-138.18 197.18,-131.41 199.33,-141.78 205.33,-138.18"/>
</a>
</g>
</g>
<!-- Node6 -->
<g id="Node000006" class="node">
<title>Node6</title>
<g id="a_Node000006"><a xlink:title=" ">
<polygon fill="#e0e0e0" stroke="#999999" points="278.75,-129.75 231.25,-129.75 231.25,-110.5 278.75,-110.5 278.75,-129.75"/>
<text xml:space="preserve" text-anchor="middle" x="255" y="-116.25" font-family="Helvetica,sans-Serif" font-size="10.00">stdlib.h</text>
</a>
</g>
</g>
<!-- Node1&#45;&gt;Node6 -->
<g id="edge5_Node000001_Node000006" class="edge">
<title>Node1&#45;&gt;Node6</title>
<g id="a_edge5_Node000001_Node000006"><a xlink:title=" ">
<path fill="none" stroke="#63b8ff" d="M228.28,-165.58C232.47,-158.61 238.48,-148.62 243.73,-139.87"/>
<polygon fill="#63b8ff" stroke="#63b8ff" points="246.67,-141.78 248.82,-131.41 240.67,-138.18 246.67,-141.78"/>
</a>
</g>
</g>
<!-- Node7 -->
<g id="Node000007" class="node">
<title>Node7</title>
<g id="a_Node000007"><a xlink:title=" ">
<polygon fill="#e0e0e0" stroke="#999999" points="345.12,-129.75 296.88,-129.75 296.88,-110.5 345.12,-110.5 345.12,-129.75"/>
<text xml:space="preserve" text-anchor="middle" x="321" y="-116.25" font-family="Helvetica,sans-Serif" font-size="10.00">string.h</text>
</a>
</g>
</g>
<!-- Node1&#45;&gt;Node7 -->
<g id="edge6_Node000001_Node000007" class="edge">
<title>Node1&#45;&gt;Node7</title>
<g id="a_edge6_Node000001_Node000007"><a xlink:title=" ">
<path fill="none" stroke="#63b8ff" d="M239.62,-165.34C254.69,-157.16 277.14,-144.96 294.65,-135.44"/>
<polygon fill="#63b8ff" stroke="#63b8ff" points="295.85,-138.77 302.96,-130.93 292.51,-132.62 295.85,-138.77"/>
</a>
</g>
</g>
<!-- Node8 -->
<g id="Node000008" class="node">
<title>Node8</title>
<g id="a_Node000008"><a xlink:title=" ">
<polygon fill="#e0e0e0" stroke="#999999" points="413.25,-129.75 362.75,-129.75 362.75,-110.5 413.25,-110.5 413.25,-129.75"/>
<text xml:space="preserve" text-anchor="middle" x="388" y="-116.25" font-family="Helvetica,sans-Serif" font-size="10.00">unistd.h</text>
</a>
</g>
</g>
<!-- Node1&#45;&gt;Node8 -->
<g id="edge7_Node000001_Node000008" class="edge">
<title>Node1&#45;&gt;Node8</title>
<g id="a_edge7_Node000001_Node000008"><a xlink:title=" ">
<path fill="none" stroke="#63b8ff" d="M240.66,-168.68C267.06,-160.15 317.41,-143.91 351.83,-132.8"/>
<polygon fill="#63b8ff" stroke="#63b8ff" points="352.52,-136.25 360.96,-129.85 350.37,-129.59 352.52,-136.25"/>
</a>
</g>
</g>
<!-- Node9 -->
<g id="Node000009" class="node">
<title>Node9</title>
<g id="a_Node000009"><a xlink:href="builtin_8h.html" target="_top" xlink:title=" ">
<polygon fill="white" stroke="#666666" points="480.88,-129.75 431.12,-129.75 431.12,-110.5 480.88,-110.5 480.88,-129.75"/>
<text xml:space="preserve" text-anchor="middle" x="456" y="-116.25" font-family="Helvetica,sans-Serif" font-size="10.00">builtin.h</text>
</a>
</g>
</g>
<!-- Node1&#45;&gt;Node9 -->
<g id="edge8_Node000001_Node000009" class="edge">
<title>Node1&#45;&gt;Node9</title>
<g id="a_edge8_Node000001_Node000009"><a xlink:title=" ">
<path fill="none" stroke="#63b8ff" d="M240.61,-170.6C273.66,-163.47 347.5,-147.39 419.67,-130.25"/>
<polygon fill="#63b8ff" stroke="#63b8ff" points="420.38,-133.68 429.3,-127.96 418.76,-126.87 420.38,-133.68"/>
</a>
</g>
</g>
<!-- Node10 -->
<g id="Node000010" class="node">
<title>Node10</title>
<g id="a_Node000010"><a xlink:href="shell_8h.html" target="_top" xlink:title=" ">
<polygon fill="white" stroke="#666666" points="421.75,-74.5 368.25,-74.5 368.25,-55.25 421.75,-55.25 421.75,-74.5"/>
<text xml:space="preserve" text-anchor="middle" x="395" y="-61" font-family="Helvetica,sans-Serif" font-size="10.00">../shell.h</text>
</a>
</g>
</g>
<!-- Node9&#45;&gt;Node10 -->
<g id="edge9_Node000009_Node000010" class="edge">
<title>Node9&#45;&gt;Node10</title>
<g id="a_edge9_Node000009_Node000010"><a xlink:title=" ">
<path fill="none" stroke="#63b8ff" d="M445.65,-110.09C436.92,-102.47 424.21,-91.37 413.7,-82.2"/>
<polygon fill="#63b8ff" stroke="#63b8ff" points="416.17,-79.71 406.34,-75.77 411.57,-84.98 416.17,-79.71"/>
</a>
</g>
</g>
<!-- Node10&#45;&gt;Node4 -->
<g id="edge10_Node000010_Node000004" class="edge">
<title>Node10&#45;&gt;Node4</title>
<g id="a_edge10_Node000010_Node000004"><a xlink:title=" ">
<path fill="none" stroke="#63b8ff" d="M372.44,-54.84C351.23,-46.35 319.23,-33.54 295.12,-23.89"/>
<polygon fill="#63b8ff" stroke="#63b8ff" points="296.66,-20.73 286.08,-20.27 294.06,-27.23 296.66,-20.73"/>
</a>
</g>
</g>
<!-- Node11 -->
<g id="Node000011" class="node">
<title>Node11</title>
<g id="a_Node000011"><a xlink:title=" ">
<polygon fill="#e0e0e0" stroke="#999999" points="420.62,-19.25 369.38,-19.25 369.38,0 420.62,0 420.62,-19.25"/>
<text xml:space="preserve" text-anchor="middle" x="395" y="-5.75" font-family="Helvetica,sans-Serif" font-size="10.00">stddef.h</text>
</a>
</g>
</g>
<!-- Node10&#45;&gt;Node11 -->
<g id="edge11_Node000010_Node000011" class="edge">
<title>Node10&#45;&gt;Node11</title>
<g id="a_edge11_Node000010_Node000011"><a xlink:title=" ">
<path fill="none" stroke="#63b8ff" d="M395,-55.08C395,-48.57 395,-39.42 395,-31.12"/>
<polygon fill="#63b8ff" stroke="#63b8ff" points="398.5,-31.12 395,-21.12 391.5,-31.12 398.5,-31.12"/>
</a>
</g>
</g>
</g>
</svg>
