<?xml version="1.0" encoding="UTF-8" standalone="no"?>
<!DOCTYPE svg PUBLIC "-//W3C//DTD SVG 1.1//EN"
 "http://www.w3.org/Graphics/SVG/1.1/DTD/svg11.dtd">
<!-- Generated by graphviz version 14.0.0 (20250921.2048)
 -->
<!-- Title: ctx_yaml_load_file Pages: 1 -->
<svg width="599pt" height="175pt"
 viewBox="0.00 0.00 599.00 175.00" xmlns="http://www.w3.org/2000/svg" xmlns:xlink="http://www.w3.org/1999/xlink">
<g id="graph0" class="graph" transform="scale(1 1) rotate(0) translate(4 171.25)">
<title>ctx_yaml_load_file</title>
<!-- Node1 -->
<g id="Node000001" class="node">
<title>Node1</title>
<g id="a_Node000001"><a xlink:title=" ">
<polygon fill="#999999" stroke="#666666" points="97,-56.25 0,-56.25 0,-37 97,-37 97,-56.25"/>
<text xml:space="preserve" text-anchor="middle" x="48.5" y="-42.75" font-family="Helvetica,sans-Serif" font-size="10.00">ctx_yaml_load_file</text>
</a>
</g>
</g>
<!-- Node2 -->
<g id="Node000002" class="node">
<title>Node2</title>
<g id="a_Node000002"><a xlink:href="yaml__parser_8c.html#aad6c5f174e208fa806d28a78c060205f" target="_top" xlink:title=" ">
<polygon fill="white" stroke="#666666" points="247.25,-84.25 133,-84.25 133,-65 247.25,-65 247.25,-84.25"/>
<text xml:space="preserve" text-anchor="middle" x="190.12" y="-70.75" font-family="Helvetica,sans-Serif" font-size="10.00">ctx_yaml_parse_string</text>
</a>
</g>
</g>
<!-- Node1&#45;&gt;Node2 -->
<g id="edge1_Node000001_Node000002" class="edge">
<title>Node1&#45;&gt;Node2</title>
<g id="a_edge1_Node000001_Node000002"><a xlink:title=" ">
<path fill="none" stroke="#63b8ff" d="M97.16,-56.18C107.02,-58.16 117.54,-60.27 127.82,-62.33"/>
<polygon fill="#63b8ff" stroke="#63b8ff" points="126.84,-65.7 137.34,-64.24 128.22,-58.84 126.84,-65.7"/>
</a>
</g>
</g>
<!-- Node7 -->
<g id="Node000007" class="node">
<title>Node7</title>
<g id="a_Node000007"><a xlink:href="yaml__parser_8c.html#a67ed47390d6bf475ea0d72e8e7dda70e" target="_top" xlink:title=" ">
<polygon fill="white" stroke="#666666" points="403.12,-19.25 303.88,-19.25 303.88,0 403.12,0 403.12,-19.25"/>
<text xml:space="preserve" text-anchor="middle" x="353.5" y="-5.75" font-family="Helvetica,sans-Serif" font-size="10.00">ctx_yaml_set_error</text>
</a>
</g>
</g>
<!-- Node1&#45;&gt;Node7 -->
<g id="edge9_Node000001_Node000007" class="edge">
<title>Node1&#45;&gt;Node7</title>
<g id="a_edge9_Node000001_Node000007"><a xlink:title=" ">
<path fill="none" stroke="#63b8ff" d="M97.18,-40.8C149.88,-34.37 234.87,-23.99 292.17,-16.99"/>
<polygon fill="#63b8ff" stroke="#63b8ff" points="292.59,-20.47 302.09,-15.78 291.74,-13.52 292.59,-20.47"/>
</a>
</g>
</g>
<!-- Node3 -->
<g id="Node000003" class="node">
<title>Node3</title>
<g id="a_Node000003"><a xlink:href="yaml__parser_8c.html#ac79f5350d3718ac8bf51500871de5226" target="_top" xlink:title=" ">
<polygon fill="white" stroke="#666666" points="423.75,-167.25 283.25,-167.25 283.25,-148 423.75,-148 423.75,-167.25"/>
<text xml:space="preserve" text-anchor="middle" x="353.5" y="-153.75" font-family="Helvetica,sans-Serif" font-size="10.00">ctx_yaml_document_append</text>
</a>
</g>
</g>
<!-- Node2&#45;&gt;Node3 -->
<g id="edge2_Node000002_Node000003" class="edge">
<title>Node2&#45;&gt;Node3</title>
<g id="a_edge2_Node000002_Node000003"><a xlink:title=" ">
<path fill="none" stroke="#63b8ff" d="M202.49,-84.73C219.09,-98.98 251.47,-124.88 283.25,-139.62 286.57,-141.17 290.05,-142.59 293.6,-143.91"/>
<polygon fill="#63b8ff" stroke="#63b8ff" points="292.37,-147.19 302.97,-147.05 294.6,-140.55 292.37,-147.19"/>
</a>
</g>
</g>
<!-- Node5 -->
<g id="Node000005" class="node">
<title>Node5</title>
<g id="a_Node000005"><a xlink:href="yaml__parser_8c.html#a217711991e84b9ab64a5ccfc29ca32c6" target="_top" xlink:title=" ">
<polygon fill="white" stroke="#666666" points="416.25,-130.25 290.75,-130.25 290.75,-111 416.25,-111 416.25,-130.25"/>
<text xml:space="preserve" text-anchor="middle" x="353.5" y="-116.75" font-family="Helvetica,sans-Serif" font-size="10.00">ctx_yaml_document_free</text>
</a>
</g>
</g>
<!-- Node2&#45;&gt;Node5 -->
<g id="edge4_Node000002_Node000005" class="edge">
<title>Node2&#45;&gt;Node5</title>
<g id="a_edge4_Node000002_Node000005"><a xlink:title=" ">
<path fill="none" stroke="#63b8ff" d="M223.01,-84.66C240.7,-90.15 263.14,-96.96 283.25,-102.62 289.15,-104.29 295.36,-105.98 301.52,-107.63"/>
<polygon fill="#63b8ff" stroke="#63b8ff" points="300.48,-110.97 311.05,-110.14 302.27,-104.2 300.48,-110.97"/>
</a>
</g>
</g>
<!-- Node2&#45;&gt;Node7 -->
<g id="edge6_Node000002_Node000007" class="edge">
<title>Node2&#45;&gt;Node7</title>
<g id="a_edge6_Node000002_Node000007"><a xlink:title=" ">
<path fill="none" stroke="#63b8ff" d="M207.93,-64.64C226.02,-54.23 255.89,-38.02 283.25,-27.62 287.63,-25.96 292.22,-24.4 296.86,-22.94"/>
<polygon fill="#63b8ff" stroke="#63b8ff" points="297.67,-26.35 306.27,-20.17 295.69,-19.64 297.67,-26.35"/>
</a>
</g>
</g>
<!-- Node8 -->
<g id="Node000008" class="node">
<title>Node8</title>
<g id="a_Node000008"><a xlink:href="yaml__parser_8c.html#a3f6195a14acab3736505de15e105be5c" target="_top" xlink:title=" ">
<polygon fill="white" stroke="#666666" points="392.25,-93.25 314.75,-93.25 314.75,-74 392.25,-74 392.25,-93.25"/>
<text xml:space="preserve" text-anchor="middle" x="353.5" y="-79.75" font-family="Helvetica,sans-Serif" font-size="10.00">ctx_yaml_trim</text>
</a>
</g>
</g>
<!-- Node2&#45;&gt;Node8 -->
<g id="edge7_Node000002_Node000008" class="edge">
<title>Node2&#45;&gt;Node8</title>
<g id="a_edge7_Node000002_Node000008"><a xlink:title=" ">
<path fill="none" stroke="#63b8ff" d="M247.57,-77.77C265.67,-78.78 285.57,-79.89 303.13,-80.87"/>
<polygon fill="#63b8ff" stroke="#63b8ff" points="302.88,-84.36 313.06,-81.43 303.27,-77.37 302.88,-84.36"/>
</a>
</g>
</g>
<!-- Node9 -->
<g id="Node000009" class="node">
<title>Node9</title>
<g id="a_Node000009"><a xlink:href="yaml__parser_8c.html#a99e7fa62d49c86bf0dcc0b23acd1a01e" target="_top" xlink:title=" ">
<polygon fill="white" stroke="#666666" points="401.25,-56.25 305.75,-56.25 305.75,-37 401.25,-37 401.25,-56.25"/>
<text xml:space="preserve" text-anchor="middle" x="353.5" y="-42.75" font-family="Helvetica,sans-Serif" font-size="10.00">ctx_yaml_unquote</text>
</a>
</g>
</g>
<!-- Node2&#45;&gt;Node9 -->
<g id="edge8_Node000002_Node000009" class="edge">
<title>Node2&#45;&gt;Node9</title>
<g id="a_edge8_Node000002_Node000009"><a xlink:title=" ">
<path fill="none" stroke="#63b8ff" d="M247.57,-64.83C262.63,-62.22 278.94,-59.39 294.11,-56.76"/>
<polygon fill="#63b8ff" stroke="#63b8ff" points="294.7,-60.21 303.95,-55.05 293.5,-53.31 294.7,-60.21"/>
</a>
</g>
</g>
<!-- Node4 -->
<g id="Node000004" class="node">
<title>Node4</title>
<g id="a_Node000004"><a xlink:href="yaml__parser_8c.html#a78dbe8c7a5af4f4d19f449954e5868c7" target="_top" xlink:title=" ">
<polygon fill="white" stroke="#666666" points="569.12,-167.25 481.12,-167.25 481.12,-148 569.12,-148 569.12,-167.25"/>
<text xml:space="preserve" text-anchor="middle" x="525.12" y="-153.75" font-family="Helvetica,sans-Serif" font-size="10.00">ctx_yaml_strdup</text>
</a>
</g>
</g>
<!-- Node3&#45;&gt;Node4 -->
<g id="edge3_Node000003_Node000004" class="edge">
<title>Node3&#45;&gt;Node4</title>
<g id="a_edge3_Node000003_Node000004"><a xlink:title=" ">
<path fill="none" stroke="#63b8ff" d="M423.98,-157.62C439.14,-157.62 454.98,-157.62 469.47,-157.62"/>
<polygon fill="#63b8ff" stroke="#63b8ff" points="469.24,-161.13 479.24,-157.63 469.24,-154.13 469.24,-161.13"/>
</a>
</g>
</g>
<!-- Node6 -->
<g id="Node000006" class="node">
<title>Node6</title>
<g id="a_Node000006"><a xlink:href="yaml__parser_8c.html#a87d2fec306e08d3905f1bcae848d8eae" target="_top" xlink:title=" ">
<polygon fill="white" stroke="#666666" points="590.5,-130.25 459.75,-130.25 459.75,-111 590.5,-111 590.5,-130.25"/>
<text xml:space="preserve" text-anchor="middle" x="525.12" y="-116.75" font-family="Helvetica,sans-Serif" font-size="10.00">ctx_yaml_document_reset</text>
</a>
</g>
</g>
<!-- Node5&#45;&gt;Node6 -->
<g id="edge5_Node000005_Node000006" class="edge">
<title>Node5&#45;&gt;Node6</title>
<g id="a_edge5_Node000005_Node000006"><a xlink:title=" ">
<path fill="none" stroke="#63b8ff" d="M416.7,-120.62C426.91,-120.62 437.58,-120.62 448.08,-120.62"/>
<polygon fill="#63b8ff" stroke="#63b8ff" points="447.86,-124.13 457.86,-120.63 447.86,-117.13 447.86,-124.13"/>
</a>
</g>
</g>
</g>
</svg>
