<?xml version="1.0" encoding="UTF-8" standalone="no"?>
<!DOCTYPE svg PUBLIC "-//W3C//DTD SVG 1.1//EN"
 "http://www.w3.org/Graphics/SVG/1.1/DTD/svg11.dtd">
<!-- Generated by graphviz version 14.0.0 (20250921.2048)
 -->
<!-- Title: echo.c Pages: 1 -->
<svg width="203pt" height="193pt"
 viewBox="0.00 0.00 203.00 193.00" xmlns="http://www.w3.org/2000/svg" xmlns:xlink="http://www.w3.org/1999/xlink">
<g id="graph0" class="graph" transform="scale(1 1) rotate(0) translate(4 189)">
<title>echo.c</title>
<!-- Node1 -->
<g id="Node000001" class="node">
<title>Node1</title>
<g id="a_Node000001"><a xlink:title=" ">
<polygon fill="#999999" stroke="#666666" points="92.87,-185 47.62,-185 47.62,-165.75 92.87,-165.75 92.87,-185"/>
<text xml:space="preserve" text-anchor="middle" x="70.25" y="-171.5" font-family="Helvetica,sans-Serif" font-size="10.00">echo.c</text>
</a>
</g>
</g>
<!-- Node2 -->
<g id="Node000002" class="node">
<title>Node2</title>
<g id="a_Node000002"><a xlink:title=" ">
<polygon fill="#e0e0e0" stroke="#999999" points="70.12,-19.25 14.37,-19.25 14.37,0 70.12,0 70.12,-19.25"/>
<text xml:space="preserve" text-anchor="middle" x="42.25" y="-5.75" font-family="Helvetica,sans-Serif" font-size="10.00">stdbool.h</text>
</a>
</g>
</g>
<!-- Node1&#45;&gt;Node2 -->
<g id="edge1_Node000001_Node000002" class="edge">
<title>Node1&#45;&gt;Node2</title>
<g id="a_edge1_Node000001_Node000002"><a xlink:title=" ">
<path fill="none" stroke="#63b8ff" d="M47.82,-165.39C33.08,-158.16 14.96,-146.44 6.25,-129.75 -11.25,-96.23 12,-52.87 28.46,-28.79"/>
<polygon fill="#63b8ff" stroke="#63b8ff" points="31.09,-31.13 34.08,-20.96 25.4,-27.04 31.09,-31.13"/>
</a>
</g>
</g>
<!-- Node3 -->
<g id="Node000003" class="node">
<title>Node3</title>
<g id="a_Node000003"><a xlink:title=" ">
<polygon fill="#e0e0e0" stroke="#999999" points="60.87,-129.75 15.62,-129.75 15.62,-110.5 60.87,-110.5 60.87,-129.75"/>
<text xml:space="preserve" text-anchor="middle" x="38.25" y="-116.25" font-family="Helvetica,sans-Serif" font-size="10.00">stdio.h</text>
</a>
</g>
</g>
<!-- Node1&#45;&gt;Node3 -->
<g id="edge2_Node000001_Node000003" class="edge">
<title>Node1&#45;&gt;Node3</title>
<g id="a_edge2_Node000001_Node000003"><a xlink:title=" ">
<path fill="none" stroke="#63b8ff" d="M64.96,-165.58C60.77,-158.61 54.77,-148.62 49.51,-139.87"/>
<polygon fill="#63b8ff" stroke="#63b8ff" points="52.58,-138.18 44.42,-131.41 46.58,-141.78 52.58,-138.18"/>
</a>
</g>
</g>
<!-- Node4 -->
<g id="Node000004" class="node">
<title>Node4</title>
<g id="a_Node000004"><a xlink:title=" ">
<polygon fill="#e0e0e0" stroke="#999999" points="127.37,-129.75 79.12,-129.75 79.12,-110.5 127.37,-110.5 127.37,-129.75"/>
<text xml:space="preserve" text-anchor="middle" x="103.25" y="-116.25" font-family="Helvetica,sans-Serif" font-size="10.00">string.h</text>
</a>
</g>
</g>
<!-- Node1&#45;&gt;Node4 -->
<g id="edge3_Node000001_Node000004" class="edge">
<title>Node1&#45;&gt;Node4</title>
<g id="a_edge3_Node000001_Node000004"><a xlink:title=" ">
<path fill="none" stroke="#63b8ff" d="M75.7,-165.58C80.02,-158.61 86.21,-148.62 91.63,-139.87"/>
<polygon fill="#63b8ff" stroke="#63b8ff" points="94.59,-141.74 96.88,-131.4 88.64,-138.05 94.59,-141.74"/>
</a>
</g>
</g>
<!-- Node5 -->
<g id="Node000005" class="node">
<title>Node5</title>
<g id="a_Node000005"><a xlink:href="builtin_8h.html" target="_top" xlink:title=" ">
<polygon fill="white" stroke="#666666" points="195.12,-129.75 145.37,-129.75 145.37,-110.5 195.12,-110.5 195.12,-129.75"/>
<text xml:space="preserve" text-anchor="middle" x="170.25" y="-116.25" font-family="Helvetica,sans-Serif" font-size="10.00">builtin.h</text>
</a>
</g>
</g>
<!-- Node1&#45;&gt;Node5 -->
<g id="edge4_Node000001_Node000005" class="edge">
<title>Node1&#45;&gt;Node5</title>
<g id="a_edge4_Node000001_Node000005"><a xlink:title=" ">
<path fill="none" stroke="#63b8ff" d="M87.21,-165.34C102.51,-157.19 125.28,-145.07 143.11,-135.58"/>
<polygon fill="#63b8ff" stroke="#63b8ff" points="144.68,-138.7 151.86,-130.91 141.39,-132.52 144.68,-138.7"/>
</a>
</g>
</g>
<!-- Node6 -->
<g id="Node000006" class="node">
<title>Node6</title>
<g id="a_Node000006"><a xlink:href="shell_8h.html" target="_top" xlink:title=" ">
<polygon fill="white" stroke="#666666" points="169,-74.5 115.5,-74.5 115.5,-55.25 169,-55.25 169,-74.5"/>
<text xml:space="preserve" text-anchor="middle" x="142.25" y="-61" font-family="Helvetica,sans-Serif" font-size="10.00">../shell.h</text>
</a>
</g>
</g>
<!-- Node5&#45;&gt;Node6 -->
<g id="edge5_Node000005_Node000006" class="edge">
<title>Node5&#45;&gt;Node6</title>
<g id="a_edge5_Node000005_Node000006"><a xlink:title=" ">
<path fill="none" stroke="#63b8ff" d="M165.62,-110.33C162,-103.44 156.82,-93.59 152.26,-84.91"/>
<polygon fill="#63b8ff" stroke="#63b8ff" points="155.43,-83.42 147.67,-76.2 149.23,-86.68 155.43,-83.42"/>
</a>
</g>
</g>
<!-- Node6&#45;&gt;Node2 -->
<g id="edge6_Node000006_Node000002" class="edge">
<title>Node6&#45;&gt;Node2</title>
<g id="a_edge6_Node000006_Node000002"><a xlink:title=" ">
<path fill="none" stroke="#63b8ff" d="M125.28,-54.84C109.98,-46.69 87.21,-34.57 69.38,-25.08"/>
<polygon fill="#63b8ff" stroke="#63b8ff" points="71.1,-22.02 60.63,-20.41 67.81,-28.2 71.1,-22.02"/>
</a>
</g>
</g>
<!-- Node7 -->
<g id="Node000007" class="node">
<title>Node7</title>
<g id="a_Node000007"><a xlink:title=" ">
<polygon fill="#e0e0e0" stroke="#999999" points="167.87,-19.25 116.62,-19.25 116.62,0 167.87,0 167.87,-19.25"/>
<text xml:space="preserve" text-anchor="middle" x="142.25" y="-5.75" font-family="Helvetica,sans-Serif" font-size="10.00">stddef.h</text>
</a>
</g>
</g>
<!-- Node6&#45;&gt;Node7 -->
<g id="edge7_Node000006_Node000007" class="edge">
<title>Node6&#45;&gt;Node7</title>
<g id="a_edge7_Node000006_Node000007"><a xlink:title=" ">
<path fill="none" stroke="#63b8ff" d="M142.25,-55.08C142.25,-48.57 142.25,-39.42 142.25,-31.12"/>
<polygon fill="#63b8ff" stroke="#63b8ff" points="145.75,-31.12 142.25,-21.12 138.75,-31.12 145.75,-31.12"/>
</a>
</g>
</g>
</g>
</svg>
