<?xml version="1.0" encoding="UTF-8" standalone="no"?>
<!DOCTYPE svg PUBLIC "-//W3C//DTD SVG 1.1//EN"
 "http://www.w3.org/Graphics/SVG/1.1/DTD/svg11.dtd">
<!-- Generated by graphviz version 14.0.0 (20250921.2048)
 -->
<!-- Title: execute_child_external Pages: 1 -->
<svg width="377pt" height="27pt"
 viewBox="0.00 0.00 377.00 27.00" xmlns="http://www.w3.org/2000/svg" xmlns:xlink="http://www.w3.org/1999/xlink">
<g id="graph0" class="graph" transform="scale(1 1) rotate(0) translate(4 23.25)">
<title>execute_child_external</title>
<!-- Node1 -->
<g id="Node000001" class="node">
<title>Node1</title>
<g id="a_Node000001"><a xlink:title=" ">
<polygon fill="#999999" stroke="#666666" points="115.75,-19.25 0,-19.25 0,0 115.75,0 115.75,-19.25"/>
<text xml:space="preserve" text-anchor="middle" x="57.88" y="-5.75" font-family="Helvetica,sans-Serif" font-size="10.00">execute_child_external</text>
</a>
</g>
</g>
<!-- Node2 -->
<g id="Node000002" class="node">
<title>Node2</title>
<g id="a_Node000002"><a xlink:href="executor_8c.html#a1d69266d9e634c8ebfb4934e6eb1c7f4" target="_top" xlink:title=" ">
<polygon fill="white" stroke="#666666" points="245.75,-19.25 151.75,-19.25 151.75,0 245.75,0 245.75,-19.25"/>
<text xml:space="preserve" text-anchor="middle" x="198.75" y="-5.75" font-family="Helvetica,sans-Serif" font-size="10.00">apply_child_redirs</text>
</a>
</g>
</g>
<!-- Node1&#45;&gt;Node2 -->
<g id="edge1_Node000001_Node000002" class="edge">
<title>Node1&#45;&gt;Node2</title>
<g id="a_edge1_Node000001_Node000002"><a xlink:title=" ">
<path fill="none" stroke="#63b8ff" d="M116.16,-9.62C124.09,-9.62 132.24,-9.62 140.18,-9.62"/>
<polygon fill="#63b8ff" stroke="#63b8ff" points="140.09,-13.13 150.09,-9.63 140.09,-6.13 140.09,-13.13"/>
</a>
</g>
</g>
<!-- Node3 -->
<g id="Node000003" class="node">
<title>Node3</title>
<g id="a_Node000003"><a xlink:href="executor_8c.html#ac02ab15bcfd6667d235f5087d4c828c6" target="_top" xlink:title=" ">
<polygon fill="white" stroke="#666666" points="369,-19.25 281.75,-19.25 281.75,0 369,0 369,-19.25"/>
<text xml:space="preserve" text-anchor="middle" x="325.38" y="-5.75" font-family="Helvetica,sans-Serif" font-size="10.00">open_redirection</text>
</a>
</g>
</g>
<!-- Node2&#45;&gt;Node3 -->
<g id="edge2_Node000002_Node000003" class="edge">
<title>Node2&#45;&gt;Node3</title>
<g id="a_edge2_Node000002_Node000003"><a xlink:title=" ">
<path fill="none" stroke="#63b8ff" d="M246.16,-9.62C254.06,-9.62 262.33,-9.62 270.4,-9.62"/>
<polygon fill="#63b8ff" stroke="#63b8ff" points="270.13,-13.13 280.13,-9.63 270.13,-6.13 270.13,-13.13"/>
</a>
</g>
</g>
</g>
</svg>
