<?xml version="1.0" encoding="UTF-8" standalone="no"?>
<!DOCTYPE svg PUBLIC "-//W3C//DTD SVG 1.1//EN"
 "http://www.w3.org/Graphics/SVG/1.1/DTD/svg11.dtd">
<!-- Generated by graphviz version 14.0.0 (20250921.2048)
 -->
<!-- Title: executor.h Pages: 1 -->
<svg width="147pt" height="193pt"
 viewBox="0.00 0.00 147.00 193.00" xmlns="http://www.w3.org/2000/svg" xmlns:xlink="http://www.w3.org/1999/xlink">
<g id="graph0" class="graph" transform="scale(1 1) rotate(0) translate(4 189)">
<title>executor.h</title>
<!-- Node1 -->
<g id="Node000001" class="node">
<title>Node1</title>
<g id="a_Node000001"><a xlink:title=" ">
<polygon fill="#999999" stroke="#666666" points="85.25,-185 24.25,-185 24.25,-165.75 85.25,-165.75 85.25,-185"/>
<text xml:space="preserve" text-anchor="middle" x="54.75" y="-171.5" font-family="Helvetica,sans-Serif" font-size="10.00">executor.h</text>
</a>
</g>
</g>
<!-- Node2 -->
<g id="Node000002" class="node">
<title>Node2</title>
<g id="a_Node000002"><a xlink:href="ast_8h.html" target="_top" xlink:title=" ">
<polygon fill="white" stroke="#666666" points="126.12,-129.75 49.38,-129.75 49.38,-110.5 126.12,-110.5 126.12,-129.75"/>
<text xml:space="preserve" text-anchor="middle" x="87.75" y="-116.25" font-family="Helvetica,sans-Serif" font-size="10.00">../parser/ast.h</text>
</a>
</g>
</g>
<!-- Node1&#45;&gt;Node2 -->
<g id="edge1_Node000001_Node000002" class="edge">
<title>Node1&#45;&gt;Node2</title>
<g id="a_edge1_Node000001_Node000002"><a xlink:title=" ">
<path fill="none" stroke="#63b8ff" d="M60.2,-165.58C64.52,-158.61 70.71,-148.62 76.13,-139.87"/>
<polygon fill="#63b8ff" stroke="#63b8ff" points="79.09,-141.74 81.39,-131.4 73.14,-138.05 79.09,-141.74"/>
</a>
</g>
</g>
<!-- Node5 -->
<g id="Node000005" class="node">
<title>Node5</title>
<g id="a_Node000005"><a xlink:href="shell_8h.html" target="_top" xlink:title=" ">
<polygon fill="white" stroke="#666666" points="53.5,-74.5 0,-74.5 0,-55.25 53.5,-55.25 53.5,-74.5"/>
<text xml:space="preserve" text-anchor="middle" x="26.75" y="-61" font-family="Helvetica,sans-Serif" font-size="10.00">../shell.h</text>
</a>
</g>
</g>
<!-- Node1&#45;&gt;Node5 -->
<g id="edge7_Node000001_Node000005" class="edge">
<title>Node1&#45;&gt;Node5</title>
<g id="a_edge7_Node000001_Node000005"><a xlink:title=" ">
<path fill="none" stroke="#63b8ff" d="M51.73,-165.55C48.72,-156.6 44.09,-142.31 40.75,-129.75 36.86,-115.1 33.22,-98.36 30.62,-85.69"/>
<polygon fill="#63b8ff" stroke="#63b8ff" points="34.1,-85.22 28.71,-76.1 27.23,-86.59 34.1,-85.22"/>
</a>
</g>
</g>
<!-- Node3 -->
<g id="Node000003" class="node">
<title>Node3</title>
<g id="a_Node000003"><a xlink:title=" ">
<polygon fill="#e0e0e0" stroke="#999999" points="64.62,-19.25 8.88,-19.25 8.88,0 64.62,0 64.62,-19.25"/>
<text xml:space="preserve" text-anchor="middle" x="36.75" y="-5.75" font-family="Helvetica,sans-Serif" font-size="10.00">stdbool.h</text>
</a>
</g>
</g>
<!-- Node2&#45;&gt;Node3 -->
<g id="edge2_Node000002_Node000003" class="edge">
<title>Node2&#45;&gt;Node3</title>
<g id="a_edge2_Node000002_Node000003"><a xlink:title=" ">
<path fill="none" stroke="#63b8ff" d="M84.77,-110.26C80.46,-97.76 71.98,-74.33 62.75,-55.25 58.51,-46.48 53.19,-37.12 48.46,-29.25"/>
<polygon fill="#63b8ff" stroke="#63b8ff" points="51.56,-27.61 43.35,-20.92 45.6,-31.27 51.56,-27.61"/>
</a>
</g>
</g>
<!-- Node4 -->
<g id="Node000004" class="node">
<title>Node4</title>
<g id="a_Node000004"><a xlink:title=" ">
<polygon fill="#e0e0e0" stroke="#999999" points="139.38,-19.25 88.12,-19.25 88.12,0 139.38,0 139.38,-19.25"/>
<text xml:space="preserve" text-anchor="middle" x="113.75" y="-5.75" font-family="Helvetica,sans-Serif" font-size="10.00">stddef.h</text>
</a>
</g>
</g>
<!-- Node2&#45;&gt;Node4 -->
<g id="edge3_Node000002_Node000004" class="edge">
<title>Node2&#45;&gt;Node4</title>
<g id="a_edge3_Node000002_Node000004"><a xlink:title=" ">
<path fill="none" stroke="#63b8ff" d="M89.88,-110.25C94.01,-93 103.22,-54.58 108.91,-30.81"/>
<polygon fill="#63b8ff" stroke="#63b8ff" points="112.31,-31.64 111.24,-21.1 105.51,-30.01 112.31,-31.64"/>
</a>
</g>
</g>
<!-- Node2&#45;&gt;Node5 -->
<g id="edge4_Node000002_Node000005" class="edge">
<title>Node2&#45;&gt;Node5</title>
<g id="a_edge4_Node000002_Node000005"><a xlink:title=" ">
<path fill="none" stroke="#63b8ff" d="M77.4,-110.09C68.67,-102.47 55.96,-91.37 45.45,-82.2"/>
<polygon fill="#63b8ff" stroke="#63b8ff" points="47.92,-79.71 38.09,-75.77 43.32,-84.98 47.92,-79.71"/>
</a>
</g>
</g>
<!-- Node5&#45;&gt;Node3 -->
<g id="edge5_Node000005_Node000003" class="edge">
<title>Node5&#45;&gt;Node3</title>
<g id="a_edge5_Node000005_Node000003"><a xlink:title=" ">
<path fill="none" stroke="#63b8ff" d="M28.4,-55.08C29.64,-48.49 31.38,-39.21 32.96,-30.82"/>
<polygon fill="#63b8ff" stroke="#63b8ff" points="36.38,-31.57 34.78,-21.1 29.5,-30.28 36.38,-31.57"/>
</a>
</g>
</g>
<!-- Node5&#45;&gt;Node4 -->
<g id="edge6_Node000005_Node000004" class="edge">
<title>Node5&#45;&gt;Node4</title>
<g id="a_edge6_Node000005_Node000004"><a xlink:title=" ">
<path fill="none" stroke="#63b8ff" d="M41.51,-54.84C54.63,-46.81 74.07,-34.91 89.48,-25.48"/>
<polygon fill="#63b8ff" stroke="#63b8ff" points="90.93,-28.7 97.63,-20.49 87.27,-22.73 90.93,-28.7"/>
</a>
</g>
</g>
</g>
</svg>
