<?xml version="1.0" encoding="UTF-8" standalone="no"?>
<!DOCTYPE svg PUBLIC "-//W3C//DTD SVG 1.1//EN"
 "http://www.w3.org/Graphics/SVG/1.1/DTD/svg11.dtd">
<!-- Generated by graphviz version 14.0.0 (20250921.2048)
 -->
<!-- Title: gs_execute_pipeline Pages: 1 -->
<svg width="1066pt" height="346pt"
 viewBox="0.00 0.00 1066.00 346.00" xmlns="http://www.w3.org/2000/svg" xmlns:xlink="http://www.w3.org/1999/xlink">
<g id="graph0" class="graph" transform="scale(1 1) rotate(0) translate(4 342.25)">
<title>gs_execute_pipeline</title>
<!-- Node1 -->
<g id="Node000001" class="node">
<title>Node1</title>
<g id="a_Node000001"><a xlink:title=" ">
<polygon fill="#999999" stroke="#666666" points="104.5,-130.25 0,-130.25 0,-111 104.5,-111 104.5,-130.25"/>
<text xml:space="preserve" text-anchor="middle" x="52.25" y="-116.75" font-family="Helvetica,sans-Serif" font-size="10.00">gs_execute_pipeline</text>
</a>
</g>
</g>
<!-- Node2 -->
<g id="Node000002" class="node">
<title>Node2</title>
<g id="a_Node000002"><a xlink:href="executor_8c.html#a38578d8006aeea83896e6136277a3420" target="_top" xlink:title=" ">
<polygon fill="white" stroke="#666666" points="456,-281.25 315.5,-281.25 315.5,-262 456,-262 456,-281.25"/>
<text xml:space="preserve" text-anchor="middle" x="385.75" y="-267.75" font-family="Helvetica,sans-Serif" font-size="10.00">dispose_prepared_command</text>
</a>
</g>
</g>
<!-- Node1&#45;&gt;Node2 -->
<g id="edge1_Node000001_Node000002" class="edge">
<title>Node1&#45;&gt;Node2</title>
<g id="a_edge1_Node000001_Node000002"><a xlink:title=" ">
<path fill="none" stroke="#63b8ff" d="M58.43,-130.69C69.98,-152.03 100.05,-201.83 140.5,-225.62 189.84,-254.65 253.64,-265.95 303.66,-270.1"/>
<polygon fill="#63b8ff" stroke="#63b8ff" points="303.34,-273.58 313.57,-270.83 303.86,-266.6 303.34,-273.58"/>
</a>
</g>
</g>
<!-- Node4 -->
<g id="Node000004" class="node">
<title>Node4</title>
<g id="a_Node000004"><a xlink:href="executor_8c.html#a06df5dd381b69bd54193289723496e34" target="_top" xlink:title=" ">
<polygon fill="white" stroke="#666666" points="266.75,-93.25 153.25,-93.25 153.25,-74 266.75,-74 266.75,-93.25"/>
<text xml:space="preserve" text-anchor="middle" x="210" y="-79.75" font-family="Helvetica,sans-Serif" font-size="10.00">execute_parent_builtin</text>
</a>
</g>
</g>
<!-- Node1&#45;&gt;Node4 -->
<g id="edge3_Node000001_Node000004" class="edge">
<title>Node1&#45;&gt;Node4</title>
<g id="a_edge3_Node000001_Node000004"><a xlink:title=" ">
<path fill="none" stroke="#63b8ff" d="M95.81,-110.51C114.18,-106.15 135.88,-101 155.34,-96.37"/>
<polygon fill="#63b8ff" stroke="#63b8ff" points="156.1,-99.79 165.02,-94.07 154.48,-92.98 156.1,-99.79"/>
</a>
</g>
</g>
<!-- Node9 -->
<g id="Node000009" class="node">
<title>Node9</title>
<g id="a_Node000009"><a xlink:href="executor_8c.html#a2ab3b9eedfbce8c4645504683c5299e3" target="_top" xlink:title=" ">
<polygon fill="white" stroke="#666666" points="279.5,-56.25 140.5,-56.25 140.5,-37 279.5,-37 279.5,-56.25"/>
<text xml:space="preserve" text-anchor="middle" x="210" y="-42.75" font-family="Helvetica,sans-Serif" font-size="10.00">execute_pipeline_processes</text>
</a>
</g>
</g>
<!-- Node1&#45;&gt;Node9 -->
<g id="edge8_Node000001_Node000009" class="edge">
<title>Node1&#45;&gt;Node9</title>
<g id="a_edge8_Node000001_Node000009"><a xlink:title=" ">
<path fill="none" stroke="#63b8ff" d="M66.11,-110.51C82.51,-98.07 112.15,-77.07 140.5,-64.62 144.1,-63.04 147.87,-61.58 151.71,-60.22"/>
<polygon fill="#63b8ff" stroke="#63b8ff" points="152.76,-63.56 161.19,-57.15 150.6,-56.9 152.76,-63.56"/>
</a>
</g>
</g>
<!-- Node13 -->
<g id="Node000013" class="node">
<title>Node13</title>
<g id="a_Node000013"><a xlink:href="executor_8c.html#a6546ee9f45ec27fb2618b0e53ceeb92f" target="_top" xlink:title=" ">
<polygon fill="white" stroke="#666666" points="258.88,-130.25 161.12,-130.25 161.12,-111 258.88,-111 258.88,-130.25"/>
<text xml:space="preserve" text-anchor="middle" x="210" y="-116.75" font-family="Helvetica,sans-Serif" font-size="10.00">execute_redir_only</text>
</a>
</g>
</g>
<!-- Node1&#45;&gt;Node13 -->
<g id="edge14_Node000001_Node000013" class="edge">
<title>Node1&#45;&gt;Node13</title>
<g id="a_edge14_Node000001_Node000013"><a xlink:title=" ">
<path fill="none" stroke="#63b8ff" d="M104.68,-120.62C119.08,-120.62 134.86,-120.62 149.68,-120.62"/>
<polygon fill="#63b8ff" stroke="#63b8ff" points="149.28,-124.13 159.28,-120.63 149.28,-117.13 149.28,-124.13"/>
</a>
</g>
</g>
<!-- Node14 -->
<g id="Node000014" class="node">
<title>Node14</title>
<g id="a_Node000014"><a xlink:href="executor_8c.html#a8810c167f157bdd60f735d7d05989d19" target="_top" xlink:title=" ">
<polygon fill="white" stroke="#666666" points="258.12,-216.25 161.88,-216.25 161.88,-197 258.12,-197 258.12,-216.25"/>
<text xml:space="preserve" text-anchor="middle" x="210" y="-202.75" font-family="Helvetica,sans-Serif" font-size="10.00">prepare_command</text>
</a>
</g>
</g>
<!-- Node1&#45;&gt;Node14 -->
<g id="edge17_Node000001_Node000014" class="edge">
<title>Node1&#45;&gt;Node14</title>
<g id="a_edge17_Node000001_Node000014"><a xlink:title=" ">
<path fill="none" stroke="#63b8ff" d="M71.42,-130.66C98.38,-145.55 149.21,-173.61 180.97,-191.15"/>
<polygon fill="#63b8ff" stroke="#63b8ff" points="179.17,-194.15 189.62,-195.92 182.56,-188.03 179.17,-194.15"/>
</a>
</g>
</g>
<!-- Node3 -->
<g id="Node000003" class="node">
<title>Node3</title>
<g id="a_Node000003"><a xlink:href="executor_8c.html#a458985a964233acc6db1a7f557b40c6c" target="_top" xlink:title=" ">
<polygon fill="white" stroke="#666666" points="618.25,-338.25 492,-338.25 492,-319 618.25,-319 618.25,-338.25"/>
<text xml:space="preserve" text-anchor="middle" x="555.12" y="-324.75" font-family="Helvetica,sans-Serif" font-size="10.00">dispose_expanded_redirs</text>
</a>
</g>
</g>
<!-- Node2&#45;&gt;Node3 -->
<g id="edge2_Node000002_Node000003" class="edge">
<title>Node2&#45;&gt;Node3</title>
<g id="a_edge2_Node000002_Node000003"><a xlink:title=" ">
<path fill="none" stroke="#63b8ff" d="M412.09,-281.6C433.29,-289.81 464.42,-301.53 492,-310.62 496.75,-312.19 501.72,-313.76 506.7,-315.27"/>
<polygon fill="#63b8ff" stroke="#63b8ff" points="505.49,-318.56 516.07,-318.07 507.49,-311.86 505.49,-318.56"/>
</a>
</g>
</g>
<!-- Node5 -->
<g id="Node000005" class="node">
<title>Node5</title>
<g id="a_Node000005"><a xlink:href="executor_8c.html#a73fa3c33ee09db9f3ddb1e960814af9f" target="_top" xlink:title=" ">
<polygon fill="white" stroke="#666666" points="436.12,-130.25 335.38,-130.25 335.38,-111 436.12,-111 436.12,-130.25"/>
<text xml:space="preserve" text-anchor="middle" x="385.75" y="-116.75" font-family="Helvetica,sans-Serif" font-size="10.00">apply_parent_redirs</text>
</a>
</g>
</g>
<!-- Node4&#45;&gt;Node5 -->
<g id="edge4_Node000004_Node000005" class="edge">
<title>Node4&#45;&gt;Node5</title>
<g id="a_edge4_Node000004_Node000005"><a xlink:title=" ">
<path fill="none" stroke="#63b8ff" d="M258.48,-93.74C279.36,-98.18 304.08,-103.45 326.1,-108.14"/>
<polygon fill="#63b8ff" stroke="#63b8ff" points="325.34,-111.55 335.85,-110.21 326.8,-104.71 325.34,-111.55"/>
</a>
</g>
</g>
<!-- Node8 -->
<g id="Node000008" class="node">
<title>Node8</title>
<g id="a_Node000008"><a xlink:href="executor_8c.html#a97eaebe3cd036f8804fa4c47f0938384" target="_top" xlink:title=" ">
<polygon fill="white" stroke="#666666" points="439.5,-93.25 332,-93.25 332,-74 439.5,-74 439.5,-93.25"/>
<text xml:space="preserve" text-anchor="middle" x="385.75" y="-79.75" font-family="Helvetica,sans-Serif" font-size="10.00">restore_parent_redirs</text>
</a>
</g>
</g>
<!-- Node4&#45;&gt;Node8 -->
<g id="edge7_Node000004_Node000008" class="edge">
<title>Node4&#45;&gt;Node8</title>
<g id="a_edge7_Node000004_Node000008"><a xlink:title=" ">
<path fill="none" stroke="#63b8ff" d="M266.93,-83.62C283.94,-83.62 302.77,-83.62 320.29,-83.62"/>
<polygon fill="#63b8ff" stroke="#63b8ff" points="320.07,-87.13 330.07,-83.63 320.07,-80.13 320.07,-87.13"/>
</a>
</g>
</g>
<!-- Node6 -->
<g id="Node000006" class="node">
<title>Node6</title>
<g id="a_Node000006"><a xlink:href="executor_8c.html#ae429e7c7ee7771107c2c665b5e624fd3" target="_top" xlink:title=" ">
<polygon fill="white" stroke="#666666" points="617.5,-74.25 492.75,-74.25 492.75,-55 617.5,-55 617.5,-74.25"/>
<text xml:space="preserve" text-anchor="middle" x="555.12" y="-60.75" font-family="Helvetica,sans-Serif" font-size="10.00">ensure_saved_descriptor</text>
</a>
</g>
</g>
<!-- Node5&#45;&gt;Node6 -->
<g id="edge5_Node000005_Node000006" class="edge">
<title>Node5&#45;&gt;Node6</title>
<g id="a_edge5_Node000005_Node000006"><a xlink:title=" ">
<path fill="none" stroke="#63b8ff" d="M428.72,-110.55C437.78,-108.15 447.25,-105.45 456,-102.62 472.34,-97.35 475.99,-94.83 492,-88.62 500.25,-85.43 509.11,-82 517.49,-78.76"/>
<polygon fill="#63b8ff" stroke="#63b8ff" points="518.65,-82.07 526.71,-75.2 516.12,-75.54 518.65,-82.07"/>
</a>
</g>
</g>
<!-- Node7 -->
<g id="Node000007" class="node">
<title>Node7</title>
<g id="a_Node000007"><a xlink:href="executor_8c.html#ac02ab15bcfd6667d235f5087d4c828c6" target="_top" xlink:title=" ">
<polygon fill="white" stroke="#666666" points="756.5,-75.25 669.25,-75.25 669.25,-56 756.5,-56 756.5,-75.25"/>
<text xml:space="preserve" text-anchor="middle" x="712.88" y="-61.75" font-family="Helvetica,sans-Serif" font-size="10.00">open_redirection</text>
</a>
</g>
</g>
<!-- Node5&#45;&gt;Node7 -->
<g id="edge6_Node000005_Node000007" class="edge">
<title>Node5&#45;&gt;Node7</title>
<g id="a_edge6_Node000005_Node000007"><a xlink:title=" ">
<path fill="none" stroke="#63b8ff" d="M436.5,-113.14C483.43,-105.96 555.72,-94.63 618.25,-83.62 631.11,-81.36 644.94,-78.78 657.91,-76.3"/>
<polygon fill="#63b8ff" stroke="#63b8ff" points="658.4,-79.77 667.56,-74.44 657.08,-72.9 658.4,-79.77"/>
</a>
</g>
</g>
<!-- Node10 -->
<g id="Node000010" class="node">
<title>Node10</title>
<g id="a_Node000010"><a xlink:href="executor_8c.html#aaf4ed791984ad4ea065d3aa771bb522e" target="_top" xlink:title=" ">
<polygon fill="white" stroke="#666666" points="439.12,-19.25 332.38,-19.25 332.38,0 439.12,0 439.12,-19.25"/>
<text xml:space="preserve" text-anchor="middle" x="385.75" y="-5.75" font-family="Helvetica,sans-Serif" font-size="10.00">execute_child_builtin</text>
</a>
</g>
</g>
<!-- Node9&#45;&gt;Node10 -->
<g id="edge9_Node000009_Node000010" class="edge">
<title>Node9&#45;&gt;Node10</title>
<g id="a_edge9_Node000009_Node000010"><a xlink:title=" ">
<path fill="none" stroke="#63b8ff" d="M258.48,-36.51C279.36,-32.07 304.08,-26.8 326.1,-22.11"/>
<polygon fill="#63b8ff" stroke="#63b8ff" points="326.8,-25.54 335.85,-20.04 325.34,-18.7 326.8,-25.54"/>
</a>
</g>
</g>
<!-- Node12 -->
<g id="Node000012" class="node">
<title>Node12</title>
<g id="a_Node000012"><a xlink:href="executor_8c.html#a0ad76fce4b9cb6d01923191b9ef6d01b" target="_top" xlink:title=" ">
<polygon fill="white" stroke="#666666" points="443.62,-56.25 327.88,-56.25 327.88,-37 443.62,-37 443.62,-56.25"/>
<text xml:space="preserve" text-anchor="middle" x="385.75" y="-42.75" font-family="Helvetica,sans-Serif" font-size="10.00">execute_child_external</text>
</a>
</g>
</g>
<!-- Node9&#45;&gt;Node12 -->
<g id="edge12_Node000009_Node000012" class="edge">
<title>Node9&#45;&gt;Node12</title>
<g id="a_edge12_Node000009_Node000012"><a xlink:title=" ">
<path fill="none" stroke="#63b8ff" d="M279.67,-46.62C291.68,-46.62 304.17,-46.62 316.17,-46.62"/>
<polygon fill="#63b8ff" stroke="#63b8ff" points="315.98,-50.13 325.98,-46.63 315.98,-43.13 315.98,-50.13"/>
</a>
</g>
</g>
<!-- Node11 -->
<g id="Node000011" class="node">
<title>Node11</title>
<g id="a_Node000011"><a xlink:href="executor_8c.html#a1d69266d9e634c8ebfb4934e6eb1c7f4" target="_top" xlink:title=" ">
<polygon fill="white" stroke="#666666" points="602.12,-37.25 508.12,-37.25 508.12,-18 602.12,-18 602.12,-37.25"/>
<text xml:space="preserve" text-anchor="middle" x="555.12" y="-23.75" font-family="Helvetica,sans-Serif" font-size="10.00">apply_child_redirs</text>
</a>
</g>
</g>
<!-- Node10&#45;&gt;Node11 -->
<g id="edge10_Node000010_Node000011" class="edge">
<title>Node10&#45;&gt;Node11</title>
<g id="a_edge10_Node000010_Node000011"><a xlink:title=" ">
<path fill="none" stroke="#63b8ff" d="M439.25,-15.27C457.43,-17.23 477.9,-19.43 496.48,-21.43"/>
<polygon fill="#63b8ff" stroke="#63b8ff" points="495.93,-24.89 506.25,-22.48 496.68,-17.93 495.93,-24.89"/>
</a>
</g>
</g>
<!-- Node11&#45;&gt;Node7 -->
<g id="edge11_Node000011_Node000007" class="edge">
<title>Node11&#45;&gt;Node7</title>
<g id="a_edge11_Node000011_Node000007"><a xlink:title=" ">
<path fill="none" stroke="#63b8ff" d="M597.45,-37.71C616.54,-42.37 639.41,-47.95 659.68,-52.89"/>
<polygon fill="#63b8ff" stroke="#63b8ff" points="658.61,-56.23 669.15,-55.2 660.27,-49.43 658.61,-56.23"/>
</a>
</g>
</g>
<!-- Node12&#45;&gt;Node11 -->
<g id="edge13_Node000012_Node000011" class="edge">
<title>Node12&#45;&gt;Node11</title>
<g id="a_edge13_Node000012_Node000011"><a xlink:title=" ">
<path fill="none" stroke="#63b8ff" d="M443.88,-40.14C460.97,-38.2 479.71,-36.07 496.81,-34.13"/>
<polygon fill="#63b8ff" stroke="#63b8ff" points="496.74,-37.66 506.28,-33.06 495.95,-30.71 496.74,-37.66"/>
</a>
</g>
</g>
<!-- Node13&#45;&gt;Node5 -->
<g id="edge15_Node000013_Node000005" class="edge">
<title>Node13&#45;&gt;Node5</title>
<g id="a_edge15_Node000013_Node000005"><a xlink:title=" ">
<path fill="none" stroke="#63b8ff" d="M258.94,-120.62C279.03,-120.62 302.63,-120.62 323.93,-120.62"/>
<polygon fill="#63b8ff" stroke="#63b8ff" points="323.64,-124.13 333.64,-120.63 323.64,-117.13 323.64,-124.13"/>
</a>
</g>
</g>
<!-- Node13&#45;&gt;Node8 -->
<g id="edge16_Node000013_Node000008" class="edge">
<title>Node13&#45;&gt;Node8</title>
<g id="a_edge16_Node000013_Node000008"><a xlink:title=" ">
<path fill="none" stroke="#63b8ff" d="M258.48,-110.51C279.36,-106.07 304.08,-100.8 326.1,-96.11"/>
<polygon fill="#63b8ff" stroke="#63b8ff" points="326.8,-99.54 335.85,-94.04 325.34,-92.7 326.8,-99.54"/>
</a>
</g>
</g>
<!-- Node14&#45;&gt;Node2 -->
<g id="edge18_Node000014_Node000002" class="edge">
<title>Node14&#45;&gt;Node2</title>
<g id="a_edge18_Node000014_Node000002"><a xlink:title=" ">
<path fill="none" stroke="#63b8ff" d="M230.63,-216.65C251.33,-226.95 285.1,-242.92 315.5,-253.62 320.44,-255.36 325.63,-257.02 330.86,-258.57"/>
<polygon fill="#63b8ff" stroke="#63b8ff" points="329.53,-261.83 340.1,-261.19 331.43,-255.09 329.53,-261.83"/>
</a>
</g>
</g>
<!-- Node15 -->
<g id="Node000015" class="node">
<title>Node15</title>
<g id="a_Node000015"><a xlink:href="executor_8c.html#a4c4dbe01e0481457aa72d7c3137fdbf0" target="_top" xlink:title=" ">
<polygon fill="white" stroke="#666666" points="422.62,-207.25 348.88,-207.25 348.88,-188 422.62,-188 422.62,-207.25"/>
<text xml:space="preserve" text-anchor="middle" x="385.75" y="-193.75" font-family="Helvetica,sans-Serif" font-size="10.00">expand_word</text>
</a>
</g>
</g>
<!-- Node14&#45;&gt;Node15 -->
<g id="edge19_Node000014_Node000015" class="edge">
<title>Node14&#45;&gt;Node15</title>
<g id="a_edge19_Node000014_Node000015"><a xlink:title=" ">
<path fill="none" stroke="#63b8ff" d="M258.48,-204.17C283.03,-202.89 312.9,-201.35 337.42,-200.08"/>
<polygon fill="#63b8ff" stroke="#63b8ff" points="337.31,-203.59 347.12,-199.57 336.95,-196.6 337.31,-203.59"/>
</a>
</g>
</g>
<!-- Node22 -->
<g id="Node000022" class="node">
<title>Node22</title>
<g id="a_Node000022"><a xlink:href="registry_8c.html#a65bc8ffc280718493b1320b93190ff43" target="_top" xlink:title=" ">
<polygon fill="white" stroke="#666666" points="431.25,-244.25 340.25,-244.25 340.25,-225 431.25,-225 431.25,-244.25"/>
<text xml:space="preserve" text-anchor="middle" x="385.75" y="-230.75" font-family="Helvetica,sans-Serif" font-size="10.00">gs_builtin_lookup</text>
</a>
</g>
</g>
<!-- Node14&#45;&gt;Node22 -->
<g id="edge30_Node000014_Node000022" class="edge">
<title>Node14&#45;&gt;Node22</title>
<g id="a_edge30_Node000014_Node000022"><a xlink:title=" ">
<path fill="none" stroke="#63b8ff" d="M258.48,-214.28C280.22,-217.78 306.15,-221.96 328.83,-225.61"/>
<polygon fill="#63b8ff" stroke="#63b8ff" points="328.1,-229.04 338.52,-227.18 329.21,-222.13 328.1,-229.04"/>
</a>
</g>
</g>
<!-- Node16 -->
<g id="Node000016" class="node">
<title>Node16</title>
<g id="a_Node000016"><a xlink:href="executor_8c.html#aadd17e0d55af2f7cc9b0fc2c6eba9cc2" target="_top" xlink:title=" ">
<polygon fill="white" stroke="#666666" points="603.25,-188.25 507,-188.25 507,-169 603.25,-169 603.25,-188.25"/>
<text xml:space="preserve" text-anchor="middle" x="555.12" y="-174.75" font-family="Helvetica,sans-Serif" font-size="10.00">append_parameter</text>
</a>
</g>
</g>
<!-- Node15&#45;&gt;Node16 -->
<g id="edge20_Node000015_Node000016" class="edge">
<title>Node15&#45;&gt;Node16</title>
<g id="a_edge20_Node000015_Node000016"><a xlink:title=" ">
<path fill="none" stroke="#63b8ff" d="M423.07,-193.5C444.23,-191.1 471.43,-188.01 495.55,-185.27"/>
<polygon fill="#63b8ff" stroke="#63b8ff" points="495.7,-188.78 505.24,-184.17 494.91,-181.82 495.7,-188.78"/>
</a>
</g>
</g>
<!-- Node17 -->
<g id="Node000017" class="node">
<title>Node17</title>
<g id="a_Node000017"><a xlink:href="executor_8c.html#a60031a3179243a175f1ee3ff361d95d0" target="_top" xlink:title=" ">
<polygon fill="white" stroke="#666666" points="771.5,-263.25 654.25,-263.25 654.25,-244 771.5,-244 771.5,-263.25"/>
<text xml:space="preserve" text-anchor="middle" x="712.88" y="-249.75" font-family="Helvetica,sans-Serif" font-size="10.00">gs_strbuf_append_char</text>
</a>
</g>
</g>
<!-- Node15&#45;&gt;Node17 -->
<g id="edge27_Node000015_Node000017" class="edge">
<title>Node15&#45;&gt;Node17</title>
<g id="a_edge27_Node000015_Node000017"><a xlink:title=" ">
<path fill="none" stroke="#63b8ff" d="M422.89,-203.25C468.49,-210.41 549.28,-223.34 618.25,-235.62 628.42,-237.44 639.2,-239.44 649.68,-241.42"/>
<polygon fill="#63b8ff" stroke="#63b8ff" points="648.94,-244.84 659.41,-243.28 650.25,-237.97 648.94,-244.84"/>
</a>
</g>
</g>
<!-- Node20 -->
<g id="Node000020" class="node">
<title>Node20</title>
<g id="a_Node000020"><a xlink:href="executor_8c.html#a1dec8046147c6440f1d9d5b7c6e02776" target="_top" xlink:title=" ">
<polygon fill="white" stroke="#666666" points="927.75,-206.25 807.5,-206.25 807.5,-187 927.75,-187 927.75,-206.25"/>
<text xml:space="preserve" text-anchor="middle" x="867.62" y="-192.75" font-family="Helvetica,sans-Serif" font-size="10.00">gs_strbuf_append_mem</text>
</a>
</g>
</g>
<!-- Node15&#45;&gt;Node20 -->
<g id="edge28_Node000015_Node000020" class="edge">
<title>Node15&#45;&gt;Node20</title>
<g id="a_edge28_Node000015_Node000020"><a xlink:title=" ">
<path fill="none" stroke="#63b8ff" d="M407.92,-187.51C428.76,-178.15 461.76,-164.92 492,-159.62 608.72,-139.2 748.01,-166.26 819.36,-183.8"/>
<polygon fill="#63b8ff" stroke="#63b8ff" points="818.2,-187.11 828.75,-186.15 819.9,-180.32 818.2,-187.11"/>
</a>
</g>
</g>
<!-- Node21 -->
<g id="Node000021" class="node">
<title>Node21</title>
<g id="a_Node000021"><a xlink:href="executor_8c.html#adb87c2ff41833a7b37fa820830d6cb6d" target="_top" xlink:title=" ">
<polygon fill="white" stroke="#666666" points="602.88,-264.25 507.38,-264.25 507.38,-245 602.88,-245 602.88,-264.25"/>
<text xml:space="preserve" text-anchor="middle" x="555.12" y="-250.75" font-family="Helvetica,sans-Serif" font-size="10.00">gs_strbuf_dispose</text>
</a>
</g>
</g>
<!-- Node15&#45;&gt;Node21 -->
<g id="edge29_Node000015_Node000021" class="edge">
<title>Node15&#45;&gt;Node21</title>
<g id="a_edge29_Node000015_Node000021"><a xlink:title=" ">
<path fill="none" stroke="#63b8ff" d="M422.97,-206.02C433.7,-208.78 445.4,-212.06 456,-215.62 472.43,-221.15 475.91,-224.17 492,-230.62 500.13,-233.89 508.89,-237.32 517.2,-240.54"/>
<polygon fill="#63b8ff" stroke="#63b8ff" points="515.76,-243.74 526.35,-244.07 518.28,-237.21 515.76,-243.74"/>
</a>
</g>
</g>
<!-- Node16&#45;&gt;Node17 -->
<g id="edge21_Node000016_Node000017" class="edge">
<title>Node16&#45;&gt;Node17</title>
<g id="a_edge21_Node000016_Node000017"><a xlink:title=" ">
<path fill="none" stroke="#63b8ff" d="M588.82,-188.65C598.65,-192.34 609.21,-197.02 618.25,-202.62 636.69,-214.07 635.44,-224.8 654.25,-235.62 656.43,-236.88 658.7,-238.05 661.04,-239.16"/>
<polygon fill="#63b8ff" stroke="#63b8ff" points="659.57,-242.34 670.15,-242.95 662.26,-235.88 659.57,-242.34"/>
</a>
</g>
</g>
<!-- Node19 -->
<g id="Node000019" class="node">
<title>Node19</title>
<g id="a_Node000019"><a xlink:href="executor_8c.html#abaf58208dfc819aaa164dd4e9bb9106d" target="_top" xlink:title=" ">
<polygon fill="white" stroke="#666666" points="767.38,-226.25 658.38,-226.25 658.38,-207 767.38,-207 767.38,-226.25"/>
<text xml:space="preserve" text-anchor="middle" x="712.88" y="-212.75" font-family="Helvetica,sans-Serif" font-size="10.00">gs_strbuf_append_int</text>
</a>
</g>
</g>
<!-- Node16&#45;&gt;Node19 -->
<g id="edge23_Node000016_Node000019" class="edge">
<title>Node16&#45;&gt;Node19</title>
<g id="a_edge23_Node000016_Node000019"><a xlink:title=" ">
<path fill="none" stroke="#63b8ff" d="M597.45,-188.71C616.54,-193.37 639.41,-198.95 659.68,-203.89"/>
<polygon fill="#63b8ff" stroke="#63b8ff" points="658.61,-207.23 669.15,-206.2 660.27,-200.43 658.61,-207.23"/>
</a>
</g>
</g>
<!-- Node16&#45;&gt;Node20 -->
<g id="edge26_Node000016_Node000020" class="edge">
<title>Node16&#45;&gt;Node20</title>
<g id="a_edge26_Node000016_Node000020"><a xlink:title=" ">
<path fill="none" stroke="#63b8ff" d="M603.62,-181.38C654.83,-184.35 736.89,-189.1 795.73,-192.52"/>
<polygon fill="#63b8ff" stroke="#63b8ff" points="795.48,-196.01 805.66,-193.09 795.88,-189.02 795.48,-196.01"/>
</a>
</g>
</g>
<!-- Node18 -->
<g id="Node000018" class="node">
<title>Node18</title>
<g id="a_Node000018"><a xlink:href="executor_8c.html#a9e511f0298c5c2beb207acb461fa26a2" target="_top" xlink:title=" ">
<polygon fill="white" stroke="#666666" points="1057.75,-225.25 963.75,-225.25 963.75,-206 1057.75,-206 1057.75,-225.25"/>
<text xml:space="preserve" text-anchor="middle" x="1010.75" y="-211.75" font-family="Helvetica,sans-Serif" font-size="10.00">gs_strbuf_reserve</text>
</a>
</g>
</g>
<!-- Node17&#45;&gt;Node18 -->
<g id="edge22_Node000017_Node000018" class="edge">
<title>Node17&#45;&gt;Node18</title>
<g id="a_edge22_Node000017_Node000018"><a xlink:title=" ">
<path fill="none" stroke="#63b8ff" d="M771.98,-246.16C824.08,-239.47 900.11,-229.71 952.08,-223.03"/>
<polygon fill="#63b8ff" stroke="#63b8ff" points="952.46,-226.51 961.93,-221.77 951.57,-219.57 952.46,-226.51"/>
</a>
</g>
</g>
<!-- Node19&#45;&gt;Node20 -->
<g id="edge24_Node000019_Node000020" class="edge">
<title>Node19&#45;&gt;Node20</title>
<g id="a_edge24_Node000019_Node000020"><a xlink:title=" ">
<path fill="none" stroke="#63b8ff" d="M767.73,-209.57C776.77,-208.39 786.27,-207.15 795.66,-205.92"/>
<polygon fill="#63b8ff" stroke="#63b8ff" points="796.06,-209.39 805.52,-204.63 795.15,-202.45 796.06,-209.39"/>
</a>
</g>
</g>
<!-- Node20&#45;&gt;Node18 -->
<g id="edge25_Node000020_Node000018" class="edge">
<title>Node20&#45;&gt;Node18</title>
<g id="a_edge25_Node000020_Node000018"><a xlink:title=" ">
<path fill="none" stroke="#63b8ff" d="M928.07,-204.63C936.16,-205.72 944.45,-206.83 952.49,-207.92"/>
<polygon fill="#63b8ff" stroke="#63b8ff" points="951.79,-211.35 962.17,-209.22 952.73,-204.42 951.79,-211.35"/>
</a>
</g>
</g>
<!-- Node23 -->
<g id="Node000023" class="node">
<title>Node23</title>
<g id="a_Node000023"><a xlink:href="registry_8c.html#a0450dea883f5ebfe699190bae3cb4dc6" target="_top" xlink:title=" ">
<polygon fill="white" stroke="#666666" points="597.25,-301.25 513,-301.25 513,-282 597.25,-282 597.25,-301.25"/>
<text xml:space="preserve" text-anchor="middle" x="555.12" y="-287.75" font-family="Helvetica,sans-Serif" font-size="10.00">compare_builtin</text>
</a>
</g>
</g>
<!-- Node22&#45;&gt;Node23 -->
<g id="edge31_Node000022_Node000023" class="edge">
<title>Node22&#45;&gt;Node23</title>
<g id="a_edge31_Node000022_Node000023"><a xlink:title=" ">
<path fill="none" stroke="#63b8ff" d="M431.67,-244.38C439.9,-246.71 448.31,-249.45 456,-252.62 473.12,-259.69 474.98,-266.33 492,-273.62 495.57,-275.15 499.3,-276.6 503.09,-277.95"/>
<polygon fill="#63b8ff" stroke="#63b8ff" points="501.82,-281.22 512.41,-281.05 504.02,-274.57 501.82,-281.22"/>
</a>
</g>
</g>
</g>
</svg>
