<?xml version="1.0" encoding="UTF-8" standalone="no"?>
<!DOCTYPE svg PUBLIC "-//W3C//DTD SVG 1.1//EN"
 "http://www.w3.org/Graphics/SVG/1.1/DTD/svg11.dtd">
<!-- Generated by graphviz version 14.0.0 (20250921.2048)
 -->
<!-- Title: dispose_expanded_redirs Pages: 1 -->
<svg width="849pt" height="46pt"
 viewBox="0.00 0.00 849.00 46.00" xmlns="http://www.w3.org/2000/svg" xmlns:xlink="http://www.w3.org/1999/xlink">
<g id="graph0" class="graph" transform="scale(1 1) rotate(0) translate(4 42.25)">
<title>dispose_expanded_redirs</title>
<!-- Node1 -->
<g id="Node000001" class="node">
<title>Node1</title>
<g id="a_Node000001"><a xlink:title=" ">
<polygon fill="#999999" stroke="#666666" points="841,-38.25 714.75,-38.25 714.75,-19 841,-19 841,-38.25"/>
<text xml:space="preserve" text-anchor="middle" x="777.88" y="-24.75" font-family="Helvetica,sans-Serif" font-size="10.00">dispose_expanded_redirs</text>
</a>
</g>
</g>
<!-- Node2 -->
<g id="Node000002" class="node">
<title>Node2</title>
<g id="a_Node000002"><a xlink:href="executor_8c.html#a38578d8006aeea83896e6136277a3420" target="_top" xlink:title=" ">
<polygon fill="white" stroke="#666666" points="678.75,-38.25 538.25,-38.25 538.25,-19 678.75,-19 678.75,-38.25"/>
<text xml:space="preserve" text-anchor="middle" x="608.5" y="-24.75" font-family="Helvetica,sans-Serif" font-size="10.00">dispose_prepared_command</text>
</a>
</g>
</g>
<!-- Node1&#45;&gt;Node2 -->
<g id="edge1_Node000001_Node000002" class="edge">
<title>Node1&#45;&gt;Node2</title>
<g id="a_edge1_Node000001_Node000002"><a xlink:title=" ">
<path fill="none" stroke="#63b8ff" d="M703.05,-28.62C695.12,-28.62 687.07,-28.62 679.19,-28.62"/>
<polygon fill="#63b8ff" stroke="#63b8ff" points="703.04,-32.13 713.04,-28.63 703.04,-25.13 703.04,-32.13"/>
</a>
</g>
</g>
<!-- Node3 -->
<g id="Node000003" class="node">
<title>Node3</title>
<g id="a_Node000003"><a xlink:href="executor_8c.html#a627081dd2de67c9a6880ddb4e695af46" target="_top" xlink:title=" ">
<polygon fill="white" stroke="#666666" points="370,-38.25 265.5,-38.25 265.5,-19 370,-19 370,-38.25"/>
<text xml:space="preserve" text-anchor="middle" x="317.75" y="-24.75" font-family="Helvetica,sans-Serif" font-size="10.00">gs_execute_pipeline</text>
</a>
</g>
</g>
<!-- Node2&#45;&gt;Node3 -->
<g id="edge2_Node000002_Node000003" class="edge">
<title>Node2&#45;&gt;Node3</title>
<g id="a_edge2_Node000002_Node000003"><a xlink:title=" ">
<path fill="none" stroke="#63b8ff" d="M526.53,-28.62C476.52,-28.62 413.86,-28.62 370.49,-28.62"/>
<polygon fill="#63b8ff" stroke="#63b8ff" points="526.46,-32.13 536.46,-28.63 526.46,-25.13 526.46,-32.13"/>
</a>
</g>
</g>
<!-- Node7 -->
<g id="Node000007" class="node">
<title>Node7</title>
<g id="a_Node000007"><a xlink:href="executor_8c.html#a8810c167f157bdd60f735d7d05989d19" target="_top" xlink:title=" ">
<polygon fill="white" stroke="#666666" points="502.25,-19.25 406,-19.25 406,0 502.25,0 502.25,-19.25"/>
<text xml:space="preserve" text-anchor="middle" x="454.12" y="-5.75" font-family="Helvetica,sans-Serif" font-size="10.00">prepare_command</text>
</a>
</g>
</g>
<!-- Node2&#45;&gt;Node7 -->
<g id="edge6_Node000002_Node000007" class="edge">
<title>Node2&#45;&gt;Node7</title>
<g id="a_edge6_Node000002_Node000007"><a xlink:title=" ">
<path fill="none" stroke="#63b8ff" d="M526.79,-18.56C518.57,-17.54 510.42,-16.52 502.73,-15.56"/>
<polygon fill="#63b8ff" stroke="#63b8ff" points="526.14,-22.01 536.5,-19.77 527.01,-15.06 526.14,-22.01"/>
</a>
</g>
</g>
<!-- Node4 -->
<g id="Node000004" class="node">
<title>Node4</title>
<g id="a_Node000004"><a xlink:href="shell_8c.html#add8fb7be4e80992b6d5e0e74b22e513f" target="_top" xlink:title=" ">
<polygon fill="white" stroke="#666666" points="229.5,-38.25 179.75,-38.25 179.75,-19 229.5,-19 229.5,-38.25"/>
<text xml:space="preserve" text-anchor="middle" x="204.62" y="-24.75" font-family="Helvetica,sans-Serif" font-size="10.00">run_line</text>
</a>
</g>
</g>
<!-- Node3&#45;&gt;Node4 -->
<g id="edge3_Node000003_Node000004" class="edge">
<title>Node3&#45;&gt;Node4</title>
<g id="a_edge3_Node000003_Node000004"><a xlink:title=" ">
<path fill="none" stroke="#63b8ff" d="M253.61,-28.62C245.25,-28.62 237.12,-28.62 229.99,-28.62"/>
<polygon fill="#63b8ff" stroke="#63b8ff" points="253.58,-32.13 263.58,-28.63 253.58,-25.13 253.58,-32.13"/>
</a>
</g>
</g>
<!-- Node5 -->
<g id="Node000005" class="node">
<title>Node5</title>
<g id="a_Node000005"><a xlink:href="shell_8c.html#ac693cbc15f3a72c516535611b597062c" target="_top" xlink:title=" ">
<polygon fill="white" stroke="#666666" points="143.75,-38.25 73,-38.25 73,-19 143.75,-19 143.75,-38.25"/>
<text xml:space="preserve" text-anchor="middle" x="108.38" y="-24.75" font-family="Helvetica,sans-Serif" font-size="10.00">gs_shell_run</text>
</a>
</g>
</g>
<!-- Node4&#45;&gt;Node5 -->
<g id="edge4_Node000004_Node000005" class="edge">
<title>Node4&#45;&gt;Node5</title>
<g id="a_edge4_Node000004_Node000005"><a xlink:title=" ">
<path fill="none" stroke="#63b8ff" d="M168,-28.62C160.21,-28.62 151.98,-28.62 144.22,-28.62"/>
<polygon fill="#63b8ff" stroke="#63b8ff" points="167.84,-32.13 177.84,-28.63 167.84,-25.13 167.84,-32.13"/>
</a>
</g>
</g>
<!-- Node6 -->
<g id="Node000006" class="node">
<title>Node6</title>
<g id="a_Node000006"><a xlink:href="main_8c.html#a3c04138a5bfe5d72780bb7e82a18e627" target="_top" xlink:title=" ">
<polygon fill="white" stroke="#666666" points="37,-38.25 0,-38.25 0,-19 37,-19 37,-38.25"/>
<text xml:space="preserve" text-anchor="middle" x="18.5" y="-24.75" font-family="Helvetica,sans-Serif" font-size="10.00">main</text>
</a>
</g>
</g>
<!-- Node5&#45;&gt;Node6 -->
<g id="edge5_Node000005_Node000006" class="edge">
<title>Node5&#45;&gt;Node6</title>
<g id="a_edge5_Node000005_Node000006"><a xlink:title=" ">
<path fill="none" stroke="#63b8ff" d="M61.14,-28.62C52.68,-28.62 44.32,-28.62 37.34,-28.62"/>
<polygon fill="#63b8ff" stroke="#63b8ff" points="61.13,-32.13 71.13,-28.63 61.13,-25.13 61.13,-32.13"/>
</a>
</g>
</g>
<!-- Node7&#45;&gt;Node3 -->
<g id="edge7_Node000007_Node000003" class="edge">
<title>Node7&#45;&gt;Node3</title>
<g id="a_edge7_Node000007_Node000003"><a xlink:title=" ">
<path fill="none" stroke="#63b8ff" d="M394.5,-17.91C386.43,-19.06 378.19,-20.22 370.26,-21.34"/>
<polygon fill="#63b8ff" stroke="#63b8ff" points="394.84,-21.4 404.25,-16.54 393.86,-14.47 394.84,-21.4"/>
</a>
</g>
</g>
</g>
</svg>
