<?xml version="1.0" encoding="UTF-8" standalone="no"?>
<!DOCTYPE svg PUBLIC "-//W3C//DTD SVG 1.1//EN"
 "http://www.w3.org/Graphics/SVG/1.1/DTD/svg11.dtd">
<!-- Generated by graphviz version 14.0.0 (20250921.2048)
 -->
<!-- Title: append_parameter Pages: 1 -->
<svg width="536pt" height="78pt"
 viewBox="0.00 0.00 536.00 78.00" xmlns="http://www.w3.org/2000/svg" xmlns:xlink="http://www.w3.org/1999/xlink">
<g id="graph0" class="graph" transform="scale(1 1) rotate(0) translate(4 73.53)">
<title>append_parameter</title>
<!-- Node1 -->
<g id="Node000001" class="node">
<title>Node1</title>
<g id="a_Node000001"><a xlink:title=" ">
<polygon fill="#999999" stroke="#666666" points="96.25,-32.53 0,-32.53 0,-13.28 96.25,-13.28 96.25,-32.53"/>
<text xml:space="preserve" text-anchor="middle" x="48.12" y="-19.03" font-family="Helvetica,sans-Serif" font-size="10.00">append_parameter</text>
</a>
</g>
</g>
<!-- Node2 -->
<g id="Node000002" class="node">
<title>Node2</title>
<g id="a_Node000002"><a xlink:href="executor_8c.html#a60031a3179243a175f1ee3ff361d95d0" target="_top" xlink:title=" ">
<polygon fill="white" stroke="#666666" points="396,-69.53 278.75,-69.53 278.75,-50.28 396,-50.28 396,-69.53"/>
<text xml:space="preserve" text-anchor="middle" x="337.38" y="-56.03" font-family="Helvetica,sans-Serif" font-size="10.00">gs_strbuf_append_char</text>
</a>
</g>
</g>
<!-- Node1&#45;&gt;Node2 -->
<g id="edge1_Node000001_Node000002" class="edge">
<title>Node1&#45;&gt;Node2</title>
<g id="a_edge1_Node000001_Node000002"><a xlink:title=" ">
<path fill="none" stroke="#63b8ff" d="M88.24,-33.01C102.06,-36.27 117.77,-39.63 132.25,-41.91 176.87,-48.94 227.44,-53.42 267.08,-56.16"/>
<polygon fill="#63b8ff" stroke="#63b8ff" points="266.77,-59.65 276.98,-56.82 267.23,-52.66 266.77,-59.65"/>
</a>
</g>
</g>
<!-- Node4 -->
<g id="Node000004" class="node">
<title>Node4</title>
<g id="a_Node000004"><a xlink:href="executor_8c.html#abaf58208dfc819aaa164dd4e9bb9106d" target="_top" xlink:title=" ">
<polygon fill="white" stroke="#666666" points="241.25,-32.53 132.25,-32.53 132.25,-13.28 241.25,-13.28 241.25,-32.53"/>
<text xml:space="preserve" text-anchor="middle" x="186.75" y="-19.03" font-family="Helvetica,sans-Serif" font-size="10.00">gs_strbuf_append_int</text>
</a>
</g>
</g>
<!-- Node1&#45;&gt;Node4 -->
<g id="edge3_Node000001_Node000004" class="edge">
<title>Node1&#45;&gt;Node4</title>
<g id="a_edge3_Node000001_Node000004"><a xlink:title=" ">
<path fill="none" stroke="#63b8ff" d="M96.53,-22.91C104.28,-22.91 112.43,-22.91 120.52,-22.91"/>
<polygon fill="#63b8ff" stroke="#63b8ff" points="120.36,-26.41 130.36,-22.91 120.36,-19.41 120.36,-26.41"/>
</a>
</g>
</g>
<!-- Node5 -->
<g id="Node000005" class="node">
<title>Node5</title>
<g id="a_Node000005"><a xlink:href="executor_8c.html#a1dec8046147c6440f1d9d5b7c6e02776" target="_top" xlink:title=" ">
<polygon fill="white" stroke="#666666" points="397.5,-32.53 277.25,-32.53 277.25,-13.28 397.5,-13.28 397.5,-32.53"/>
<text xml:space="preserve" text-anchor="middle" x="337.38" y="-19.03" font-family="Helvetica,sans-Serif" font-size="10.00">gs_strbuf_append_mem</text>
</a>
</g>
</g>
<!-- Node1&#45;&gt;Node5 -->
<g id="edge6_Node000001_Node000005" class="edge">
<title>Node1&#45;&gt;Node5</title>
<g id="a_edge6_Node000001_Node000005"><a xlink:title=" ">
<path fill="none" stroke="#63b8ff" d="M85.24,-12.79C99.73,-9.23 116.66,-5.67 132.25,-3.91 180.39,1.52 193.04,0.86 241.25,-3.91 255.13,-5.28 269.98,-7.75 283.73,-10.47"/>
<polygon fill="#63b8ff" stroke="#63b8ff" points="282.98,-13.89 293.49,-12.49 284.4,-7.04 282.98,-13.89"/>
</a>
</g>
</g>
<!-- Node3 -->
<g id="Node000003" class="node">
<title>Node3</title>
<g id="a_Node000003"><a xlink:href="executor_8c.html#a9e511f0298c5c2beb207acb461fa26a2" target="_top" xlink:title=" ">
<polygon fill="white" stroke="#666666" points="527.5,-50.53 433.5,-50.53 433.5,-31.28 527.5,-31.28 527.5,-50.53"/>
<text xml:space="preserve" text-anchor="middle" x="480.5" y="-37.03" font-family="Helvetica,sans-Serif" font-size="10.00">gs_strbuf_reserve</text>
</a>
</g>
</g>
<!-- Node2&#45;&gt;Node3 -->
<g id="edge2_Node000002_Node000003" class="edge">
<title>Node2&#45;&gt;Node3</title>
<g id="a_edge2_Node000002_Node000003"><a xlink:title=" ">
<path fill="none" stroke="#63b8ff" d="M396.18,-52.12C404.66,-50.98 413.39,-49.81 421.87,-48.67"/>
<polygon fill="#63b8ff" stroke="#63b8ff" points="422.27,-52.14 431.72,-47.34 421.34,-45.21 422.27,-52.14"/>
</a>
</g>
</g>
<!-- Node4&#45;&gt;Node5 -->
<g id="edge4_Node000004_Node000005" class="edge">
<title>Node4&#45;&gt;Node5</title>
<g id="a_edge4_Node000004_Node000005"><a xlink:title=" ">
<path fill="none" stroke="#63b8ff" d="M241.41,-22.91C249.21,-22.91 257.33,-22.91 265.41,-22.91"/>
<polygon fill="#63b8ff" stroke="#63b8ff" points="265.24,-26.41 275.24,-22.91 265.24,-19.41 265.24,-26.41"/>
</a>
</g>
</g>
<!-- Node5&#45;&gt;Node3 -->
<g id="edge5_Node000005_Node000003" class="edge">
<title>Node5&#45;&gt;Node3</title>
<g id="a_edge5_Node000005_Node000003"><a xlink:title=" ">
<path fill="none" stroke="#63b8ff" d="M397.82,-30.49C405.91,-31.52 414.2,-32.58 422.24,-33.6"/>
<polygon fill="#63b8ff" stroke="#63b8ff" points="421.56,-37.05 431.92,-34.84 422.44,-30.1 421.56,-37.05"/>
</a>
</g>
</g>
</g>
</svg>
