<?xml version="1.0" encoding="UTF-8" standalone="no"?>
<!DOCTYPE svg PUBLIC "-//W3C//DTD SVG 1.1//EN"
 "http://www.w3.org/Graphics/SVG/1.1/DTD/svg11.dtd">
<!-- Generated by graphviz version 14.0.0 (20250921.2048)
 -->
<!-- Title: prepare_command Pages: 1 -->
<svg width="883pt" height="216pt"
 viewBox="0.00 0.00 883.00 216.00" xmlns="http://www.w3.org/2000/svg" xmlns:xlink="http://www.w3.org/1999/xlink">
<g id="graph0" class="graph" transform="scale(1 1) rotate(0) translate(4 212.25)">
<title>prepare_command</title>
<!-- Node1 -->
<g id="Node000001" class="node">
<title>Node1</title>
<g id="a_Node000001"><a xlink:title=" ">
<polygon fill="#999999" stroke="#666666" points="96.25,-113.25 0,-113.25 0,-94 96.25,-94 96.25,-113.25"/>
<text xml:space="preserve" text-anchor="middle" x="48.12" y="-99.75" font-family="Helvetica,sans-Serif" font-size="10.00">prepare_command</text>
</a>
</g>
</g>
<!-- Node2 -->
<g id="Node000002" class="node">
<title>Node2</title>
<g id="a_Node000002"><a xlink:href="executor_8c.html#a38578d8006aeea83896e6136277a3420" target="_top" xlink:title=" ">
<polygon fill="white" stroke="#666666" points="272.75,-188.25 132.25,-188.25 132.25,-169 272.75,-169 272.75,-188.25"/>
<text xml:space="preserve" text-anchor="middle" x="202.5" y="-174.75" font-family="Helvetica,sans-Serif" font-size="10.00">dispose_prepared_command</text>
</a>
</g>
</g>
<!-- Node1&#45;&gt;Node2 -->
<g id="edge1_Node000001_Node000002" class="edge">
<title>Node1&#45;&gt;Node2</title>
<g id="a_edge1_Node000001_Node000002"><a xlink:title=" ">
<path fill="none" stroke="#63b8ff" d="M69.67,-113.74C95.83,-126.62 141.24,-148.96 171.33,-163.77"/>
<polygon fill="#63b8ff" stroke="#63b8ff" points="169.4,-166.73 179.92,-168 172.49,-160.45 169.4,-166.73"/>
</a>
</g>
</g>
<!-- Node4 -->
<g id="Node000004" class="node">
<title>Node4</title>
<g id="a_Node000004"><a xlink:href="executor_8c.html#a4c4dbe01e0481457aa72d7c3137fdbf0" target="_top" xlink:title=" ">
<polygon fill="white" stroke="#666666" points="239.38,-113.25 165.62,-113.25 165.62,-94 239.38,-94 239.38,-113.25"/>
<text xml:space="preserve" text-anchor="middle" x="202.5" y="-99.75" font-family="Helvetica,sans-Serif" font-size="10.00">expand_word</text>
</a>
</g>
</g>
<!-- Node1&#45;&gt;Node4 -->
<g id="edge3_Node000001_Node000004" class="edge">
<title>Node1&#45;&gt;Node4</title>
<g id="a_edge3_Node000001_Node000004"><a xlink:title=" ">
<path fill="none" stroke="#63b8ff" d="M96.5,-103.62C114.79,-103.62 135.68,-103.62 153.98,-103.62"/>
<polygon fill="#63b8ff" stroke="#63b8ff" points="153.78,-107.13 163.78,-103.63 153.78,-100.13 153.78,-107.13"/>
</a>
</g>
</g>
<!-- Node11 -->
<g id="Node000011" class="node">
<title>Node11</title>
<g id="a_Node000011"><a xlink:href="registry_8c.html#a65bc8ffc280718493b1320b93190ff43" target="_top" xlink:title=" ">
<polygon fill="white" stroke="#666666" points="248,-57.25 157,-57.25 157,-38 248,-38 248,-57.25"/>
<text xml:space="preserve" text-anchor="middle" x="202.5" y="-43.75" font-family="Helvetica,sans-Serif" font-size="10.00">gs_builtin_lookup</text>
</a>
</g>
</g>
<!-- Node1&#45;&gt;Node11 -->
<g id="edge14_Node000001_Node000011" class="edge">
<title>Node1&#45;&gt;Node11</title>
<g id="a_edge14_Node000001_Node000011"><a xlink:title=" ">
<path fill="none" stroke="#63b8ff" d="M76.37,-93.61C100.59,-84.71 136.27,-71.6 163.34,-61.65"/>
<polygon fill="#63b8ff" stroke="#63b8ff" points="164.38,-65 172.56,-58.26 161.97,-58.43 164.38,-65"/>
</a>
</g>
</g>
<!-- Node3 -->
<g id="Node000003" class="node">
<title>Node3</title>
<g id="a_Node000003"><a xlink:href="executor_8c.html#a458985a964233acc6db1a7f557b40c6c" target="_top" xlink:title=" ">
<polygon fill="white" stroke="#666666" points="435,-208.25 308.75,-208.25 308.75,-189 435,-189 435,-208.25"/>
<text xml:space="preserve" text-anchor="middle" x="371.88" y="-194.75" font-family="Helvetica,sans-Serif" font-size="10.00">dispose_expanded_redirs</text>
</a>
</g>
</g>
<!-- Node2&#45;&gt;Node3 -->
<g id="edge2_Node000002_Node000003" class="edge">
<title>Node2&#45;&gt;Node3</title>
<g id="a_edge2_Node000002_Node000003"><a xlink:title=" ">
<path fill="none" stroke="#63b8ff" d="M273.03,-186.93C281.03,-187.89 289.2,-188.87 297.25,-189.83"/>
<polygon fill="#63b8ff" stroke="#63b8ff" points="296.67,-193.28 307.01,-190.99 297.5,-186.33 296.67,-193.28"/>
</a>
</g>
</g>
<!-- Node5 -->
<g id="Node000005" class="node">
<title>Node5</title>
<g id="a_Node000005"><a xlink:href="executor_8c.html#aadd17e0d55af2f7cc9b0fc2c6eba9cc2" target="_top" xlink:title=" ">
<polygon fill="white" stroke="#666666" points="420,-132.25 323.75,-132.25 323.75,-113 420,-113 420,-132.25"/>
<text xml:space="preserve" text-anchor="middle" x="371.88" y="-118.75" font-family="Helvetica,sans-Serif" font-size="10.00">append_parameter</text>
</a>
</g>
</g>
<!-- Node4&#45;&gt;Node5 -->
<g id="edge4_Node000004_Node000005" class="edge">
<title>Node4&#45;&gt;Node5</title>
<g id="a_edge4_Node000004_Node000005"><a xlink:title=" ">
<path fill="none" stroke="#63b8ff" d="M239.82,-107.75C260.98,-110.15 288.18,-113.24 312.3,-115.98"/>
<polygon fill="#63b8ff" stroke="#63b8ff" points="311.66,-119.43 321.99,-117.08 312.45,-112.47 311.66,-119.43"/>
</a>
</g>
</g>
<!-- Node6 -->
<g id="Node000006" class="node">
<title>Node6</title>
<g id="a_Node000006"><a xlink:href="executor_8c.html#a60031a3179243a175f1ee3ff361d95d0" target="_top" xlink:title=" ">
<polygon fill="white" stroke="#666666" points="588.25,-207.25 471,-207.25 471,-188 588.25,-188 588.25,-207.25"/>
<text xml:space="preserve" text-anchor="middle" x="529.62" y="-193.75" font-family="Helvetica,sans-Serif" font-size="10.00">gs_strbuf_append_char</text>
</a>
</g>
</g>
<!-- Node4&#45;&gt;Node6 -->
<g id="edge11_Node000004_Node000006" class="edge">
<title>Node4&#45;&gt;Node6</title>
<g id="a_edge11_Node000004_Node000006"><a xlink:title=" ">
<path fill="none" stroke="#63b8ff" d="M229.22,-113.7C250.38,-121.8 281.26,-133.18 308.75,-141.62 363.83,-158.54 427.75,-174.41 472.42,-184.9"/>
<polygon fill="#63b8ff" stroke="#63b8ff" points="471.63,-188.31 482.16,-187.17 473.22,-181.49 471.63,-188.31"/>
</a>
</g>
</g>
<!-- Node9 -->
<g id="Node000009" class="node">
<title>Node9</title>
<g id="a_Node000009"><a xlink:href="executor_8c.html#a1dec8046147c6440f1d9d5b7c6e02776" target="_top" xlink:title=" ">
<polygon fill="white" stroke="#666666" points="744.5,-150.25 624.25,-150.25 624.25,-131 744.5,-131 744.5,-150.25"/>
<text xml:space="preserve" text-anchor="middle" x="684.38" y="-136.75" font-family="Helvetica,sans-Serif" font-size="10.00">gs_strbuf_append_mem</text>
</a>
</g>
</g>
<!-- Node4&#45;&gt;Node9 -->
<g id="edge12_Node000004_Node000009" class="edge">
<title>Node4&#45;&gt;Node9</title>
<g id="a_edge12_Node000004_Node000009"><a xlink:title=" ">
<path fill="none" stroke="#63b8ff" d="M239.64,-102.11C285.24,-100.54 366.03,-98.92 435,-103.62 503.59,-108.3 520.29,-114.26 588.25,-124.62 596.54,-125.89 605.22,-127.27 613.83,-128.68"/>
<polygon fill="#63b8ff" stroke="#63b8ff" points="613.13,-132.11 623.57,-130.28 614.27,-125.2 613.13,-132.11"/>
</a>
</g>
</g>
<!-- Node10 -->
<g id="Node000010" class="node">
<title>Node10</title>
<g id="a_Node000010"><a xlink:href="executor_8c.html#adb87c2ff41833a7b37fa820830d6cb6d" target="_top" xlink:title=" ">
<polygon fill="white" stroke="#666666" points="419.62,-56.25 324.12,-56.25 324.12,-37 419.62,-37 419.62,-56.25"/>
<text xml:space="preserve" text-anchor="middle" x="371.88" y="-42.75" font-family="Helvetica,sans-Serif" font-size="10.00">gs_strbuf_dispose</text>
</a>
</g>
</g>
<!-- Node4&#45;&gt;Node10 -->
<g id="edge13_Node000004_Node000010" class="edge">
<title>Node4&#45;&gt;Node10</title>
<g id="a_edge13_Node000004_Node000010"><a xlink:title=" ">
<path fill="none" stroke="#63b8ff" d="M233.04,-93.57C260.2,-84.31 300.71,-70.52 330.79,-60.28"/>
<polygon fill="#63b8ff" stroke="#63b8ff" points="331.58,-63.7 339.92,-57.17 329.32,-57.08 331.58,-63.7"/>
</a>
</g>
</g>
<!-- Node5&#45;&gt;Node6 -->
<g id="edge5_Node000005_Node000006" class="edge">
<title>Node5&#45;&gt;Node6</title>
<g id="a_edge5_Node000005_Node000006"><a xlink:title=" ">
<path fill="none" stroke="#63b8ff" d="M405.57,-132.65C415.4,-136.34 425.96,-141.02 435,-146.62 453.44,-158.07 452.19,-168.8 471,-179.62 473.18,-180.88 475.45,-182.05 477.79,-183.16"/>
<polygon fill="#63b8ff" stroke="#63b8ff" points="476.32,-186.34 486.9,-186.95 479.01,-179.88 476.32,-186.34"/>
</a>
</g>
</g>
<!-- Node8 -->
<g id="Node000008" class="node">
<title>Node8</title>
<g id="a_Node000008"><a xlink:href="executor_8c.html#abaf58208dfc819aaa164dd4e9bb9106d" target="_top" xlink:title=" ">
<polygon fill="white" stroke="#666666" points="584.12,-170.25 475.12,-170.25 475.12,-151 584.12,-151 584.12,-170.25"/>
<text xml:space="preserve" text-anchor="middle" x="529.62" y="-156.75" font-family="Helvetica,sans-Serif" font-size="10.00">gs_strbuf_append_int</text>
</a>
</g>
</g>
<!-- Node5&#45;&gt;Node8 -->
<g id="edge7_Node000005_Node000008" class="edge">
<title>Node5&#45;&gt;Node8</title>
<g id="a_edge7_Node000005_Node000008"><a xlink:title=" ">
<path fill="none" stroke="#63b8ff" d="M414.2,-132.71C433.29,-137.37 456.16,-142.95 476.43,-147.89"/>
<polygon fill="#63b8ff" stroke="#63b8ff" points="475.36,-151.23 485.9,-150.2 477.02,-144.43 475.36,-151.23"/>
</a>
</g>
</g>
<!-- Node5&#45;&gt;Node9 -->
<g id="edge10_Node000005_Node000009" class="edge">
<title>Node5&#45;&gt;Node9</title>
<g id="a_edge10_Node000005_Node000009"><a xlink:title=" ">
<path fill="none" stroke="#63b8ff" d="M420.37,-125.38C471.58,-128.35 553.64,-133.1 612.48,-136.52"/>
<polygon fill="#63b8ff" stroke="#63b8ff" points="612.23,-140.01 622.41,-137.09 612.63,-133.02 612.23,-140.01"/>
</a>
</g>
</g>
<!-- Node7 -->
<g id="Node000007" class="node">
<title>Node7</title>
<g id="a_Node000007"><a xlink:href="executor_8c.html#a9e511f0298c5c2beb207acb461fa26a2" target="_top" xlink:title=" ">
<polygon fill="white" stroke="#666666" points="874.5,-169.25 780.5,-169.25 780.5,-150 874.5,-150 874.5,-169.25"/>
<text xml:space="preserve" text-anchor="middle" x="827.5" y="-155.75" font-family="Helvetica,sans-Serif" font-size="10.00">gs_strbuf_reserve</text>
</a>
</g>
</g>
<!-- Node6&#45;&gt;Node7 -->
<g id="edge6_Node000006_Node000007" class="edge">
<title>Node6&#45;&gt;Node7</title>
<g id="a_edge6_Node000006_Node000007"><a xlink:title=" ">
<path fill="none" stroke="#63b8ff" d="M588.73,-190.16C640.83,-183.47 716.86,-173.71 768.83,-167.03"/>
<polygon fill="#63b8ff" stroke="#63b8ff" points="769.21,-170.51 778.68,-165.77 768.32,-163.57 769.21,-170.51"/>
</a>
</g>
</g>
<!-- Node8&#45;&gt;Node9 -->
<g id="edge8_Node000008_Node000009" class="edge">
<title>Node8&#45;&gt;Node9</title>
<g id="a_edge8_Node000008_Node000009"><a xlink:title=" ">
<path fill="none" stroke="#63b8ff" d="M584.48,-153.57C593.52,-152.39 603.02,-151.15 612.41,-149.92"/>
<polygon fill="#63b8ff" stroke="#63b8ff" points="612.81,-153.39 622.27,-148.63 611.9,-146.45 612.81,-153.39"/>
</a>
</g>
</g>
<!-- Node9&#45;&gt;Node7 -->
<g id="edge9_Node000009_Node000007" class="edge">
<title>Node9&#45;&gt;Node7</title>
<g id="a_edge9_Node000009_Node000007"><a xlink:title=" ">
<path fill="none" stroke="#63b8ff" d="M744.82,-148.63C752.91,-149.72 761.2,-150.83 769.24,-151.92"/>
<polygon fill="#63b8ff" stroke="#63b8ff" points="768.54,-155.35 778.92,-153.22 769.48,-148.42 768.54,-155.35"/>
</a>
</g>
</g>
<!-- Node12 -->
<g id="Node000012" class="node">
<title>Node12</title>
<g id="a_Node000012"><a xlink:href="registry_8c.html#a0450dea883f5ebfe699190bae3cb4dc6" target="_top" xlink:title=" ">
<polygon fill="white" stroke="#666666" points="414,-19.25 329.75,-19.25 329.75,0 414,0 414,-19.25"/>
<text xml:space="preserve" text-anchor="middle" x="371.88" y="-5.75" font-family="Helvetica,sans-Serif" font-size="10.00">compare_builtin</text>
</a>
</g>
</g>
<!-- Node11&#45;&gt;Node12 -->
<g id="edge15_Node000011_Node000012" class="edge">
<title>Node11&#45;&gt;Node12</title>
<g id="a_edge15_Node000011_Node000012"><a xlink:title=" ">
<path fill="none" stroke="#63b8ff" d="M247.91,-37.54C269.54,-32.63 295.69,-26.7 318.3,-21.56"/>
<polygon fill="#63b8ff" stroke="#63b8ff" points="318.97,-25 327.94,-19.37 317.42,-18.17 318.97,-25"/>
</a>
</g>
</g>
</g>
</svg>
