<?xml version="1.0" encoding="UTF-8" standalone="no"?>
<!DOCTYPE svg PUBLIC "-//W3C//DTD SVG 1.1//EN"
 "http://www.w3.org/Graphics/SVG/1.1/DTD/svg11.dtd">
<!-- Generated by graphviz version 14.0.0 (20250921.2048)
 -->
<!-- Title: execute_pipeline_processes Pages: 1 -->
<svg width="552pt" height="64pt"
 viewBox="0.00 0.00 552.00 64.00" xmlns="http://www.w3.org/2000/svg" xmlns:xlink="http://www.w3.org/1999/xlink">
<g id="graph0" class="graph" transform="scale(1 1) rotate(0) translate(4 60.25)">
<title>execute_pipeline_processes</title>
<!-- Node1 -->
<g id="Node000001" class="node">
<title>Node1</title>
<g id="a_Node000001"><a xlink:title=" ">
<polygon fill="#999999" stroke="#666666" points="139,-37.25 0,-37.25 0,-18 139,-18 139,-37.25"/>
<text xml:space="preserve" text-anchor="middle" x="69.5" y="-23.75" font-family="Helvetica,sans-Serif" font-size="10.00">execute_pipeline_processes</text>
</a>
</g>
</g>
<!-- Node2 -->
<g id="Node000002" class="node">
<title>Node2</title>
<g id="a_Node000002"><a xlink:href="executor_8c.html#aaf4ed791984ad4ea065d3aa771bb522e" target="_top" xlink:title=" ">
<polygon fill="white" stroke="#666666" points="286.25,-56.25 179.5,-56.25 179.5,-37 286.25,-37 286.25,-56.25"/>
<text xml:space="preserve" text-anchor="middle" x="232.88" y="-42.75" font-family="Helvetica,sans-Serif" font-size="10.00">execute_child_builtin</text>
</a>
</g>
</g>
<!-- Node1&#45;&gt;Node2 -->
<g id="edge1_Node000001_Node000002" class="edge">
<title>Node1&#45;&gt;Node2</title>
<g id="a_edge1_Node000001_Node000002"><a xlink:title=" ">
<path fill="none" stroke="#63b8ff" d="M139.41,-35.74C148.91,-36.86 158.63,-38 168.03,-39.11"/>
<polygon fill="#63b8ff" stroke="#63b8ff" points="167.47,-42.57 177.81,-40.26 168.29,-35.61 167.47,-42.57"/>
</a>
</g>
</g>
<!-- Node5 -->
<g id="Node000005" class="node">
<title>Node5</title>
<g id="a_Node000005"><a xlink:href="executor_8c.html#a0ad76fce4b9cb6d01923191b9ef6d01b" target="_top" xlink:title=" ">
<polygon fill="white" stroke="#666666" points="290.75,-19.25 175,-19.25 175,0 290.75,0 290.75,-19.25"/>
<text xml:space="preserve" text-anchor="middle" x="232.88" y="-5.75" font-family="Helvetica,sans-Serif" font-size="10.00">execute_child_external</text>
</a>
</g>
</g>
<!-- Node1&#45;&gt;Node5 -->
<g id="edge4_Node000001_Node000005" class="edge">
<title>Node1&#45;&gt;Node5</title>
<g id="a_edge4_Node000001_Node000005"><a xlink:title=" ">
<path fill="none" stroke="#63b8ff" d="M139.41,-19.94C147.44,-19.04 155.64,-18.13 163.66,-17.23"/>
<polygon fill="#63b8ff" stroke="#63b8ff" points="163.81,-20.74 173.36,-16.15 163.03,-13.78 163.81,-20.74"/>
</a>
</g>
</g>
<!-- Node3 -->
<g id="Node000003" class="node">
<title>Node3</title>
<g id="a_Node000003"><a xlink:href="executor_8c.html#a1d69266d9e634c8ebfb4934e6eb1c7f4" target="_top" xlink:title=" ">
<polygon fill="white" stroke="#666666" points="420.75,-37.25 326.75,-37.25 326.75,-18 420.75,-18 420.75,-37.25"/>
<text xml:space="preserve" text-anchor="middle" x="373.75" y="-23.75" font-family="Helvetica,sans-Serif" font-size="10.00">apply_child_redirs</text>
</a>
</g>
</g>
<!-- Node2&#45;&gt;Node3 -->
<g id="edge2_Node000002_Node000003" class="edge">
<title>Node2&#45;&gt;Node3</title>
<g id="a_edge2_Node000002_Node000003"><a xlink:title=" ">
<path fill="none" stroke="#63b8ff" d="M286.38,-39.44C295.87,-38.14 305.82,-36.78 315.44,-35.47"/>
<polygon fill="#63b8ff" stroke="#63b8ff" points="315.62,-38.97 325.05,-34.15 314.67,-32.04 315.62,-38.97"/>
</a>
</g>
</g>
<!-- Node4 -->
<g id="Node000004" class="node">
<title>Node4</title>
<g id="a_Node000004"><a xlink:href="executor_8c.html#ac02ab15bcfd6667d235f5087d4c828c6" target="_top" xlink:title=" ">
<polygon fill="white" stroke="#666666" points="544,-37.25 456.75,-37.25 456.75,-18 544,-18 544,-37.25"/>
<text xml:space="preserve" text-anchor="middle" x="500.38" y="-23.75" font-family="Helvetica,sans-Serif" font-size="10.00">open_redirection</text>
</a>
</g>
</g>
<!-- Node3&#45;&gt;Node4 -->
<g id="edge3_Node000003_Node000004" class="edge">
<title>Node3&#45;&gt;Node4</title>
<g id="a_edge3_Node000003_Node000004"><a xlink:title=" ">
<path fill="none" stroke="#63b8ff" d="M421.16,-27.62C429.06,-27.62 437.33,-27.62 445.4,-27.62"/>
<polygon fill="#63b8ff" stroke="#63b8ff" points="445.13,-31.13 455.13,-27.63 445.13,-24.13 445.13,-31.13"/>
</a>
</g>
</g>
<!-- Node5&#45;&gt;Node3 -->
<g id="edge5_Node000005_Node000003" class="edge">
<title>Node5&#45;&gt;Node3</title>
<g id="a_edge5_Node000005_Node000003"><a xlink:title=" ">
<path fill="none" stroke="#63b8ff" d="M291.16,-17.05C299.19,-18.09 307.43,-19.16 315.46,-20.2"/>
<polygon fill="#63b8ff" stroke="#63b8ff" points="314.74,-23.64 325.11,-21.45 315.64,-16.69 314.74,-23.64"/>
</a>
</g>
</g>
</g>
</svg>
