<?xml version="1.0" encoding="UTF-8" standalone="no"?>
<!DOCTYPE svg PUBLIC "-//W3C//DTD SVG 1.1//EN"
 "http://www.w3.org/Graphics/SVG/1.1/DTD/svg11.dtd">
<!-- Generated by graphviz version 14.0.0 (20250921.2048)
 -->
<!-- Title: execute_redir_only Pages: 1 -->
<svg width="410pt" height="82pt"
 viewBox="0.00 0.00 410.00 82.00" xmlns="http://www.w3.org/2000/svg" xmlns:xlink="http://www.w3.org/1999/xlink">
<g id="graph0" class="graph" transform="scale(1 1) rotate(0) translate(4 78.25)">
<title>execute_redir_only</title>
<!-- Node1 -->
<g id="Node000001" class="node">
<title>Node1</title>
<g id="a_Node000001"><a xlink:title=" ">
<polygon fill="#999999" stroke="#666666" points="97.75,-37.25 0,-37.25 0,-18 97.75,-18 97.75,-37.25"/>
<text xml:space="preserve" text-anchor="middle" x="48.88" y="-23.75" font-family="Helvetica,sans-Serif" font-size="10.00">execute_redir_only</text>
</a>
</g>
</g>
<!-- Node2 -->
<g id="Node000002" class="node">
<title>Node2</title>
<g id="a_Node000002"><a xlink:href="executor_8c.html#a73fa3c33ee09db9f3ddb1e960814af9f" target="_top" xlink:title=" ">
<polygon fill="white" stroke="#666666" points="237.88,-56.25 137.12,-56.25 137.12,-37 237.88,-37 237.88,-56.25"/>
<text xml:space="preserve" text-anchor="middle" x="187.5" y="-42.75" font-family="Helvetica,sans-Serif" font-size="10.00">apply_parent_redirs</text>
</a>
</g>
</g>
<!-- Node1&#45;&gt;Node2 -->
<g id="edge1_Node000001_Node000002" class="edge">
<title>Node1&#45;&gt;Node2</title>
<g id="a_edge1_Node000001_Node000002"><a xlink:title=" ">
<path fill="none" stroke="#63b8ff" d="M98.04,-34.32C107,-35.57 116.47,-36.89 125.74,-38.18"/>
<polygon fill="#63b8ff" stroke="#63b8ff" points="125.03,-41.61 135.42,-39.52 126,-34.68 125.03,-41.61"/>
</a>
</g>
</g>
<!-- Node5 -->
<g id="Node000005" class="node">
<title>Node5</title>
<g id="a_Node000005"><a xlink:href="executor_8c.html#a97eaebe3cd036f8804fa4c47f0938384" target="_top" xlink:title=" ">
<polygon fill="white" stroke="#666666" points="241.25,-19.25 133.75,-19.25 133.75,0 241.25,0 241.25,-19.25"/>
<text xml:space="preserve" text-anchor="middle" x="187.5" y="-5.75" font-family="Helvetica,sans-Serif" font-size="10.00">restore_parent_redirs</text>
</a>
</g>
</g>
<!-- Node1&#45;&gt;Node5 -->
<g id="edge4_Node000001_Node000005" class="edge">
<title>Node1&#45;&gt;Node5</title>
<g id="a_edge4_Node000001_Node000005"><a xlink:title=" ">
<path fill="none" stroke="#63b8ff" d="M98.04,-21.28C105.88,-20.25 114.1,-19.16 122.24,-18.09"/>
<polygon fill="#63b8ff" stroke="#63b8ff" points="122.7,-21.56 132.15,-16.78 121.78,-14.62 122.7,-21.56"/>
</a>
</g>
</g>
<!-- Node3 -->
<g id="Node000003" class="node">
<title>Node3</title>
<g id="a_Node000003"><a xlink:href="executor_8c.html#ae429e7c7ee7771107c2c665b5e624fd3" target="_top" xlink:title=" ">
<polygon fill="white" stroke="#666666" points="402,-74.25 277.25,-74.25 277.25,-55 402,-55 402,-74.25"/>
<text xml:space="preserve" text-anchor="middle" x="339.62" y="-60.75" font-family="Helvetica,sans-Serif" font-size="10.00">ensure_saved_descriptor</text>
</a>
</g>
</g>
<!-- Node2&#45;&gt;Node3 -->
<g id="edge2_Node000002_Node000003" class="edge">
<title>Node2&#45;&gt;Node3</title>
<g id="a_edge2_Node000002_Node000003"><a xlink:title=" ">
<path fill="none" stroke="#63b8ff" d="M238.07,-52.57C246.88,-53.62 256.21,-54.74 265.51,-55.86"/>
<polygon fill="#63b8ff" stroke="#63b8ff" points="264.94,-59.32 275.28,-57.03 265.77,-52.36 264.94,-59.32"/>
</a>
</g>
</g>
<!-- Node4 -->
<g id="Node000004" class="node">
<title>Node4</title>
<g id="a_Node000004"><a xlink:href="executor_8c.html#ac02ab15bcfd6667d235f5087d4c828c6" target="_top" xlink:title=" ">
<polygon fill="white" stroke="#666666" points="383.25,-37.25 296,-37.25 296,-18 383.25,-18 383.25,-37.25"/>
<text xml:space="preserve" text-anchor="middle" x="339.62" y="-23.75" font-family="Helvetica,sans-Serif" font-size="10.00">open_redirection</text>
</a>
</g>
</g>
<!-- Node2&#45;&gt;Node4 -->
<g id="edge3_Node000002_Node000004" class="edge">
<title>Node2&#45;&gt;Node4</title>
<g id="a_edge3_Node000002_Node000004"><a xlink:title=" ">
<path fill="none" stroke="#63b8ff" d="M238.07,-40.35C252.91,-38.47 269.25,-36.4 284.37,-34.49"/>
<polygon fill="#63b8ff" stroke="#63b8ff" points="284.67,-37.98 294.15,-33.25 283.79,-31.04 284.67,-37.98"/>
</a>
</g>
</g>
</g>
</svg>
