<?xml version="1.0" encoding="UTF-8" standalone="no"?>
<!DOCTYPE svg PUBLIC "-//W3C//DTD SVG 1.1//EN"
 "http://www.w3.org/Graphics/SVG/1.1/DTD/svg11.dtd">
<!-- Generated by graphviz version 14.0.0 (20250921.2048)
 -->
<!-- Title: executor.h Pages: 1 -->
<svg width="132pt" height="83pt"
 viewBox="0.00 0.00 132.00 83.00" xmlns="http://www.w3.org/2000/svg" xmlns:xlink="http://www.w3.org/1999/xlink">
<g id="graph0" class="graph" transform="scale(1 1) rotate(0) translate(4 78.5)">
<title>executor.h</title>
<!-- Node1 -->
<g id="Node000001" class="node">
<title>Node1</title>
<g id="a_Node000001"><a xlink:title=" ">
<polygon fill="#999999" stroke="#666666" points="96,-74.5 35,-74.5 35,-55.25 96,-55.25 96,-74.5"/>
<text xml:space="preserve" text-anchor="middle" x="65.5" y="-61" font-family="Helvetica,sans-Serif" font-size="10.00">executor.h</text>
</a>
</g>
</g>
<!-- Node2 -->
<g id="Node000002" class="node">
<title>Node2</title>
<g id="a_Node000002"><a xlink:href="executor_8c.html" target="_top" xlink:title=" ">
<polygon fill="white" stroke="#666666" points="61,-19.25 0,-19.25 0,0 61,0 61,-19.25"/>
<text xml:space="preserve" text-anchor="middle" x="30.5" y="-5.75" font-family="Helvetica,sans-Serif" font-size="10.00">executor.c</text>
</a>
</g>
</g>
<!-- Node1&#45;&gt;Node2 -->
<g id="edge1_Node000001_Node000002" class="edge">
<title>Node1&#45;&gt;Node2</title>
<g id="a_edge1_Node000001_Node000002"><a xlink:title=" ">
<path fill="none" stroke="#63b8ff" d="M53.52,-45.65C47.75,-36.86 41.07,-26.71 36.41,-19.61"/>
<polygon fill="#63b8ff" stroke="#63b8ff" points="50.47,-47.38 58.89,-53.82 56.32,-43.54 50.47,-47.38"/>
</a>
</g>
</g>
<!-- Node3 -->
<g id="Node000003" class="node">
<title>Node3</title>
<g id="a_Node000003"><a xlink:href="shell_8c.html" target="_top" xlink:title=" ">
<polygon fill="white" stroke="#666666" points="123.75,-19.25 79.25,-19.25 79.25,0 123.75,0 123.75,-19.25"/>
<text xml:space="preserve" text-anchor="middle" x="101.5" y="-5.75" font-family="Helvetica,sans-Serif" font-size="10.00">shell.c</text>
</a>
</g>
</g>
<!-- Node1&#45;&gt;Node3 -->
<g id="edge2_Node000001_Node000003" class="edge">
<title>Node1&#45;&gt;Node3</title>
<g id="a_edge2_Node000001_Node000003"><a xlink:title=" ">
<path fill="none" stroke="#63b8ff" d="M77.82,-45.65C83.76,-36.86 90.62,-26.71 95.43,-19.61"/>
<polygon fill="#63b8ff" stroke="#63b8ff" points="74.99,-43.58 72.29,-53.83 80.79,-47.5 74.99,-43.58"/>
</a>
</g>
</g>
</g>
</svg>
