<?xml version="1.0" encoding="UTF-8" standalone="no"?>
<!DOCTYPE svg PUBLIC "-//W3C//DTD SVG 1.1//EN"
 "http://www.w3.org/Graphics/SVG/1.1/DTD/svg11.dtd">
<!-- Generated by graphviz version 14.0.0 (20250921.2048)
 -->
<!-- Title: prepare_command Pages: 1 -->
<svg width="510pt" height="27pt"
 viewBox="0.00 0.00 510.00 27.00" xmlns="http://www.w3.org/2000/svg" xmlns:xlink="http://www.w3.org/1999/xlink">
<g id="graph0" class="graph" transform="scale(1 1) rotate(0) translate(4 23.25)">
<title>prepare_command</title>
<!-- Node1 -->
<g id="Node000001" class="node">
<title>Node1</title>
<g id="a_Node000001"><a xlink:title=" ">
<polygon fill="#999999" stroke="#666666" points="502.25,-19.25 406,-19.25 406,0 502.25,0 502.25,-19.25"/>
<text xml:space="preserve" text-anchor="middle" x="454.12" y="-5.75" font-family="Helvetica,sans-Serif" font-size="10.00">prepare_command</text>
</a>
</g>
</g>
<!-- Node2 -->
<g id="Node000002" class="node">
<title>Node2</title>
<g id="a_Node000002"><a xlink:href="executor_8c.html#a627081dd2de67c9a6880ddb4e695af46" target="_top" xlink:title=" ">
<polygon fill="white" stroke="#666666" points="370,-19.25 265.5,-19.25 265.5,0 370,0 370,-19.25"/>
<text xml:space="preserve" text-anchor="middle" x="317.75" y="-5.75" font-family="Helvetica,sans-Serif" font-size="10.00">gs_execute_pipeline</text>
</a>
</g>
</g>
<!-- Node1&#45;&gt;Node2 -->
<g id="edge1_Node000001_Node000002" class="edge">
<title>Node1&#45;&gt;Node2</title>
<g id="a_edge1_Node000001_Node000002"><a xlink:title=" ">
<path fill="none" stroke="#63b8ff" d="M394.5,-9.62C386.43,-9.62 378.19,-9.62 370.26,-9.62"/>
<polygon fill="#63b8ff" stroke="#63b8ff" points="394.24,-13.13 404.24,-9.63 394.24,-6.13 394.24,-13.13"/>
</a>
</g>
</g>
<!-- Node3 -->
<g id="Node000003" class="node">
<title>Node3</title>
<g id="a_Node000003"><a xlink:href="shell_8c.html#add8fb7be4e80992b6d5e0e74b22e513f" target="_top" xlink:title=" ">
<polygon fill="white" stroke="#666666" points="229.5,-19.25 179.75,-19.25 179.75,0 229.5,0 229.5,-19.25"/>
<text xml:space="preserve" text-anchor="middle" x="204.62" y="-5.75" font-family="Helvetica,sans-Serif" font-size="10.00">run_line</text>
</a>
</g>
</g>
<!-- Node2&#45;&gt;Node3 -->
<g id="edge2_Node000002_Node000003" class="edge">
<title>Node2&#45;&gt;Node3</title>
<g id="a_edge2_Node000002_Node000003"><a xlink:title=" ">
<path fill="none" stroke="#63b8ff" d="M253.61,-9.62C245.25,-9.62 237.12,-9.62 229.99,-9.62"/>
<polygon fill="#63b8ff" stroke="#63b8ff" points="253.58,-13.13 263.58,-9.63 253.58,-6.13 253.58,-13.13"/>
</a>
</g>
</g>
<!-- Node4 -->
<g id="Node000004" class="node">
<title>Node4</title>
<g id="a_Node000004"><a xlink:href="shell_8c.html#ac693cbc15f3a72c516535611b597062c" target="_top" xlink:title=" ">
<polygon fill="white" stroke="#666666" points="143.75,-19.25 73,-19.25 73,0 143.75,0 143.75,-19.25"/>
<text xml:space="preserve" text-anchor="middle" x="108.38" y="-5.75" font-family="Helvetica,sans-Serif" font-size="10.00">gs_shell_run</text>
</a>
</g>
</g>
<!-- Node3&#45;&gt;Node4 -->
<g id="edge3_Node000003_Node000004" class="edge">
<title>Node3&#45;&gt;Node4</title>
<g id="a_edge3_Node000003_Node000004"><a xlink:title=" ">
<path fill="none" stroke="#63b8ff" d="M168,-9.62C160.21,-9.62 151.98,-9.62 144.22,-9.62"/>
<polygon fill="#63b8ff" stroke="#63b8ff" points="167.84,-13.13 177.84,-9.63 167.84,-6.13 167.84,-13.13"/>
</a>
</g>
</g>
<!-- Node5 -->
<g id="Node000005" class="node">
<title>Node5</title>
<g id="a_Node000005"><a xlink:href="main_8c.html#a3c04138a5bfe5d72780bb7e82a18e627" target="_top" xlink:title=" ">
<polygon fill="white" stroke="#666666" points="37,-19.25 0,-19.25 0,0 37,0 37,-19.25"/>
<text xml:space="preserve" text-anchor="middle" x="18.5" y="-5.75" font-family="Helvetica,sans-Serif" font-size="10.00">main</text>
</a>
</g>
</g>
<!-- Node4&#45;&gt;Node5 -->
<g id="edge4_Node000004_Node000005" class="edge">
<title>Node4&#45;&gt;Node5</title>
<g id="a_edge4_Node000004_Node000005"><a xlink:title=" ">
<path fill="none" stroke="#63b8ff" d="M61.14,-9.62C52.68,-9.62 44.32,-9.62 37.34,-9.62"/>
<polygon fill="#63b8ff" stroke="#63b8ff" points="61.13,-13.13 71.13,-9.63 61.13,-6.13 61.13,-13.13"/>
</a>
</g>
</g>
</g>
</svg>
