<?xml version="1.0" encoding="UTF-8" standalone="no"?>
<!DOCTYPE svg PUBLIC "-//W3C//DTD SVG 1.1//EN"
 "http://www.w3.org/Graphics/SVG/1.1/DTD/svg11.dtd">
<!-- Generated by graphviz version 14.0.0 (20250921.2048)
 -->
<!-- Title: apply_parent_redirs Pages: 1 -->
<svg width="270pt" height="64pt"
 viewBox="0.00 0.00 270.00 64.00" xmlns="http://www.w3.org/2000/svg" xmlns:xlink="http://www.w3.org/1999/xlink">
<g id="graph0" class="graph" transform="scale(1 1) rotate(0) translate(4 60.25)">
<title>apply_parent_redirs</title>
<!-- Node1 -->
<g id="Node000001" class="node">
<title>Node1</title>
<g id="a_Node000001"><a xlink:title=" ">
<polygon fill="#999999" stroke="#666666" points="100.75,-37.25 0,-37.25 0,-18 100.75,-18 100.75,-37.25"/>
<text xml:space="preserve" text-anchor="middle" x="50.38" y="-23.75" font-family="Helvetica,sans-Serif" font-size="10.00">apply_parent_redirs</text>
</a>
</g>
</g>
<!-- Node2 -->
<g id="Node000002" class="node">
<title>Node2</title>
<g id="a_Node000002"><a xlink:href="executor_8c.html#ae429e7c7ee7771107c2c665b5e624fd3" target="_top" xlink:title=" ">
<polygon fill="white" stroke="#666666" points="261.5,-56.25 136.75,-56.25 136.75,-37 261.5,-37 261.5,-56.25"/>
<text xml:space="preserve" text-anchor="middle" x="199.12" y="-42.75" font-family="Helvetica,sans-Serif" font-size="10.00">ensure_saved_descriptor</text>
</a>
</g>
</g>
<!-- Node1&#45;&gt;Node2 -->
<g id="edge1_Node000001_Node000002" class="edge">
<title>Node1&#45;&gt;Node2</title>
<g id="a_edge1_Node000001_Node000002"><a xlink:title=" ">
<path fill="none" stroke="#63b8ff" d="M101.06,-34.06C108.74,-35.05 116.82,-36.1 124.89,-37.14"/>
<polygon fill="#63b8ff" stroke="#63b8ff" points="124.39,-40.61 134.76,-38.42 125.29,-33.67 124.39,-40.61"/>
</a>
</g>
</g>
<!-- Node3 -->
<g id="Node000003" class="node">
<title>Node3</title>
<g id="a_Node000003"><a xlink:href="executor_8c.html#ac02ab15bcfd6667d235f5087d4c828c6" target="_top" xlink:title=" ">
<polygon fill="white" stroke="#666666" points="242.75,-19.25 155.5,-19.25 155.5,0 242.75,0 242.75,-19.25"/>
<text xml:space="preserve" text-anchor="middle" x="199.12" y="-5.75" font-family="Helvetica,sans-Serif" font-size="10.00">open_redirection</text>
</a>
</g>
</g>
<!-- Node1&#45;&gt;Node3 -->
<g id="edge2_Node000001_Node000003" class="edge">
<title>Node1&#45;&gt;Node3</title>
<g id="a_edge2_Node000001_Node000003"><a xlink:title=" ">
<path fill="none" stroke="#63b8ff" d="M101.06,-21.53C114.97,-19.82 130.15,-17.96 144.29,-16.23"/>
<polygon fill="#63b8ff" stroke="#63b8ff" points="144.36,-19.75 153.86,-15.05 143.5,-12.8 144.36,-19.75"/>
</a>
</g>
</g>
</g>
</svg>
