<?xml version="1.0" encoding="UTF-8" standalone="no"?>
<!DOCTYPE svg PUBLIC "-//W3C//DTD SVG 1.1//EN"
 "http://www.w3.org/Graphics/SVG/1.1/DTD/svg11.dtd">
<!-- Generated by graphviz version 14.0.0 (20250921.2048)
 -->
<!-- Title: gs_strbuf_reserve Pages: 1 -->
<svg width="1192pt" height="118pt"
 viewBox="0.00 0.00 1192.00 118.00" xmlns="http://www.w3.org/2000/svg" xmlns:xlink="http://www.w3.org/1999/xlink">
<g id="graph0" class="graph" transform="scale(1 1) rotate(0) translate(4 114.36)">
<title>gs_strbuf_reserve</title>
<!-- Node1 -->
<g id="Node000001" class="node">
<title>Node1</title>
<g id="a_Node000001"><a xlink:title=" ">
<polygon fill="#999999" stroke="#666666" points="1183.75,-72.36 1089.75,-72.36 1089.75,-53.11 1183.75,-53.11 1183.75,-72.36"/>
<text xml:space="preserve" text-anchor="middle" x="1136.75" y="-58.86" font-family="Helvetica,sans-Serif" font-size="10.00">gs_strbuf_reserve</text>
</a>
</g>
</g>
<!-- Node2 -->
<g id="Node000002" class="node">
<title>Node2</title>
<g id="a_Node000002"><a xlink:href="executor_8c.html#a60031a3179243a175f1ee3ff361d95d0" target="_top" xlink:title=" ">
<polygon fill="white" stroke="#666666" points="897.5,-110.36 780.25,-110.36 780.25,-91.11 897.5,-91.11 897.5,-110.36"/>
<text xml:space="preserve" text-anchor="middle" x="838.88" y="-96.86" font-family="Helvetica,sans-Serif" font-size="10.00">gs_strbuf_append_char</text>
</a>
</g>
</g>
<!-- Node1&#45;&gt;Node2 -->
<g id="edge1_Node000001_Node000002" class="edge">
<title>Node1&#45;&gt;Node2</title>
<g id="a_edge1_Node000001_Node000002"><a xlink:title=" ">
<path fill="none" stroke="#63b8ff" d="M1078.16,-70.13C1026.19,-76.81 950.11,-86.58 897.98,-93.28"/>
<polygon fill="#63b8ff" stroke="#63b8ff" points="1078.55,-73.61 1088.02,-68.87 1077.65,-66.67 1078.55,-73.61"/>
</a>
</g>
</g>
<!-- Node10 -->
<g id="Node000010" class="node">
<title>Node10</title>
<g id="a_Node000010"><a xlink:href="executor_8c.html#a1dec8046147c6440f1d9d5b7c6e02776" target="_top" xlink:title=" ">
<polygon fill="white" stroke="#666666" points="1053.75,-53.36 933.5,-53.36 933.5,-34.11 1053.75,-34.11 1053.75,-53.36"/>
<text xml:space="preserve" text-anchor="middle" x="993.62" y="-39.86" font-family="Helvetica,sans-Serif" font-size="10.00">gs_strbuf_append_mem</text>
</a>
</g>
</g>
<!-- Node1&#45;&gt;Node10 -->
<g id="edge10_Node000001_Node000010" class="edge">
<title>Node1&#45;&gt;Node10</title>
<g id="a_edge10_Node000001_Node000010"><a xlink:title=" ">
<path fill="none" stroke="#63b8ff" d="M1078.4,-55.02C1070.38,-53.94 1062.12,-52.82 1054.06,-51.74"/>
<polygon fill="#63b8ff" stroke="#63b8ff" points="1077.66,-58.45 1088.04,-56.31 1078.6,-51.51 1077.66,-58.45"/>
</a>
</g>
</g>
<!-- Node3 -->
<g id="Node000003" class="node">
<title>Node3</title>
<g id="a_Node000003"><a xlink:href="executor_8c.html#aadd17e0d55af2f7cc9b0fc2c6eba9cc2" target="_top" xlink:title=" ">
<polygon fill="white" stroke="#666666" points="744.25,-72.36 648,-72.36 648,-53.11 744.25,-53.11 744.25,-72.36"/>
<text xml:space="preserve" text-anchor="middle" x="696.12" y="-58.86" font-family="Helvetica,sans-Serif" font-size="10.00">append_parameter</text>
</a>
</g>
</g>
<!-- Node2&#45;&gt;Node3 -->
<g id="edge2_Node000002_Node000003" class="edge">
<title>Node2&#45;&gt;Node3</title>
<g id="a_edge2_Node000002_Node000003"><a xlink:title=" ">
<path fill="none" stroke="#63b8ff" d="M789.56,-87.69C771.43,-82.8 751.11,-77.31 734.16,-72.74"/>
<polygon fill="#63b8ff" stroke="#63b8ff" points="788.5,-91.03 799.06,-90.26 790.32,-84.27 788.5,-91.03"/>
</a>
</g>
</g>
<!-- Node4 -->
<g id="Node000004" class="node">
<title>Node4</title>
<g id="a_Node000004"><a xlink:href="executor_8c.html#a4c4dbe01e0481457aa72d7c3137fdbf0" target="_top" xlink:title=" ">
<polygon fill="white" stroke="#666666" points="612,-72.36 538.25,-72.36 538.25,-53.11 612,-53.11 612,-72.36"/>
<text xml:space="preserve" text-anchor="middle" x="575.12" y="-58.86" font-family="Helvetica,sans-Serif" font-size="10.00">expand_word</text>
</a>
</g>
</g>
<!-- Node2&#45;&gt;Node4 -->
<g id="edge9_Node000002_Node000004" class="edge">
<title>Node2&#45;&gt;Node4</title>
<g id="a_edge9_Node000002_Node000004"><a xlink:title=" ">
<path fill="none" stroke="#63b8ff" d="M768.39,-96.44C732.29,-93.54 687.56,-88.9 648,-81.74 635.43,-79.46 621.83,-76.1 609.88,-72.84"/>
<polygon fill="#63b8ff" stroke="#63b8ff" points="768.04,-99.93 778.28,-97.21 768.58,-92.95 768.04,-99.93"/>
</a>
</g>
</g>
<!-- Node3&#45;&gt;Node4 -->
<g id="edge3_Node000003_Node000004" class="edge">
<title>Node3&#45;&gt;Node4</title>
<g id="a_edge3_Node000003_Node000004"><a xlink:title=" ">
<path fill="none" stroke="#63b8ff" d="M636.28,-62.74C628.11,-62.74 619.92,-62.74 612.33,-62.74"/>
<polygon fill="#63b8ff" stroke="#63b8ff" points="636.24,-66.24 646.24,-62.74 636.24,-59.24 636.24,-66.24"/>
</a>
</g>
</g>
<!-- Node5 -->
<g id="Node000005" class="node">
<title>Node5</title>
<g id="a_Node000005"><a xlink:href="executor_8c.html#a8810c167f157bdd60f735d7d05989d19" target="_top" xlink:title=" ">
<polygon fill="white" stroke="#666666" points="502.25,-72.36 406,-72.36 406,-53.11 502.25,-53.11 502.25,-72.36"/>
<text xml:space="preserve" text-anchor="middle" x="454.12" y="-58.86" font-family="Helvetica,sans-Serif" font-size="10.00">prepare_command</text>
</a>
</g>
</g>
<!-- Node4&#45;&gt;Node5 -->
<g id="edge4_Node000004_Node000005" class="edge">
<title>Node4&#45;&gt;Node5</title>
<g id="a_edge4_Node000004_Node000005"><a xlink:title=" ">
<path fill="none" stroke="#63b8ff" d="M526.53,-62.74C518.67,-62.74 510.52,-62.74 502.66,-62.74"/>
<polygon fill="#63b8ff" stroke="#63b8ff" points="526.26,-66.24 536.26,-62.74 526.26,-59.24 526.26,-66.24"/>
</a>
</g>
</g>
<!-- Node6 -->
<g id="Node000006" class="node">
<title>Node6</title>
<g id="a_Node000006"><a xlink:href="executor_8c.html#a627081dd2de67c9a6880ddb4e695af46" target="_top" xlink:title=" ">
<polygon fill="white" stroke="#666666" points="370,-72.36 265.5,-72.36 265.5,-53.11 370,-53.11 370,-72.36"/>
<text xml:space="preserve" text-anchor="middle" x="317.75" y="-58.86" font-family="Helvetica,sans-Serif" font-size="10.00">gs_execute_pipeline</text>
</a>
</g>
</g>
<!-- Node5&#45;&gt;Node6 -->
<g id="edge5_Node000005_Node000006" class="edge">
<title>Node5&#45;&gt;Node6</title>
<g id="a_edge5_Node000005_Node000006"><a xlink:title=" ">
<path fill="none" stroke="#63b8ff" d="M394.5,-62.74C386.43,-62.74 378.19,-62.74 370.26,-62.74"/>
<polygon fill="#63b8ff" stroke="#63b8ff" points="394.24,-66.24 404.24,-62.74 394.24,-59.24 394.24,-66.24"/>
</a>
</g>
</g>
<!-- Node7 -->
<g id="Node000007" class="node">
<title>Node7</title>
<g id="a_Node000007"><a xlink:href="shell_8c.html#add8fb7be4e80992b6d5e0e74b22e513f" target="_top" xlink:title=" ">
<polygon fill="white" stroke="#666666" points="229.5,-72.36 179.75,-72.36 179.75,-53.11 229.5,-53.11 229.5,-72.36"/>
<text xml:space="preserve" text-anchor="middle" x="204.62" y="-58.86" font-family="Helvetica,sans-Serif" font-size="10.00">run_line</text>
</a>
</g>
</g>
<!-- Node6&#45;&gt;Node7 -->
<g id="edge6_Node000006_Node000007" class="edge">
<title>Node6&#45;&gt;Node7</title>
<g id="a_edge6_Node000006_Node000007"><a xlink:title=" ">
<path fill="none" stroke="#63b8ff" d="M253.61,-62.74C245.25,-62.74 237.12,-62.74 229.99,-62.74"/>
<polygon fill="#63b8ff" stroke="#63b8ff" points="253.58,-66.24 263.58,-62.74 253.58,-59.24 253.58,-66.24"/>
</a>
</g>
</g>
<!-- Node8 -->
<g id="Node000008" class="node">
<title>Node8</title>
<g id="a_Node000008"><a xlink:href="shell_8c.html#ac693cbc15f3a72c516535611b597062c" target="_top" xlink:title=" ">
<polygon fill="white" stroke="#666666" points="143.75,-72.36 73,-72.36 73,-53.11 143.75,-53.11 143.75,-72.36"/>
<text xml:space="preserve" text-anchor="middle" x="108.38" y="-58.86" font-family="Helvetica,sans-Serif" font-size="10.00">gs_shell_run</text>
</a>
</g>
</g>
<!-- Node7&#45;&gt;Node8 -->
<g id="edge7_Node000007_Node000008" class="edge">
<title>Node7&#45;&gt;Node8</title>
<g id="a_edge7_Node000007_Node000008"><a xlink:title=" ">
<path fill="none" stroke="#63b8ff" d="M168,-62.74C160.21,-62.74 151.98,-62.74 144.22,-62.74"/>
<polygon fill="#63b8ff" stroke="#63b8ff" points="167.84,-66.24 177.84,-62.74 167.84,-59.24 167.84,-66.24"/>
</a>
</g>
</g>
<!-- Node9 -->
<g id="Node000009" class="node">
<title>Node9</title>
<g id="a_Node000009"><a xlink:href="main_8c.html#a3c04138a5bfe5d72780bb7e82a18e627" target="_top" xlink:title=" ">
<polygon fill="white" stroke="#666666" points="37,-72.36 0,-72.36 0,-53.11 37,-53.11 37,-72.36"/>
<text xml:space="preserve" text-anchor="middle" x="18.5" y="-58.86" font-family="Helvetica,sans-Serif" font-size="10.00">main</text>
</a>
</g>
</g>
<!-- Node8&#45;&gt;Node9 -->
<g id="edge8_Node000008_Node000009" class="edge">
<title>Node8&#45;&gt;Node9</title>
<g id="a_edge8_Node000008_Node000009"><a xlink:title=" ">
<path fill="none" stroke="#63b8ff" d="M61.14,-62.74C52.68,-62.74 44.32,-62.74 37.34,-62.74"/>
<polygon fill="#63b8ff" stroke="#63b8ff" points="61.13,-66.24 71.13,-62.74 61.13,-59.24 61.13,-66.24"/>
</a>
</g>
</g>
<!-- Node10&#45;&gt;Node3 -->
<g id="edge11_Node000010_Node000003" class="edge">
<title>Node10&#45;&gt;Node3</title>
<g id="a_edge11_Node000010_Node000003"><a xlink:title=" ">
<path fill="none" stroke="#63b8ff" d="M921.77,-48.29C866.81,-51.83 792.17,-56.63 744.32,-59.7"/>
<polygon fill="#63b8ff" stroke="#63b8ff" points="921.92,-51.79 931.67,-47.66 921.47,-44.81 921.92,-51.79"/>
</a>
</g>
</g>
<!-- Node10&#45;&gt;Node4 -->
<g id="edge12_Node000010_Node000004" class="edge">
<title>Node10&#45;&gt;Node4</title>
<g id="a_edge12_Node000010_Node000004"><a xlink:title=" ">
<path fill="none" stroke="#63b8ff" d="M963.29,-28.64C944.92,-20.05 920.46,-10.15 897.5,-5.74 786.21,15.67 652.66,-31.16 599.56,-52.68"/>
<polygon fill="#63b8ff" stroke="#63b8ff" points="961.72,-31.77 972.25,-32.97 964.76,-25.47 961.72,-31.77"/>
</a>
</g>
</g>
<!-- Node11 -->
<g id="Node000011" class="node">
<title>Node11</title>
<g id="a_Node000011"><a xlink:href="executor_8c.html#abaf58208dfc819aaa164dd4e9bb9106d" target="_top" xlink:title=" ">
<polygon fill="white" stroke="#666666" points="893.38,-34.36 784.38,-34.36 784.38,-15.11 893.38,-15.11 893.38,-34.36"/>
<text xml:space="preserve" text-anchor="middle" x="838.88" y="-20.86" font-family="Helvetica,sans-Serif" font-size="10.00">gs_strbuf_append_int</text>
</a>
</g>
</g>
<!-- Node10&#45;&gt;Node11 -->
<g id="edge13_Node000010_Node000011" class="edge">
<title>Node10&#45;&gt;Node11</title>
<g id="a_edge13_Node000010_Node000011"><a xlink:title=" ">
<path fill="none" stroke="#63b8ff" d="M921.98,-34.95C912.4,-33.76 902.69,-32.55 893.48,-31.41"/>
<polygon fill="#63b8ff" stroke="#63b8ff" points="921.27,-38.39 931.63,-36.15 922.14,-31.44 921.27,-38.39"/>
</a>
</g>
</g>
<!-- Node11&#45;&gt;Node3 -->
<g id="edge14_Node000011_Node000003" class="edge">
<title>Node11&#45;&gt;Node3</title>
<g id="a_edge14_Node000011_Node000003"><a xlink:title=" ">
<path fill="none" stroke="#63b8ff" d="M789.56,-37.78C771.43,-42.68 751.11,-48.16 734.16,-52.74"/>
<polygon fill="#63b8ff" stroke="#63b8ff" points="790.32,-41.2 799.06,-35.22 788.5,-34.44 790.32,-41.2"/>
</a>
</g>
</g>
</g>
</svg>
