<?xml version="1.0" encoding="UTF-8" standalone="no"?>
<!DOCTYPE svg PUBLIC "-//W3C//DTD SVG 1.1//EN"
 "http://www.w3.org/Graphics/SVG/1.1/DTD/svg11.dtd">
<!-- Generated by graphviz version 14.0.0 (20250921.2048)
 -->
<!-- Title: apply_child_redirs Pages: 1 -->
<svg width="835pt" height="64pt"
 viewBox="0.00 0.00 835.00 64.00" xmlns="http://www.w3.org/2000/svg" xmlns:xlink="http://www.w3.org/1999/xlink">
<g id="graph0" class="graph" transform="scale(1 1) rotate(0) translate(4 60.25)">
<title>apply_child_redirs</title>
<!-- Node1 -->
<g id="Node000001" class="node">
<title>Node1</title>
<g id="a_Node000001"><a xlink:title=" ">
<polygon fill="#999999" stroke="#666666" points="826.75,-37.25 732.75,-37.25 732.75,-18 826.75,-18 826.75,-37.25"/>
<text xml:space="preserve" text-anchor="middle" x="779.75" y="-23.75" font-family="Helvetica,sans-Serif" font-size="10.00">apply_child_redirs</text>
</a>
</g>
</g>
<!-- Node2 -->
<g id="Node000002" class="node">
<title>Node2</title>
<g id="a_Node000002"><a xlink:href="executor_8c.html#aaf4ed791984ad4ea065d3aa771bb522e" target="_top" xlink:title=" ">
<polygon fill="white" stroke="#666666" points="692.25,-56.25 585.5,-56.25 585.5,-37 692.25,-37 692.25,-56.25"/>
<text xml:space="preserve" text-anchor="middle" x="638.88" y="-42.75" font-family="Helvetica,sans-Serif" font-size="10.00">execute_child_builtin</text>
</a>
</g>
</g>
<!-- Node1&#45;&gt;Node2 -->
<g id="edge1_Node000001_Node000002" class="edge">
<title>Node1&#45;&gt;Node2</title>
<g id="a_edge1_Node000001_Node000002"><a xlink:title=" ">
<path fill="none" stroke="#63b8ff" d="M721.17,-35.5C711.72,-36.8 701.96,-38.13 692.63,-39.41"/>
<polygon fill="#63b8ff" stroke="#63b8ff" points="721.57,-38.98 731.01,-34.16 720.62,-32.04 721.57,-38.98"/>
</a>
</g>
</g>
<!-- Node8 -->
<g id="Node000008" class="node">
<title>Node8</title>
<g id="a_Node000008"><a xlink:href="executor_8c.html#a0ad76fce4b9cb6d01923191b9ef6d01b" target="_top" xlink:title=" ">
<polygon fill="white" stroke="#666666" points="696.75,-19.25 581,-19.25 581,0 696.75,0 696.75,-19.25"/>
<text xml:space="preserve" text-anchor="middle" x="638.88" y="-5.75" font-family="Helvetica,sans-Serif" font-size="10.00">execute_child_external</text>
</a>
</g>
</g>
<!-- Node1&#45;&gt;Node8 -->
<g id="edge7_Node000001_Node000008" class="edge">
<title>Node1&#45;&gt;Node8</title>
<g id="a_edge7_Node000001_Node000008"><a xlink:title=" ">
<path fill="none" stroke="#63b8ff" d="M721.35,-20.18C713.32,-19.14 705.06,-18.07 697.04,-17.03"/>
<polygon fill="#63b8ff" stroke="#63b8ff" points="720.64,-23.62 731.01,-21.44 721.54,-16.68 720.64,-23.62"/>
</a>
</g>
</g>
<!-- Node3 -->
<g id="Node000003" class="node">
<title>Node3</title>
<g id="a_Node000003"><a xlink:href="executor_8c.html#a2ab3b9eedfbce8c4645504683c5299e3" target="_top" xlink:title=" ">
<polygon fill="white" stroke="#666666" points="545,-37.25 406,-37.25 406,-18 545,-18 545,-37.25"/>
<text xml:space="preserve" text-anchor="middle" x="475.5" y="-23.75" font-family="Helvetica,sans-Serif" font-size="10.00">execute_pipeline_processes</text>
</a>
</g>
</g>
<!-- Node2&#45;&gt;Node3 -->
<g id="edge2_Node000002_Node000003" class="edge">
<title>Node2&#45;&gt;Node3</title>
<g id="a_edge2_Node000002_Node000003"><a xlink:title=" ">
<path fill="none" stroke="#63b8ff" d="M573.81,-39.08C564.45,-37.98 554.78,-36.84 545.33,-35.73"/>
<polygon fill="#63b8ff" stroke="#63b8ff" points="573.19,-42.53 583.53,-40.23 574.01,-35.58 573.19,-42.53"/>
</a>
</g>
</g>
<!-- Node4 -->
<g id="Node000004" class="node">
<title>Node4</title>
<g id="a_Node000004"><a xlink:href="executor_8c.html#a627081dd2de67c9a6880ddb4e695af46" target="_top" xlink:title=" ">
<polygon fill="white" stroke="#666666" points="370,-37.25 265.5,-37.25 265.5,-18 370,-18 370,-37.25"/>
<text xml:space="preserve" text-anchor="middle" x="317.75" y="-23.75" font-family="Helvetica,sans-Serif" font-size="10.00">gs_execute_pipeline</text>
</a>
</g>
</g>
<!-- Node3&#45;&gt;Node4 -->
<g id="edge3_Node000003_Node000004" class="edge">
<title>Node3&#45;&gt;Node4</title>
<g id="a_edge3_Node000003_Node000004"><a xlink:title=" ">
<path fill="none" stroke="#63b8ff" d="M394.25,-27.62C386.12,-27.62 378.02,-27.62 370.31,-27.62"/>
<polygon fill="#63b8ff" stroke="#63b8ff" points="394.22,-31.13 404.22,-27.63 394.22,-24.13 394.22,-31.13"/>
</a>
</g>
</g>
<!-- Node5 -->
<g id="Node000005" class="node">
<title>Node5</title>
<g id="a_Node000005"><a xlink:href="shell_8c.html#add8fb7be4e80992b6d5e0e74b22e513f" target="_top" xlink:title=" ">
<polygon fill="white" stroke="#666666" points="229.5,-37.25 179.75,-37.25 179.75,-18 229.5,-18 229.5,-37.25"/>
<text xml:space="preserve" text-anchor="middle" x="204.62" y="-23.75" font-family="Helvetica,sans-Serif" font-size="10.00">run_line</text>
</a>
</g>
</g>
<!-- Node4&#45;&gt;Node5 -->
<g id="edge4_Node000004_Node000005" class="edge">
<title>Node4&#45;&gt;Node5</title>
<g id="a_edge4_Node000004_Node000005"><a xlink:title=" ">
<path fill="none" stroke="#63b8ff" d="M253.61,-27.62C245.25,-27.62 237.12,-27.62 229.99,-27.62"/>
<polygon fill="#63b8ff" stroke="#63b8ff" points="253.58,-31.13 263.58,-27.63 253.58,-24.13 253.58,-31.13"/>
</a>
</g>
</g>
<!-- Node6 -->
<g id="Node000006" class="node">
<title>Node6</title>
<g id="a_Node000006"><a xlink:href="shell_8c.html#ac693cbc15f3a72c516535611b597062c" target="_top" xlink:title=" ">
<polygon fill="white" stroke="#666666" points="143.75,-37.25 73,-37.25 73,-18 143.75,-18 143.75,-37.25"/>
<text xml:space="preserve" text-anchor="middle" x="108.38" y="-23.75" font-family="Helvetica,sans-Serif" font-size="10.00">gs_shell_run</text>
</a>
</g>
</g>
<!-- Node5&#45;&gt;Node6 -->
<g id="edge5_Node000005_Node000006" class="edge">
<title>Node5&#45;&gt;Node6</title>
<g id="a_edge5_Node000005_Node000006"><a xlink:title=" ">
<path fill="none" stroke="#63b8ff" d="M168,-27.62C160.21,-27.62 151.98,-27.62 144.22,-27.62"/>
<polygon fill="#63b8ff" stroke="#63b8ff" points="167.84,-31.13 177.84,-27.63 167.84,-24.13 167.84,-31.13"/>
</a>
</g>
</g>
<!-- Node7 -->
<g id="Node000007" class="node">
<title>Node7</title>
<g id="a_Node000007"><a xlink:href="main_8c.html#a3c04138a5bfe5d72780bb7e82a18e627" target="_top" xlink:title=" ">
<polygon fill="white" stroke="#666666" points="37,-37.25 0,-37.25 0,-18 37,-18 37,-37.25"/>
<text xml:space="preserve" text-anchor="middle" x="18.5" y="-23.75" font-family="Helvetica,sans-Serif" font-size="10.00">main</text>
</a>
</g>
</g>
<!-- Node6&#45;&gt;Node7 -->
<g id="edge6_Node000006_Node000007" class="edge">
<title>Node6&#45;&gt;Node7</title>
<g id="a_edge6_Node000006_Node000007"><a xlink:title=" ">
<path fill="none" stroke="#63b8ff" d="M61.14,-27.62C52.68,-27.62 44.32,-27.62 37.34,-27.62"/>
<polygon fill="#63b8ff" stroke="#63b8ff" points="61.13,-31.13 71.13,-27.63 61.13,-24.13 61.13,-31.13"/>
</a>
</g>
</g>
<!-- Node8&#45;&gt;Node3 -->
<g id="edge8_Node000008_Node000003" class="edge">
<title>Node8&#45;&gt;Node3</title>
<g id="a_edge8_Node000008_Node000003"><a xlink:title=" ">
<path fill="none" stroke="#63b8ff" d="M569.11,-17.3C561.21,-18.18 553.16,-19.07 545.26,-19.96"/>
<polygon fill="#63b8ff" stroke="#63b8ff" points="569.47,-20.78 579.02,-16.19 568.7,-13.82 569.47,-20.78"/>
</a>
</g>
</g>
</g>
</svg>
