<?xml version="1.0" encoding="UTF-8" standalone="no"?>
<!DOCTYPE svg PUBLIC "-//W3C//DTD SVG 1.1//EN"
 "http://www.w3.org/Graphics/SVG/1.1/DTD/svg11.dtd">
<!-- Generated by graphviz version 14.0.0 (20250921.2048)
 -->
<!-- Title: open_redirection Pages: 1 -->
<svg width="958pt" height="119pt"
 viewBox="0.00 0.00 958.00 119.00" xmlns="http://www.w3.org/2000/svg" xmlns:xlink="http://www.w3.org/1999/xlink">
<g id="graph0" class="graph" transform="scale(1 1) rotate(0) translate(4 115.25)">
<title>open_redirection</title>
<!-- Node1 -->
<g id="Node000001" class="node">
<title>Node1</title>
<g id="a_Node000001"><a xlink:title=" ">
<polygon fill="#999999" stroke="#666666" points="950,-56.25 862.75,-56.25 862.75,-37 950,-37 950,-56.25"/>
<text xml:space="preserve" text-anchor="middle" x="906.38" y="-42.75" font-family="Helvetica,sans-Serif" font-size="10.00">open_redirection</text>
</a>
</g>
</g>
<!-- Node2 -->
<g id="Node000002" class="node">
<title>Node2</title>
<g id="a_Node000002"><a xlink:href="executor_8c.html#a1d69266d9e634c8ebfb4934e6eb1c7f4" target="_top" xlink:title=" ">
<polygon fill="white" stroke="#666666" points="826.75,-75.25 732.75,-75.25 732.75,-56 826.75,-56 826.75,-75.25"/>
<text xml:space="preserve" text-anchor="middle" x="779.75" y="-61.75" font-family="Helvetica,sans-Serif" font-size="10.00">apply_child_redirs</text>
</a>
</g>
</g>
<!-- Node1&#45;&gt;Node2 -->
<g id="edge1_Node000001_Node000002" class="edge">
<title>Node1&#45;&gt;Node2</title>
<g id="a_edge1_Node000001_Node000002"><a xlink:title=" ">
<path fill="none" stroke="#63b8ff" d="M851.29,-54.87C843.24,-56.1 835,-57.35 827.13,-58.55"/>
<polygon fill="#63b8ff" stroke="#63b8ff" points="851.63,-58.36 860.99,-53.39 850.58,-51.44 851.63,-58.36"/>
</a>
</g>
</g>
<!-- Node10 -->
<g id="Node000010" class="node">
<title>Node10</title>
<g id="a_Node000010"><a xlink:href="executor_8c.html#a73fa3c33ee09db9f3ddb1e960814af9f" target="_top" xlink:title=" ">
<polygon fill="white" stroke="#666666" points="689.25,-37.25 588.5,-37.25 588.5,-18 689.25,-18 689.25,-37.25"/>
<text xml:space="preserve" text-anchor="middle" x="638.88" y="-23.75" font-family="Helvetica,sans-Serif" font-size="10.00">apply_parent_redirs</text>
</a>
</g>
</g>
<!-- Node1&#45;&gt;Node10 -->
<g id="edge10_Node000001_Node000010" class="edge">
<title>Node1&#45;&gt;Node10</title>
<g id="a_edge10_Node000001_Node000010"><a xlink:title=" ">
<path fill="none" stroke="#63b8ff" d="M851.15,-42.74C803.76,-39.35 735.53,-34.47 689.55,-31.18"/>
<polygon fill="#63b8ff" stroke="#63b8ff" points="850.69,-46.22 860.91,-43.44 851.19,-39.24 850.69,-46.22"/>
</a>
</g>
</g>
<!-- Node3 -->
<g id="Node000003" class="node">
<title>Node3</title>
<g id="a_Node000003"><a xlink:href="executor_8c.html#aaf4ed791984ad4ea065d3aa771bb522e" target="_top" xlink:title=" ">
<polygon fill="white" stroke="#666666" points="692.25,-111.25 585.5,-111.25 585.5,-92 692.25,-92 692.25,-111.25"/>
<text xml:space="preserve" text-anchor="middle" x="638.88" y="-97.75" font-family="Helvetica,sans-Serif" font-size="10.00">execute_child_builtin</text>
</a>
</g>
</g>
<!-- Node2&#45;&gt;Node3 -->
<g id="edge2_Node000002_Node000003" class="edge">
<title>Node2&#45;&gt;Node3</title>
<g id="a_edge2_Node000002_Node000003"><a xlink:title=" ">
<path fill="none" stroke="#63b8ff" d="M728.6,-78.62C712.15,-82.89 694.12,-87.56 678.64,-91.58"/>
<polygon fill="#63b8ff" stroke="#63b8ff" points="729.43,-82.03 738.23,-76.13 727.67,-75.25 729.43,-82.03"/>
</a>
</g>
</g>
<!-- Node9 -->
<g id="Node000009" class="node">
<title>Node9</title>
<g id="a_Node000009"><a xlink:href="executor_8c.html#a0ad76fce4b9cb6d01923191b9ef6d01b" target="_top" xlink:title=" ">
<polygon fill="white" stroke="#666666" points="696.75,-74.25 581,-74.25 581,-55 696.75,-55 696.75,-74.25"/>
<text xml:space="preserve" text-anchor="middle" x="638.88" y="-60.75" font-family="Helvetica,sans-Serif" font-size="10.00">execute_child_external</text>
</a>
</g>
</g>
<!-- Node2&#45;&gt;Node9 -->
<g id="edge8_Node000002_Node000009" class="edge">
<title>Node2&#45;&gt;Node9</title>
<g id="a_edge8_Node000002_Node000009"><a xlink:title=" ">
<path fill="none" stroke="#63b8ff" d="M721.07,-65.21C713.13,-65.15 704.97,-65.09 697.04,-65.04"/>
<polygon fill="#63b8ff" stroke="#63b8ff" points="720.97,-68.71 730.99,-65.28 721.02,-61.71 720.97,-68.71"/>
</a>
</g>
</g>
<!-- Node4 -->
<g id="Node000004" class="node">
<title>Node4</title>
<g id="a_Node000004"><a xlink:href="executor_8c.html#a2ab3b9eedfbce8c4645504683c5299e3" target="_top" xlink:title=" ">
<polygon fill="white" stroke="#666666" points="545,-93.25 406,-93.25 406,-74 545,-74 545,-93.25"/>
<text xml:space="preserve" text-anchor="middle" x="475.5" y="-79.75" font-family="Helvetica,sans-Serif" font-size="10.00">execute_pipeline_processes</text>
</a>
</g>
</g>
<!-- Node3&#45;&gt;Node4 -->
<g id="edge3_Node000003_Node000004" class="edge">
<title>Node3&#45;&gt;Node4</title>
<g id="a_edge3_Node000003_Node000004"><a xlink:title=" ">
<path fill="none" stroke="#63b8ff" d="M573.81,-94.48C564.45,-93.43 554.78,-92.36 545.33,-91.3"/>
<polygon fill="#63b8ff" stroke="#63b8ff" points="573.2,-97.93 583.53,-95.56 573.98,-90.98 573.2,-97.93"/>
</a>
</g>
</g>
<!-- Node5 -->
<g id="Node000005" class="node">
<title>Node5</title>
<g id="a_Node000005"><a xlink:href="executor_8c.html#a627081dd2de67c9a6880ddb4e695af46" target="_top" xlink:title=" ">
<polygon fill="white" stroke="#666666" points="370,-56.25 265.5,-56.25 265.5,-37 370,-37 370,-56.25"/>
<text xml:space="preserve" text-anchor="middle" x="317.75" y="-42.75" font-family="Helvetica,sans-Serif" font-size="10.00">gs_execute_pipeline</text>
</a>
</g>
</g>
<!-- Node4&#45;&gt;Node5 -->
<g id="edge4_Node000004_Node000005" class="edge">
<title>Node4&#45;&gt;Node5</title>
<g id="a_edge4_Node000004_Node000005"><a xlink:title=" ">
<path fill="none" stroke="#63b8ff" d="M420.78,-70.86C401.32,-66.24 379.62,-61.09 361.26,-56.72"/>
<polygon fill="#63b8ff" stroke="#63b8ff" points="419.93,-74.26 430.47,-73.16 421.55,-67.45 419.93,-74.26"/>
</a>
</g>
</g>
<!-- Node6 -->
<g id="Node000006" class="node">
<title>Node6</title>
<g id="a_Node000006"><a xlink:href="shell_8c.html#add8fb7be4e80992b6d5e0e74b22e513f" target="_top" xlink:title=" ">
<polygon fill="white" stroke="#666666" points="229.5,-56.25 179.75,-56.25 179.75,-37 229.5,-37 229.5,-56.25"/>
<text xml:space="preserve" text-anchor="middle" x="204.62" y="-42.75" font-family="Helvetica,sans-Serif" font-size="10.00">run_line</text>
</a>
</g>
</g>
<!-- Node5&#45;&gt;Node6 -->
<g id="edge5_Node000005_Node000006" class="edge">
<title>Node5&#45;&gt;Node6</title>
<g id="a_edge5_Node000005_Node000006"><a xlink:title=" ">
<path fill="none" stroke="#63b8ff" d="M253.61,-46.62C245.25,-46.62 237.12,-46.62 229.99,-46.62"/>
<polygon fill="#63b8ff" stroke="#63b8ff" points="253.58,-50.13 263.58,-46.63 253.58,-43.13 253.58,-50.13"/>
</a>
</g>
</g>
<!-- Node7 -->
<g id="Node000007" class="node">
<title>Node7</title>
<g id="a_Node000007"><a xlink:href="shell_8c.html#ac693cbc15f3a72c516535611b597062c" target="_top" xlink:title=" ">
<polygon fill="white" stroke="#666666" points="143.75,-56.25 73,-56.25 73,-37 143.75,-37 143.75,-56.25"/>
<text xml:space="preserve" text-anchor="middle" x="108.38" y="-42.75" font-family="Helvetica,sans-Serif" font-size="10.00">gs_shell_run</text>
</a>
</g>
</g>
<!-- Node6&#45;&gt;Node7 -->
<g id="edge6_Node000006_Node000007" class="edge">
<title>Node6&#45;&gt;Node7</title>
<g id="a_edge6_Node000006_Node000007"><a xlink:title=" ">
<path fill="none" stroke="#63b8ff" d="M168,-46.62C160.21,-46.62 151.98,-46.62 144.22,-46.62"/>
<polygon fill="#63b8ff" stroke="#63b8ff" points="167.84,-50.13 177.84,-46.63 167.84,-43.13 167.84,-50.13"/>
</a>
</g>
</g>
<!-- Node8 -->
<g id="Node000008" class="node">
<title>Node8</title>
<g id="a_Node000008"><a xlink:href="main_8c.html#a3c04138a5bfe5d72780bb7e82a18e627" target="_top" xlink:title=" ">
<polygon fill="white" stroke="#666666" points="37,-56.25 0,-56.25 0,-37 37,-37 37,-56.25"/>
<text xml:space="preserve" text-anchor="middle" x="18.5" y="-42.75" font-family="Helvetica,sans-Serif" font-size="10.00">main</text>
</a>
</g>
</g>
<!-- Node7&#45;&gt;Node8 -->
<g id="edge7_Node000007_Node000008" class="edge">
<title>Node7&#45;&gt;Node8</title>
<g id="a_edge7_Node000007_Node000008"><a xlink:title=" ">
<path fill="none" stroke="#63b8ff" d="M61.14,-46.62C52.68,-46.62 44.32,-46.62 37.34,-46.62"/>
<polygon fill="#63b8ff" stroke="#63b8ff" points="61.13,-50.13 71.13,-46.63 61.13,-43.13 61.13,-50.13"/>
</a>
</g>
</g>
<!-- Node9&#45;&gt;Node4 -->
<g id="edge9_Node000009_Node000004" class="edge">
<title>Node9&#45;&gt;Node4</title>
<g id="a_edge9_Node000009_Node000004"><a xlink:title=" ">
<path fill="none" stroke="#63b8ff" d="M569.11,-72.72C561.21,-73.65 553.16,-74.6 545.26,-75.53"/>
<polygon fill="#63b8ff" stroke="#63b8ff" points="569.5,-76.2 579.02,-71.55 568.68,-69.25 569.5,-76.2"/>
</a>
</g>
</g>
<!-- Node11 -->
<g id="Node000011" class="node">
<title>Node11</title>
<g id="a_Node000011"><a xlink:href="executor_8c.html#a06df5dd381b69bd54193289723496e34" target="_top" xlink:title=" ">
<polygon fill="white" stroke="#666666" points="532.25,-56.25 418.75,-56.25 418.75,-37 532.25,-37 532.25,-56.25"/>
<text xml:space="preserve" text-anchor="middle" x="475.5" y="-42.75" font-family="Helvetica,sans-Serif" font-size="10.00">execute_parent_builtin</text>
</a>
</g>
</g>
<!-- Node10&#45;&gt;Node11 -->
<g id="edge11_Node000010_Node000011" class="edge">
<title>Node10&#45;&gt;Node11</title>
<g id="a_edge11_Node000010_Node000011"><a xlink:title=" ">
<path fill="none" stroke="#63b8ff" d="M576.74,-34.82C562.23,-36.53 546.82,-38.35 532.55,-40.03"/>
<polygon fill="#63b8ff" stroke="#63b8ff" points="577.12,-38.3 586.64,-33.66 576.3,-31.35 577.12,-38.3"/>
</a>
</g>
</g>
<!-- Node12 -->
<g id="Node000012" class="node">
<title>Node12</title>
<g id="a_Node000012"><a xlink:href="executor_8c.html#a6546ee9f45ec27fb2618b0e53ceeb92f" target="_top" xlink:title=" ">
<polygon fill="white" stroke="#666666" points="524.38,-19.25 426.62,-19.25 426.62,0 524.38,0 524.38,-19.25"/>
<text xml:space="preserve" text-anchor="middle" x="475.5" y="-5.75" font-family="Helvetica,sans-Serif" font-size="10.00">execute_redir_only</text>
</a>
</g>
</g>
<!-- Node10&#45;&gt;Node12 -->
<g id="edge13_Node000010_Node000012" class="edge">
<title>Node10&#45;&gt;Node12</title>
<g id="a_edge13_Node000010_Node000012"><a xlink:title=" ">
<path fill="none" stroke="#63b8ff" d="M577,-20.83C559.7,-18.91 541.12,-16.83 524.69,-15"/>
<polygon fill="#63b8ff" stroke="#63b8ff" points="576.31,-24.28 586.64,-21.91 577.09,-17.32 576.31,-24.28"/>
</a>
</g>
</g>
<!-- Node11&#45;&gt;Node5 -->
<g id="edge12_Node000011_Node000005" class="edge">
<title>Node11&#45;&gt;Node5</title>
<g id="a_edge12_Node000011_Node000005"><a xlink:title=" ">
<path fill="none" stroke="#63b8ff" d="M407.13,-46.62C394.86,-46.62 382.23,-46.62 370.49,-46.62"/>
<polygon fill="#63b8ff" stroke="#63b8ff" points="406.76,-50.13 416.76,-46.63 406.76,-43.13 406.76,-50.13"/>
</a>
</g>
</g>
<!-- Node12&#45;&gt;Node5 -->
<g id="edge14_Node000012_Node000005" class="edge">
<title>Node12&#45;&gt;Node5</title>
<g id="a_edge14_Node000012_Node000005"><a xlink:title=" ">
<path fill="none" stroke="#63b8ff" d="M420.78,-22.39C401.32,-27.01 379.62,-32.16 361.26,-36.53"/>
<polygon fill="#63b8ff" stroke="#63b8ff" points="421.55,-25.8 430.47,-20.09 419.93,-18.99 421.55,-25.8"/>
</a>
</g>
</g>
</g>
</svg>
