<?xml version="1.0" encoding="UTF-8" standalone="no"?>
<!DOCTYPE svg PUBLIC "-//W3C//DTD SVG 1.1//EN"
 "http://www.w3.org/Graphics/SVG/1.1/DTD/svg11.dtd">
<!-- Generated by graphviz version 14.0.0 (20250921.2048)
 -->
<!-- Title: expand_word Pages: 1 -->
<svg width="654pt" height="178pt"
 viewBox="0.00 0.00 654.00 178.00" xmlns="http://www.w3.org/2000/svg" xmlns:xlink="http://www.w3.org/1999/xlink">
<g id="graph0" class="graph" transform="scale(1 1) rotate(0) translate(4 174.25)">
<title>expand_word</title>
<!-- Node1 -->
<g id="Node000001" class="node">
<title>Node1</title>
<g id="a_Node000001"><a xlink:title=" ">
<polygon fill="#999999" stroke="#666666" points="73.75,-94.25 0,-94.25 0,-75 73.75,-75 73.75,-94.25"/>
<text xml:space="preserve" text-anchor="middle" x="36.88" y="-80.75" font-family="Helvetica,sans-Serif" font-size="10.00">expand_word</text>
</a>
</g>
</g>
<!-- Node2 -->
<g id="Node000002" class="node">
<title>Node2</title>
<g id="a_Node000002"><a xlink:href="executor_8c.html#aadd17e0d55af2f7cc9b0fc2c6eba9cc2" target="_top" xlink:title=" ">
<polygon fill="white" stroke="#666666" points="206,-105.25 109.75,-105.25 109.75,-86 206,-86 206,-105.25"/>
<text xml:space="preserve" text-anchor="middle" x="157.88" y="-91.75" font-family="Helvetica,sans-Serif" font-size="10.00">append_parameter</text>
</a>
</g>
</g>
<!-- Node1&#45;&gt;Node2 -->
<g id="edge1_Node000001_Node000002" class="edge">
<title>Node1&#45;&gt;Node2</title>
<g id="a_edge1_Node000001_Node000002"><a xlink:title=" ">
<path fill="none" stroke="#63b8ff" d="M74.23,-87.99C81.75,-88.68 89.86,-89.43 97.96,-90.18"/>
<polygon fill="#63b8ff" stroke="#63b8ff" points="97.55,-93.66 107.83,-91.09 98.19,-86.69 97.55,-93.66"/>
</a>
</g>
</g>
<!-- Node3 -->
<g id="Node000003" class="node">
<title>Node3</title>
<g id="a_Node000003"><a xlink:href="executor_8c.html#a60031a3179243a175f1ee3ff361d95d0" target="_top" xlink:title=" ">
<polygon fill="white" stroke="#666666" points="359.25,-170.25 242,-170.25 242,-151 359.25,-151 359.25,-170.25"/>
<text xml:space="preserve" text-anchor="middle" x="300.62" y="-156.75" font-family="Helvetica,sans-Serif" font-size="10.00">gs_strbuf_append_char</text>
</a>
</g>
</g>
<!-- Node1&#45;&gt;Node3 -->
<g id="edge8_Node000001_Node000003" class="edge">
<title>Node1&#45;&gt;Node3</title>
<g id="a_edge8_Node000001_Node000003"><a xlink:title=" ">
<path fill="none" stroke="#63b8ff" d="M59.56,-94.73C73.65,-101.03 92.53,-108.98 109.75,-114.62 151.67,-128.36 200,-140.01 237.41,-148.15"/>
<polygon fill="#63b8ff" stroke="#63b8ff" points="236.65,-151.57 247.17,-150.24 238.12,-144.72 236.65,-151.57"/>
</a>
</g>
</g>
<!-- Node6 -->
<g id="Node000006" class="node">
<title>Node6</title>
<g id="a_Node000006"><a xlink:href="executor_8c.html#a1dec8046147c6440f1d9d5b7c6e02776" target="_top" xlink:title=" ">
<polygon fill="white" stroke="#666666" points="515.5,-113.25 395.25,-113.25 395.25,-94 515.5,-94 515.5,-113.25"/>
<text xml:space="preserve" text-anchor="middle" x="455.38" y="-99.75" font-family="Helvetica,sans-Serif" font-size="10.00">gs_strbuf_append_mem</text>
</a>
</g>
</g>
<!-- Node1&#45;&gt;Node6 -->
<g id="edge9_Node000001_Node000006" class="edge">
<title>Node1&#45;&gt;Node6</title>
<g id="a_edge9_Node000001_Node000006"><a xlink:title=" ">
<path fill="none" stroke="#63b8ff" d="M74.01,-79.81C85.42,-78.5 98.09,-77.27 109.75,-76.62 204.68,-71.36 314.11,-82.95 383.72,-92.55"/>
<polygon fill="#63b8ff" stroke="#63b8ff" points="383.08,-96 393.47,-93.92 384.06,-89.07 383.08,-96"/>
</a>
</g>
</g>
<!-- Node7 -->
<g id="Node000007" class="node">
<title>Node7</title>
<g id="a_Node000007"><a xlink:href="executor_8c.html#adb87c2ff41833a7b37fa820830d6cb6d" target="_top" xlink:title=" ">
<polygon fill="white" stroke="#666666" points="205.62,-19.25 110.12,-19.25 110.12,0 205.62,0 205.62,-19.25"/>
<text xml:space="preserve" text-anchor="middle" x="157.88" y="-5.75" font-family="Helvetica,sans-Serif" font-size="10.00">gs_strbuf_dispose</text>
</a>
</g>
</g>
<!-- Node1&#45;&gt;Node7 -->
<g id="edge10_Node000001_Node000007" class="edge">
<title>Node1&#45;&gt;Node7</title>
<g id="a_edge10_Node000001_Node000007"><a xlink:title=" ">
<path fill="none" stroke="#63b8ff" d="M50.73,-74.63C64.82,-63.89 88.28,-46.61 109.75,-33.62 114.73,-30.61 120.13,-27.62 125.44,-24.82"/>
<polygon fill="#63b8ff" stroke="#63b8ff" points="126.74,-28.09 134.06,-20.42 123.56,-21.86 126.74,-28.09"/>
</a>
</g>
</g>
<!-- Node2&#45;&gt;Node3 -->
<g id="edge2_Node000002_Node000003" class="edge">
<title>Node2&#45;&gt;Node3</title>
<g id="a_edge2_Node000002_Node000003"><a xlink:title=" ">
<path fill="none" stroke="#63b8ff" d="M174.3,-105.66C190.61,-115.97 217.35,-131.95 242,-142.62 245.37,-144.08 248.89,-145.48 252.46,-146.8"/>
<polygon fill="#63b8ff" stroke="#63b8ff" points="251.21,-150.07 261.8,-150.05 253.5,-143.46 251.21,-150.07"/>
</a>
</g>
</g>
<!-- Node5 -->
<g id="Node000005" class="node">
<title>Node5</title>
<g id="a_Node000005"><a xlink:href="executor_8c.html#abaf58208dfc819aaa164dd4e9bb9106d" target="_top" xlink:title=" ">
<polygon fill="white" stroke="#666666" points="355.12,-133.25 246.12,-133.25 246.12,-114 355.12,-114 355.12,-133.25"/>
<text xml:space="preserve" text-anchor="middle" x="300.62" y="-119.75" font-family="Helvetica,sans-Serif" font-size="10.00">gs_strbuf_append_int</text>
</a>
</g>
</g>
<!-- Node2&#45;&gt;Node5 -->
<g id="edge4_Node000002_Node000005" class="edge">
<title>Node2&#45;&gt;Node5</title>
<g id="a_edge4_Node000002_Node000005"><a xlink:title=" ">
<path fill="none" stroke="#63b8ff" d="M206.13,-105.03C216.33,-107.05 227.25,-109.23 237.91,-111.35"/>
<polygon fill="#63b8ff" stroke="#63b8ff" points="236.89,-114.71 247.39,-113.23 238.26,-107.85 236.89,-114.71"/>
</a>
</g>
</g>
<!-- Node2&#45;&gt;Node6 -->
<g id="edge7_Node000002_Node000006" class="edge">
<title>Node2&#45;&gt;Node6</title>
<g id="a_edge7_Node000002_Node000006"><a xlink:title=" ">
<path fill="none" stroke="#63b8ff" d="M206.35,-96.91C254.18,-98.21 328.55,-100.22 383.38,-101.7"/>
<polygon fill="#63b8ff" stroke="#63b8ff" points="383.17,-105.2 393.26,-101.97 383.36,-98.2 383.17,-105.2"/>
</a>
</g>
</g>
<!-- Node4 -->
<g id="Node000004" class="node">
<title>Node4</title>
<g id="a_Node000004"><a xlink:href="executor_8c.html#a9e511f0298c5c2beb207acb461fa26a2" target="_top" xlink:title=" ">
<polygon fill="white" stroke="#666666" points="645.5,-132.25 551.5,-132.25 551.5,-113 645.5,-113 645.5,-132.25"/>
<text xml:space="preserve" text-anchor="middle" x="598.5" y="-118.75" font-family="Helvetica,sans-Serif" font-size="10.00">gs_strbuf_reserve</text>
</a>
</g>
</g>
<!-- Node3&#45;&gt;Node4 -->
<g id="edge3_Node000003_Node000004" class="edge">
<title>Node3&#45;&gt;Node4</title>
<g id="a_edge3_Node000003_Node000004"><a xlink:title=" ">
<path fill="none" stroke="#63b8ff" d="M359.73,-153.16C411.83,-146.47 487.86,-136.71 539.83,-130.03"/>
<polygon fill="#63b8ff" stroke="#63b8ff" points="540.21,-133.51 549.68,-128.77 539.32,-126.57 540.21,-133.51"/>
</a>
</g>
</g>
<!-- Node5&#45;&gt;Node6 -->
<g id="edge5_Node000005_Node000006" class="edge">
<title>Node5&#45;&gt;Node6</title>
<g id="a_edge5_Node000005_Node000006"><a xlink:title=" ">
<path fill="none" stroke="#63b8ff" d="M355.48,-116.57C364.52,-115.39 374.02,-114.15 383.41,-112.92"/>
<polygon fill="#63b8ff" stroke="#63b8ff" points="383.81,-116.39 393.27,-111.63 382.9,-109.45 383.81,-116.39"/>
</a>
</g>
</g>
<!-- Node6&#45;&gt;Node4 -->
<g id="edge6_Node000006_Node000004" class="edge">
<title>Node6&#45;&gt;Node4</title>
<g id="a_edge6_Node000006_Node000004"><a xlink:title=" ">
<path fill="none" stroke="#63b8ff" d="M515.82,-111.63C523.91,-112.72 532.2,-113.83 540.24,-114.92"/>
<polygon fill="#63b8ff" stroke="#63b8ff" points="539.54,-118.35 549.92,-116.22 540.48,-111.42 539.54,-118.35"/>
</a>
</g>
</g>
</g>
</svg>
