<?xml version="1.0" encoding="UTF-8" standalone="no"?>
<!DOCTYPE svg PUBLIC "-//W3C//DTD SVG 1.1//EN"
 "http://www.w3.org/Graphics/SVG/1.1/DTD/svg11.dtd">
<!-- Generated by graphviz version 14.0.0 (20250921.2048)
 -->
<!-- Title: execute_child_builtin Pages: 1 -->
<svg width="368pt" height="27pt"
 viewBox="0.00 0.00 368.00 27.00" xmlns="http://www.w3.org/2000/svg" xmlns:xlink="http://www.w3.org/1999/xlink">
<g id="graph0" class="graph" transform="scale(1 1) rotate(0) translate(4 23.25)">
<title>execute_child_builtin</title>
<!-- Node1 -->
<g id="Node000001" class="node">
<title>Node1</title>
<g id="a_Node000001"><a xlink:title=" ">
<polygon fill="#999999" stroke="#666666" points="106.75,-19.25 0,-19.25 0,0 106.75,0 106.75,-19.25"/>
<text xml:space="preserve" text-anchor="middle" x="53.38" y="-5.75" font-family="Helvetica,sans-Serif" font-size="10.00">execute_child_builtin</text>
</a>
</g>
</g>
<!-- Node2 -->
<g id="Node000002" class="node">
<title>Node2</title>
<g id="a_Node000002"><a xlink:href="executor_8c.html#a1d69266d9e634c8ebfb4934e6eb1c7f4" target="_top" xlink:title=" ">
<polygon fill="white" stroke="#666666" points="236.75,-19.25 142.75,-19.25 142.75,0 236.75,0 236.75,-19.25"/>
<text xml:space="preserve" text-anchor="middle" x="189.75" y="-5.75" font-family="Helvetica,sans-Serif" font-size="10.00">apply_child_redirs</text>
</a>
</g>
</g>
<!-- Node1&#45;&gt;Node2 -->
<g id="edge1_Node000001_Node000002" class="edge">
<title>Node1&#45;&gt;Node2</title>
<g id="a_edge1_Node000001_Node000002"><a xlink:title=" ">
<path fill="none" stroke="#63b8ff" d="M107.1,-9.62C114.9,-9.62 122.98,-9.62 130.89,-9.62"/>
<polygon fill="#63b8ff" stroke="#63b8ff" points="130.77,-13.13 140.77,-9.63 130.77,-6.13 130.77,-13.13"/>
</a>
</g>
</g>
<!-- Node3 -->
<g id="Node000003" class="node">
<title>Node3</title>
<g id="a_Node000003"><a xlink:href="executor_8c.html#ac02ab15bcfd6667d235f5087d4c828c6" target="_top" xlink:title=" ">
<polygon fill="white" stroke="#666666" points="360,-19.25 272.75,-19.25 272.75,0 360,0 360,-19.25"/>
<text xml:space="preserve" text-anchor="middle" x="316.38" y="-5.75" font-family="Helvetica,sans-Serif" font-size="10.00">open_redirection</text>
</a>
</g>
</g>
<!-- Node2&#45;&gt;Node3 -->
<g id="edge2_Node000002_Node000003" class="edge">
<title>Node2&#45;&gt;Node3</title>
<g id="a_edge2_Node000002_Node000003"><a xlink:title=" ">
<path fill="none" stroke="#63b8ff" d="M237.16,-9.62C245.06,-9.62 253.33,-9.62 261.4,-9.62"/>
<polygon fill="#63b8ff" stroke="#63b8ff" points="261.13,-13.13 271.13,-9.63 261.13,-6.13 261.13,-13.13"/>
</a>
</g>
</g>
</g>
</svg>
