<?xml version="1.0" encoding="UTF-8" standalone="no"?>
<!DOCTYPE svg PUBLIC "-//W3C//DTD SVG 1.1//EN"
 "http://www.w3.org/Graphics/SVG/1.1/DTD/svg11.dtd">
<!-- Generated by graphviz version 14.0.0 (20250921.2048)
 -->
<!-- Title: execute_parent_builtin Pages: 1 -->
<svg width="426pt" height="82pt"
 viewBox="0.00 0.00 426.00 82.00" xmlns="http://www.w3.org/2000/svg" xmlns:xlink="http://www.w3.org/1999/xlink">
<g id="graph0" class="graph" transform="scale(1 1) rotate(0) translate(4 78.25)">
<title>execute_parent_builtin</title>
<!-- Node1 -->
<g id="Node000001" class="node">
<title>Node1</title>
<g id="a_Node000001"><a xlink:title=" ">
<polygon fill="#999999" stroke="#666666" points="113.5,-37.25 0,-37.25 0,-18 113.5,-18 113.5,-37.25"/>
<text xml:space="preserve" text-anchor="middle" x="56.75" y="-23.75" font-family="Helvetica,sans-Serif" font-size="10.00">execute_parent_builtin</text>
</a>
</g>
</g>
<!-- Node2 -->
<g id="Node000002" class="node">
<title>Node2</title>
<g id="a_Node000002"><a xlink:href="executor_8c.html#a73fa3c33ee09db9f3ddb1e960814af9f" target="_top" xlink:title=" ">
<polygon fill="white" stroke="#666666" points="253.62,-56.25 152.88,-56.25 152.88,-37 253.62,-37 253.62,-56.25"/>
<text xml:space="preserve" text-anchor="middle" x="203.25" y="-42.75" font-family="Helvetica,sans-Serif" font-size="10.00">apply_parent_redirs</text>
</a>
</g>
</g>
<!-- Node1&#45;&gt;Node2 -->
<g id="edge1_Node000001_Node000002" class="edge">
<title>Node1&#45;&gt;Node2</title>
<g id="a_edge1_Node000001_Node000002"><a xlink:title=" ">
<path fill="none" stroke="#63b8ff" d="M113.62,-34.97C122.76,-36.17 132.28,-37.42 141.54,-38.64"/>
<polygon fill="#63b8ff" stroke="#63b8ff" points="140.79,-42.07 151.16,-39.91 141.7,-35.13 140.79,-42.07"/>
</a>
</g>
</g>
<!-- Node5 -->
<g id="Node000005" class="node">
<title>Node5</title>
<g id="a_Node000005"><a xlink:href="executor_8c.html#a97eaebe3cd036f8804fa4c47f0938384" target="_top" xlink:title=" ">
<polygon fill="white" stroke="#666666" points="257,-19.25 149.5,-19.25 149.5,0 257,0 257,-19.25"/>
<text xml:space="preserve" text-anchor="middle" x="203.25" y="-5.75" font-family="Helvetica,sans-Serif" font-size="10.00">restore_parent_redirs</text>
</a>
</g>
</g>
<!-- Node1&#45;&gt;Node5 -->
<g id="edge4_Node000001_Node000005" class="edge">
<title>Node1&#45;&gt;Node5</title>
<g id="a_edge4_Node000001_Node000005"><a xlink:title=" ">
<path fill="none" stroke="#63b8ff" d="M113.62,-20.67C121.61,-19.67 129.88,-18.64 138.01,-17.63"/>
<polygon fill="#63b8ff" stroke="#63b8ff" points="138.38,-21.11 147.87,-16.4 137.52,-14.16 138.38,-21.11"/>
</a>
</g>
</g>
<!-- Node3 -->
<g id="Node000003" class="node">
<title>Node3</title>
<g id="a_Node000003"><a xlink:href="executor_8c.html#ae429e7c7ee7771107c2c665b5e624fd3" target="_top" xlink:title=" ">
<polygon fill="white" stroke="#666666" points="417.75,-74.25 293,-74.25 293,-55 417.75,-55 417.75,-74.25"/>
<text xml:space="preserve" text-anchor="middle" x="355.38" y="-60.75" font-family="Helvetica,sans-Serif" font-size="10.00">ensure_saved_descriptor</text>
</a>
</g>
</g>
<!-- Node2&#45;&gt;Node3 -->
<g id="edge2_Node000002_Node000003" class="edge">
<title>Node2&#45;&gt;Node3</title>
<g id="a_edge2_Node000002_Node000003"><a xlink:title=" ">
<path fill="none" stroke="#63b8ff" d="M253.82,-52.57C262.63,-53.62 271.96,-54.74 281.26,-55.86"/>
<polygon fill="#63b8ff" stroke="#63b8ff" points="280.69,-59.32 291.03,-57.03 281.52,-52.36 280.69,-59.32"/>
</a>
</g>
</g>
<!-- Node4 -->
<g id="Node000004" class="node">
<title>Node4</title>
<g id="a_Node000004"><a xlink:href="executor_8c.html#ac02ab15bcfd6667d235f5087d4c828c6" target="_top" xlink:title=" ">
<polygon fill="white" stroke="#666666" points="399,-37.25 311.75,-37.25 311.75,-18 399,-18 399,-37.25"/>
<text xml:space="preserve" text-anchor="middle" x="355.38" y="-23.75" font-family="Helvetica,sans-Serif" font-size="10.00">open_redirection</text>
</a>
</g>
</g>
<!-- Node2&#45;&gt;Node4 -->
<g id="edge3_Node000002_Node000004" class="edge">
<title>Node2&#45;&gt;Node4</title>
<g id="a_edge3_Node000002_Node000004"><a xlink:title=" ">
<path fill="none" stroke="#63b8ff" d="M253.82,-40.35C268.66,-38.47 285,-36.4 300.12,-34.49"/>
<polygon fill="#63b8ff" stroke="#63b8ff" points="300.42,-37.98 309.9,-33.25 299.54,-31.04 300.42,-37.98"/>
</a>
</g>
</g>
</g>
</svg>
