<?xml version="1.0" encoding="UTF-8" standalone="no"?>
<!DOCTYPE svg PUBLIC "-//W3C//DTD SVG 1.1//EN"
 "http://www.w3.org/Graphics/SVG/1.1/DTD/svg11.dtd">
<!-- Generated by graphviz version 14.0.0 (20250921.2048)
 -->
<!-- Title: executor.c Pages: 1 -->
<svg width="933pt" height="248pt"
 viewBox="0.00 0.00 933.00 248.00" xmlns="http://www.w3.org/2000/svg" xmlns:xlink="http://www.w3.org/1999/xlink">
<g id="graph0" class="graph" transform="scale(1 1) rotate(0) translate(4 244.25)">
<title>executor.c</title>
<!-- Node1 -->
<g id="Node000001" class="node">
<title>Node1</title>
<g id="a_Node000001"><a xlink:title=" ">
<polygon fill="#999999" stroke="#666666" points="458.06,-240.25 397.06,-240.25 397.06,-221 458.06,-221 458.06,-240.25"/>
<text xml:space="preserve" text-anchor="middle" x="427.56" y="-226.75" font-family="Helvetica,sans-Serif" font-size="10.00">executor.c</text>
</a>
</g>
</g>
<!-- Node2 -->
<g id="Node000002" class="node">
<title>Node2</title>
<g id="a_Node000002"><a xlink:href="executor_8h.html" target="_top" xlink:title=" ">
<polygon fill="white" stroke="#666666" points="160.06,-185 99.06,-185 99.06,-165.75 160.06,-165.75 160.06,-185"/>
<text xml:space="preserve" text-anchor="middle" x="129.56" y="-171.5" font-family="Helvetica,sans-Serif" font-size="10.00">executor.h</text>
</a>
</g>
</g>
<!-- Node1&#45;&gt;Node2 -->
<g id="edge1_Node000001_Node000002" class="edge">
<title>Node1&#45;&gt;Node2</title>
<g id="a_edge1_Node000001_Node000002"><a xlink:title=" ">
<path fill="none" stroke="#63b8ff" d="M396.91,-224.74C350.49,-217.26 259.33,-202.2 171.76,-185.36"/>
<polygon fill="#63b8ff" stroke="#63b8ff" points="172.52,-181.94 162.03,-183.47 171.19,-188.81 172.52,-181.94"/>
</a>
</g>
</g>
<!-- Node4 -->
<g id="Node000004" class="node">
<title>Node4</title>
<g id="a_Node000004"><a xlink:title=" ">
<polygon fill="#e0e0e0" stroke="#999999" points="147.44,-19.25 91.69,-19.25 91.69,0 147.44,0 147.44,-19.25"/>
<text xml:space="preserve" text-anchor="middle" x="119.56" y="-5.75" font-family="Helvetica,sans-Serif" font-size="10.00">stdbool.h</text>
</a>
</g>
</g>
<!-- Node1&#45;&gt;Node4 -->
<g id="edge13_Node000001_Node000004" class="edge">
<title>Node1&#45;&gt;Node4</title>
<g id="a_edge13_Node000001_Node000004"><a xlink:title=" ">
<path fill="none" stroke="#63b8ff" d="M396.59,-228C320.99,-223.67 128.98,-210.43 70.56,-185 35.49,-169.73 20.75,-164.41 4.56,-129.75 -16.93,-83.72 46.04,-44.48 87.11,-24.58"/>
<polygon fill="#63b8ff" stroke="#63b8ff" points="88.57,-27.77 96.15,-20.36 85.61,-21.42 88.57,-27.77"/>
</a>
</g>
</g>
<!-- Node7 -->
<g id="Node000007" class="node">
<title>Node7</title>
<g id="a_Node000007"><a xlink:title=" ">
<polygon fill="#e0e0e0" stroke="#999999" points="226.69,-185 178.44,-185 178.44,-165.75 226.69,-165.75 226.69,-185"/>
<text xml:space="preserve" text-anchor="middle" x="202.56" y="-171.5" font-family="Helvetica,sans-Serif" font-size="10.00">ctype.h</text>
</a>
</g>
</g>
<!-- Node1&#45;&gt;Node7 -->
<g id="edge9_Node000001_Node000007" class="edge">
<title>Node1&#45;&gt;Node7</title>
<g id="a_edge9_Node000001_Node000007"><a xlink:title=" ">
<path fill="none" stroke="#63b8ff" d="M396.58,-222.7C360.72,-214.62 299.64,-200.68 238.13,-185.59"/>
<polygon fill="#63b8ff" stroke="#63b8ff" points="239.07,-182.21 228.52,-183.22 237.39,-189.01 239.07,-182.21"/>
</a>
</g>
</g>
<!-- Node8 -->
<g id="Node000008" class="node">
<title>Node8</title>
<g id="a_Node000008"><a xlink:title=" ">
<polygon fill="#e0e0e0" stroke="#999999" points="290.56,-185 244.56,-185 244.56,-165.75 290.56,-165.75 290.56,-185"/>
<text xml:space="preserve" text-anchor="middle" x="267.56" y="-171.5" font-family="Helvetica,sans-Serif" font-size="10.00">errno.h</text>
</a>
</g>
</g>
<!-- Node1&#45;&gt;Node8 -->
<g id="edge10_Node000001_Node000008" class="edge">
<title>Node1&#45;&gt;Node8</title>
<g id="a_edge10_Node000001_Node000008"><a xlink:title=" ">
<path fill="none" stroke="#63b8ff" d="M400.42,-220.59C373.15,-211.51 331.03,-197.5 301.55,-187.69"/>
<polygon fill="#63b8ff" stroke="#63b8ff" points="302.96,-184.47 292.37,-184.63 300.75,-191.11 302.96,-184.47"/>
</a>
</g>
</g>
<!-- Node9 -->
<g id="Node000009" class="node">
<title>Node9</title>
<g id="a_Node000009"><a xlink:title=" ">
<polygon fill="#e0e0e0" stroke="#999999" points="352.06,-185 309.06,-185 309.06,-165.75 352.06,-165.75 352.06,-185"/>
<text xml:space="preserve" text-anchor="middle" x="330.56" y="-171.5" font-family="Helvetica,sans-Serif" font-size="10.00">fcntl.h</text>
</a>
</g>
</g>
<!-- Node1&#45;&gt;Node9 -->
<g id="edge11_Node000001_Node000009" class="edge">
<title>Node1&#45;&gt;Node9</title>
<g id="a_edge11_Node000001_Node000009"><a xlink:title=" ">
<path fill="none" stroke="#63b8ff" d="M411.11,-220.59C396.34,-212.48 374.39,-200.43 357.13,-190.96"/>
<polygon fill="#63b8ff" stroke="#63b8ff" points="358.88,-187.93 348.43,-186.18 355.51,-194.06 358.88,-187.93"/>
</a>
</g>
</g>
<!-- Node10 -->
<g id="Node000010" class="node">
<title>Node10</title>
<g id="a_Node000010"><a xlink:title=" ">
<polygon fill="#e0e0e0" stroke="#999999" points="419.44,-185 369.69,-185 369.69,-165.75 419.44,-165.75 419.44,-185"/>
<text xml:space="preserve" text-anchor="middle" x="394.56" y="-171.5" font-family="Helvetica,sans-Serif" font-size="10.00">signal.h</text>
</a>
</g>
</g>
<!-- Node1&#45;&gt;Node10 -->
<g id="edge12_Node000001_Node000010" class="edge">
<title>Node1&#45;&gt;Node10</title>
<g id="a_edge12_Node000001_Node000010"><a xlink:title=" ">
<path fill="none" stroke="#63b8ff" d="M422.11,-220.83C417.79,-213.86 411.6,-203.87 406.18,-195.12"/>
<polygon fill="#63b8ff" stroke="#63b8ff" points="409.17,-193.3 400.93,-186.65 403.22,-196.99 409.17,-193.3"/>
</a>
</g>
</g>
<!-- Node11 -->
<g id="Node000011" class="node">
<title>Node11</title>
<g id="a_Node000011"><a xlink:title=" ">
<polygon fill="#e0e0e0" stroke="#999999" points="483.19,-185 437.94,-185 437.94,-165.75 483.19,-165.75 483.19,-185"/>
<text xml:space="preserve" text-anchor="middle" x="460.56" y="-171.5" font-family="Helvetica,sans-Serif" font-size="10.00">stdio.h</text>
</a>
</g>
</g>
<!-- Node1&#45;&gt;Node11 -->
<g id="edge14_Node000001_Node000011" class="edge">
<title>Node1&#45;&gt;Node11</title>
<g id="a_edge14_Node000001_Node000011"><a xlink:title=" ">
<path fill="none" stroke="#63b8ff" d="M433.01,-220.83C437.33,-213.86 443.53,-203.87 448.95,-195.12"/>
<polygon fill="#63b8ff" stroke="#63b8ff" points="451.91,-196.99 454.2,-186.65 445.96,-193.3 451.91,-196.99"/>
</a>
</g>
</g>
<!-- Node12 -->
<g id="Node000012" class="node">
<title>Node12</title>
<g id="a_Node000012"><a xlink:title=" ">
<polygon fill="#e0e0e0" stroke="#999999" points="548.31,-185 500.81,-185 500.81,-165.75 548.31,-165.75 548.31,-185"/>
<text xml:space="preserve" text-anchor="middle" x="524.56" y="-171.5" font-family="Helvetica,sans-Serif" font-size="10.00">stdlib.h</text>
</a>
</g>
</g>
<!-- Node1&#45;&gt;Node12 -->
<g id="edge15_Node000001_Node000012" class="edge">
<title>Node1&#45;&gt;Node12</title>
<g id="a_edge15_Node000001_Node000012"><a xlink:title=" ">
<path fill="none" stroke="#63b8ff" d="M444.02,-220.59C458.79,-212.48 480.74,-200.43 498,-190.96"/>
<polygon fill="#63b8ff" stroke="#63b8ff" points="499.62,-194.06 506.7,-186.18 496.25,-187.93 499.62,-194.06"/>
</a>
</g>
</g>
<!-- Node13 -->
<g id="Node000013" class="node">
<title>Node13</title>
<g id="a_Node000013"><a xlink:title=" ">
<polygon fill="#e0e0e0" stroke="#999999" points="614.69,-185 566.44,-185 566.44,-165.75 614.69,-165.75 614.69,-185"/>
<text xml:space="preserve" text-anchor="middle" x="590.56" y="-171.5" font-family="Helvetica,sans-Serif" font-size="10.00">string.h</text>
</a>
</g>
</g>
<!-- Node1&#45;&gt;Node13 -->
<g id="edge16_Node000001_Node000013" class="edge">
<title>Node1&#45;&gt;Node13</title>
<g id="a_edge16_Node000001_Node000013"><a xlink:title=" ">
<path fill="none" stroke="#63b8ff" d="M455.21,-220.59C482.76,-211.59 525.16,-197.74 555.15,-187.94"/>
<polygon fill="#63b8ff" stroke="#63b8ff" points="556.12,-191.31 564.54,-184.88 553.95,-184.65 556.12,-191.31"/>
</a>
</g>
</g>
<!-- Node14 -->
<g id="Node000014" class="node">
<title>Node14</title>
<g id="a_Node000014"><a xlink:title=" ">
<polygon fill="#e0e0e0" stroke="#999999" points="692.31,-185 632.81,-185 632.81,-165.75 692.31,-165.75 692.31,-185"/>
<text xml:space="preserve" text-anchor="middle" x="662.56" y="-171.5" font-family="Helvetica,sans-Serif" font-size="10.00">sys/stat.h</text>
</a>
</g>
</g>
<!-- Node1&#45;&gt;Node14 -->
<g id="edge17_Node000001_Node000014" class="edge">
<title>Node1&#45;&gt;Node14</title>
<g id="a_edge17_Node000001_Node000014"><a xlink:title=" ">
<path fill="none" stroke="#63b8ff" d="M458.29,-222.66C500.03,-213.2 574.81,-196.26 621.38,-185.71"/>
<polygon fill="#63b8ff" stroke="#63b8ff" points="622.12,-189.13 631.1,-183.5 620.57,-182.3 622.12,-189.13"/>
</a>
</g>
</g>
<!-- Node15 -->
<g id="Node000015" class="node">
<title>Node15</title>
<g id="a_Node000015"><a xlink:title=" ">
<polygon fill="#e0e0e0" stroke="#999999" points="777.06,-185 710.06,-185 710.06,-165.75 777.06,-165.75 777.06,-185"/>
<text xml:space="preserve" text-anchor="middle" x="743.56" y="-171.5" font-family="Helvetica,sans-Serif" font-size="10.00">sys/types.h</text>
</a>
</g>
</g>
<!-- Node1&#45;&gt;Node15 -->
<g id="edge18_Node000001_Node000015" class="edge">
<title>Node1&#45;&gt;Node15</title>
<g id="a_edge18_Node000001_Node000015"><a xlink:title=" ">
<path fill="none" stroke="#63b8ff" d="M458.45,-225.02C507.28,-217.64 605.56,-202.43 698.37,-185.53"/>
<polygon fill="#63b8ff" stroke="#63b8ff" points="698.97,-188.98 708.17,-183.73 697.71,-182.09 698.97,-188.98"/>
</a>
</g>
</g>
<!-- Node16 -->
<g id="Node000016" class="node">
<title>Node16</title>
<g id="a_Node000016"><a xlink:title=" ">
<polygon fill="#e0e0e0" stroke="#999999" points="856.06,-185 795.06,-185 795.06,-165.75 856.06,-165.75 856.06,-185"/>
<text xml:space="preserve" text-anchor="middle" x="825.56" y="-171.5" font-family="Helvetica,sans-Serif" font-size="10.00">sys/wait.h</text>
</a>
</g>
</g>
<!-- Node1&#45;&gt;Node16 -->
<g id="edge19_Node000001_Node000016" class="edge">
<title>Node1&#45;&gt;Node16</title>
<g id="a_edge19_Node000001_Node000016"><a xlink:title=" ">
<path fill="none" stroke="#63b8ff" d="M458.44,-226.77C518.98,-220.97 657.72,-206.64 783.96,-185.31"/>
<polygon fill="#63b8ff" stroke="#63b8ff" points="784.2,-188.82 793.47,-183.68 783.02,-181.92 784.2,-188.82"/>
</a>
</g>
</g>
<!-- Node17 -->
<g id="Node000017" class="node">
<title>Node17</title>
<g id="a_Node000017"><a xlink:title=" ">
<polygon fill="#e0e0e0" stroke="#999999" points="924.81,-185 874.31,-185 874.31,-165.75 924.81,-165.75 924.81,-185"/>
<text xml:space="preserve" text-anchor="middle" x="899.56" y="-171.5" font-family="Helvetica,sans-Serif" font-size="10.00">unistd.h</text>
</a>
</g>
</g>
<!-- Node1&#45;&gt;Node17 -->
<g id="edge20_Node000001_Node000017" class="edge">
<title>Node1&#45;&gt;Node17</title>
<g id="a_edge20_Node000001_Node000017"><a xlink:title=" ">
<path fill="none" stroke="#63b8ff" d="M458.31,-228.05C528.4,-224.13 705.52,-212.35 862.75,-185.26"/>
<polygon fill="#63b8ff" stroke="#63b8ff" points="863.29,-188.71 872.54,-183.54 862.09,-181.82 863.29,-188.71"/>
</a>
</g>
</g>
<!-- Node18 -->
<g id="Node000018" class="node">
<title>Node18</title>
<g id="a_Node000018"><a xlink:href="builtin_8h.html" target="_top" xlink:title=" ">
<polygon fill="white" stroke="#666666" points="105.81,-129.75 13.31,-129.75 13.31,-110.5 105.81,-110.5 105.81,-129.75"/>
<text xml:space="preserve" text-anchor="middle" x="59.56" y="-116.25" font-family="Helvetica,sans-Serif" font-size="10.00">../builtins/builtin.h</text>
</a>
</g>
</g>
<!-- Node1&#45;&gt;Node18 -->
<g id="edge21_Node000001_Node000018" class="edge">
<title>Node1&#45;&gt;Node18</title>
<g id="a_edge21_Node000001_Node000018"><a xlink:title=" ">
<path fill="none" stroke="#63b8ff" d="M396.73,-229.19C323.03,-227.6 139.19,-220.11 90.56,-185 76.04,-174.52 68.02,-155.35 63.79,-140.74"/>
<polygon fill="#63b8ff" stroke="#63b8ff" points="67.25,-140.16 61.45,-131.3 60.46,-141.85 67.25,-140.16"/>
</a>
</g>
</g>
<!-- Node3 -->
<g id="Node000003" class="node">
<title>Node3</title>
<g id="a_Node000003"><a xlink:href="ast_8h.html" target="_top" xlink:title=" ">
<polygon fill="white" stroke="#666666" points="237.94,-129.75 161.19,-129.75 161.19,-110.5 237.94,-110.5 237.94,-129.75"/>
<text xml:space="preserve" text-anchor="middle" x="199.56" y="-116.25" font-family="Helvetica,sans-Serif" font-size="10.00">../parser/ast.h</text>
</a>
</g>
</g>
<!-- Node2&#45;&gt;Node3 -->
<g id="edge2_Node000002_Node000003" class="edge">
<title>Node2&#45;&gt;Node3</title>
<g id="a_edge2_Node000002_Node000003"><a xlink:title=" ">
<path fill="none" stroke="#63b8ff" d="M141.44,-165.34C151.66,-157.57 166.64,-146.17 178.83,-136.9"/>
<polygon fill="#63b8ff" stroke="#63b8ff" points="180.82,-139.78 186.66,-130.94 176.58,-134.21 180.82,-139.78"/>
</a>
</g>
</g>
<!-- Node6 -->
<g id="Node000006" class="node">
<title>Node6</title>
<g id="a_Node000006"><a xlink:href="shell_8h.html" target="_top" xlink:title=" ">
<polygon fill="white" stroke="#666666" points="146.31,-74.5 92.81,-74.5 92.81,-55.25 146.31,-55.25 146.31,-74.5"/>
<text xml:space="preserve" text-anchor="middle" x="119.56" y="-61" font-family="Helvetica,sans-Serif" font-size="10.00">../shell.h</text>
</a>
</g>
</g>
<!-- Node2&#45;&gt;Node6 -->
<g id="edge8_Node000002_Node000006" class="edge">
<title>Node2&#45;&gt;Node6</title>
<g id="a_edge8_Node000002_Node000006"><a xlink:title=" ">
<path fill="none" stroke="#63b8ff" d="M128.75,-165.5C127.16,-148.25 123.62,-109.83 121.42,-86.06"/>
<polygon fill="#63b8ff" stroke="#63b8ff" points="124.94,-86.02 120.53,-76.38 117.96,-86.66 124.94,-86.02"/>
</a>
</g>
</g>
<!-- Node3&#45;&gt;Node4 -->
<g id="edge3_Node000003_Node000004" class="edge">
<title>Node3&#45;&gt;Node4</title>
<g id="a_edge3_Node000003_Node000004"><a xlink:title=" ">
<path fill="none" stroke="#63b8ff" d="M193.79,-110.3C185.57,-97.84 169.9,-74.46 155.56,-55.25 148.88,-46.29 141.13,-36.6 134.53,-28.55"/>
<polygon fill="#63b8ff" stroke="#63b8ff" points="137.25,-26.34 128.18,-20.86 131.86,-30.8 137.25,-26.34"/>
</a>
</g>
</g>
<!-- Node5 -->
<g id="Node000005" class="node">
<title>Node5</title>
<g id="a_Node000005"><a xlink:title=" ">
<polygon fill="#e0e0e0" stroke="#999999" points="227.19,-19.25 175.94,-19.25 175.94,0 227.19,0 227.19,-19.25"/>
<text xml:space="preserve" text-anchor="middle" x="201.56" y="-5.75" font-family="Helvetica,sans-Serif" font-size="10.00">stddef.h</text>
</a>
</g>
</g>
<!-- Node3&#45;&gt;Node5 -->
<g id="edge4_Node000003_Node000005" class="edge">
<title>Node3&#45;&gt;Node5</title>
<g id="a_edge4_Node000003_Node000005"><a xlink:title=" ">
<path fill="none" stroke="#63b8ff" d="M199.73,-110.25C200.05,-93 200.75,-54.58 201.19,-30.81"/>
<polygon fill="#63b8ff" stroke="#63b8ff" points="204.68,-31.2 201.37,-21.14 197.69,-31.07 204.68,-31.2"/>
</a>
</g>
</g>
<!-- Node3&#45;&gt;Node6 -->
<g id="edge5_Node000003_Node000006" class="edge">
<title>Node3&#45;&gt;Node6</title>
<g id="a_edge5_Node000003_Node000006"><a xlink:title=" ">
<path fill="none" stroke="#63b8ff" d="M185.99,-110.09C174.15,-102.21 156.73,-90.61 142.69,-81.27"/>
<polygon fill="#63b8ff" stroke="#63b8ff" points="144.72,-78.42 134.46,-75.79 140.85,-84.25 144.72,-78.42"/>
</a>
</g>
</g>
<!-- Node6&#45;&gt;Node4 -->
<g id="edge6_Node000006_Node000004" class="edge">
<title>Node6&#45;&gt;Node4</title>
<g id="a_edge6_Node000006_Node000004"><a xlink:title=" ">
<path fill="none" stroke="#63b8ff" d="M119.56,-55.08C119.56,-48.57 119.56,-39.42 119.56,-31.12"/>
<polygon fill="#63b8ff" stroke="#63b8ff" points="123.06,-31.12 119.56,-21.12 116.06,-31.12 123.06,-31.12"/>
</a>
</g>
</g>
<!-- Node6&#45;&gt;Node5 -->
<g id="edge7_Node000006_Node000005" class="edge">
<title>Node6&#45;&gt;Node5</title>
<g id="a_edge7_Node000006_Node000005"><a xlink:title=" ">
<path fill="none" stroke="#63b8ff" d="M133.47,-54.84C145.73,-46.89 163.82,-35.14 178.27,-25.75"/>
<polygon fill="#63b8ff" stroke="#63b8ff" points="179.84,-28.91 186.32,-20.53 176.02,-23.04 179.84,-28.91"/>
</a>
</g>
</g>
<!-- Node18&#45;&gt;Node6 -->
<g id="edge22_Node000018_Node000006" class="edge">
<title>Node18&#45;&gt;Node6</title>
<g id="a_edge22_Node000018_Node000006"><a xlink:title=" ">
<path fill="none" stroke="#63b8ff" d="M69.74,-110.09C78.33,-102.47 90.83,-91.37 101.17,-82.2"/>
<polygon fill="#63b8ff" stroke="#63b8ff" points="103.25,-85.04 108.4,-75.78 98.6,-79.8 103.25,-85.04"/>
</a>
</g>
</g>
</g>
</svg>
