<?xml version="1.0" encoding="UTF-8" standalone="no"?>
<!DOCTYPE svg PUBLIC "-//W3C//DTD SVG 1.1//EN"
 "http://www.w3.org/Graphics/SVG/1.1/DTD/svg11.dtd">
<!-- Generated by graphviz version 14.0.0 (20250921.2048)
 -->
<!-- Title: ensure_saved_descriptor Pages: 1 -->
<svg width="825pt" height="64pt"
 viewBox="0.00 0.00 825.00 64.00" xmlns="http://www.w3.org/2000/svg" xmlns:xlink="http://www.w3.org/1999/xlink">
<g id="graph0" class="graph" transform="scale(1 1) rotate(0) translate(4 60.25)">
<title>ensure_saved_descriptor</title>
<!-- Node1 -->
<g id="Node000001" class="node">
<title>Node1</title>
<g id="a_Node000001"><a xlink:title=" ">
<polygon fill="#999999" stroke="#666666" points="817,-37.25 692.25,-37.25 692.25,-18 817,-18 817,-37.25"/>
<text xml:space="preserve" text-anchor="middle" x="754.62" y="-23.75" font-family="Helvetica,sans-Serif" font-size="10.00">ensure_saved_descriptor</text>
</a>
</g>
</g>
<!-- Node2 -->
<g id="Node000002" class="node">
<title>Node2</title>
<g id="a_Node000002"><a xlink:href="executor_8c.html#a73fa3c33ee09db9f3ddb1e960814af9f" target="_top" xlink:title=" ">
<polygon fill="white" stroke="#666666" points="656.25,-37.25 555.5,-37.25 555.5,-18 656.25,-18 656.25,-37.25"/>
<text xml:space="preserve" text-anchor="middle" x="605.88" y="-23.75" font-family="Helvetica,sans-Serif" font-size="10.00">apply_parent_redirs</text>
</a>
</g>
</g>
<!-- Node1&#45;&gt;Node2 -->
<g id="edge1_Node000001_Node000002" class="edge">
<title>Node1&#45;&gt;Node2</title>
<g id="a_edge1_Node000001_Node000002"><a xlink:title=" ">
<path fill="none" stroke="#63b8ff" d="M680.44,-27.62C672.36,-27.62 664.29,-27.62 656.59,-27.62"/>
<polygon fill="#63b8ff" stroke="#63b8ff" points="680.3,-31.13 690.3,-27.63 680.3,-24.13 680.3,-31.13"/>
</a>
</g>
</g>
<!-- Node3 -->
<g id="Node000003" class="node">
<title>Node3</title>
<g id="a_Node000003"><a xlink:href="executor_8c.html#a06df5dd381b69bd54193289723496e34" target="_top" xlink:title=" ">
<polygon fill="white" stroke="#666666" points="519.5,-56.25 406,-56.25 406,-37 519.5,-37 519.5,-56.25"/>
<text xml:space="preserve" text-anchor="middle" x="462.75" y="-42.75" font-family="Helvetica,sans-Serif" font-size="10.00">execute_parent_builtin</text>
</a>
</g>
</g>
<!-- Node2&#45;&gt;Node3 -->
<g id="edge2_Node000002_Node000003" class="edge">
<title>Node2&#45;&gt;Node3</title>
<g id="a_edge2_Node000002_Node000003"><a xlink:title=" ">
<path fill="none" stroke="#63b8ff" d="M543.94,-35.83C535.92,-36.91 527.73,-38.01 519.79,-39.08"/>
<polygon fill="#63b8ff" stroke="#63b8ff" points="544.18,-39.33 553.62,-34.53 543.24,-32.39 544.18,-39.33"/>
</a>
</g>
</g>
<!-- Node8 -->
<g id="Node000008" class="node">
<title>Node8</title>
<g id="a_Node000008"><a xlink:href="executor_8c.html#a6546ee9f45ec27fb2618b0e53ceeb92f" target="_top" xlink:title=" ">
<polygon fill="white" stroke="#666666" points="511.62,-19.25 413.88,-19.25 413.88,0 511.62,0 511.62,-19.25"/>
<text xml:space="preserve" text-anchor="middle" x="462.75" y="-5.75" font-family="Helvetica,sans-Serif" font-size="10.00">execute_redir_only</text>
</a>
</g>
</g>
<!-- Node2&#45;&gt;Node8 -->
<g id="edge7_Node000002_Node000008" class="edge">
<title>Node2&#45;&gt;Node8</title>
<g id="a_edge7_Node000002_Node000008"><a xlink:title=" ">
<path fill="none" stroke="#63b8ff" d="M543.78,-19.83C533.19,-18.48 522.3,-17.09 512.11,-15.79"/>
<polygon fill="#63b8ff" stroke="#63b8ff" points="543.26,-23.29 553.62,-21.09 544.14,-16.35 543.26,-23.29"/>
</a>
</g>
</g>
<!-- Node4 -->
<g id="Node000004" class="node">
<title>Node4</title>
<g id="a_Node000004"><a xlink:href="executor_8c.html#a627081dd2de67c9a6880ddb4e695af46" target="_top" xlink:title=" ">
<polygon fill="white" stroke="#666666" points="370,-37.25 265.5,-37.25 265.5,-18 370,-18 370,-37.25"/>
<text xml:space="preserve" text-anchor="middle" x="317.75" y="-23.75" font-family="Helvetica,sans-Serif" font-size="10.00">gs_execute_pipeline</text>
</a>
</g>
</g>
<!-- Node3&#45;&gt;Node4 -->
<g id="edge3_Node000003_Node000004" class="edge">
<title>Node3&#45;&gt;Node4</title>
<g id="a_edge3_Node000003_Node000004"><a xlink:title=" ">
<path fill="none" stroke="#63b8ff" d="M394.38,-37.67C386.36,-36.61 378.26,-35.53 370.5,-34.5"/>
<polygon fill="#63b8ff" stroke="#63b8ff" points="393.77,-41.12 404.14,-38.97 394.69,-34.18 393.77,-41.12"/>
</a>
</g>
</g>
<!-- Node5 -->
<g id="Node000005" class="node">
<title>Node5</title>
<g id="a_Node000005"><a xlink:href="shell_8c.html#add8fb7be4e80992b6d5e0e74b22e513f" target="_top" xlink:title=" ">
<polygon fill="white" stroke="#666666" points="229.5,-37.25 179.75,-37.25 179.75,-18 229.5,-18 229.5,-37.25"/>
<text xml:space="preserve" text-anchor="middle" x="204.62" y="-23.75" font-family="Helvetica,sans-Serif" font-size="10.00">run_line</text>
</a>
</g>
</g>
<!-- Node4&#45;&gt;Node5 -->
<g id="edge4_Node000004_Node000005" class="edge">
<title>Node4&#45;&gt;Node5</title>
<g id="a_edge4_Node000004_Node000005"><a xlink:title=" ">
<path fill="none" stroke="#63b8ff" d="M253.61,-27.62C245.25,-27.62 237.12,-27.62 229.99,-27.62"/>
<polygon fill="#63b8ff" stroke="#63b8ff" points="253.58,-31.13 263.58,-27.63 253.58,-24.13 253.58,-31.13"/>
</a>
</g>
</g>
<!-- Node6 -->
<g id="Node000006" class="node">
<title>Node6</title>
<g id="a_Node000006"><a xlink:href="shell_8c.html#ac693cbc15f3a72c516535611b597062c" target="_top" xlink:title=" ">
<polygon fill="white" stroke="#666666" points="143.75,-37.25 73,-37.25 73,-18 143.75,-18 143.75,-37.25"/>
<text xml:space="preserve" text-anchor="middle" x="108.38" y="-23.75" font-family="Helvetica,sans-Serif" font-size="10.00">gs_shell_run</text>
</a>
</g>
</g>
<!-- Node5&#45;&gt;Node6 -->
<g id="edge5_Node000005_Node000006" class="edge">
<title>Node5&#45;&gt;Node6</title>
<g id="a_edge5_Node000005_Node000006"><a xlink:title=" ">
<path fill="none" stroke="#63b8ff" d="M168,-27.62C160.21,-27.62 151.98,-27.62 144.22,-27.62"/>
<polygon fill="#63b8ff" stroke="#63b8ff" points="167.84,-31.13 177.84,-27.63 167.84,-24.13 167.84,-31.13"/>
</a>
</g>
</g>
<!-- Node7 -->
<g id="Node000007" class="node">
<title>Node7</title>
<g id="a_Node000007"><a xlink:href="main_8c.html#a3c04138a5bfe5d72780bb7e82a18e627" target="_top" xlink:title=" ">
<polygon fill="white" stroke="#666666" points="37,-37.25 0,-37.25 0,-18 37,-18 37,-37.25"/>
<text xml:space="preserve" text-anchor="middle" x="18.5" y="-23.75" font-family="Helvetica,sans-Serif" font-size="10.00">main</text>
</a>
</g>
</g>
<!-- Node6&#45;&gt;Node7 -->
<g id="edge6_Node000006_Node000007" class="edge">
<title>Node6&#45;&gt;Node7</title>
<g id="a_edge6_Node000006_Node000007"><a xlink:title=" ">
<path fill="none" stroke="#63b8ff" d="M61.14,-27.62C52.68,-27.62 44.32,-27.62 37.34,-27.62"/>
<polygon fill="#63b8ff" stroke="#63b8ff" points="61.13,-31.13 71.13,-27.63 61.13,-24.13 61.13,-31.13"/>
</a>
</g>
</g>
<!-- Node8&#45;&gt;Node4 -->
<g id="edge8_Node000008_Node000004" class="edge">
<title>Node8&#45;&gt;Node4</title>
<g id="a_edge8_Node000008_Node000004"><a xlink:title=" ">
<path fill="none" stroke="#63b8ff" d="M402.38,-17.1C391.73,-18.44 380.72,-19.82 370.32,-21.13"/>
<polygon fill="#63b8ff" stroke="#63b8ff" points="402.75,-20.58 412.23,-15.86 401.87,-13.63 402.75,-20.58"/>
</a>
</g>
</g>
</g>
</svg>
