<?xml version="1.0" encoding="UTF-8" standalone="no"?>
<!DOCTYPE svg PUBLIC "-//W3C//DTD SVG 1.1//EN"
 "http://www.w3.org/Graphics/SVG/1.1/DTD/svg11.dtd">
<!-- Generated by graphviz version 14.0.0 (20250921.2048)
 -->
<!-- Title: exit.c Pages: 1 -->
<svg width="353pt" height="193pt"
 viewBox="0.00 0.00 353.00 193.00" xmlns="http://www.w3.org/2000/svg" xmlns:xlink="http://www.w3.org/1999/xlink">
<g id="graph0" class="graph" transform="scale(1 1) rotate(0) translate(4 189)">
<title>exit.c</title>
<!-- Node1 -->
<g id="Node000001" class="node">
<title>Node1</title>
<g id="a_Node000001"><a xlink:title=" ">
<polygon fill="#999999" stroke="#666666" points="172,-185 132,-185 132,-165.75 172,-165.75 172,-185"/>
<text xml:space="preserve" text-anchor="middle" x="152" y="-171.5" font-family="Helvetica,sans-Serif" font-size="10.00">exit.c</text>
</a>
</g>
</g>
<!-- Node2 -->
<g id="Node000002" class="node">
<title>Node2</title>
<g id="a_Node000002"><a xlink:title=" ">
<polygon fill="#e0e0e0" stroke="#999999" points="46,-129.75 0,-129.75 0,-110.5 46,-110.5 46,-129.75"/>
<text xml:space="preserve" text-anchor="middle" x="23" y="-116.25" font-family="Helvetica,sans-Serif" font-size="10.00">errno.h</text>
</a>
</g>
</g>
<!-- Node1&#45;&gt;Node2 -->
<g id="edge1_Node000001_Node000002" class="edge">
<title>Node1&#45;&gt;Node2</title>
<g id="a_edge1_Node000001_Node000002"><a xlink:title=" ">
<path fill="none" stroke="#63b8ff" d="M131.56,-165.94C111.11,-157.49 79.33,-144.38 55.43,-134.51"/>
<polygon fill="#63b8ff" stroke="#63b8ff" points="57.05,-131.39 46.47,-130.81 54.38,-137.86 57.05,-131.39"/>
</a>
</g>
</g>
<!-- Node3 -->
<g id="Node000003" class="node">
<title>Node3</title>
<g id="a_Node000003"><a xlink:title=" ">
<polygon fill="#e0e0e0" stroke="#999999" points="111.75,-129.75 64.25,-129.75 64.25,-110.5 111.75,-110.5 111.75,-129.75"/>
<text xml:space="preserve" text-anchor="middle" x="88" y="-116.25" font-family="Helvetica,sans-Serif" font-size="10.00">limits.h</text>
</a>
</g>
</g>
<!-- Node1&#45;&gt;Node3 -->
<g id="edge2_Node000001_Node000003" class="edge">
<title>Node1&#45;&gt;Node3</title>
<g id="a_edge2_Node000001_Node000003"><a xlink:title=" ">
<path fill="none" stroke="#63b8ff" d="M141.14,-165.34C131.89,-157.65 118.38,-146.4 107.29,-137.18"/>
<polygon fill="#63b8ff" stroke="#63b8ff" points="109.79,-134.7 99.86,-130.99 105.31,-140.08 109.79,-134.7"/>
</a>
</g>
</g>
<!-- Node4 -->
<g id="Node000004" class="node">
<title>Node4</title>
<g id="a_Node000004"><a xlink:title=" ">
<polygon fill="#e0e0e0" stroke="#999999" points="174.62,-129.75 129.38,-129.75 129.38,-110.5 174.62,-110.5 174.62,-129.75"/>
<text xml:space="preserve" text-anchor="middle" x="152" y="-116.25" font-family="Helvetica,sans-Serif" font-size="10.00">stdio.h</text>
</a>
</g>
</g>
<!-- Node1&#45;&gt;Node4 -->
<g id="edge3_Node000001_Node000004" class="edge">
<title>Node1&#45;&gt;Node4</title>
<g id="a_edge3_Node000001_Node000004"><a xlink:title=" ">
<path fill="none" stroke="#63b8ff" d="M152,-165.58C152,-159.07 152,-149.92 152,-141.62"/>
<polygon fill="#63b8ff" stroke="#63b8ff" points="155.5,-141.62 152,-131.62 148.5,-141.62 155.5,-141.62"/>
</a>
</g>
</g>
<!-- Node5 -->
<g id="Node000005" class="node">
<title>Node5</title>
<g id="a_Node000005"><a xlink:title=" ">
<polygon fill="#e0e0e0" stroke="#999999" points="239.75,-129.75 192.25,-129.75 192.25,-110.5 239.75,-110.5 239.75,-129.75"/>
<text xml:space="preserve" text-anchor="middle" x="216" y="-116.25" font-family="Helvetica,sans-Serif" font-size="10.00">stdlib.h</text>
</a>
</g>
</g>
<!-- Node1&#45;&gt;Node5 -->
<g id="edge4_Node000001_Node000005" class="edge">
<title>Node1&#45;&gt;Node5</title>
<g id="a_edge4_Node000001_Node000005"><a xlink:title=" ">
<path fill="none" stroke="#63b8ff" d="M162.86,-165.34C172.11,-157.65 185.62,-146.4 196.71,-137.18"/>
<polygon fill="#63b8ff" stroke="#63b8ff" points="198.69,-140.08 204.14,-130.99 194.21,-134.7 198.69,-140.08"/>
</a>
</g>
</g>
<!-- Node6 -->
<g id="Node000006" class="node">
<title>Node6</title>
<g id="a_Node000006"><a xlink:href="builtin_8h.html" target="_top" xlink:title=" ">
<polygon fill="white" stroke="#666666" points="307.88,-129.75 258.12,-129.75 258.12,-110.5 307.88,-110.5 307.88,-129.75"/>
<text xml:space="preserve" text-anchor="middle" x="283" y="-116.25" font-family="Helvetica,sans-Serif" font-size="10.00">builtin.h</text>
</a>
</g>
</g>
<!-- Node1&#45;&gt;Node6 -->
<g id="edge5_Node000001_Node000006" class="edge">
<title>Node1&#45;&gt;Node6</title>
<g id="a_edge5_Node000001_Node000006"><a xlink:title=" ">
<path fill="none" stroke="#63b8ff" d="M172.47,-166.05C193.31,-157.58 225.94,-144.32 250.36,-134.39"/>
<polygon fill="#63b8ff" stroke="#63b8ff" points="251.58,-137.68 259.52,-130.67 248.94,-131.19 251.58,-137.68"/>
</a>
</g>
</g>
<!-- Node7 -->
<g id="Node000007" class="node">
<title>Node7</title>
<g id="a_Node000007"><a xlink:href="shell_8h.html" target="_top" xlink:title=" ">
<polygon fill="white" stroke="#666666" points="309.75,-74.5 256.25,-74.5 256.25,-55.25 309.75,-55.25 309.75,-74.5"/>
<text xml:space="preserve" text-anchor="middle" x="283" y="-61" font-family="Helvetica,sans-Serif" font-size="10.00">../shell.h</text>
</a>
</g>
</g>
<!-- Node6&#45;&gt;Node7 -->
<g id="edge6_Node000006_Node000007" class="edge">
<title>Node6&#45;&gt;Node7</title>
<g id="a_edge6_Node000006_Node000007"><a xlink:title=" ">
<path fill="none" stroke="#63b8ff" d="M283,-110.33C283,-103.82 283,-94.67 283,-86.37"/>
<polygon fill="#63b8ff" stroke="#63b8ff" points="286.5,-86.37 283,-76.37 279.5,-86.37 286.5,-86.37"/>
</a>
</g>
</g>
<!-- Node8 -->
<g id="Node000008" class="node">
<title>Node8</title>
<g id="a_Node000008"><a xlink:title=" ">
<polygon fill="#e0e0e0" stroke="#999999" points="274.88,-19.25 219.12,-19.25 219.12,0 274.88,0 274.88,-19.25"/>
<text xml:space="preserve" text-anchor="middle" x="247" y="-5.75" font-family="Helvetica,sans-Serif" font-size="10.00">stdbool.h</text>
</a>
</g>
</g>
<!-- Node7&#45;&gt;Node8 -->
<g id="edge7_Node000007_Node000008" class="edge">
<title>Node7&#45;&gt;Node8</title>
<g id="a_edge7_Node000007_Node000008"><a xlink:title=" ">
<path fill="none" stroke="#63b8ff" d="M277.06,-55.08C272.29,-48.03 265.44,-37.9 259.48,-29.08"/>
<polygon fill="#63b8ff" stroke="#63b8ff" points="262.42,-27.19 253.92,-20.86 256.62,-31.11 262.42,-27.19"/>
</a>
</g>
</g>
<!-- Node9 -->
<g id="Node000009" class="node">
<title>Node9</title>
<g id="a_Node000009"><a xlink:title=" ">
<polygon fill="#e0e0e0" stroke="#999999" points="344.62,-19.25 293.38,-19.25 293.38,0 344.62,0 344.62,-19.25"/>
<text xml:space="preserve" text-anchor="middle" x="319" y="-5.75" font-family="Helvetica,sans-Serif" font-size="10.00">stddef.h</text>
</a>
</g>
</g>
<!-- Node7&#45;&gt;Node9 -->
<g id="edge8_Node000007_Node000009" class="edge">
<title>Node7&#45;&gt;Node9</title>
<g id="a_edge8_Node000007_Node000009"><a xlink:title=" ">
<path fill="none" stroke="#63b8ff" d="M288.94,-55.08C293.71,-48.03 300.56,-37.9 306.52,-29.08"/>
<polygon fill="#63b8ff" stroke="#63b8ff" points="309.38,-31.11 312.08,-20.86 303.58,-27.19 309.38,-31.11"/>
</a>
</g>
</g>
</g>
</svg>
