<?xml version="1.0" encoding="UTF-8" standalone="no"?>
<!DOCTYPE svg PUBLIC "-//W3C//DTD SVG 1.1//EN"
 "http://www.w3.org/Graphics/SVG/1.1/DTD/svg11.dtd">
<!-- Generated by graphviz version 14.0.0 (20250921.2048)
 -->
<!-- Title: is_valid_name Pages: 1 -->
<svg width="347pt" height="27pt"
 viewBox="0.00 0.00 347.00 27.00" xmlns="http://www.w3.org/2000/svg" xmlns:xlink="http://www.w3.org/1999/xlink">
<g id="graph0" class="graph" transform="scale(1 1) rotate(0) translate(4 23.25)">
<title>is_valid_name</title>
<!-- Node1 -->
<g id="Node000001" class="node">
<title>Node1</title>
<g id="a_Node000001"><a xlink:title=" ">
<polygon fill="#999999" stroke="#666666" points="339,-19.25 260.75,-19.25 260.75,0 339,0 339,-19.25"/>
<text xml:space="preserve" text-anchor="middle" x="299.88" y="-5.75" font-family="Helvetica,sans-Serif" font-size="10.00">is_valid_name</text>
</a>
</g>
</g>
<!-- Node2 -->
<g id="Node000002" class="node">
<title>Node2</title>
<g id="a_Node000002"><a xlink:href="export_8c.html#a9955adbe87f1c552b5cdd3606e784652" target="_top" xlink:title=" ">
<polygon fill="white" stroke="#666666" points="224.75,-19.25 109.75,-19.25 109.75,0 224.75,0 224.75,-19.25"/>
<text xml:space="preserve" text-anchor="middle" x="167.25" y="-5.75" font-family="Helvetica,sans-Serif" font-size="10.00">genshell_builtin_export</text>
</a>
</g>
</g>
<!-- Node1&#45;&gt;Node2 -->
<g id="edge1_Node000001_Node000002" class="edge">
<title>Node1&#45;&gt;Node2</title>
<g id="a_edge1_Node000001_Node000002"><a xlink:title=" ">
<path fill="none" stroke="#63b8ff" d="M249.08,-9.62C241.16,-9.62 232.92,-9.62 224.86,-9.62"/>
<polygon fill="#63b8ff" stroke="#63b8ff" points="248.88,-13.13 258.88,-9.63 248.88,-6.13 248.88,-13.13"/>
</a>
</g>
</g>
<!-- Node3 -->
<g id="Node000003" class="node">
<title>Node3</title>
<g id="a_Node000003"><a xlink:href="registry_8c.html#a0711c9a28db7641f8e7019f3ea88d694" target="_top" xlink:title=" ">
<polygon fill="white" stroke="#666666" points="73.75,-19.25 0,-19.25 0,0 73.75,0 73.75,-19.25"/>
<text xml:space="preserve" text-anchor="middle" x="36.88" y="-5.75" font-family="Helvetica,sans-Serif" font-size="10.00">builtin_export</text>
</a>
</g>
</g>
<!-- Node2&#45;&gt;Node3 -->
<g id="edge2_Node000002_Node000003" class="edge">
<title>Node2&#45;&gt;Node3</title>
<g id="a_edge2_Node000002_Node000003"><a xlink:title=" ">
<path fill="none" stroke="#63b8ff" d="M98.18,-9.62C89.83,-9.62 81.57,-9.62 73.97,-9.62"/>
<polygon fill="#63b8ff" stroke="#63b8ff" points="98.06,-13.13 108.06,-9.63 98.06,-6.13 98.06,-13.13"/>
</a>
</g>
</g>
</g>
</svg>
