<?xml version="1.0" encoding="UTF-8" standalone="no"?>
<!DOCTYPE svg PUBLIC "-//W3C//DTD SVG 1.1//EN"
 "http://www.w3.org/Graphics/SVG/1.1/DTD/svg11.dtd">
<!-- Generated by graphviz version 14.0.0 (20250921.2048)
 -->
<!-- Title: export.c Pages: 1 -->
<svg width="420pt" height="193pt"
 viewBox="0.00 0.00 420.00 193.00" xmlns="http://www.w3.org/2000/svg" xmlns:xlink="http://www.w3.org/1999/xlink">
<g id="graph0" class="graph" transform="scale(1 1) rotate(0) translate(4 189)">
<title>export.c</title>
<!-- Node1 -->
<g id="Node000001" class="node">
<title>Node1</title>
<g id="a_Node000001"><a xlink:title=" ">
<polygon fill="#999999" stroke="#666666" points="210.75,-185 159.5,-185 159.5,-165.75 210.75,-165.75 210.75,-185"/>
<text xml:space="preserve" text-anchor="middle" x="185.12" y="-171.5" font-family="Helvetica,sans-Serif" font-size="10.00">export.c</text>
</a>
</g>
</g>
<!-- Node2 -->
<g id="Node000002" class="node">
<title>Node2</title>
<g id="a_Node000002"><a xlink:title=" ">
<polygon fill="#e0e0e0" stroke="#999999" points="48.25,-129.75 0,-129.75 0,-110.5 48.25,-110.5 48.25,-129.75"/>
<text xml:space="preserve" text-anchor="middle" x="24.12" y="-116.25" font-family="Helvetica,sans-Serif" font-size="10.00">ctype.h</text>
</a>
</g>
</g>
<!-- Node1&#45;&gt;Node2 -->
<g id="edge1_Node000001_Node000002" class="edge">
<title>Node1&#45;&gt;Node2</title>
<g id="a_edge1_Node000001_Node000002"><a xlink:title=" ">
<path fill="none" stroke="#63b8ff" d="M159.26,-165.82C132.22,-156.88 89.62,-142.79 59.49,-132.82"/>
<polygon fill="#63b8ff" stroke="#63b8ff" points="60.64,-129.52 50.05,-129.7 58.44,-136.16 60.64,-129.52"/>
</a>
</g>
</g>
<!-- Node3 -->
<g id="Node000003" class="node">
<title>Node3</title>
<g id="a_Node000003"><a xlink:title=" ">
<polygon fill="#e0e0e0" stroke="#999999" points="112.12,-129.75 66.12,-129.75 66.12,-110.5 112.12,-110.5 112.12,-129.75"/>
<text xml:space="preserve" text-anchor="middle" x="89.12" y="-116.25" font-family="Helvetica,sans-Serif" font-size="10.00">errno.h</text>
</a>
</g>
</g>
<!-- Node1&#45;&gt;Node3 -->
<g id="edge2_Node000001_Node000003" class="edge">
<title>Node1&#45;&gt;Node3</title>
<g id="a_edge2_Node000001_Node000003"><a xlink:title=" ">
<path fill="none" stroke="#63b8ff" d="M168.84,-165.34C154.22,-157.23 132.5,-145.18 115.42,-135.71"/>
<polygon fill="#63b8ff" stroke="#63b8ff" points="117.26,-132.73 106.81,-130.94 113.86,-138.85 117.26,-132.73"/>
</a>
</g>
</g>
<!-- Node4 -->
<g id="Node000004" class="node">
<title>Node4</title>
<g id="a_Node000004"><a xlink:title=" ">
<polygon fill="#e0e0e0" stroke="#999999" points="175.75,-129.75 130.5,-129.75 130.5,-110.5 175.75,-110.5 175.75,-129.75"/>
<text xml:space="preserve" text-anchor="middle" x="153.12" y="-116.25" font-family="Helvetica,sans-Serif" font-size="10.00">stdio.h</text>
</a>
</g>
</g>
<!-- Node1&#45;&gt;Node4 -->
<g id="edge3_Node000001_Node000004" class="edge">
<title>Node1&#45;&gt;Node4</title>
<g id="a_edge3_Node000001_Node000004"><a xlink:title=" ">
<path fill="none" stroke="#63b8ff" d="M179.84,-165.58C175.65,-158.61 169.65,-148.62 164.39,-139.87"/>
<polygon fill="#63b8ff" stroke="#63b8ff" points="167.45,-138.18 159.3,-131.41 161.45,-141.78 167.45,-138.18"/>
</a>
</g>
</g>
<!-- Node5 -->
<g id="Node000005" class="node">
<title>Node5</title>
<g id="a_Node000005"><a xlink:title=" ">
<polygon fill="#e0e0e0" stroke="#999999" points="240.88,-129.75 193.38,-129.75 193.38,-110.5 240.88,-110.5 240.88,-129.75"/>
<text xml:space="preserve" text-anchor="middle" x="217.12" y="-116.25" font-family="Helvetica,sans-Serif" font-size="10.00">stdlib.h</text>
</a>
</g>
</g>
<!-- Node1&#45;&gt;Node5 -->
<g id="edge4_Node000001_Node000005" class="edge">
<title>Node1&#45;&gt;Node5</title>
<g id="a_edge4_Node000001_Node000005"><a xlink:title=" ">
<path fill="none" stroke="#63b8ff" d="M190.41,-165.58C194.6,-158.61 200.6,-148.62 205.86,-139.87"/>
<polygon fill="#63b8ff" stroke="#63b8ff" points="208.8,-141.78 210.95,-131.41 202.8,-138.18 208.8,-141.78"/>
</a>
</g>
</g>
<!-- Node6 -->
<g id="Node000006" class="node">
<title>Node6</title>
<g id="a_Node000006"><a xlink:title=" ">
<polygon fill="#e0e0e0" stroke="#999999" points="307.25,-129.75 259,-129.75 259,-110.5 307.25,-110.5 307.25,-129.75"/>
<text xml:space="preserve" text-anchor="middle" x="283.12" y="-116.25" font-family="Helvetica,sans-Serif" font-size="10.00">string.h</text>
</a>
</g>
</g>
<!-- Node1&#45;&gt;Node6 -->
<g id="edge5_Node000001_Node000006" class="edge">
<title>Node1&#45;&gt;Node6</title>
<g id="a_edge5_Node000001_Node000006"><a xlink:title=" ">
<path fill="none" stroke="#63b8ff" d="M201.75,-165.34C216.81,-157.16 239.27,-144.96 256.78,-135.44"/>
<polygon fill="#63b8ff" stroke="#63b8ff" points="257.97,-138.77 265.09,-130.93 254.63,-132.62 257.97,-138.77"/>
</a>
</g>
</g>
<!-- Node7 -->
<g id="Node000007" class="node">
<title>Node7</title>
<g id="a_Node000007"><a xlink:href="builtin_8h.html" target="_top" xlink:title=" ">
<polygon fill="white" stroke="#666666" points="375,-129.75 325.25,-129.75 325.25,-110.5 375,-110.5 375,-129.75"/>
<text xml:space="preserve" text-anchor="middle" x="350.12" y="-116.25" font-family="Helvetica,sans-Serif" font-size="10.00">builtin.h</text>
</a>
</g>
</g>
<!-- Node1&#45;&gt;Node7 -->
<g id="edge6_Node000001_Node000007" class="edge">
<title>Node1&#45;&gt;Node7</title>
<g id="a_edge6_Node000001_Node000007"><a xlink:title=" ">
<path fill="none" stroke="#63b8ff" d="M210.91,-166.05C238.59,-157.12 282.8,-142.85 313.96,-132.8"/>
<polygon fill="#63b8ff" stroke="#63b8ff" points="314.91,-136.17 323.36,-129.76 312.76,-129.5 314.91,-136.17"/>
</a>
</g>
</g>
<!-- Node8 -->
<g id="Node000008" class="node">
<title>Node8</title>
<g id="a_Node000008"><a xlink:href="shell_8h.html" target="_top" xlink:title=" ">
<polygon fill="white" stroke="#666666" points="376.88,-74.5 323.38,-74.5 323.38,-55.25 376.88,-55.25 376.88,-74.5"/>
<text xml:space="preserve" text-anchor="middle" x="350.12" y="-61" font-family="Helvetica,sans-Serif" font-size="10.00">../shell.h</text>
</a>
</g>
</g>
<!-- Node7&#45;&gt;Node8 -->
<g id="edge7_Node000007_Node000008" class="edge">
<title>Node7&#45;&gt;Node8</title>
<g id="a_edge7_Node000007_Node000008"><a xlink:title=" ">
<path fill="none" stroke="#63b8ff" d="M350.12,-110.33C350.12,-103.82 350.12,-94.67 350.12,-86.37"/>
<polygon fill="#63b8ff" stroke="#63b8ff" points="353.63,-86.37 350.13,-76.37 346.63,-86.37 353.63,-86.37"/>
</a>
</g>
</g>
<!-- Node9 -->
<g id="Node000009" class="node">
<title>Node9</title>
<g id="a_Node000009"><a xlink:title=" ">
<polygon fill="#e0e0e0" stroke="#999999" points="342,-19.25 286.25,-19.25 286.25,0 342,0 342,-19.25"/>
<text xml:space="preserve" text-anchor="middle" x="314.12" y="-5.75" font-family="Helvetica,sans-Serif" font-size="10.00">stdbool.h</text>
</a>
</g>
</g>
<!-- Node8&#45;&gt;Node9 -->
<g id="edge8_Node000008_Node000009" class="edge">
<title>Node8&#45;&gt;Node9</title>
<g id="a_edge8_Node000008_Node000009"><a xlink:title=" ">
<path fill="none" stroke="#63b8ff" d="M344.18,-55.08C339.41,-48.03 332.56,-37.9 326.6,-29.08"/>
<polygon fill="#63b8ff" stroke="#63b8ff" points="329.55,-27.19 321.05,-20.86 323.75,-31.11 329.55,-27.19"/>
</a>
</g>
</g>
<!-- Node10 -->
<g id="Node000010" class="node">
<title>Node10</title>
<g id="a_Node000010"><a xlink:title=" ">
<polygon fill="#e0e0e0" stroke="#999999" points="411.75,-19.25 360.5,-19.25 360.5,0 411.75,0 411.75,-19.25"/>
<text xml:space="preserve" text-anchor="middle" x="386.12" y="-5.75" font-family="Helvetica,sans-Serif" font-size="10.00">stddef.h</text>
</a>
</g>
</g>
<!-- Node8&#45;&gt;Node10 -->
<g id="edge9_Node000008_Node000010" class="edge">
<title>Node8&#45;&gt;Node10</title>
<g id="a_edge9_Node000008_Node000010"><a xlink:title=" ">
<path fill="none" stroke="#63b8ff" d="M356.07,-55.08C360.84,-48.03 367.69,-37.9 373.65,-29.08"/>
<polygon fill="#63b8ff" stroke="#63b8ff" points="376.5,-31.11 379.2,-20.86 370.7,-27.19 376.5,-31.11"/>
</a>
</g>
</g>
</g>
</svg>
