<?xml version="1.0" encoding="UTF-8" standalone="no"?>
<!DOCTYPE svg PUBLIC "-//W3C//DTD SVG 1.1//EN"
 "http://www.w3.org/Graphics/SVG/1.1/DTD/svg11.dtd">
<!-- Generated by graphviz version 14.0.0 (20250921.2048)
 -->
<!-- Title: gemma_default_runtime Pages: 1 -->
<svg width="332pt" height="46pt"
 viewBox="0.00 0.00 332.00 46.00" xmlns="http://www.w3.org/2000/svg" xmlns:xlink="http://www.w3.org/1999/xlink">
<g id="graph0" class="graph" transform="scale(1 1) rotate(0) translate(4 42.25)">
<title>gemma_default_runtime</title>
<!-- Node1 -->
<g id="Node000001" class="node">
<title>Node1</title>
<g id="a_Node000001"><a xlink:title=" ">
<polygon fill="#999999" stroke="#666666" points="324,-19.25 203.75,-19.25 203.75,0 324,0 324,-19.25"/>
<text xml:space="preserve" text-anchor="middle" x="263.88" y="-5.75" font-family="Helvetica,sans-Serif" font-size="10.00">gemma_default_runtime</text>
</a>
</g>
</g>
<!-- Node2 -->
<g id="Node000002" class="node">
<title>Node2</title>
<g id="a_Node000002"><a xlink:href="gemma__llama_8cpp.html#a729e876bef94b34d08d69d800ff52b59" target="_top" xlink:title=" ">
<polygon fill="white" stroke="#666666" points="167.75,-38.25 73,-38.25 73,-19 167.75,-19 167.75,-38.25"/>
<text xml:space="preserve" text-anchor="middle" x="120.38" y="-24.75" font-family="Helvetica,sans-Serif" font-size="10.00">gemma_llama_init</text>
</a>
</g>
</g>
<!-- Node1&#45;&gt;Node2 -->
<g id="edge1_Node000001_Node000002" class="edge">
<title>Node1&#45;&gt;Node2</title>
<g id="a_edge1_Node000001_Node000002"><a xlink:title=" ">
<path fill="none" stroke="#63b8ff" d="M191.87,-19.16C183.77,-20.25 175.68,-21.33 168.01,-22.36"/>
<polygon fill="#63b8ff" stroke="#63b8ff" points="192.33,-22.63 201.78,-17.83 191.4,-15.69 192.33,-22.63"/>
</a>
</g>
</g>
<!-- Node3 -->
<g id="Node000003" class="node">
<title>Node3</title>
<g id="a_Node000003"><a xlink:href="gemma__cli_8c.html#a3c04138a5bfe5d72780bb7e82a18e627" target="_top" xlink:title=" ">
<polygon fill="white" stroke="#666666" points="37,-19.25 0,-19.25 0,0 37,0 37,-19.25"/>
<text xml:space="preserve" text-anchor="middle" x="18.5" y="-5.75" font-family="Helvetica,sans-Serif" font-size="10.00">main</text>
</a>
</g>
</g>
<!-- Node1&#45;&gt;Node3 -->
<g id="edge3_Node000001_Node000003" class="edge">
<title>Node1&#45;&gt;Node3</title>
<g id="a_edge3_Node000001_Node000003"><a xlink:title=" ">
<path fill="none" stroke="#63b8ff" d="M191.87,-9.62C138.53,-9.62 69.36,-9.62 37.28,-9.62"/>
<polygon fill="#63b8ff" stroke="#63b8ff" points="191.83,-13.13 201.83,-9.63 191.83,-6.13 191.83,-13.13"/>
</a>
</g>
</g>
<!-- Node2&#45;&gt;Node3 -->
<g id="edge2_Node000002_Node000003" class="edge">
<title>Node2&#45;&gt;Node3</title>
<g id="a_edge2_Node000002_Node000003"><a xlink:title=" ">
<path fill="none" stroke="#63b8ff" d="M61.45,-17.61C52.68,-15.94 44.25,-14.33 37.28,-13.01"/>
<polygon fill="#63b8ff" stroke="#63b8ff" points="60.69,-21.02 71.17,-19.45 62,-14.15 60.69,-21.02"/>
</a>
</g>
</g>
</g>
</svg>
