<?xml version="1.0" encoding="UTF-8" standalone="no"?>
<!DOCTYPE svg PUBLIC "-//W3C//DTD SVG 1.1//EN"
 "http://www.w3.org/Graphics/SVG/1.1/DTD/svg11.dtd">
<!-- Generated by graphviz version 14.0.0 (20250921.2048)
 -->
<!-- Title: gemma_default_sampling Pages: 1 -->
<svg width="364pt" height="46pt"
 viewBox="0.00 0.00 364.00 46.00" xmlns="http://www.w3.org/2000/svg" xmlns:xlink="http://www.w3.org/1999/xlink">
<g id="graph0" class="graph" transform="scale(1 1) rotate(0) translate(4 42.25)">
<title>gemma_default_sampling</title>
<!-- Node1 -->
<g id="Node000001" class="node">
<title>Node1</title>
<g id="a_Node000001"><a xlink:title=" ">
<polygon fill="#999999" stroke="#666666" points="355.5,-19.25 228.5,-19.25 228.5,0 355.5,0 355.5,-19.25"/>
<text xml:space="preserve" text-anchor="middle" x="292" y="-5.75" font-family="Helvetica,sans-Serif" font-size="10.00">gemma_default_sampling</text>
</a>
</g>
</g>
<!-- Node2 -->
<g id="Node000002" class="node">
<title>Node2</title>
<g id="a_Node000002"><a xlink:href="gemma__llama_8cpp.html#aa4cc4ad3d0c07b4bd23d397039b9df21" target="_top" xlink:title=" ">
<polygon fill="white" stroke="#666666" points="192.5,-38.25 73,-38.25 73,-19 192.5,-19 192.5,-38.25"/>
<text xml:space="preserve" text-anchor="middle" x="132.75" y="-24.75" font-family="Helvetica,sans-Serif" font-size="10.00">gemma_llama_generate</text>
</a>
</g>
</g>
<!-- Node1&#45;&gt;Node2 -->
<g id="edge1_Node000001_Node000002" class="edge">
<title>Node1&#45;&gt;Node2</title>
<g id="a_edge1_Node000001_Node000002"><a xlink:title=" ">
<path fill="none" stroke="#63b8ff" d="M217.01,-18.57C208.89,-19.55 200.71,-20.53 192.81,-21.49"/>
<polygon fill="#63b8ff" stroke="#63b8ff" points="217.39,-22.04 226.9,-17.37 216.55,-15.1 217.39,-22.04"/>
</a>
</g>
</g>
<!-- Node3 -->
<g id="Node000003" class="node">
<title>Node3</title>
<g id="a_Node000003"><a xlink:href="gemma__cli_8c.html#a3c04138a5bfe5d72780bb7e82a18e627" target="_top" xlink:title=" ">
<polygon fill="white" stroke="#666666" points="37,-19.25 0,-19.25 0,0 37,0 37,-19.25"/>
<text xml:space="preserve" text-anchor="middle" x="18.5" y="-5.75" font-family="Helvetica,sans-Serif" font-size="10.00">main</text>
</a>
</g>
</g>
<!-- Node1&#45;&gt;Node3 -->
<g id="edge3_Node000001_Node000003" class="edge">
<title>Node1&#45;&gt;Node3</title>
<g id="a_edge3_Node000001_Node000003"><a xlink:title=" ">
<path fill="none" stroke="#63b8ff" d="M216.87,-9.62C155.73,-9.62 73.4,-9.62 37.5,-9.62"/>
<polygon fill="#63b8ff" stroke="#63b8ff" points="216.52,-13.13 226.52,-9.63 216.52,-6.13 216.52,-13.13"/>
</a>
</g>
</g>
<!-- Node2&#45;&gt;Node3 -->
<g id="edge2_Node000002_Node000003" class="edge">
<title>Node2&#45;&gt;Node3</title>
<g id="a_edge2_Node000002_Node000003"><a xlink:title=" ">
<path fill="none" stroke="#63b8ff" d="M61.32,-16.7C52.51,-15.21 44.21,-13.81 37.36,-12.65"/>
<polygon fill="#63b8ff" stroke="#63b8ff" points="60.73,-20.15 71.17,-18.37 61.9,-13.25 60.73,-20.15"/>
</a>
</g>
</g>
</g>
</svg>
