<?xml version="1.0" encoding="UTF-8" standalone="no"?>
<!DOCTYPE svg PUBLIC "-//W3C//DTD SVG 1.1//EN"
 "http://www.w3.org/Graphics/SVG/1.1/DTD/svg11.dtd">
<!-- Generated by graphviz version 14.0.0 (20250921.2048)
 -->
<!-- Title: main Pages: 1 -->
<svg width="364pt" height="284pt"
 viewBox="0.00 0.00 364.00 284.00" xmlns="http://www.w3.org/2000/svg" xmlns:xlink="http://www.w3.org/1999/xlink">
<g id="graph0" class="graph" transform="scale(1 1) rotate(0) translate(4 279.79)">
<title>main</title>
<!-- Node1 -->
<g id="Node000001" class="node">
<title>Node1</title>
<g id="a_Node000001"><a xlink:title=" ">
<polygon fill="#999999" stroke="#666666" points="37,-150.25 0,-150.25 0,-131 37,-131 37,-150.25"/>
<text xml:space="preserve" text-anchor="middle" x="18.5" y="-136.75" font-family="Helvetica,sans-Serif" font-size="10.00">main</text>
</a>
</g>
</g>
<!-- Node2 -->
<g id="Node000002" class="node">
<title>Node2</title>
<g id="a_Node000002"><a xlink:href="gemma__llama_8cpp.html#aaf1f19f3f121e97040c5fbc9e6d055c6" target="_top" xlink:title=" ">
<polygon fill="white" stroke="#666666" points="352.12,-262.25 231.88,-262.25 231.88,-243 352.12,-243 352.12,-262.25"/>
<text xml:space="preserve" text-anchor="middle" x="292" y="-248.75" font-family="Helvetica,sans-Serif" font-size="10.00">gemma_default_runtime</text>
</a>
</g>
</g>
<!-- Node1&#45;&gt;Node2 -->
<g id="edge1_Node000001_Node000002" class="edge">
<title>Node1&#45;&gt;Node2</title>
<g id="a_edge1_Node000001_Node000002"><a xlink:title=" ">
<path fill="none" stroke="#63b8ff" d="M20.77,-150.71C24.28,-173.65 36.36,-229.52 73,-252.62 125.5,-285.73 200.19,-276.42 247.1,-265.46"/>
<polygon fill="#63b8ff" stroke="#63b8ff" points="247.77,-268.9 256.64,-263.1 246.09,-262.1 247.77,-268.9"/>
</a>
</g>
</g>
<!-- Node3 -->
<g id="Node000003" class="node">
<title>Node3</title>
<g id="a_Node000003"><a xlink:href="gemma__llama_8cpp.html#ad945475f5fbb0fc612be2cb3de0e3076" target="_top" xlink:title=" ">
<polygon fill="white" stroke="#666666" points="355.5,-150.25 228.5,-150.25 228.5,-131 355.5,-131 355.5,-150.25"/>
<text xml:space="preserve" text-anchor="middle" x="292" y="-136.75" font-family="Helvetica,sans-Serif" font-size="10.00">gemma_default_sampling</text>
</a>
</g>
</g>
<!-- Node1&#45;&gt;Node3 -->
<g id="edge2_Node000001_Node000003" class="edge">
<title>Node1&#45;&gt;Node3</title>
<g id="a_edge2_Node000001_Node000003"><a xlink:title=" ">
<path fill="none" stroke="#63b8ff" d="M37.31,-140.62C73.13,-140.62 155.67,-140.62 216.93,-140.62"/>
<polygon fill="#63b8ff" stroke="#63b8ff" points="216.59,-144.13 226.59,-140.63 216.59,-137.13 216.59,-144.13"/>
</a>
</g>
</g>
<!-- Node4 -->
<g id="Node000004" class="node">
<title>Node4</title>
<g id="a_Node000004"><a xlink:href="gemma__llama_8cpp.html#a9a12c78e4504a51c48d0241f9231773f" target="_top" xlink:title=" ">
<polygon fill="white" stroke="#666666" points="182,-206.25 83.5,-206.25 83.5,-187 182,-187 182,-206.25"/>
<text xml:space="preserve" text-anchor="middle" x="132.75" y="-192.75" font-family="Helvetica,sans-Serif" font-size="10.00">gemma_llama_free</text>
</a>
</g>
</g>
<!-- Node1&#45;&gt;Node4 -->
<g id="edge3_Node000001_Node000004" class="edge">
<title>Node1&#45;&gt;Node4</title>
<g id="a_edge3_Node000001_Node000004"><a xlink:title=" ">
<path fill="none" stroke="#63b8ff" d="M31.12,-150.56C41.52,-159.01 57.46,-170.98 73,-178.62 75.87,-180.04 78.88,-181.37 81.94,-182.61"/>
<polygon fill="#63b8ff" stroke="#63b8ff" points="80.5,-185.81 91.1,-186 82.93,-179.25 80.5,-185.81"/>
</a>
</g>
</g>
<!-- Node5 -->
<g id="Node000005" class="node">
<title>Node5</title>
<g id="a_Node000005"><a xlink:href="gemma__llama_8cpp.html#aa4cc4ad3d0c07b4bd23d397039b9df21" target="_top" xlink:title=" ">
<polygon fill="white" stroke="#666666" points="192.5,-169.25 73,-169.25 73,-150 192.5,-150 192.5,-169.25"/>
<text xml:space="preserve" text-anchor="middle" x="132.75" y="-155.75" font-family="Helvetica,sans-Serif" font-size="10.00">gemma_llama_generate</text>
</a>
</g>
</g>
<!-- Node1&#45;&gt;Node5 -->
<g id="edge4_Node000001_Node000005" class="edge">
<title>Node1&#45;&gt;Node5</title>
<g id="a_edge4_Node000001_Node000005"><a xlink:title=" ">
<path fill="none" stroke="#63b8ff" d="M37.29,-143.64C44.23,-144.81 52.67,-146.24 61.63,-147.76"/>
<polygon fill="#63b8ff" stroke="#63b8ff" points="60.79,-151.16 71.24,-149.38 61.96,-144.26 60.79,-151.16"/>
</a>
</g>
</g>
<!-- Node6 -->
<g id="Node000006" class="node">
<title>Node6</title>
<g id="a_Node000006"><a xlink:href="gemma__llama_8cpp.html#a729e876bef94b34d08d69d800ff52b59" target="_top" xlink:title=" ">
<polygon fill="white" stroke="#666666" points="180.12,-243.25 85.38,-243.25 85.38,-224 180.12,-224 180.12,-243.25"/>
<text xml:space="preserve" text-anchor="middle" x="132.75" y="-229.75" font-family="Helvetica,sans-Serif" font-size="10.00">gemma_llama_init</text>
</a>
</g>
</g>
<!-- Node1&#45;&gt;Node6 -->
<g id="edge6_Node000001_Node000006" class="edge">
<title>Node1&#45;&gt;Node6</title>
<g id="a_edge6_Node000001_Node000006"><a xlink:title=" ">
<path fill="none" stroke="#63b8ff" d="M24.02,-150.74C31.74,-166.86 48.99,-198.33 73,-215.62 74.38,-216.62 75.81,-217.56 77.29,-218.45"/>
<polygon fill="#63b8ff" stroke="#63b8ff" points="75.7,-221.56 86.21,-222.92 78.84,-215.31 75.7,-221.56"/>
</a>
</g>
</g>
<!-- Node7 -->
<g id="Node000007" class="node">
<title>Node7</title>
<g id="a_Node000007"><a xlink:href="gemma__cli_8c.html#a11abaf5fd0c5979a3d339d1fc18262b4" target="_top" xlink:title=" ">
<polygon fill="white" stroke="#666666" points="184.25,-93.25 81.25,-93.25 81.25,-74 184.25,-74 184.25,-93.25"/>
<text xml:space="preserve" text-anchor="middle" x="132.75" y="-79.75" font-family="Helvetica,sans-Serif" font-size="10.00">monotonic_seconds</text>
</a>
</g>
</g>
<!-- Node1&#45;&gt;Node7 -->
<g id="edge8_Node000001_Node000007" class="edge">
<title>Node1&#45;&gt;Node7</title>
<g id="a_edge8_Node000001_Node000007"><a xlink:title=" ">
<path fill="none" stroke="#63b8ff" d="M34.11,-130.7C44.66,-123.77 59.38,-114.55 73,-107.62 79.73,-104.2 87.07,-100.89 94.21,-97.88"/>
<polygon fill="#63b8ff" stroke="#63b8ff" points="95.09,-101.3 103.02,-94.28 92.44,-94.82 95.09,-101.3"/>
</a>
</g>
</g>
<!-- Node8 -->
<g id="Node000008" class="node">
<title>Node8</title>
<g id="a_Node000008"><a xlink:href="gemma__cli_8c.html#a525cdf7c2b073a56b92dcc9ea8e11acb" target="_top" xlink:title=" ">
<polygon fill="white" stroke="#666666" points="189.5,-56.25 76,-56.25 76,-37 189.5,-37 189.5,-56.25"/>
<text xml:space="preserve" text-anchor="middle" x="132.75" y="-42.75" font-family="Helvetica,sans-Serif" font-size="10.00">stdout_token_callback</text>
</a>
</g>
</g>
<!-- Node1&#45;&gt;Node8 -->
<g id="edge9_Node000001_Node000008" class="edge">
<title>Node1&#45;&gt;Node8</title>
<g id="a_edge9_Node000001_Node000008"><a xlink:title=" ">
<path fill="none" stroke="#63b8ff" d="M23.86,-130.64C31.47,-114.38 48.7,-82.24 73,-64.62 74.38,-63.63 75.81,-62.68 77.29,-61.79"/>
<polygon fill="#63b8ff" stroke="#63b8ff" points="78.83,-64.93 86.19,-57.3 75.68,-58.68 78.83,-64.93"/>
</a>
</g>
</g>
<!-- Node9 -->
<g id="Node000009" class="node">
<title>Node9</title>
<g id="a_Node000009"><a xlink:href="gemma__cli_8c.html#a848c0ca46d3e3ecc39d2fccc4d85fa12" target="_top" xlink:title=" ">
<polygon fill="white" stroke="#666666" points="153.88,-19.25 111.62,-19.25 111.62,0 153.88,0 153.88,-19.25"/>
<text xml:space="preserve" text-anchor="middle" x="132.75" y="-5.75" font-family="Helvetica,sans-Serif" font-size="10.00">usage</text>
</a>
</g>
</g>
<!-- Node1&#45;&gt;Node9 -->
<g id="edge10_Node000001_Node000009" class="edge">
<title>Node1&#45;&gt;Node9</title>
<g id="a_edge10_Node000001_Node000009"><a xlink:title=" ">
<path fill="none" stroke="#63b8ff" d="M21.42,-130.52C26.12,-108.49 40.33,-55.88 73,-27.62 80.66,-21.01 90.71,-16.82 100.32,-14.17"/>
<polygon fill="#63b8ff" stroke="#63b8ff" points="100.78,-17.66 109.77,-12.05 99.25,-10.83 100.78,-17.66"/>
</a>
</g>
</g>
<!-- Node5&#45;&gt;Node3 -->
<g id="edge5_Node000005_Node000003" class="edge">
<title>Node5&#45;&gt;Node3</title>
<g id="a_edge5_Node000005_Node000003"><a xlink:title=" ">
<path fill="none" stroke="#63b8ff" d="M192.75,-152.5C200.63,-151.54 208.79,-150.56 216.88,-149.58"/>
<polygon fill="#63b8ff" stroke="#63b8ff" points="217.24,-153.06 226.75,-148.39 216.4,-146.11 217.24,-153.06"/>
</a>
</g>
</g>
<!-- Node6&#45;&gt;Node2 -->
<g id="edge7_Node000006_Node000002" class="edge">
<title>Node6&#45;&gt;Node2</title>
<g id="a_edge7_Node000006_Node000002"><a xlink:title=" ">
<path fill="none" stroke="#63b8ff" d="M180.5,-239.27C193.02,-240.79 206.84,-242.46 220.34,-244.09"/>
<polygon fill="#63b8ff" stroke="#63b8ff" points="219.72,-247.54 230.07,-245.26 220.56,-240.59 219.72,-247.54"/>
</a>
</g>
</g>
</g>
</svg>
