<?xml version="1.0" encoding="UTF-8" standalone="no"?>
<!DOCTYPE svg PUBLIC "-//W3C//DTD SVG 1.1//EN"
 "http://www.w3.org/Graphics/SVG/1.1/DTD/svg11.dtd">
<!-- Generated by graphviz version 14.0.0 (20250921.2048)
 -->
<!-- Title: gemma_llama.cpp Pages: 1 -->
<svg width="735pt" height="138pt"
 viewBox="0.00 0.00 735.00 138.00" xmlns="http://www.w3.org/2000/svg" xmlns:xlink="http://www.w3.org/1999/xlink">
<g id="graph0" class="graph" transform="scale(1 1) rotate(0) translate(4 133.75)">
<title>gemma_llama.cpp</title>
<!-- Node1 -->
<g id="Node000001" class="node">
<title>Node1</title>
<g id="a_Node000001"><a xlink:title=" ">
<polygon fill="#999999" stroke="#666666" points="456.38,-129.75 360.88,-129.75 360.88,-110.5 456.38,-110.5 456.38,-129.75"/>
<text xml:space="preserve" text-anchor="middle" x="408.62" y="-116.25" font-family="Helvetica,sans-Serif" font-size="10.00">gemma_llama.cpp</text>
</a>
</g>
</g>
<!-- Node2 -->
<g id="Node000002" class="node">
<title>Node2</title>
<g id="a_Node000002"><a xlink:href="gemma__llama_8h.html" target="_top" xlink:title=" ">
<polygon fill="white" stroke="#666666" points="102.12,-74.5 17.12,-74.5 17.12,-55.25 102.12,-55.25 102.12,-74.5"/>
<text xml:space="preserve" text-anchor="middle" x="59.62" y="-61" font-family="Helvetica,sans-Serif" font-size="10.00">gemma_llama.h</text>
</a>
</g>
</g>
<!-- Node1&#45;&gt;Node2 -->
<g id="edge1_Node000001_Node000002" class="edge">
<title>Node1&#45;&gt;Node2</title>
<g id="a_edge1_Node000001_Node000002"><a xlink:title=" ">
<path fill="none" stroke="#63b8ff" d="M360.58,-112.22C303.95,-104.01 206.68,-89.71 113.77,-74.98"/>
<polygon fill="#63b8ff" stroke="#63b8ff" points="114.39,-71.53 103.96,-73.42 113.29,-78.45 114.39,-71.53"/>
</a>
</g>
</g>
<!-- Node5 -->
<g id="Node000005" class="node">
<title>Node5</title>
<g id="a_Node000005"><a xlink:title=" ">
<polygon fill="#e0e0e0" stroke="#999999" points="167.38,-74.5 119.88,-74.5 119.88,-55.25 167.38,-55.25 167.38,-74.5"/>
<text xml:space="preserve" text-anchor="middle" x="143.62" y="-61" font-family="Helvetica,sans-Serif" font-size="10.00">llama.h</text>
</a>
</g>
</g>
<!-- Node1&#45;&gt;Node5 -->
<g id="edge4_Node000001_Node000005" class="edge">
<title>Node1&#45;&gt;Node5</title>
<g id="a_edge4_Node000001_Node000005"><a xlink:title=" ">
<path fill="none" stroke="#63b8ff" d="M360.45,-110.81C315.78,-102.89 247.23,-90.19 178.72,-74.85"/>
<polygon fill="#63b8ff" stroke="#63b8ff" points="179.73,-71.49 169.21,-72.7 178.19,-78.32 179.73,-71.49"/>
</a>
</g>
</g>
<!-- Node6 -->
<g id="Node000006" class="node">
<title>Node6</title>
<g id="a_Node000006"><a xlink:title=" ">
<polygon fill="#e0e0e0" stroke="#999999" points="241.5,-74.5 185.75,-74.5 185.75,-55.25 241.5,-55.25 241.5,-74.5"/>
<text xml:space="preserve" text-anchor="middle" x="213.62" y="-61" font-family="Helvetica,sans-Serif" font-size="10.00">algorithm</text>
</a>
</g>
</g>
<!-- Node1&#45;&gt;Node6 -->
<g id="edge5_Node000001_Node000006" class="edge">
<title>Node1&#45;&gt;Node6</title>
<g id="a_edge5_Node000001_Node000006"><a xlink:title=" ">
<path fill="none" stroke="#63b8ff" d="M375.55,-110.09C341.62,-100.83 288.86,-86.42 252.85,-76.59"/>
<polygon fill="#63b8ff" stroke="#63b8ff" points="253.82,-73.22 243.25,-73.97 251.98,-79.98 253.82,-73.22"/>
</a>
</g>
</g>
<!-- Node7 -->
<g id="Node000007" class="node">
<title>Node7</title>
<g id="a_Node000007"><a xlink:title=" ">
<polygon fill="#e0e0e0" stroke="#999999" points="305.25,-74.5 260,-74.5 260,-55.25 305.25,-55.25 305.25,-74.5"/>
<text xml:space="preserve" text-anchor="middle" x="282.62" y="-61" font-family="Helvetica,sans-Serif" font-size="10.00">atomic</text>
</a>
</g>
</g>
<!-- Node1&#45;&gt;Node7 -->
<g id="edge6_Node000001_Node000007" class="edge">
<title>Node1&#45;&gt;Node7</title>
<g id="a_edge6_Node000001_Node000007"><a xlink:title=" ">
<path fill="none" stroke="#63b8ff" d="M387.25,-110.09C367.34,-101.68 337.39,-89.02 314.62,-79.4"/>
<polygon fill="#63b8ff" stroke="#63b8ff" points="316.07,-76.21 305.5,-75.54 313.35,-82.66 316.07,-76.21"/>
</a>
</g>
</g>
<!-- Node8 -->
<g id="Node000008" class="node">
<title>Node8</title>
<g id="a_Node000008"><a xlink:title=" ">
<polygon fill="#e0e0e0" stroke="#999999" points="368.25,-74.5 323,-74.5 323,-55.25 368.25,-55.25 368.25,-74.5"/>
<text xml:space="preserve" text-anchor="middle" x="345.62" y="-61" font-family="Helvetica,sans-Serif" font-size="10.00">chrono</text>
</a>
</g>
</g>
<!-- Node1&#45;&gt;Node8 -->
<g id="edge7_Node000001_Node000008" class="edge">
<title>Node1&#45;&gt;Node8</title>
<g id="a_edge7_Node000001_Node000008"><a xlink:title=" ">
<path fill="none" stroke="#63b8ff" d="M397.94,-110.09C388.92,-102.47 375.79,-91.37 364.94,-82.2"/>
<polygon fill="#63b8ff" stroke="#63b8ff" points="367.21,-79.53 357.31,-75.75 362.69,-84.88 367.21,-79.53"/>
</a>
</g>
</g>
<!-- Node9 -->
<g id="Node000009" class="node">
<title>Node9</title>
<g id="a_Node000009"><a xlink:title=" ">
<polygon fill="#e0e0e0" stroke="#999999" points="431.25,-74.5 386,-74.5 386,-55.25 431.25,-55.25 431.25,-74.5"/>
<text xml:space="preserve" text-anchor="middle" x="408.62" y="-61" font-family="Helvetica,sans-Serif" font-size="10.00">cstring</text>
</a>
</g>
</g>
<!-- Node1&#45;&gt;Node9 -->
<g id="edge8_Node000001_Node000009" class="edge">
<title>Node1&#45;&gt;Node9</title>
<g id="a_edge8_Node000001_Node000009"><a xlink:title=" ">
<path fill="none" stroke="#63b8ff" d="M408.62,-110.33C408.62,-103.82 408.62,-94.67 408.62,-86.37"/>
<polygon fill="#63b8ff" stroke="#63b8ff" points="412.13,-86.37 408.63,-76.37 405.13,-86.37 412.13,-86.37"/>
</a>
</g>
</g>
<!-- Node10 -->
<g id="Node000010" class="node">
<title>Node10</title>
<g id="a_Node000010"><a xlink:title=" ">
<polygon fill="#e0e0e0" stroke="#999999" points="492.12,-74.5 449.12,-74.5 449.12,-55.25 492.12,-55.25 492.12,-74.5"/>
<text xml:space="preserve" text-anchor="middle" x="470.62" y="-61" font-family="Helvetica,sans-Serif" font-size="10.00">mutex</text>
</a>
</g>
</g>
<!-- Node1&#45;&gt;Node10 -->
<g id="edge9_Node000001_Node000010" class="edge">
<title>Node1&#45;&gt;Node10</title>
<g id="a_edge9_Node000001_Node000010"><a xlink:title=" ">
<path fill="none" stroke="#63b8ff" d="M419.14,-110.09C428.01,-102.47 440.94,-91.37 451.61,-82.2"/>
<polygon fill="#63b8ff" stroke="#63b8ff" points="453.81,-84.93 459.11,-75.76 449.25,-79.62 453.81,-84.93"/>
</a>
</g>
</g>
<!-- Node11 -->
<g id="Node000011" class="node">
<title>Node11</title>
<g id="a_Node000011"><a xlink:title=" ">
<polygon fill="#e0e0e0" stroke="#999999" points="544.62,-74.5 510.62,-74.5 510.62,-55.25 544.62,-55.25 544.62,-74.5"/>
<text xml:space="preserve" text-anchor="middle" x="527.62" y="-61" font-family="Helvetica,sans-Serif" font-size="10.00">new</text>
</a>
</g>
</g>
<!-- Node1&#45;&gt;Node11 -->
<g id="edge10_Node000001_Node000011" class="edge">
<title>Node1&#45;&gt;Node11</title>
<g id="a_edge10_Node000001_Node000011"><a xlink:title=" ">
<path fill="none" stroke="#63b8ff" d="M428.81,-110.09C448.44,-101.31 478.4,-87.9 500.18,-78.16"/>
<polygon fill="#63b8ff" stroke="#63b8ff" points="501.35,-81.46 509.05,-74.19 498.5,-75.08 501.35,-81.46"/>
</a>
</g>
</g>
<!-- Node12 -->
<g id="Node000012" class="node">
<title>Node12</title>
<g id="a_Node000012"><a xlink:title=" ">
<polygon fill="#e0e0e0" stroke="#999999" points="602.62,-74.5 562.62,-74.5 562.62,-55.25 602.62,-55.25 602.62,-74.5"/>
<text xml:space="preserve" text-anchor="middle" x="582.62" y="-61" font-family="Helvetica,sans-Serif" font-size="10.00">string</text>
</a>
</g>
</g>
<!-- Node1&#45;&gt;Node12 -->
<g id="edge11_Node000001_Node000012" class="edge">
<title>Node1&#45;&gt;Node12</title>
<g id="a_edge11_Node000001_Node000012"><a xlink:title=" ">
<path fill="none" stroke="#63b8ff" d="M438.14,-110.09C469.57,-100.47 519.13,-85.31 551.25,-75.48"/>
<polygon fill="#63b8ff" stroke="#63b8ff" points="552.25,-78.83 560.79,-72.56 550.2,-72.14 552.25,-78.83"/>
</a>
</g>
</g>
<!-- Node13 -->
<g id="Node000013" class="node">
<title>Node13</title>
<g id="a_Node000013"><a xlink:title=" ">
<polygon fill="#e0e0e0" stroke="#999999" points="664.12,-74.5 621.12,-74.5 621.12,-55.25 664.12,-55.25 664.12,-74.5"/>
<text xml:space="preserve" text-anchor="middle" x="642.62" y="-61" font-family="Helvetica,sans-Serif" font-size="10.00">vector</text>
</a>
</g>
</g>
<!-- Node1&#45;&gt;Node13 -->
<g id="edge12_Node000001_Node000013" class="edge">
<title>Node1&#45;&gt;Node13</title>
<g id="a_edge12_Node000001_Node000013"><a xlink:title=" ">
<path fill="none" stroke="#63b8ff" d="M453.14,-110.07C491.96,-102.02 550.04,-89.57 609.53,-74.91"/>
<polygon fill="#63b8ff" stroke="#63b8ff" points="610.32,-78.32 619.18,-72.51 608.63,-71.53 610.32,-78.32"/>
</a>
</g>
</g>
<!-- Node14 -->
<g id="Node000014" class="node">
<title>Node14</title>
<g id="a_Node000014"><a xlink:title=" ">
<polygon fill="#e0e0e0" stroke="#999999" points="726.88,-74.5 682.38,-74.5 682.38,-55.25 726.88,-55.25 726.88,-74.5"/>
<text xml:space="preserve" text-anchor="middle" x="704.62" y="-61" font-family="Helvetica,sans-Serif" font-size="10.00">cstdlib</text>
</a>
</g>
</g>
<!-- Node1&#45;&gt;Node14 -->
<g id="edge13_Node000001_Node000014" class="edge">
<title>Node1&#45;&gt;Node14</title>
<g id="a_edge13_Node000001_Node000014"><a xlink:title=" ">
<path fill="none" stroke="#63b8ff" d="M456.79,-112.56C507.83,-105.26 590.96,-92.4 671.22,-74.85"/>
<polygon fill="#63b8ff" stroke="#63b8ff" points="671.52,-78.37 680.53,-72.79 670.01,-71.54 671.52,-78.37"/>
</a>
</g>
</g>
<!-- Node3 -->
<g id="Node000003" class="node">
<title>Node3</title>
<g id="a_Node000003"><a xlink:title=" ">
<polygon fill="#e0e0e0" stroke="#999999" points="51.25,-19.25 0,-19.25 0,0 51.25,0 51.25,-19.25"/>
<text xml:space="preserve" text-anchor="middle" x="25.62" y="-5.75" font-family="Helvetica,sans-Serif" font-size="10.00">stddef.h</text>
</a>
</g>
</g>
<!-- Node2&#45;&gt;Node3 -->
<g id="edge2_Node000002_Node000003" class="edge">
<title>Node2&#45;&gt;Node3</title>
<g id="a_edge2_Node000002_Node000003"><a xlink:title=" ">
<path fill="none" stroke="#63b8ff" d="M54.01,-55.08C49.51,-48.03 43.04,-37.9 37.41,-29.08"/>
<polygon fill="#63b8ff" stroke="#63b8ff" points="40.51,-27.43 32.18,-20.88 34.61,-31.2 40.51,-27.43"/>
</a>
</g>
</g>
<!-- Node4 -->
<g id="Node000004" class="node">
<title>Node4</title>
<g id="a_Node000004"><a xlink:title=" ">
<polygon fill="#e0e0e0" stroke="#999999" points="117.75,-19.25 69.5,-19.25 69.5,0 117.75,0 117.75,-19.25"/>
<text xml:space="preserve" text-anchor="middle" x="93.62" y="-5.75" font-family="Helvetica,sans-Serif" font-size="10.00">stdint.h</text>
</a>
</g>
</g>
<!-- Node2&#45;&gt;Node4 -->
<g id="edge3_Node000002_Node000004" class="edge">
<title>Node2&#45;&gt;Node4</title>
<g id="a_edge3_Node000002_Node000004"><a xlink:title=" ">
<path fill="none" stroke="#63b8ff" d="M65.24,-55.08C69.74,-48.03 76.21,-37.9 81.84,-29.08"/>
<polygon fill="#63b8ff" stroke="#63b8ff" points="84.64,-31.2 87.07,-20.88 78.74,-27.43 84.64,-31.2"/>
</a>
</g>
</g>
</g>
</svg>
