<?xml version="1.0" encoding="UTF-8" standalone="no"?>
<!DOCTYPE svg PUBLIC "-//W3C//DTD SVG 1.1//EN"
 "http://www.w3.org/Graphics/SVG/1.1/DTD/svg11.dtd">
<!-- Generated by graphviz version 14.0.0 (20250921.2048)
 -->
<!-- Title: gemma_cli.c Pages: 1 -->
<svg width="435pt" height="138pt"
 viewBox="0.00 0.00 435.00 138.00" xmlns="http://www.w3.org/2000/svg" xmlns:xlink="http://www.w3.org/1999/xlink">
<g id="graph0" class="graph" transform="scale(1 1) rotate(0) translate(4 133.75)">
<title>gemma_cli.c</title>
<!-- Node1 -->
<g id="Node000001" class="node">
<title>Node1</title>
<g id="a_Node000001"><a xlink:title=" ">
<polygon fill="#999999" stroke="#666666" points="275.38,-129.75 203.88,-129.75 203.88,-110.5 275.38,-110.5 275.38,-129.75"/>
<text xml:space="preserve" text-anchor="middle" x="239.62" y="-116.25" font-family="Helvetica,sans-Serif" font-size="10.00">gemma_cli.c</text>
</a>
</g>
</g>
<!-- Node2 -->
<g id="Node000002" class="node">
<title>Node2</title>
<g id="a_Node000002"><a xlink:href="gemma__llama_8h.html" target="_top" xlink:title=" ">
<polygon fill="white" stroke="#666666" points="102.12,-74.5 17.12,-74.5 17.12,-55.25 102.12,-55.25 102.12,-74.5"/>
<text xml:space="preserve" text-anchor="middle" x="59.62" y="-61" font-family="Helvetica,sans-Serif" font-size="10.00">gemma_llama.h</text>
</a>
</g>
</g>
<!-- Node1&#45;&gt;Node2 -->
<g id="edge1_Node000001_Node000002" class="edge">
<title>Node1&#45;&gt;Node2</title>
<g id="a_edge1_Node000001_Node000002"><a xlink:title=" ">
<path fill="none" stroke="#63b8ff" d="M209.09,-110.09C179.35,-101.29 133.94,-87.86 100.97,-78.11"/>
<polygon fill="#63b8ff" stroke="#63b8ff" points="102.34,-74.86 91.76,-75.38 100.36,-81.57 102.34,-74.86"/>
</a>
</g>
</g>
<!-- Node5 -->
<g id="Node000005" class="node">
<title>Node5</title>
<g id="a_Node000005"><a xlink:title=" ">
<polygon fill="#e0e0e0" stroke="#999999" points="165.25,-74.5 120,-74.5 120,-55.25 165.25,-55.25 165.25,-74.5"/>
<text xml:space="preserve" text-anchor="middle" x="142.62" y="-61" font-family="Helvetica,sans-Serif" font-size="10.00">stdio.h</text>
</a>
</g>
</g>
<!-- Node1&#45;&gt;Node5 -->
<g id="edge4_Node000001_Node000005" class="edge">
<title>Node1&#45;&gt;Node5</title>
<g id="a_edge4_Node000001_Node000005"><a xlink:title=" ">
<path fill="none" stroke="#63b8ff" d="M223.17,-110.09C208.4,-101.98 186.45,-89.93 169.19,-80.46"/>
<polygon fill="#63b8ff" stroke="#63b8ff" points="170.94,-77.43 160.49,-75.68 167.57,-83.56 170.94,-77.43"/>
</a>
</g>
</g>
<!-- Node6 -->
<g id="Node000006" class="node">
<title>Node6</title>
<g id="a_Node000006"><a xlink:title=" ">
<polygon fill="#e0e0e0" stroke="#999999" points="230.38,-74.5 182.88,-74.5 182.88,-55.25 230.38,-55.25 230.38,-74.5"/>
<text xml:space="preserve" text-anchor="middle" x="206.62" y="-61" font-family="Helvetica,sans-Serif" font-size="10.00">stdlib.h</text>
</a>
</g>
</g>
<!-- Node1&#45;&gt;Node6 -->
<g id="edge5_Node000001_Node000006" class="edge">
<title>Node1&#45;&gt;Node6</title>
<g id="a_edge5_Node000001_Node000006"><a xlink:title=" ">
<path fill="none" stroke="#63b8ff" d="M234.18,-110.33C229.85,-103.36 223.66,-93.37 218.24,-84.62"/>
<polygon fill="#63b8ff" stroke="#63b8ff" points="221.23,-82.8 212.99,-76.15 215.28,-86.49 221.23,-82.8"/>
</a>
</g>
</g>
<!-- Node7 -->
<g id="Node000007" class="node">
<title>Node7</title>
<g id="a_Node000007"><a xlink:title=" ">
<polygon fill="#e0e0e0" stroke="#999999" points="296.75,-74.5 248.5,-74.5 248.5,-55.25 296.75,-55.25 296.75,-74.5"/>
<text xml:space="preserve" text-anchor="middle" x="272.62" y="-61" font-family="Helvetica,sans-Serif" font-size="10.00">string.h</text>
</a>
</g>
</g>
<!-- Node1&#45;&gt;Node7 -->
<g id="edge6_Node000001_Node000007" class="edge">
<title>Node1&#45;&gt;Node7</title>
<g id="a_edge6_Node000001_Node000007"><a xlink:title=" ">
<path fill="none" stroke="#63b8ff" d="M245.07,-110.33C249.4,-103.36 255.59,-93.37 261.01,-84.62"/>
<polygon fill="#63b8ff" stroke="#63b8ff" points="263.97,-86.49 266.26,-76.15 258.02,-82.8 263.97,-86.49"/>
</a>
</g>
</g>
<!-- Node8 -->
<g id="Node000008" class="node">
<title>Node8</title>
<g id="a_Node000008"><a xlink:title=" ">
<polygon fill="#e0e0e0" stroke="#999999" points="358.12,-74.5 315.12,-74.5 315.12,-55.25 358.12,-55.25 358.12,-74.5"/>
<text xml:space="preserve" text-anchor="middle" x="336.62" y="-61" font-family="Helvetica,sans-Serif" font-size="10.00">time.h</text>
</a>
</g>
</g>
<!-- Node1&#45;&gt;Node8 -->
<g id="edge7_Node000001_Node000008" class="edge">
<title>Node1&#45;&gt;Node8</title>
<g id="a_edge7_Node000001_Node000008"><a xlink:title=" ">
<path fill="none" stroke="#63b8ff" d="M256.08,-110.09C270.85,-101.98 292.8,-89.93 310.06,-80.46"/>
<polygon fill="#63b8ff" stroke="#63b8ff" points="311.68,-83.56 318.76,-75.68 308.31,-77.43 311.68,-83.56"/>
</a>
</g>
</g>
<!-- Node9 -->
<g id="Node000009" class="node">
<title>Node9</title>
<g id="a_Node000009"><a xlink:title=" ">
<polygon fill="#e0e0e0" stroke="#999999" points="426.88,-74.5 376.38,-74.5 376.38,-55.25 426.88,-55.25 426.88,-74.5"/>
<text xml:space="preserve" text-anchor="middle" x="401.62" y="-61" font-family="Helvetica,sans-Serif" font-size="10.00">unistd.h</text>
</a>
</g>
</g>
<!-- Node1&#45;&gt;Node9 -->
<g id="edge8_Node000001_Node000009" class="edge">
<title>Node1&#45;&gt;Node9</title>
<g id="a_edge8_Node000001_Node000009"><a xlink:title=" ">
<path fill="none" stroke="#63b8ff" d="M267.11,-110.09C294.08,-101.22 335.39,-87.65 365.11,-77.88"/>
<polygon fill="#63b8ff" stroke="#63b8ff" points="366.04,-81.26 374.45,-74.81 363.85,-74.61 366.04,-81.26"/>
</a>
</g>
</g>
<!-- Node3 -->
<g id="Node000003" class="node">
<title>Node3</title>
<g id="a_Node000003"><a xlink:title=" ">
<polygon fill="#e0e0e0" stroke="#999999" points="51.25,-19.25 0,-19.25 0,0 51.25,0 51.25,-19.25"/>
<text xml:space="preserve" text-anchor="middle" x="25.62" y="-5.75" font-family="Helvetica,sans-Serif" font-size="10.00">stddef.h</text>
</a>
</g>
</g>
<!-- Node2&#45;&gt;Node3 -->
<g id="edge2_Node000002_Node000003" class="edge">
<title>Node2&#45;&gt;Node3</title>
<g id="a_edge2_Node000002_Node000003"><a xlink:title=" ">
<path fill="none" stroke="#63b8ff" d="M54.01,-55.08C49.51,-48.03 43.04,-37.9 37.41,-29.08"/>
<polygon fill="#63b8ff" stroke="#63b8ff" points="40.51,-27.43 32.18,-20.88 34.61,-31.2 40.51,-27.43"/>
</a>
</g>
</g>
<!-- Node4 -->
<g id="Node000004" class="node">
<title>Node4</title>
<g id="a_Node000004"><a xlink:title=" ">
<polygon fill="#e0e0e0" stroke="#999999" points="117.75,-19.25 69.5,-19.25 69.5,0 117.75,0 117.75,-19.25"/>
<text xml:space="preserve" text-anchor="middle" x="93.62" y="-5.75" font-family="Helvetica,sans-Serif" font-size="10.00">stdint.h</text>
</a>
</g>
</g>
<!-- Node2&#45;&gt;Node4 -->
<g id="edge3_Node000002_Node000004" class="edge">
<title>Node2&#45;&gt;Node4</title>
<g id="a_edge3_Node000002_Node000004"><a xlink:title=" ">
<path fill="none" stroke="#63b8ff" d="M65.24,-55.08C69.74,-48.03 76.21,-37.9 81.84,-29.08"/>
<polygon fill="#63b8ff" stroke="#63b8ff" points="84.64,-31.2 87.07,-20.88 78.74,-27.43 84.64,-31.2"/>
</a>
</g>
</g>
</g>
</svg>
