<?xml version="1.0" encoding="UTF-8" standalone="no"?>
<!DOCTYPE svg PUBLIC "-//W3C//DTD SVG 1.1//EN"
 "http://www.w3.org/Graphics/SVG/1.1/DTD/svg11.dtd">
<!-- Generated by graphviz version 14.0.0 (20250921.2048)
 -->
<!-- Title: lexer.h Pages: 1 -->
<svg width="172pt" height="138pt"
 viewBox="0.00 0.00 172.00 138.00" xmlns="http://www.w3.org/2000/svg" xmlns:xlink="http://www.w3.org/1999/xlink">
<g id="graph0" class="graph" transform="scale(1 1) rotate(0) translate(4 133.75)">
<title>lexer.h</title>
<!-- Node1 -->
<g id="Node000001" class="node">
<title>Node1</title>
<g id="a_Node000001"><a xlink:title=" ">
<polygon fill="#999999" stroke="#666666" points="110.5,-129.75 66,-129.75 66,-110.5 110.5,-110.5 110.5,-129.75"/>
<text xml:space="preserve" text-anchor="middle" x="88.25" y="-116.25" font-family="Helvetica,sans-Serif" font-size="10.00">lexer.h</text>
</a>
</g>
</g>
<!-- Node2 -->
<g id="Node000002" class="node">
<title>Node2</title>
<g id="a_Node000002"><a xlink:href="lexer_8c.html" target="_top" xlink:title=" ">
<polygon fill="white" stroke="#666666" points="44.5,-74.5 0,-74.5 0,-55.25 44.5,-55.25 44.5,-74.5"/>
<text xml:space="preserve" text-anchor="middle" x="22.25" y="-61" font-family="Helvetica,sans-Serif" font-size="10.00">lexer.c</text>
</a>
</g>
</g>
<!-- Node1&#45;&gt;Node2 -->
<g id="edge1_Node000001_Node000002" class="edge">
<title>Node1&#45;&gt;Node2</title>
<g id="a_edge1_Node000001_Node000002"><a xlink:title=" ">
<path fill="none" stroke="#63b8ff" d="M68.16,-102.91C56.7,-93.67 42.77,-82.43 33.28,-74.77"/>
<polygon fill="#63b8ff" stroke="#63b8ff" points="65.9,-105.59 75.88,-109.14 70.29,-100.14 65.9,-105.59"/>
</a>
</g>
</g>
<!-- Node3 -->
<g id="Node000003" class="node">
<title>Node3</title>
<g id="a_Node000003"><a xlink:href="parser_8h.html" target="_top" xlink:title=" ">
<polygon fill="white" stroke="#666666" points="113.5,-74.5 63,-74.5 63,-55.25 113.5,-55.25 113.5,-74.5"/>
<text xml:space="preserve" text-anchor="middle" x="88.25" y="-61" font-family="Helvetica,sans-Serif" font-size="10.00">parser.h</text>
</a>
</g>
</g>
<!-- Node1&#45;&gt;Node3 -->
<g id="edge2_Node000001_Node000003" class="edge">
<title>Node1&#45;&gt;Node3</title>
<g id="a_edge2_Node000001_Node000003"><a xlink:title=" ">
<path fill="none" stroke="#63b8ff" d="M88.25,-98.88C88.25,-90.59 88.25,-81.42 88.25,-74.86"/>
<polygon fill="#63b8ff" stroke="#63b8ff" points="84.75,-98.82 88.25,-108.82 91.75,-98.82 84.75,-98.82"/>
</a>
</g>
</g>
<!-- Node5 -->
<g id="Node000005" class="node">
<title>Node5</title>
<g id="a_Node000005"><a xlink:href="shell_8c.html" target="_top" xlink:title=" ">
<polygon fill="white" stroke="#666666" points="163.5,-19.25 119,-19.25 119,0 163.5,0 163.5,-19.25"/>
<text xml:space="preserve" text-anchor="middle" x="141.25" y="-5.75" font-family="Helvetica,sans-Serif" font-size="10.00">shell.c</text>
</a>
</g>
</g>
<!-- Node1&#45;&gt;Node5 -->
<g id="edge5_Node000001_Node000005" class="edge">
<title>Node1&#45;&gt;Node5</title>
<g id="a_edge5_Node000001_Node000005"><a xlink:title=" ">
<path fill="none" stroke="#63b8ff" d="M103.92,-101.65C110.32,-93.79 117.36,-84.13 122.25,-74.5 131.58,-56.14 137.12,-32.43 139.63,-19.69"/>
<polygon fill="#63b8ff" stroke="#63b8ff" points="101.42,-99.19 97.59,-109.07 106.75,-103.73 101.42,-99.19"/>
</a>
</g>
</g>
<!-- Node4 -->
<g id="Node000004" class="node">
<title>Node4</title>
<g id="a_Node000004"><a xlink:href="parser_8c.html" target="_top" xlink:title=" ">
<polygon fill="white" stroke="#666666" points="100.5,-19.25 50,-19.25 50,0 100.5,0 100.5,-19.25"/>
<text xml:space="preserve" text-anchor="middle" x="75.25" y="-5.75" font-family="Helvetica,sans-Serif" font-size="10.00">parser.c</text>
</a>
</g>
</g>
<!-- Node3&#45;&gt;Node4 -->
<g id="edge3_Node000003_Node000004" class="edge">
<title>Node3&#45;&gt;Node4</title>
<g id="a_edge3_Node000003_Node000004"><a xlink:title=" ">
<path fill="none" stroke="#63b8ff" d="M83.38,-43.92C81.34,-35.55 79.06,-26.25 77.44,-19.61"/>
<polygon fill="#63b8ff" stroke="#63b8ff" points="79.97,-44.73 85.74,-53.61 86.77,-43.07 79.97,-44.73"/>
</a>
</g>
</g>
<!-- Node3&#45;&gt;Node5 -->
<g id="edge4_Node000003_Node000005" class="edge">
<title>Node3&#45;&gt;Node5</title>
<g id="a_edge4_Node000003_Node000005"><a xlink:title=" ">
<path fill="none" stroke="#63b8ff" d="M104.97,-47.07C114.03,-37.98 124.85,-27.1 132.31,-19.61"/>
<polygon fill="#63b8ff" stroke="#63b8ff" points="102.64,-44.45 98.07,-54.01 107.6,-49.39 102.64,-44.45"/>
</a>
</g>
</g>
</g>
</svg>
