<?xml version="1.0" encoding="UTF-8" standalone="no"?>
<!DOCTYPE svg PUBLIC "-//W3C//DTD SVG 1.1//EN"
 "http://www.w3.org/Graphics/SVG/1.1/DTD/svg11.dtd">
<!-- Generated by graphviz version 14.0.0 (20250921.2048)
 -->
<!-- Title: append_simple_token Pages: 1 -->
<svg width="355pt" height="27pt"
 viewBox="0.00 0.00 355.00 27.00" xmlns="http://www.w3.org/2000/svg" xmlns:xlink="http://www.w3.org/1999/xlink">
<g id="graph0" class="graph" transform="scale(1 1) rotate(0) translate(4 23.25)">
<title>append_simple_token</title>
<!-- Node1 -->
<g id="Node000001" class="node">
<title>Node1</title>
<g id="a_Node000001"><a xlink:title=" ">
<polygon fill="#999999" stroke="#666666" points="110.5,-19.25 0,-19.25 0,0 110.5,0 110.5,-19.25"/>
<text xml:space="preserve" text-anchor="middle" x="55.25" y="-5.75" font-family="Helvetica,sans-Serif" font-size="10.00">append_simple_token</text>
</a>
</g>
</g>
<!-- Node2 -->
<g id="Node000002" class="node">
<title>Node2</title>
<g id="a_Node000002"><a xlink:href="lexer_8c.html#ad4b9f03ae6bb79d05e5cc0094a751428" target="_top" xlink:title=" ">
<polygon fill="white" stroke="#666666" points="224,-19.25 146.5,-19.25 146.5,0 224,0 224,-19.25"/>
<text xml:space="preserve" text-anchor="middle" x="185.25" y="-5.75" font-family="Helvetica,sans-Serif" font-size="10.00">buffer_append</text>
</a>
</g>
</g>
<!-- Node1&#45;&gt;Node2 -->
<g id="edge1_Node000001_Node000002" class="edge">
<title>Node1&#45;&gt;Node2</title>
<g id="a_edge1_Node000001_Node000002"><a xlink:title=" ">
<path fill="none" stroke="#63b8ff" d="M110.9,-9.62C118.76,-9.62 126.8,-9.62 134.55,-9.62"/>
<polygon fill="#63b8ff" stroke="#63b8ff" points="134.5,-13.13 144.5,-9.63 134.5,-6.13 134.5,-13.13"/>
</a>
</g>
</g>
<!-- Node3 -->
<g id="Node000003" class="node">
<title>Node3</title>
<g id="a_Node000003"><a xlink:href="lexer_8c.html#a33cb276f743ff368e80d7d1c84d3a077" target="_top" xlink:title=" ">
<polygon fill="white" stroke="#666666" points="347.25,-19.25 260,-19.25 260,0 347.25,0 347.25,-19.25"/>
<text xml:space="preserve" text-anchor="middle" x="303.62" y="-5.75" font-family="Helvetica,sans-Serif" font-size="10.00">ensure_capacity</text>
</a>
</g>
</g>
<!-- Node2&#45;&gt;Node3 -->
<g id="edge2_Node000002_Node000003" class="edge">
<title>Node2&#45;&gt;Node3</title>
<g id="a_edge2_Node000002_Node000003"><a xlink:title=" ">
<path fill="none" stroke="#63b8ff" d="M224.36,-9.62C232.01,-9.62 240.2,-9.62 248.29,-9.62"/>
<polygon fill="#63b8ff" stroke="#63b8ff" points="248.08,-13.13 258.08,-9.63 248.08,-6.13 248.08,-13.13"/>
</a>
</g>
</g>
</g>
</svg>
