<?xml version="1.0" encoding="UTF-8" standalone="no"?>
<!DOCTYPE svg PUBLIC "-//W3C//DTD SVG 1.1//EN"
 "http://www.w3.org/Graphics/SVG/1.1/DTD/svg11.dtd">
<!-- Generated by graphviz version 14.0.0 (20250921.2048)
 -->
<!-- Title: lexer.c Pages: 1 -->
<svg width="345pt" height="193pt"
 viewBox="0.00 0.00 345.00 193.00" xmlns="http://www.w3.org/2000/svg" xmlns:xlink="http://www.w3.org/1999/xlink">
<g id="graph0" class="graph" transform="scale(1 1) rotate(0) translate(4 189)">
<title>lexer.c</title>
<!-- Node1 -->
<g id="Node000001" class="node">
<title>Node1</title>
<g id="a_Node000001"><a xlink:title=" ">
<polygon fill="#999999" stroke="#666666" points="203.88,-185 159.38,-185 159.38,-165.75 203.88,-165.75 203.88,-185"/>
<text xml:space="preserve" text-anchor="middle" x="181.62" y="-171.5" font-family="Helvetica,sans-Serif" font-size="10.00">lexer.c</text>
</a>
</g>
</g>
<!-- Node2 -->
<g id="Node000002" class="node">
<title>Node2</title>
<g id="a_Node000002"><a xlink:href="lexer_8h.html" target="_top" xlink:title=" ">
<polygon fill="white" stroke="#666666" points="74.88,-129.75 30.38,-129.75 30.38,-110.5 74.88,-110.5 74.88,-129.75"/>
<text xml:space="preserve" text-anchor="middle" x="52.62" y="-116.25" font-family="Helvetica,sans-Serif" font-size="10.00">lexer.h</text>
</a>
</g>
</g>
<!-- Node1&#45;&gt;Node2 -->
<g id="edge1_Node000001_Node000002" class="edge">
<title>Node1&#45;&gt;Node2</title>
<g id="a_edge1_Node000001_Node000002"><a xlink:title=" ">
<path fill="none" stroke="#63b8ff" d="M159.74,-165.34C139.26,-156.89 108.41,-144.15 85.07,-134.52"/>
<polygon fill="#63b8ff" stroke="#63b8ff" points="86.59,-131.36 76.01,-130.78 83.92,-137.83 86.59,-131.36"/>
</a>
</g>
</g>
<!-- Node6 -->
<g id="Node000006" class="node">
<title>Node6</title>
<g id="a_Node000006"><a xlink:title=" ">
<polygon fill="#e0e0e0" stroke="#999999" points="140.75,-129.75 92.5,-129.75 92.5,-110.5 140.75,-110.5 140.75,-129.75"/>
<text xml:space="preserve" text-anchor="middle" x="116.62" y="-116.25" font-family="Helvetica,sans-Serif" font-size="10.00">ctype.h</text>
</a>
</g>
</g>
<!-- Node1&#45;&gt;Node6 -->
<g id="edge6_Node000001_Node000006" class="edge">
<title>Node1&#45;&gt;Node6</title>
<g id="a_edge6_Node000001_Node000006"><a xlink:title=" ">
<path fill="none" stroke="#63b8ff" d="M170.6,-165.34C161.2,-157.65 147.48,-146.4 136.22,-137.18"/>
<polygon fill="#63b8ff" stroke="#63b8ff" points="138.61,-134.61 128.66,-130.98 134.18,-140.03 138.61,-134.61"/>
</a>
</g>
</g>
<!-- Node7 -->
<g id="Node000007" class="node">
<title>Node7</title>
<g id="a_Node000007"><a xlink:title=" ">
<polygon fill="#e0e0e0" stroke="#999999" points="204.62,-129.75 158.62,-129.75 158.62,-110.5 204.62,-110.5 204.62,-129.75"/>
<text xml:space="preserve" text-anchor="middle" x="181.62" y="-116.25" font-family="Helvetica,sans-Serif" font-size="10.00">errno.h</text>
</a>
</g>
</g>
<!-- Node1&#45;&gt;Node7 -->
<g id="edge7_Node000001_Node000007" class="edge">
<title>Node1&#45;&gt;Node7</title>
<g id="a_edge7_Node000001_Node000007"><a xlink:title=" ">
<path fill="none" stroke="#63b8ff" d="M181.62,-165.58C181.62,-159.07 181.62,-149.92 181.62,-141.62"/>
<polygon fill="#63b8ff" stroke="#63b8ff" points="185.13,-141.62 181.63,-131.62 178.13,-141.62 185.13,-141.62"/>
</a>
</g>
</g>
<!-- Node8 -->
<g id="Node000008" class="node">
<title>Node8</title>
<g id="a_Node000008"><a xlink:title=" ">
<polygon fill="#e0e0e0" stroke="#999999" points="270.38,-129.75 222.88,-129.75 222.88,-110.5 270.38,-110.5 270.38,-129.75"/>
<text xml:space="preserve" text-anchor="middle" x="246.62" y="-116.25" font-family="Helvetica,sans-Serif" font-size="10.00">stdlib.h</text>
</a>
</g>
</g>
<!-- Node1&#45;&gt;Node8 -->
<g id="edge8_Node000001_Node000008" class="edge">
<title>Node1&#45;&gt;Node8</title>
<g id="a_edge8_Node000001_Node000008"><a xlink:title=" ">
<path fill="none" stroke="#63b8ff" d="M192.65,-165.34C202.05,-157.65 215.77,-146.4 227.03,-137.18"/>
<polygon fill="#63b8ff" stroke="#63b8ff" points="229.07,-140.03 234.59,-130.98 224.64,-134.61 229.07,-140.03"/>
</a>
</g>
</g>
<!-- Node9 -->
<g id="Node000009" class="node">
<title>Node9</title>
<g id="a_Node000009"><a xlink:title=" ">
<polygon fill="#e0e0e0" stroke="#999999" points="336.75,-129.75 288.5,-129.75 288.5,-110.5 336.75,-110.5 336.75,-129.75"/>
<text xml:space="preserve" text-anchor="middle" x="312.62" y="-116.25" font-family="Helvetica,sans-Serif" font-size="10.00">string.h</text>
</a>
</g>
</g>
<!-- Node1&#45;&gt;Node9 -->
<g id="edge9_Node000001_Node000009" class="edge">
<title>Node1&#45;&gt;Node9</title>
<g id="a_edge9_Node000001_Node000009"><a xlink:title=" ">
<path fill="none" stroke="#63b8ff" d="M203.85,-165.34C224.64,-156.89 255.97,-144.15 279.68,-134.52"/>
<polygon fill="#63b8ff" stroke="#63b8ff" points="280.95,-137.78 288.89,-130.77 278.31,-131.3 280.95,-137.78"/>
</a>
</g>
</g>
<!-- Node3 -->
<g id="Node000003" class="node">
<title>Node3</title>
<g id="a_Node000003"><a xlink:title=" ">
<polygon fill="#e0e0e0" stroke="#999999" points="51.25,-19.25 0,-19.25 0,0 51.25,0 51.25,-19.25"/>
<text xml:space="preserve" text-anchor="middle" x="25.62" y="-5.75" font-family="Helvetica,sans-Serif" font-size="10.00">stddef.h</text>
</a>
</g>
</g>
<!-- Node2&#45;&gt;Node3 -->
<g id="edge2_Node000002_Node000003" class="edge">
<title>Node2&#45;&gt;Node3</title>
<g id="a_edge2_Node000002_Node000003"><a xlink:title=" ">
<path fill="none" stroke="#63b8ff" d="M50.42,-110.25C46.1,-92.92 36.48,-54.23 30.57,-30.49"/>
<polygon fill="#63b8ff" stroke="#63b8ff" points="34.04,-29.95 28.23,-21.1 27.25,-31.64 34.04,-29.95"/>
</a>
</g>
</g>
<!-- Node4 -->
<g id="Node000004" class="node">
<title>Node4</title>
<g id="a_Node000004"><a xlink:href="shell_8h.html" target="_top" xlink:title=" ">
<polygon fill="white" stroke="#666666" points="107.38,-74.5 53.88,-74.5 53.88,-55.25 107.38,-55.25 107.38,-74.5"/>
<text xml:space="preserve" text-anchor="middle" x="80.62" y="-61" font-family="Helvetica,sans-Serif" font-size="10.00">../shell.h</text>
</a>
</g>
</g>
<!-- Node2&#45;&gt;Node4 -->
<g id="edge3_Node000002_Node000004" class="edge">
<title>Node2&#45;&gt;Node4</title>
<g id="a_edge3_Node000002_Node000004"><a xlink:title=" ">
<path fill="none" stroke="#63b8ff" d="M57.25,-110.33C60.87,-103.44 66.05,-93.59 70.62,-84.91"/>
<polygon fill="#63b8ff" stroke="#63b8ff" points="73.64,-86.68 75.2,-76.2 67.44,-83.42 73.64,-86.68"/>
</a>
</g>
</g>
<!-- Node4&#45;&gt;Node3 -->
<g id="edge5_Node000004_Node000003" class="edge">
<title>Node4&#45;&gt;Node3</title>
<g id="a_edge5_Node000004_Node000003"><a xlink:title=" ">
<path fill="none" stroke="#63b8ff" d="M71.54,-55.08C63.79,-47.57 52.41,-36.56 42.93,-27.38"/>
<polygon fill="#63b8ff" stroke="#63b8ff" points="45.61,-25.1 35.99,-20.66 40.74,-30.13 45.61,-25.1"/>
</a>
</g>
</g>
<!-- Node5 -->
<g id="Node000005" class="node">
<title>Node5</title>
<g id="a_Node000005"><a xlink:title=" ">
<polygon fill="#e0e0e0" stroke="#999999" points="125.5,-19.25 69.75,-19.25 69.75,0 125.5,0 125.5,-19.25"/>
<text xml:space="preserve" text-anchor="middle" x="97.62" y="-5.75" font-family="Helvetica,sans-Serif" font-size="10.00">stdbool.h</text>
</a>
</g>
</g>
<!-- Node4&#45;&gt;Node5 -->
<g id="edge4_Node000004_Node000005" class="edge">
<title>Node4&#45;&gt;Node5</title>
<g id="a_edge4_Node000004_Node000005"><a xlink:title=" ">
<path fill="none" stroke="#63b8ff" d="M83.43,-55.08C85.56,-48.42 88.57,-38.99 91.27,-30.53"/>
<polygon fill="#63b8ff" stroke="#63b8ff" points="94.59,-31.64 94.3,-21.05 87.92,-29.51 94.59,-31.64"/>
</a>
</g>
</g>
</g>
</svg>
