<?xml version="1.0" encoding="UTF-8" standalone="no"?>
<!DOCTYPE svg PUBLIC "-//W3C//DTD SVG 1.1//EN"
 "http://www.w3.org/Graphics/SVG/1.1/DTD/svg11.dtd">
<!-- Generated by graphviz version 14.0.0 (20250921.2048)
 -->
<!-- Title: gs_lexer_tokenize Pages: 1 -->
<svg width="671pt" height="215pt"
 viewBox="0.00 0.00 671.00 215.00" xmlns="http://www.w3.org/2000/svg" xmlns:xlink="http://www.w3.org/1999/xlink">
<g id="graph0" class="graph" transform="scale(1 1) rotate(0) translate(4 211.25)">
<title>gs_lexer_tokenize</title>
<!-- Node1 -->
<g id="Node000001" class="node">
<title>Node1</title>
<g id="a_Node000001"><a xlink:title=" ">
<polygon fill="#999999" stroke="#666666" points="94.75,-150.25 0,-150.25 0,-131 94.75,-131 94.75,-150.25"/>
<text xml:space="preserve" text-anchor="middle" x="47.38" y="-136.75" font-family="Helvetica,sans-Serif" font-size="10.00">gs_lexer_tokenize</text>
</a>
</g>
</g>
<!-- Node2 -->
<g id="Node000002" class="node">
<title>Node2</title>
<g id="a_Node000002"><a xlink:href="lexer_8c.html#abc0751ed526a74a6a79d0f494439f0e8" target="_top" xlink:title=" ">
<polygon fill="white" stroke="#666666" points="248.38,-207.25 137.88,-207.25 137.88,-188 248.38,-188 248.38,-207.25"/>
<text xml:space="preserve" text-anchor="middle" x="193.12" y="-193.75" font-family="Helvetica,sans-Serif" font-size="10.00">append_simple_token</text>
</a>
</g>
</g>
<!-- Node1&#45;&gt;Node2 -->
<g id="edge1_Node000001_Node000002" class="edge">
<title>Node1&#45;&gt;Node2</title>
<g id="a_edge1_Node000001_Node000002"><a xlink:title=" ">
<path fill="none" stroke="#63b8ff" d="M73.23,-150.64C89.56,-157.21 111.41,-165.97 130.75,-173.62 138.72,-176.78 147.29,-180.14 155.41,-183.33"/>
<polygon fill="#63b8ff" stroke="#63b8ff" points="154.13,-186.58 164.72,-186.96 156.68,-180.06 154.13,-186.58"/>
</a>
</g>
</g>
<!-- Node3 -->
<g id="Node000003" class="node">
<title>Node3</title>
<g id="a_Node000003"><a xlink:href="lexer_8c.html#ad4b9f03ae6bb79d05e5cc0094a751428" target="_top" xlink:title=" ">
<polygon fill="white" stroke="#666666" points="527.12,-169.25 449.62,-169.25 449.62,-150 527.12,-150 527.12,-169.25"/>
<text xml:space="preserve" text-anchor="middle" x="488.38" y="-155.75" font-family="Helvetica,sans-Serif" font-size="10.00">buffer_append</text>
</a>
</g>
</g>
<!-- Node1&#45;&gt;Node3 -->
<g id="edge4_Node000001_Node000003" class="edge">
<title>Node1&#45;&gt;Node3</title>
<g id="a_edge4_Node000001_Node000003"><a xlink:title=" ">
<path fill="none" stroke="#63b8ff" d="M94.94,-142.64C178.29,-146.25 352.26,-153.78 437.76,-157.48"/>
<polygon fill="#63b8ff" stroke="#63b8ff" points="437.57,-160.97 447.71,-157.91 437.87,-153.98 437.57,-160.97"/>
</a>
</g>
</g>
<!-- Node5 -->
<g id="Node000005" class="node">
<title>Node5</title>
<g id="a_Node000005"><a xlink:href="lexer_8c.html#aaa716ddf8b1a624513f33768b2c31627" target="_top" xlink:title=" ">
<polygon fill="white" stroke="#666666" points="255.5,-131.25 130.75,-131.25 130.75,-112 255.5,-112 255.5,-131.25"/>
<text xml:space="preserve" text-anchor="middle" x="193.12" y="-117.75" font-family="Helvetica,sans-Serif" font-size="10.00">gs_token_buffer_dispose</text>
</a>
</g>
</g>
<!-- Node1&#45;&gt;Node5 -->
<g id="edge5_Node000001_Node000005" class="edge">
<title>Node1&#45;&gt;Node5</title>
<g id="a_edge5_Node000001_Node000005"><a xlink:title=" ">
<path fill="none" stroke="#63b8ff" d="M95.05,-134.46C102.68,-133.45 110.75,-132.38 118.84,-131.31"/>
<polygon fill="#63b8ff" stroke="#63b8ff" points="119.3,-134.78 128.75,-130 118.38,-127.84 119.3,-134.78"/>
</a>
</g>
</g>
<!-- Node6 -->
<g id="Node000006" class="node">
<title>Node6</title>
<g id="a_Node000006"><a xlink:href="lexer_8c.html#a8b83338ba4a1ce45387f47da75fd2dd4" target="_top" xlink:title=" ">
<polygon fill="white" stroke="#666666" points="220.62,-94.25 165.62,-94.25 165.62,-75 220.62,-75 220.62,-94.25"/>
<text xml:space="preserve" text-anchor="middle" x="193.12" y="-80.75" font-family="Helvetica,sans-Serif" font-size="10.00">lex_word</text>
</a>
</g>
</g>
<!-- Node1&#45;&gt;Node6 -->
<g id="edge6_Node000001_Node000006" class="edge">
<title>Node1&#45;&gt;Node6</title>
<g id="a_edge6_Node000001_Node000006"><a xlink:title=" ">
<path fill="none" stroke="#63b8ff" d="M68,-130.58C84.48,-122.39 108.78,-110.86 130.75,-102.62 138.31,-99.79 146.53,-97.11 154.42,-94.73"/>
<polygon fill="#63b8ff" stroke="#63b8ff" points="155.18,-98.16 163.81,-92 153.23,-91.44 155.18,-98.16"/>
</a>
</g>
</g>
<!-- Node2&#45;&gt;Node3 -->
<g id="edge2_Node000002_Node000003" class="edge">
<title>Node2&#45;&gt;Node3</title>
<g id="a_edge2_Node000002_Node000003"><a xlink:title=" ">
<path fill="none" stroke="#63b8ff" d="M248.72,-191.99C290.54,-187.5 349.62,-180.81 401.25,-173.62 413.19,-171.96 426.03,-169.98 438.05,-168.04"/>
<polygon fill="#63b8ff" stroke="#63b8ff" points="438.48,-171.52 447.78,-166.45 437.35,-164.61 438.48,-171.52"/>
</a>
</g>
</g>
<!-- Node4 -->
<g id="Node000004" class="node">
<title>Node4</title>
<g id="a_Node000004"><a xlink:href="lexer_8c.html#a33cb276f743ff368e80d7d1c84d3a077" target="_top" xlink:title=" ">
<polygon fill="white" stroke="#666666" points="662.75,-169.25 575.5,-169.25 575.5,-150 662.75,-150 662.75,-169.25"/>
<text xml:space="preserve" text-anchor="middle" x="619.12" y="-155.75" font-family="Helvetica,sans-Serif" font-size="10.00">ensure_capacity</text>
</a>
</g>
</g>
<!-- Node3&#45;&gt;Node4 -->
<g id="edge3_Node000003_Node000004" class="edge">
<title>Node3&#45;&gt;Node4</title>
<g id="a_edge3_Node000003_Node000004"><a xlink:title=" ">
<path fill="none" stroke="#63b8ff" d="M527.31,-159.62C538.66,-159.62 551.35,-159.62 563.55,-159.62"/>
<polygon fill="#63b8ff" stroke="#63b8ff" points="563.53,-163.13 573.53,-159.63 563.53,-156.13 563.53,-163.13"/>
</a>
</g>
</g>
<!-- Node7 -->
<g id="Node000007" class="node">
<title>Node7</title>
<g id="a_Node000007"><a xlink:href="lexer_8c.html#ae7603c19bd0204635fecd7e009db6eea" target="_top" xlink:title=" ">
<polygon fill="white" stroke="#666666" points="401.25,-57.25 291.5,-57.25 291.5,-38 401.25,-38 401.25,-57.25"/>
<text xml:space="preserve" text-anchor="middle" x="346.38" y="-43.75" font-family="Helvetica,sans-Serif" font-size="10.00">builder_append_literal</text>
</a>
</g>
</g>
<!-- Node6&#45;&gt;Node7 -->
<g id="edge7_Node000006_Node000007" class="edge">
<title>Node6&#45;&gt;Node7</title>
<g id="a_edge7_Node000006_Node000007"><a xlink:title=" ">
<path fill="none" stroke="#63b8ff" d="M220.82,-78.1C240.82,-73.2 268.83,-66.35 293.22,-60.38"/>
<polygon fill="#63b8ff" stroke="#63b8ff" points="293.78,-63.85 302.66,-58.07 292.12,-57.05 293.78,-63.85"/>
</a>
</g>
</g>
<!-- Node9 -->
<g id="Node000009" class="node">
<title>Node9</title>
<g id="a_Node000009"><a xlink:href="lexer_8c.html#a466f1bdc17b74ce31e2ca0cecaf50016" target="_top" xlink:title=" ">
<polygon fill="white" stroke="#666666" points="539.5,-19.25 437.25,-19.25 437.25,0 539.5,0 539.5,-19.25"/>
<text xml:space="preserve" text-anchor="middle" x="488.38" y="-5.75" font-family="Helvetica,sans-Serif" font-size="10.00">builder_append_raw</text>
</a>
</g>
</g>
<!-- Node6&#45;&gt;Node9 -->
<g id="edge9_Node000006_Node000009" class="edge">
<title>Node6&#45;&gt;Node9</title>
<g id="a_edge9_Node000006_Node000009"><a xlink:title=" ">
<path fill="none" stroke="#63b8ff" d="M207.13,-74.7C225.04,-61.62 258.81,-39.07 291.5,-28.62 334.95,-14.74 386.35,-10.17 425.6,-8.98"/>
<polygon fill="#63b8ff" stroke="#63b8ff" points="425.67,-12.47 435.59,-8.75 425.51,-5.48 425.67,-12.47"/>
</a>
</g>
</g>
<!-- Node10 -->
<g id="Node000010" class="node">
<title>Node10</title>
<g id="a_Node000010"><a xlink:href="lexer_8c.html#a01b821caaec8a6ed9f1639829d6a302e" target="_top" xlink:title=" ">
<polygon fill="white" stroke="#666666" points="388.12,-131.25 304.62,-131.25 304.62,-112 388.12,-112 388.12,-131.25"/>
<text xml:space="preserve" text-anchor="middle" x="346.38" y="-117.75" font-family="Helvetica,sans-Serif" font-size="10.00">builder_dispose</text>
</a>
</g>
</g>
<!-- Node6&#45;&gt;Node10 -->
<g id="edge11_Node000006_Node000010" class="edge">
<title>Node6&#45;&gt;Node10</title>
<g id="a_edge11_Node000006_Node000010"><a xlink:title=" ">
<path fill="none" stroke="#63b8ff" d="M220.82,-91.15C240.82,-96.05 268.83,-102.9 293.22,-108.87"/>
<polygon fill="#63b8ff" stroke="#63b8ff" points="292.12,-112.2 302.66,-111.18 293.78,-105.4 292.12,-112.2"/>
</a>
</g>
</g>
<!-- Node11 -->
<g id="Node000011" class="node">
<title>Node11</title>
<g id="a_Node000011"><a xlink:href="lexer_8c.html#a257ab54d617a3a9d1779dd991a0f0c9b" target="_top" xlink:title=" ">
<polygon fill="white" stroke="#666666" points="391.5,-94.25 301.25,-94.25 301.25,-75 391.5,-75 391.5,-94.25"/>
<text xml:space="preserve" text-anchor="middle" x="346.38" y="-80.75" font-family="Helvetica,sans-Serif" font-size="10.00">emit_word_token</text>
</a>
</g>
</g>
<!-- Node6&#45;&gt;Node11 -->
<g id="edge12_Node000006_Node000011" class="edge">
<title>Node6&#45;&gt;Node11</title>
<g id="a_edge12_Node000006_Node000011"><a xlink:title=" ">
<path fill="none" stroke="#63b8ff" d="M220.82,-84.62C239.84,-84.62 266.1,-84.62 289.6,-84.62"/>
<polygon fill="#63b8ff" stroke="#63b8ff" points="289.37,-88.13 299.37,-84.63 289.37,-81.13 289.37,-88.13"/>
</a>
</g>
</g>
<!-- Node8 -->
<g id="Node000008" class="node">
<title>Node8</title>
<g id="a_Node000008"><a xlink:href="lexer_8c.html#aefdc6df5dd5b0a9a1cc5a0a810897269" target="_top" xlink:title=" ">
<polygon fill="white" stroke="#666666" points="660.12,-57.25 578.12,-57.25 578.12,-38 660.12,-38 660.12,-57.25"/>
<text xml:space="preserve" text-anchor="middle" x="619.12" y="-43.75" font-family="Helvetica,sans-Serif" font-size="10.00">builder_reserve</text>
</a>
</g>
</g>
<!-- Node7&#45;&gt;Node8 -->
<g id="edge8_Node000007_Node000008" class="edge">
<title>Node7&#45;&gt;Node8</title>
<g id="a_edge8_Node000007_Node000008"><a xlink:title=" ">
<path fill="none" stroke="#63b8ff" d="M401.51,-47.62C449.46,-47.62 518.97,-47.62 566.23,-47.62"/>
<polygon fill="#63b8ff" stroke="#63b8ff" points="566.22,-51.13 576.22,-47.63 566.22,-44.13 566.22,-51.13"/>
</a>
</g>
</g>
<!-- Node9&#45;&gt;Node8 -->
<g id="edge10_Node000009_Node000008" class="edge">
<title>Node9&#45;&gt;Node8</title>
<g id="a_edge10_Node000009_Node000008"><a xlink:title=" ">
<path fill="none" stroke="#63b8ff" d="M523.54,-19.71C538.79,-24.21 556.97,-29.58 573.3,-34.39"/>
<polygon fill="#63b8ff" stroke="#63b8ff" points="572.21,-37.72 582.8,-37.2 574.2,-31.01 572.21,-37.72"/>
</a>
</g>
</g>
<!-- Node11&#45;&gt;Node3 -->
<g id="edge13_Node000011_Node000003" class="edge">
<title>Node11&#45;&gt;Node3</title>
<g id="a_edge13_Node000011_Node000003"><a xlink:title=" ">
<path fill="none" stroke="#63b8ff" d="M382.11,-94.74C388.6,-97.04 395.22,-99.69 401.25,-102.62 424.42,-113.92 448.73,-130.51 465.59,-142.88"/>
<polygon fill="#63b8ff" stroke="#63b8ff" points="463.28,-145.52 473.38,-148.7 467.47,-139.91 463.28,-145.52"/>
</a>
</g>
</g>
<!-- Node12 -->
<g id="Node000012" class="node">
<title>Node12</title>
<g id="a_Node000012"><a xlink:href="lexer_8c.html#a14e2b7506aa2cadb7a8f480ed45122e7" target="_top" xlink:title=" ">
<polygon fill="white" stroke="#666666" points="528.62,-95.25 448.12,-95.25 448.12,-76 528.62,-76 528.62,-95.25"/>
<text xml:space="preserve" text-anchor="middle" x="488.38" y="-81.75" font-family="Helvetica,sans-Serif" font-size="10.00">builder_finalize</text>
</a>
</g>
</g>
<!-- Node11&#45;&gt;Node12 -->
<g id="edge14_Node000011_Node000012" class="edge">
<title>Node11&#45;&gt;Node12</title>
<g id="a_edge14_Node000011_Node000012"><a xlink:title=" ">
<path fill="none" stroke="#63b8ff" d="M391.67,-84.94C405.83,-85.04 421.62,-85.16 436.23,-85.26"/>
<polygon fill="#63b8ff" stroke="#63b8ff" points="436.09,-88.76 446.12,-85.33 436.14,-81.76 436.09,-88.76"/>
</a>
</g>
</g>
<!-- Node12&#45;&gt;Node8 -->
<g id="edge15_Node000012_Node000008" class="edge">
<title>Node12&#45;&gt;Node8</title>
<g id="a_edge15_Node000012_Node000008"><a xlink:title=" ">
<path fill="none" stroke="#63b8ff" d="M523.54,-75.54C538.79,-71.04 556.97,-65.67 573.3,-60.86"/>
<polygon fill="#63b8ff" stroke="#63b8ff" points="574.2,-64.24 582.8,-58.05 572.21,-57.53 574.2,-64.24"/>
</a>
</g>
</g>
</g>
</svg>
