<?xml version="1.0" encoding="UTF-8" standalone="no"?>
<!DOCTYPE svg PUBLIC "-//W3C//DTD SVG 1.1//EN"
 "http://www.w3.org/Graphics/SVG/1.1/DTD/svg11.dtd">
<!-- Generated by graphviz version 14.0.0 (20250921.2048)
 -->
<!-- Title: builder_reserve Pages: 1 -->
<svg width="861pt" height="103pt"
 viewBox="0.00 0.00 861.00 103.00" xmlns="http://www.w3.org/2000/svg" xmlns:xlink="http://www.w3.org/1999/xlink">
<g id="graph0" class="graph" transform="scale(1 1) rotate(0) translate(4 99.25)">
<title>builder_reserve</title>
<!-- Node1 -->
<g id="Node000001" class="node">
<title>Node1</title>
<g id="a_Node000001"><a xlink:title=" ">
<polygon fill="#999999" stroke="#666666" points="853.25,-57.25 771.25,-57.25 771.25,-38 853.25,-38 853.25,-57.25"/>
<text xml:space="preserve" text-anchor="middle" x="812.25" y="-43.75" font-family="Helvetica,sans-Serif" font-size="10.00">builder_reserve</text>
</a>
</g>
</g>
<!-- Node2 -->
<g id="Node000002" class="node">
<title>Node2</title>
<g id="a_Node000002"><a xlink:href="lexer_8c.html#ae7603c19bd0204635fecd7e009db6eea" target="_top" xlink:title=" ">
<polygon fill="white" stroke="#666666" points="597,-95.25 487.25,-95.25 487.25,-76 597,-76 597,-95.25"/>
<text xml:space="preserve" text-anchor="middle" x="542.12" y="-81.75" font-family="Helvetica,sans-Serif" font-size="10.00">builder_append_literal</text>
</a>
</g>
</g>
<!-- Node1&#45;&gt;Node2 -->
<g id="edge1_Node000001_Node000002" class="edge">
<title>Node1&#45;&gt;Node2</title>
<g id="a_edge1_Node000001_Node000002"><a xlink:title=" ">
<path fill="none" stroke="#63b8ff" d="M764.51,-60.45C754.89,-62.77 744.79,-64.97 735.25,-66.62 689.02,-74.65 635.89,-79.58 597.24,-82.4"/>
<polygon fill="#63b8ff" stroke="#63b8ff" points="765.2,-63.89 774.06,-58.07 763.51,-57.09 765.2,-63.89"/>
</a>
</g>
</g>
<!-- Node8 -->
<g id="Node000008" class="node">
<title>Node8</title>
<g id="a_Node000008"><a xlink:href="lexer_8c.html#a466f1bdc17b74ce31e2ca0cecaf50016" target="_top" xlink:title=" ">
<polygon fill="white" stroke="#666666" points="735.25,-57.25 633,-57.25 633,-38 735.25,-38 735.25,-57.25"/>
<text xml:space="preserve" text-anchor="middle" x="684.12" y="-43.75" font-family="Helvetica,sans-Serif" font-size="10.00">builder_append_raw</text>
</a>
</g>
</g>
<!-- Node1&#45;&gt;Node8 -->
<g id="edge7_Node000001_Node000008" class="edge">
<title>Node1&#45;&gt;Node8</title>
<g id="a_edge7_Node000001_Node000008"><a xlink:title=" ">
<path fill="none" stroke="#63b8ff" d="M759.63,-47.62C751.7,-47.62 743.53,-47.62 735.63,-47.62"/>
<polygon fill="#63b8ff" stroke="#63b8ff" points="759.48,-51.13 769.48,-47.63 759.48,-44.13 759.48,-51.13"/>
</a>
</g>
</g>
<!-- Node9 -->
<g id="Node000009" class="node">
<title>Node9</title>
<g id="a_Node000009"><a xlink:href="lexer_8c.html#a14e2b7506aa2cadb7a8f480ed45122e7" target="_top" xlink:title=" ">
<polygon fill="white" stroke="#666666" points="724.38,-20.25 643.88,-20.25 643.88,-1 724.38,-1 724.38,-20.25"/>
<text xml:space="preserve" text-anchor="middle" x="684.12" y="-6.75" font-family="Helvetica,sans-Serif" font-size="10.00">builder_finalize</text>
</a>
</g>
</g>
<!-- Node1&#45;&gt;Node9 -->
<g id="edge9_Node000001_Node000009" class="edge">
<title>Node1&#45;&gt;Node9</title>
<g id="a_edge9_Node000001_Node000009"><a xlink:title=" ">
<path fill="none" stroke="#63b8ff" d="M765.97,-34.34C750.68,-29.86 733.86,-24.92 719.55,-20.72"/>
<polygon fill="#63b8ff" stroke="#63b8ff" points="764.75,-37.63 775.33,-37.09 766.72,-30.92 764.75,-37.63"/>
</a>
</g>
</g>
<!-- Node3 -->
<g id="Node000003" class="node">
<title>Node3</title>
<g id="a_Node000003"><a xlink:href="lexer_8c.html#a8b83338ba4a1ce45387f47da75fd2dd4" target="_top" xlink:title=" ">
<polygon fill="white" stroke="#666666" points="451.25,-57.25 396.25,-57.25 396.25,-38 451.25,-38 451.25,-57.25"/>
<text xml:space="preserve" text-anchor="middle" x="423.75" y="-43.75" font-family="Helvetica,sans-Serif" font-size="10.00">lex_word</text>
</a>
</g>
</g>
<!-- Node2&#45;&gt;Node3 -->
<g id="edge2_Node000002_Node000003" class="edge">
<title>Node2&#45;&gt;Node3</title>
<g id="a_edge2_Node000002_Node000003"><a xlink:title=" ">
<path fill="none" stroke="#63b8ff" d="M499.52,-72.04C483.5,-66.81 465.66,-60.98 451.42,-56.33"/>
<polygon fill="#63b8ff" stroke="#63b8ff" points="498.21,-75.29 508.81,-75.07 500.39,-68.64 498.21,-75.29"/>
</a>
</g>
</g>
<!-- Node4 -->
<g id="Node000004" class="node">
<title>Node4</title>
<g id="a_Node000004"><a xlink:href="lexer_8c.html#a610bebb7f917a73e810b7399c0713a0b" target="_top" xlink:title=" ">
<polygon fill="white" stroke="#666666" points="360.25,-57.25 265.5,-57.25 265.5,-38 360.25,-38 360.25,-57.25"/>
<text xml:space="preserve" text-anchor="middle" x="312.88" y="-43.75" font-family="Helvetica,sans-Serif" font-size="10.00">gs_lexer_tokenize</text>
</a>
</g>
</g>
<!-- Node3&#45;&gt;Node4 -->
<g id="edge3_Node000003_Node000004" class="edge">
<title>Node3&#45;&gt;Node4</title>
<g id="a_edge3_Node000003_Node000004"><a xlink:title=" ">
<path fill="none" stroke="#63b8ff" d="M384.49,-47.62C376.7,-47.62 368.44,-47.62 360.4,-47.62"/>
<polygon fill="#63b8ff" stroke="#63b8ff" points="384.32,-51.13 394.32,-47.63 384.32,-44.13 384.32,-51.13"/>
</a>
</g>
</g>
<!-- Node5 -->
<g id="Node000005" class="node">
<title>Node5</title>
<g id="a_Node000005"><a xlink:href="shell_8c.html#add8fb7be4e80992b6d5e0e74b22e513f" target="_top" xlink:title=" ">
<polygon fill="white" stroke="#666666" points="229.5,-57.25 179.75,-57.25 179.75,-38 229.5,-38 229.5,-57.25"/>
<text xml:space="preserve" text-anchor="middle" x="204.62" y="-43.75" font-family="Helvetica,sans-Serif" font-size="10.00">run_line</text>
</a>
</g>
</g>
<!-- Node4&#45;&gt;Node5 -->
<g id="edge4_Node000004_Node000005" class="edge">
<title>Node4&#45;&gt;Node5</title>
<g id="a_edge4_Node000004_Node000005"><a xlink:title=" ">
<path fill="none" stroke="#63b8ff" d="M254,-47.62C245.45,-47.62 237.06,-47.62 229.73,-47.62"/>
<polygon fill="#63b8ff" stroke="#63b8ff" points="253.76,-51.13 263.76,-47.63 253.76,-44.13 253.76,-51.13"/>
</a>
</g>
</g>
<!-- Node6 -->
<g id="Node000006" class="node">
<title>Node6</title>
<g id="a_Node000006"><a xlink:href="shell_8c.html#ac693cbc15f3a72c516535611b597062c" target="_top" xlink:title=" ">
<polygon fill="white" stroke="#666666" points="143.75,-57.25 73,-57.25 73,-38 143.75,-38 143.75,-57.25"/>
<text xml:space="preserve" text-anchor="middle" x="108.38" y="-43.75" font-family="Helvetica,sans-Serif" font-size="10.00">gs_shell_run</text>
</a>
</g>
</g>
<!-- Node5&#45;&gt;Node6 -->
<g id="edge5_Node000005_Node000006" class="edge">
<title>Node5&#45;&gt;Node6</title>
<g id="a_edge5_Node000005_Node000006"><a xlink:title=" ">
<path fill="none" stroke="#63b8ff" d="M168,-47.62C160.21,-47.62 151.98,-47.62 144.22,-47.62"/>
<polygon fill="#63b8ff" stroke="#63b8ff" points="167.84,-51.13 177.84,-47.63 167.84,-44.13 167.84,-51.13"/>
</a>
</g>
</g>
<!-- Node7 -->
<g id="Node000007" class="node">
<title>Node7</title>
<g id="a_Node000007"><a xlink:href="main_8c.html#a3c04138a5bfe5d72780bb7e82a18e627" target="_top" xlink:title=" ">
<polygon fill="white" stroke="#666666" points="37,-57.25 0,-57.25 0,-38 37,-38 37,-57.25"/>
<text xml:space="preserve" text-anchor="middle" x="18.5" y="-43.75" font-family="Helvetica,sans-Serif" font-size="10.00">main</text>
</a>
</g>
</g>
<!-- Node6&#45;&gt;Node7 -->
<g id="edge6_Node000006_Node000007" class="edge">
<title>Node6&#45;&gt;Node7</title>
<g id="a_edge6_Node000006_Node000007"><a xlink:title=" ">
<path fill="none" stroke="#63b8ff" d="M61.14,-47.62C52.68,-47.62 44.32,-47.62 37.34,-47.62"/>
<polygon fill="#63b8ff" stroke="#63b8ff" points="61.13,-51.13 71.13,-47.63 61.13,-44.13 61.13,-51.13"/>
</a>
</g>
</g>
<!-- Node8&#45;&gt;Node3 -->
<g id="edge8_Node000008_Node000003" class="edge">
<title>Node8&#45;&gt;Node3</title>
<g id="a_edge8_Node000008_Node000003"><a xlink:title=" ">
<path fill="none" stroke="#63b8ff" d="M621.18,-47.62C567.2,-47.62 491.49,-47.62 451.67,-47.62"/>
<polygon fill="#63b8ff" stroke="#63b8ff" points="621.18,-51.13 631.18,-47.63 621.18,-44.13 621.18,-51.13"/>
</a>
</g>
</g>
<!-- Node10 -->
<g id="Node000010" class="node">
<title>Node10</title>
<g id="a_Node000010"><a xlink:href="lexer_8c.html#a257ab54d617a3a9d1779dd991a0f0c9b" target="_top" xlink:title=" ">
<polygon fill="white" stroke="#666666" points="587.25,-19.25 497,-19.25 497,0 587.25,0 587.25,-19.25"/>
<text xml:space="preserve" text-anchor="middle" x="542.12" y="-5.75" font-family="Helvetica,sans-Serif" font-size="10.00">emit_word_token</text>
</a>
</g>
</g>
<!-- Node9&#45;&gt;Node10 -->
<g id="edge10_Node000009_Node000010" class="edge">
<title>Node9&#45;&gt;Node10</title>
<g id="a_edge10_Node000009_Node000010"><a xlink:title=" ">
<path fill="none" stroke="#63b8ff" d="M632.02,-10.26C617.48,-10.16 601.76,-10.04 587.65,-9.94"/>
<polygon fill="#63b8ff" stroke="#63b8ff" points="631.84,-13.76 641.87,-10.33 631.89,-6.76 631.84,-13.76"/>
</a>
</g>
</g>
<!-- Node10&#45;&gt;Node3 -->
<g id="edge11_Node000010_Node000003" class="edge">
<title>Node10&#45;&gt;Node3</title>
<g id="a_edge11_Node000010_Node000003"><a xlink:title=" ">
<path fill="none" stroke="#63b8ff" d="M499.52,-23.21C483.5,-28.44 465.66,-34.27 451.42,-38.92"/>
<polygon fill="#63b8ff" stroke="#63b8ff" points="500.39,-26.61 508.81,-20.18 498.21,-19.96 500.39,-26.61"/>
</a>
</g>
</g>
</g>
</svg>
