<?xml version="1.0" encoding="UTF-8" standalone="no"?>
<!DOCTYPE svg PUBLIC "-//W3C//DTD SVG 1.1//EN"
 "http://www.w3.org/Graphics/SVG/1.1/DTD/svg11.dtd">
<!-- Generated by graphviz version 14.0.0 (20250921.2048)
 -->
<!-- Title: lex_word Pages: 1 -->
<svg width="470pt" height="140pt"
 viewBox="0.00 0.00 470.00 140.00" xmlns="http://www.w3.org/2000/svg" xmlns:xlink="http://www.w3.org/1999/xlink">
<g id="graph0" class="graph" transform="scale(1 1) rotate(0) translate(4 136.25)">
<title>lex_word</title>
<!-- Node1 -->
<g id="Node000001" class="node">
<title>Node1</title>
<g id="a_Node000001"><a xlink:title=" ">
<polygon fill="#999999" stroke="#666666" points="55,-75.25 0,-75.25 0,-56 55,-56 55,-75.25"/>
<text xml:space="preserve" text-anchor="middle" x="27.5" y="-61.75" font-family="Helvetica,sans-Serif" font-size="10.00">lex_word</text>
</a>
</g>
</g>
<!-- Node2 -->
<g id="Node000002" class="node">
<title>Node2</title>
<g id="a_Node000002"><a xlink:href="lexer_8c.html#ae7603c19bd0204635fecd7e009db6eea" target="_top" xlink:title=" ">
<polygon fill="white" stroke="#666666" points="339,-132.25 229.25,-132.25 229.25,-113 339,-113 339,-132.25"/>
<text xml:space="preserve" text-anchor="middle" x="284.12" y="-118.75" font-family="Helvetica,sans-Serif" font-size="10.00">builder_append_literal</text>
</a>
</g>
</g>
<!-- Node1&#45;&gt;Node2 -->
<g id="edge1_Node000001_Node000002" class="edge">
<title>Node1&#45;&gt;Node2</title>
<g id="a_edge1_Node000001_Node000002"><a xlink:title=" ">
<path fill="none" stroke="#63b8ff" d="M41.06,-75.62C53.11,-84.61 72.21,-97.35 91,-103.62 131.62,-117.2 179.56,-121.95 217.39,-123.31"/>
<polygon fill="#63b8ff" stroke="#63b8ff" points="217.18,-126.81 227.27,-123.59 217.37,-119.81 217.18,-126.81"/>
</a>
</g>
</g>
<!-- Node4 -->
<g id="Node000004" class="node">
<title>Node4</title>
<g id="a_Node000004"><a xlink:href="lexer_8c.html#a466f1bdc17b74ce31e2ca0cecaf50016" target="_top" xlink:title=" ">
<polygon fill="white" stroke="#666666" points="193.25,-94.25 91,-94.25 91,-75 193.25,-75 193.25,-94.25"/>
<text xml:space="preserve" text-anchor="middle" x="142.12" y="-80.75" font-family="Helvetica,sans-Serif" font-size="10.00">builder_append_raw</text>
</a>
</g>
</g>
<!-- Node1&#45;&gt;Node4 -->
<g id="edge3_Node000001_Node000004" class="edge">
<title>Node1&#45;&gt;Node4</title>
<g id="a_edge3_Node000001_Node000004"><a xlink:title=" ">
<path fill="none" stroke="#63b8ff" d="M55.48,-70.18C62.81,-71.41 71.06,-72.8 79.47,-74.22"/>
<polygon fill="#63b8ff" stroke="#63b8ff" points="78.62,-77.63 89.06,-75.84 79.78,-70.73 78.62,-77.63"/>
</a>
</g>
</g>
<!-- Node5 -->
<g id="Node000005" class="node">
<title>Node5</title>
<g id="a_Node000005"><a xlink:href="lexer_8c.html#a01b821caaec8a6ed9f1639829d6a302e" target="_top" xlink:title=" ">
<polygon fill="white" stroke="#666666" points="183.88,-57.25 100.38,-57.25 100.38,-38 183.88,-38 183.88,-57.25"/>
<text xml:space="preserve" text-anchor="middle" x="142.12" y="-43.75" font-family="Helvetica,sans-Serif" font-size="10.00">builder_dispose</text>
</a>
</g>
</g>
<!-- Node1&#45;&gt;Node5 -->
<g id="edge5_Node000001_Node000005" class="edge">
<title>Node1&#45;&gt;Node5</title>
<g id="a_edge5_Node000001_Node000005"><a xlink:title=" ">
<path fill="none" stroke="#63b8ff" d="M55.48,-61.31C65.64,-59.69 77.56,-57.78 89.23,-55.92"/>
<polygon fill="#63b8ff" stroke="#63b8ff" points="89.46,-59.43 98.78,-54.39 88.36,-52.51 89.46,-59.43"/>
</a>
</g>
</g>
<!-- Node6 -->
<g id="Node000006" class="node">
<title>Node6</title>
<g id="a_Node000006"><a xlink:href="lexer_8c.html#a257ab54d617a3a9d1779dd991a0f0c9b" target="_top" xlink:title=" ">
<polygon fill="white" stroke="#666666" points="187.25,-20.25 97,-20.25 97,-1 187.25,-1 187.25,-20.25"/>
<text xml:space="preserve" text-anchor="middle" x="142.12" y="-6.75" font-family="Helvetica,sans-Serif" font-size="10.00">emit_word_token</text>
</a>
</g>
</g>
<!-- Node1&#45;&gt;Node6 -->
<g id="edge6_Node000001_Node000006" class="edge">
<title>Node1&#45;&gt;Node6</title>
<g id="a_edge6_Node000001_Node000006"><a xlink:title=" ">
<path fill="none" stroke="#63b8ff" d="M43.72,-55.5C56.11,-47.54 74.23,-36.51 91,-28.62 93.77,-27.32 96.66,-26.06 99.59,-24.84"/>
<polygon fill="#63b8ff" stroke="#63b8ff" points="100.82,-28.12 108.86,-21.22 98.27,-21.6 100.82,-28.12"/>
</a>
</g>
</g>
<!-- Node3 -->
<g id="Node000003" class="node">
<title>Node3</title>
<g id="a_Node000003"><a xlink:href="lexer_8c.html#aefdc6df5dd5b0a9a1cc5a0a810897269" target="_top" xlink:title=" ">
<polygon fill="white" stroke="#666666" points="459.62,-94.25 377.62,-94.25 377.62,-75 459.62,-75 459.62,-94.25"/>
<text xml:space="preserve" text-anchor="middle" x="418.62" y="-80.75" font-family="Helvetica,sans-Serif" font-size="10.00">builder_reserve</text>
</a>
</g>
</g>
<!-- Node2&#45;&gt;Node3 -->
<g id="edge2_Node000002_Node000003" class="edge">
<title>Node2&#45;&gt;Node3</title>
<g id="a_edge2_Node000002_Node000003"><a xlink:title=" ">
<path fill="none" stroke="#63b8ff" d="M320.28,-112.54C336.13,-108 355.05,-102.57 371.98,-97.72"/>
<polygon fill="#63b8ff" stroke="#63b8ff" points="372.66,-101.16 381.31,-95.04 370.73,-94.43 372.66,-101.16"/>
</a>
</g>
</g>
<!-- Node4&#45;&gt;Node3 -->
<g id="edge4_Node000004_Node000003" class="edge">
<title>Node4&#45;&gt;Node3</title>
<g id="a_edge4_Node000004_Node000003"><a xlink:title=" ">
<path fill="none" stroke="#63b8ff" d="M193.47,-84.62C242.48,-84.62 316.59,-84.62 366.02,-84.62"/>
<polygon fill="#63b8ff" stroke="#63b8ff" points="365.89,-88.13 375.89,-84.63 365.89,-81.13 365.89,-88.13"/>
</a>
</g>
</g>
<!-- Node7 -->
<g id="Node000007" class="node">
<title>Node7</title>
<g id="a_Node000007"><a xlink:href="lexer_8c.html#ad4b9f03ae6bb79d05e5cc0094a751428" target="_top" xlink:title=" ">
<polygon fill="white" stroke="#666666" points="322.88,-19.25 245.38,-19.25 245.38,0 322.88,0 322.88,-19.25"/>
<text xml:space="preserve" text-anchor="middle" x="284.12" y="-5.75" font-family="Helvetica,sans-Serif" font-size="10.00">buffer_append</text>
</a>
</g>
</g>
<!-- Node6&#45;&gt;Node7 -->
<g id="edge7_Node000006_Node000007" class="edge">
<title>Node6&#45;&gt;Node7</title>
<g id="a_edge7_Node000006_Node000007"><a xlink:title=" ">
<path fill="none" stroke="#63b8ff" d="M187.42,-10.31C202.23,-10.2 218.82,-10.08 233.98,-9.98"/>
<polygon fill="#63b8ff" stroke="#63b8ff" points="233.75,-13.48 243.73,-9.91 233.7,-6.48 233.75,-13.48"/>
</a>
</g>
</g>
<!-- Node9 -->
<g id="Node000009" class="node">
<title>Node9</title>
<g id="a_Node000009"><a xlink:href="lexer_8c.html#a14e2b7506aa2cadb7a8f480ed45122e7" target="_top" xlink:title=" ">
<polygon fill="white" stroke="#666666" points="324.38,-56.25 243.88,-56.25 243.88,-37 324.38,-37 324.38,-56.25"/>
<text xml:space="preserve" text-anchor="middle" x="284.12" y="-42.75" font-family="Helvetica,sans-Serif" font-size="10.00">builder_finalize</text>
</a>
</g>
</g>
<!-- Node6&#45;&gt;Node9 -->
<g id="edge9_Node000006_Node000009" class="edge">
<title>Node6&#45;&gt;Node9</title>
<g id="a_edge9_Node000006_Node000009"><a xlink:title=" ">
<path fill="none" stroke="#63b8ff" d="M182.5,-20.75C198.29,-24.81 216.66,-29.54 233.36,-33.83"/>
<polygon fill="#63b8ff" stroke="#63b8ff" points="232.03,-37.1 242.58,-36.2 233.77,-30.32 232.03,-37.1"/>
</a>
</g>
</g>
<!-- Node8 -->
<g id="Node000008" class="node">
<title>Node8</title>
<g id="a_Node000008"><a xlink:href="lexer_8c.html#a33cb276f743ff368e80d7d1c84d3a077" target="_top" xlink:title=" ">
<polygon fill="white" stroke="#666666" points="462.25,-19.25 375,-19.25 375,0 462.25,0 462.25,-19.25"/>
<text xml:space="preserve" text-anchor="middle" x="418.62" y="-5.75" font-family="Helvetica,sans-Serif" font-size="10.00">ensure_capacity</text>
</a>
</g>
</g>
<!-- Node7&#45;&gt;Node8 -->
<g id="edge8_Node000007_Node000008" class="edge">
<title>Node7&#45;&gt;Node8</title>
<g id="a_edge8_Node000007_Node000008"><a xlink:title=" ">
<path fill="none" stroke="#63b8ff" d="M323.09,-9.62C335.64,-9.62 349.85,-9.62 363.37,-9.62"/>
<polygon fill="#63b8ff" stroke="#63b8ff" points="363.01,-13.13 373.01,-9.63 363.01,-6.13 363.01,-13.13"/>
</a>
</g>
</g>
<!-- Node9&#45;&gt;Node3 -->
<g id="edge10_Node000009_Node000003" class="edge">
<title>Node9&#45;&gt;Node3</title>
<g id="a_edge10_Node000009_Node000003"><a xlink:title=" ">
<path fill="none" stroke="#63b8ff" d="M320.28,-56.71C336.13,-61.25 355.05,-66.68 371.98,-71.53"/>
<polygon fill="#63b8ff" stroke="#63b8ff" points="370.73,-74.82 381.31,-74.21 372.66,-68.09 370.73,-74.82"/>
</a>
</g>
</g>
</g>
</svg>
