<?xml version="1.0" encoding="UTF-8" standalone="no"?>
<!DOCTYPE svg PUBLIC "-//W3C//DTD SVG 1.1//EN"
 "http://www.w3.org/Graphics/SVG/1.1/DTD/svg11.dtd">
<!-- Generated by graphviz version 14.0.0 (20250921.2048)
 -->
<!-- Title: emit_word_token Pages: 1 -->
<svg width="338pt" height="64pt"
 viewBox="0.00 0.00 338.00 64.00" xmlns="http://www.w3.org/2000/svg" xmlns:xlink="http://www.w3.org/1999/xlink">
<g id="graph0" class="graph" transform="scale(1 1) rotate(0) translate(4 60.25)">
<title>emit_word_token</title>
<!-- Node1 -->
<g id="Node000001" class="node">
<title>Node1</title>
<g id="a_Node000001"><a xlink:title=" ">
<polygon fill="#999999" stroke="#666666" points="90.25,-37.25 0,-37.25 0,-18 90.25,-18 90.25,-37.25"/>
<text xml:space="preserve" text-anchor="middle" x="45.12" y="-23.75" font-family="Helvetica,sans-Serif" font-size="10.00">emit_word_token</text>
</a>
</g>
</g>
<!-- Node2 -->
<g id="Node000002" class="node">
<title>Node2</title>
<g id="a_Node000002"><a xlink:href="lexer_8c.html#ad4b9f03ae6bb79d05e5cc0094a751428" target="_top" xlink:title=" ">
<polygon fill="white" stroke="#666666" points="205.25,-56.25 127.75,-56.25 127.75,-37 205.25,-37 205.25,-56.25"/>
<text xml:space="preserve" text-anchor="middle" x="166.5" y="-42.75" font-family="Helvetica,sans-Serif" font-size="10.00">buffer_append</text>
</a>
</g>
</g>
<!-- Node1&#45;&gt;Node2 -->
<g id="edge1_Node000001_Node000002" class="edge">
<title>Node1&#45;&gt;Node2</title>
<g id="a_edge1_Node000001_Node000002"><a xlink:title=" ">
<path fill="none" stroke="#63b8ff" d="M90.58,-34.7C98.87,-36.02 107.59,-37.41 116.02,-38.75"/>
<polygon fill="#63b8ff" stroke="#63b8ff" points="115.36,-42.19 125.79,-40.3 116.46,-35.28 115.36,-42.19"/>
</a>
</g>
</g>
<!-- Node4 -->
<g id="Node000004" class="node">
<title>Node4</title>
<g id="a_Node000004"><a xlink:href="lexer_8c.html#a14e2b7506aa2cadb7a8f480ed45122e7" target="_top" xlink:title=" ">
<polygon fill="white" stroke="#666666" points="206.75,-19.25 126.25,-19.25 126.25,0 206.75,0 206.75,-19.25"/>
<text xml:space="preserve" text-anchor="middle" x="166.5" y="-5.75" font-family="Helvetica,sans-Serif" font-size="10.00">builder_finalize</text>
</a>
</g>
</g>
<!-- Node1&#45;&gt;Node4 -->
<g id="edge3_Node000001_Node000004" class="edge">
<title>Node1&#45;&gt;Node4</title>
<g id="a_edge3_Node000001_Node000004"><a xlink:title=" ">
<path fill="none" stroke="#63b8ff" d="M90.58,-20.92C98.51,-19.73 106.82,-18.47 114.91,-17.25"/>
<polygon fill="#63b8ff" stroke="#63b8ff" points="115.26,-20.74 124.63,-15.79 114.22,-13.82 115.26,-20.74"/>
</a>
</g>
</g>
<!-- Node3 -->
<g id="Node000003" class="node">
<title>Node3</title>
<g id="a_Node000003"><a xlink:href="lexer_8c.html#a33cb276f743ff368e80d7d1c84d3a077" target="_top" xlink:title=" ">
<polygon fill="white" stroke="#666666" points="330,-56.25 242.75,-56.25 242.75,-37 330,-37 330,-56.25"/>
<text xml:space="preserve" text-anchor="middle" x="286.38" y="-42.75" font-family="Helvetica,sans-Serif" font-size="10.00">ensure_capacity</text>
</a>
</g>
</g>
<!-- Node2&#45;&gt;Node3 -->
<g id="edge2_Node000002_Node000003" class="edge">
<title>Node2&#45;&gt;Node3</title>
<g id="a_edge2_Node000002_Node000003"><a xlink:title=" ">
<path fill="none" stroke="#63b8ff" d="M205.45,-46.62C213.68,-46.62 222.55,-46.62 231.27,-46.62"/>
<polygon fill="#63b8ff" stroke="#63b8ff" points="231.08,-50.13 241.08,-46.63 231.08,-43.13 231.08,-50.13"/>
</a>
</g>
</g>
<!-- Node5 -->
<g id="Node000005" class="node">
<title>Node5</title>
<g id="a_Node000005"><a xlink:href="lexer_8c.html#aefdc6df5dd5b0a9a1cc5a0a810897269" target="_top" xlink:title=" ">
<polygon fill="white" stroke="#666666" points="327.38,-19.25 245.38,-19.25 245.38,0 327.38,0 327.38,-19.25"/>
<text xml:space="preserve" text-anchor="middle" x="286.38" y="-5.75" font-family="Helvetica,sans-Serif" font-size="10.00">builder_reserve</text>
</a>
</g>
</g>
<!-- Node4&#45;&gt;Node5 -->
<g id="edge4_Node000004_Node000005" class="edge">
<title>Node4&#45;&gt;Node5</title>
<g id="a_edge4_Node000004_Node000005"><a xlink:title=" ">
<path fill="none" stroke="#63b8ff" d="M207.08,-9.62C215.54,-9.62 224.61,-9.62 233.45,-9.62"/>
<polygon fill="#63b8ff" stroke="#63b8ff" points="233.38,-13.13 243.38,-9.63 233.38,-6.13 233.38,-13.13"/>
</a>
</g>
</g>
</g>
</svg>
