<?xml version="1.0" encoding="UTF-8" standalone="no"?>
<!DOCTYPE svg PUBLIC "-//W3C//DTD SVG 1.1//EN"
 "http://www.w3.org/Graphics/SVG/1.1/DTD/svg11.dtd">
<!-- Generated by graphviz version 14.0.0 (20250921.2048)
 -->
<!-- Title: ensure_capacity Pages: 1 -->
<svg width="878pt" height="103pt"
 viewBox="0.00 0.00 878.00 103.00" xmlns="http://www.w3.org/2000/svg" xmlns:xlink="http://www.w3.org/1999/xlink">
<g id="graph0" class="graph" transform="scale(1 1) rotate(0) translate(4 99.25)">
<title>ensure_capacity</title>
<!-- Node1 -->
<g id="Node000001" class="node">
<title>Node1</title>
<g id="a_Node000001"><a xlink:title=" ">
<polygon fill="#999999" stroke="#666666" points="869.75,-57.25 782.5,-57.25 782.5,-38 869.75,-38 869.75,-57.25"/>
<text xml:space="preserve" text-anchor="middle" x="826.12" y="-43.75" font-family="Helvetica,sans-Serif" font-size="10.00">ensure_capacity</text>
</a>
</g>
</g>
<!-- Node2 -->
<g id="Node000002" class="node">
<title>Node2</title>
<g id="a_Node000002"><a xlink:href="lexer_8c.html#ad4b9f03ae6bb79d05e5cc0094a751428" target="_top" xlink:title=" ">
<polygon fill="white" stroke="#666666" points="746.5,-57.25 669,-57.25 669,-38 746.5,-38 746.5,-57.25"/>
<text xml:space="preserve" text-anchor="middle" x="707.75" y="-43.75" font-family="Helvetica,sans-Serif" font-size="10.00">buffer_append</text>
</a>
</g>
</g>
<!-- Node1&#45;&gt;Node2 -->
<g id="edge1_Node000001_Node000002" class="edge">
<title>Node1&#45;&gt;Node2</title>
<g id="a_edge1_Node000001_Node000002"><a xlink:title=" ">
<path fill="none" stroke="#63b8ff" d="M770.85,-47.62C762.78,-47.62 754.61,-47.62 746.97,-47.62"/>
<polygon fill="#63b8ff" stroke="#63b8ff" points="770.61,-51.13 780.61,-47.63 770.61,-44.13 770.61,-51.13"/>
</a>
</g>
</g>
<!-- Node3 -->
<g id="Node000003" class="node">
<title>Node3</title>
<g id="a_Node000003"><a xlink:href="lexer_8c.html#abc0751ed526a74a6a79d0f494439f0e8" target="_top" xlink:title=" ">
<polygon fill="white" stroke="#666666" points="506.75,-95.25 396.25,-95.25 396.25,-76 506.75,-76 506.75,-95.25"/>
<text xml:space="preserve" text-anchor="middle" x="451.5" y="-81.75" font-family="Helvetica,sans-Serif" font-size="10.00">append_simple_token</text>
</a>
</g>
</g>
<!-- Node2&#45;&gt;Node3 -->
<g id="edge2_Node000002_Node000003" class="edge">
<title>Node2&#45;&gt;Node3</title>
<g id="a_edge2_Node000002_Node000003"><a xlink:title=" ">
<path fill="none" stroke="#63b8ff" d="M657.3,-57.4C649.19,-58.89 640.87,-60.36 633,-61.62 590.87,-68.42 542.98,-74.72 507.12,-79.16"/>
<polygon fill="#63b8ff" stroke="#63b8ff" points="657.87,-60.86 667.06,-55.57 656.58,-53.98 657.87,-60.86"/>
</a>
</g>
</g>
<!-- Node4 -->
<g id="Node000004" class="node">
<title>Node4</title>
<g id="a_Node000004"><a xlink:href="lexer_8c.html#a610bebb7f917a73e810b7399c0713a0b" target="_top" xlink:title=" ">
<polygon fill="white" stroke="#666666" points="360.25,-57.25 265.5,-57.25 265.5,-38 360.25,-38 360.25,-57.25"/>
<text xml:space="preserve" text-anchor="middle" x="312.88" y="-43.75" font-family="Helvetica,sans-Serif" font-size="10.00">gs_lexer_tokenize</text>
</a>
</g>
</g>
<!-- Node2&#45;&gt;Node4 -->
<g id="edge10_Node000002_Node000004" class="edge">
<title>Node2&#45;&gt;Node4</title>
<g id="a_edge10_Node000002_Node000004"><a xlink:title=" ">
<path fill="none" stroke="#63b8ff" d="M657.54,-47.62C581.26,-47.62 435.46,-47.62 360.67,-47.62"/>
<polygon fill="#63b8ff" stroke="#63b8ff" points="657.21,-51.13 667.21,-47.63 657.21,-44.13 657.21,-51.13"/>
</a>
</g>
</g>
<!-- Node8 -->
<g id="Node000008" class="node">
<title>Node8</title>
<g id="a_Node000008"><a xlink:href="lexer_8c.html#a257ab54d617a3a9d1779dd991a0f0c9b" target="_top" xlink:title=" ">
<polygon fill="white" stroke="#666666" points="633,-19.25 542.75,-19.25 542.75,0 633,0 633,-19.25"/>
<text xml:space="preserve" text-anchor="middle" x="587.88" y="-5.75" font-family="Helvetica,sans-Serif" font-size="10.00">emit_word_token</text>
</a>
</g>
</g>
<!-- Node2&#45;&gt;Node8 -->
<g id="edge7_Node000002_Node000008" class="edge">
<title>Node2&#45;&gt;Node8</title>
<g id="a_edge7_Node000002_Node000008"><a xlink:title=" ">
<path fill="none" stroke="#63b8ff" d="M664.56,-34.03C649.82,-29.27 633.55,-24.03 619.89,-19.62"/>
<polygon fill="#63b8ff" stroke="#63b8ff" points="663.44,-37.34 674.03,-37.08 665.59,-30.68 663.44,-37.34"/>
</a>
</g>
</g>
<!-- Node3&#45;&gt;Node4 -->
<g id="edge3_Node000003_Node000004" class="edge">
<title>Node3&#45;&gt;Node4</title>
<g id="a_edge3_Node000003_Node000004"><a xlink:title=" ">
<path fill="none" stroke="#63b8ff" d="M403.6,-72.58C386,-67.69 366.28,-62.2 349.82,-57.62"/>
<polygon fill="#63b8ff" stroke="#63b8ff" points="402.22,-75.83 412.79,-75.14 404.09,-69.08 402.22,-75.83"/>
</a>
</g>
</g>
<!-- Node5 -->
<g id="Node000005" class="node">
<title>Node5</title>
<g id="a_Node000005"><a xlink:href="shell_8c.html#add8fb7be4e80992b6d5e0e74b22e513f" target="_top" xlink:title=" ">
<polygon fill="white" stroke="#666666" points="229.5,-57.25 179.75,-57.25 179.75,-38 229.5,-38 229.5,-57.25"/>
<text xml:space="preserve" text-anchor="middle" x="204.62" y="-43.75" font-family="Helvetica,sans-Serif" font-size="10.00">run_line</text>
</a>
</g>
</g>
<!-- Node4&#45;&gt;Node5 -->
<g id="edge4_Node000004_Node000005" class="edge">
<title>Node4&#45;&gt;Node5</title>
<g id="a_edge4_Node000004_Node000005"><a xlink:title=" ">
<path fill="none" stroke="#63b8ff" d="M254,-47.62C245.45,-47.62 237.06,-47.62 229.73,-47.62"/>
<polygon fill="#63b8ff" stroke="#63b8ff" points="253.76,-51.13 263.76,-47.63 253.76,-44.13 253.76,-51.13"/>
</a>
</g>
</g>
<!-- Node6 -->
<g id="Node000006" class="node">
<title>Node6</title>
<g id="a_Node000006"><a xlink:href="shell_8c.html#ac693cbc15f3a72c516535611b597062c" target="_top" xlink:title=" ">
<polygon fill="white" stroke="#666666" points="143.75,-57.25 73,-57.25 73,-38 143.75,-38 143.75,-57.25"/>
<text xml:space="preserve" text-anchor="middle" x="108.38" y="-43.75" font-family="Helvetica,sans-Serif" font-size="10.00">gs_shell_run</text>
</a>
</g>
</g>
<!-- Node5&#45;&gt;Node6 -->
<g id="edge5_Node000005_Node000006" class="edge">
<title>Node5&#45;&gt;Node6</title>
<g id="a_edge5_Node000005_Node000006"><a xlink:title=" ">
<path fill="none" stroke="#63b8ff" d="M168,-47.62C160.21,-47.62 151.98,-47.62 144.22,-47.62"/>
<polygon fill="#63b8ff" stroke="#63b8ff" points="167.84,-51.13 177.84,-47.63 167.84,-44.13 167.84,-51.13"/>
</a>
</g>
</g>
<!-- Node7 -->
<g id="Node000007" class="node">
<title>Node7</title>
<g id="a_Node000007"><a xlink:href="main_8c.html#a3c04138a5bfe5d72780bb7e82a18e627" target="_top" xlink:title=" ">
<polygon fill="white" stroke="#666666" points="37,-57.25 0,-57.25 0,-38 37,-38 37,-57.25"/>
<text xml:space="preserve" text-anchor="middle" x="18.5" y="-43.75" font-family="Helvetica,sans-Serif" font-size="10.00">main</text>
</a>
</g>
</g>
<!-- Node6&#45;&gt;Node7 -->
<g id="edge6_Node000006_Node000007" class="edge">
<title>Node6&#45;&gt;Node7</title>
<g id="a_edge6_Node000006_Node000007"><a xlink:title=" ">
<path fill="none" stroke="#63b8ff" d="M61.14,-47.62C52.68,-47.62 44.32,-47.62 37.34,-47.62"/>
<polygon fill="#63b8ff" stroke="#63b8ff" points="61.13,-51.13 71.13,-47.63 61.13,-44.13 61.13,-51.13"/>
</a>
</g>
</g>
<!-- Node9 -->
<g id="Node000009" class="node">
<title>Node9</title>
<g id="a_Node000009"><a xlink:href="lexer_8c.html#a8b83338ba4a1ce45387f47da75fd2dd4" target="_top" xlink:title=" ">
<polygon fill="white" stroke="#666666" points="479,-19.25 424,-19.25 424,0 479,0 479,-19.25"/>
<text xml:space="preserve" text-anchor="middle" x="451.5" y="-5.75" font-family="Helvetica,sans-Serif" font-size="10.00">lex_word</text>
</a>
</g>
</g>
<!-- Node8&#45;&gt;Node9 -->
<g id="edge8_Node000008_Node000009" class="edge">
<title>Node8&#45;&gt;Node9</title>
<g id="a_edge8_Node000008_Node000009"><a xlink:title=" ">
<path fill="none" stroke="#63b8ff" d="M531.2,-9.62C513.21,-9.62 494.08,-9.62 479.18,-9.62"/>
<polygon fill="#63b8ff" stroke="#63b8ff" points="530.99,-13.13 540.99,-9.63 530.99,-6.13 530.99,-13.13"/>
</a>
</g>
</g>
<!-- Node9&#45;&gt;Node4 -->
<g id="edge9_Node000009_Node000004" class="edge">
<title>Node9&#45;&gt;Node4</title>
<g id="a_edge9_Node000009_Node000004"><a xlink:title=" ">
<path fill="none" stroke="#63b8ff" d="M412.56,-20.18C393.05,-25.6 369.39,-32.18 350.13,-37.54"/>
<polygon fill="#63b8ff" stroke="#63b8ff" points="413.35,-23.59 422.05,-17.54 411.48,-16.85 413.35,-23.59"/>
</a>
</g>
</g>
</g>
</svg>
