<?xml version="1.0" encoding="UTF-8" standalone="no"?>
<!DOCTYPE svg PUBLIC "-//W3C//DTD SVG 1.1//EN"
 "http://www.w3.org/Graphics/SVG/1.1/DTD/svg11.dtd">
<!-- Generated by graphviz version 14.0.0 (20250921.2048)
 -->
<!-- Title: main.c Pages: 1 -->
<svg width="223pt" height="138pt"
 viewBox="0.00 0.00 223.00 138.00" xmlns="http://www.w3.org/2000/svg" xmlns:xlink="http://www.w3.org/1999/xlink">
<g id="graph0" class="graph" transform="scale(1 1) rotate(0) translate(4 133.75)">
<title>main.c</title>
<!-- Node1 -->
<g id="Node000001" class="node">
<title>Node1</title>
<g id="a_Node000001"><a xlink:title=" ">
<polygon fill="#999999" stroke="#666666" points="149.5,-129.75 104.25,-129.75 104.25,-110.5 149.5,-110.5 149.5,-129.75"/>
<text xml:space="preserve" text-anchor="middle" x="126.88" y="-116.25" font-family="Helvetica,sans-Serif" font-size="10.00">main.c</text>
</a>
</g>
</g>
<!-- Node2 -->
<g id="Node000002" class="node">
<title>Node2</title>
<g id="a_Node000002"><a xlink:href="shell_8h.html" target="_top" xlink:title=" ">
<polygon fill="white" stroke="#666666" points="86.12,-74.5 41.62,-74.5 41.62,-55.25 86.12,-55.25 86.12,-74.5"/>
<text xml:space="preserve" text-anchor="middle" x="63.88" y="-61" font-family="Helvetica,sans-Serif" font-size="10.00">shell.h</text>
</a>
</g>
</g>
<!-- Node1&#45;&gt;Node2 -->
<g id="edge1_Node000001_Node000002" class="edge">
<title>Node1&#45;&gt;Node2</title>
<g id="a_edge1_Node000001_Node000002"><a xlink:title=" ">
<path fill="none" stroke="#63b8ff" d="M116.19,-110.09C107.17,-102.47 94.04,-91.37 83.19,-82.2"/>
<polygon fill="#63b8ff" stroke="#63b8ff" points="85.46,-79.53 75.56,-75.75 80.94,-84.88 85.46,-79.53"/>
</a>
</g>
</g>
<!-- Node5 -->
<g id="Node000005" class="node">
<title>Node5</title>
<g id="a_Node000005"><a xlink:title=" ">
<polygon fill="#e0e0e0" stroke="#999999" points="149.5,-74.5 104.25,-74.5 104.25,-55.25 149.5,-55.25 149.5,-74.5"/>
<text xml:space="preserve" text-anchor="middle" x="126.88" y="-61" font-family="Helvetica,sans-Serif" font-size="10.00">stdio.h</text>
</a>
</g>
</g>
<!-- Node1&#45;&gt;Node5 -->
<g id="edge4_Node000001_Node000005" class="edge">
<title>Node1&#45;&gt;Node5</title>
<g id="a_edge4_Node000001_Node000005"><a xlink:title=" ">
<path fill="none" stroke="#63b8ff" d="M126.88,-110.33C126.88,-103.82 126.88,-94.67 126.88,-86.37"/>
<polygon fill="#63b8ff" stroke="#63b8ff" points="130.38,-86.37 126.88,-76.37 123.38,-86.37 130.38,-86.37"/>
</a>
</g>
</g>
<!-- Node6 -->
<g id="Node000006" class="node">
<title>Node6</title>
<g id="a_Node000006"><a xlink:title=" ">
<polygon fill="#e0e0e0" stroke="#999999" points="214.62,-74.5 167.12,-74.5 167.12,-55.25 214.62,-55.25 214.62,-74.5"/>
<text xml:space="preserve" text-anchor="middle" x="190.88" y="-61" font-family="Helvetica,sans-Serif" font-size="10.00">stdlib.h</text>
</a>
</g>
</g>
<!-- Node1&#45;&gt;Node6 -->
<g id="edge5_Node000001_Node000006" class="edge">
<title>Node1&#45;&gt;Node6</title>
<g id="a_edge5_Node000001_Node000006"><a xlink:title=" ">
<path fill="none" stroke="#63b8ff" d="M137.73,-110.09C146.98,-102.4 160.5,-91.15 171.58,-81.93"/>
<polygon fill="#63b8ff" stroke="#63b8ff" points="173.57,-84.83 179.02,-75.74 169.09,-79.45 173.57,-84.83"/>
</a>
</g>
</g>
<!-- Node3 -->
<g id="Node000003" class="node">
<title>Node3</title>
<g id="a_Node000003"><a xlink:title=" ">
<polygon fill="#e0e0e0" stroke="#999999" points="55.75,-19.25 0,-19.25 0,0 55.75,0 55.75,-19.25"/>
<text xml:space="preserve" text-anchor="middle" x="27.88" y="-5.75" font-family="Helvetica,sans-Serif" font-size="10.00">stdbool.h</text>
</a>
</g>
</g>
<!-- Node2&#45;&gt;Node3 -->
<g id="edge2_Node000002_Node000003" class="edge">
<title>Node2&#45;&gt;Node3</title>
<g id="a_edge2_Node000002_Node000003"><a xlink:title=" ">
<path fill="none" stroke="#63b8ff" d="M57.93,-55.08C53.16,-48.03 46.31,-37.9 40.35,-29.08"/>
<polygon fill="#63b8ff" stroke="#63b8ff" points="43.3,-27.19 34.8,-20.86 37.5,-31.11 43.3,-27.19"/>
</a>
</g>
</g>
<!-- Node4 -->
<g id="Node000004" class="node">
<title>Node4</title>
<g id="a_Node000004"><a xlink:title=" ">
<polygon fill="#e0e0e0" stroke="#999999" points="125.5,-19.25 74.25,-19.25 74.25,0 125.5,0 125.5,-19.25"/>
<text xml:space="preserve" text-anchor="middle" x="99.88" y="-5.75" font-family="Helvetica,sans-Serif" font-size="10.00">stddef.h</text>
</a>
</g>
</g>
<!-- Node2&#45;&gt;Node4 -->
<g id="edge3_Node000002_Node000004" class="edge">
<title>Node2&#45;&gt;Node4</title>
<g id="a_edge3_Node000002_Node000004"><a xlink:title=" ">
<path fill="none" stroke="#63b8ff" d="M69.82,-55.08C74.59,-48.03 81.44,-37.9 87.4,-29.08"/>
<polygon fill="#63b8ff" stroke="#63b8ff" points="90.25,-31.11 92.95,-20.86 84.45,-27.19 90.25,-31.11"/>
</a>
</g>
</g>
</g>
</svg>
