<?xml version="1.0" encoding="UTF-8" standalone="no"?>
<!DOCTYPE svg PUBLIC "-//W3C//DTD SVG 1.1//EN"
 "http://www.w3.org/Graphics/SVG/1.1/DTD/svg11.dtd">
<!-- Generated by graphviz version 14.0.0 (20250921.2048)
 -->
<!-- Title: gs_parse_tokens Pages: 1 -->
<svg width="557pt" height="441pt"
 viewBox="0.00 0.00 557.00 441.00" xmlns="http://www.w3.org/2000/svg" xmlns:xlink="http://www.w3.org/1999/xlink">
<g id="graph0" class="graph" transform="scale(1 1) rotate(0) translate(4 437.25)">
<title>gs_parse_tokens</title>
<!-- Node1 -->
<g id="Node000001" class="node">
<title>Node1</title>
<g id="a_Node000001"><a xlink:title=" ">
<polygon fill="#999999" stroke="#666666" points="90.25,-358.25 0,-358.25 0,-339 90.25,-339 90.25,-358.25"/>
<text xml:space="preserve" text-anchor="middle" x="45.12" y="-344.75" font-family="Helvetica,sans-Serif" font-size="10.00">gs_parse_tokens</text>
</a>
</g>
</g>
<!-- Node2 -->
<g id="Node000002" class="node">
<title>Node2</title>
<g id="a_Node000002"><a xlink:href="parser_8c.html#a01f170c65014ffc710d09535a9576b3f" target="_top" xlink:title=" ">
<polygon fill="white" stroke="#666666" points="246.5,-433.25 127.75,-433.25 127.75,-414 246.5,-414 246.5,-433.25"/>
<text xml:space="preserve" text-anchor="middle" x="187.12" y="-419.75" font-family="Helvetica,sans-Serif" font-size="10.00">command_vec_dispose</text>
</a>
</g>
</g>
<!-- Node1&#45;&gt;Node2 -->
<g id="edge1_Node000001_Node000002" class="edge">
<title>Node1&#45;&gt;Node2</title>
<g id="a_edge1_Node000001_Node000002"><a xlink:title=" ">
<path fill="none" stroke="#63b8ff" d="M57.57,-358.62C72.46,-371.18 99.72,-392.64 126.25,-405.62 129.17,-407.06 132.24,-408.4 135.36,-409.66"/>
<polygon fill="#63b8ff" stroke="#63b8ff" points="134.12,-412.93 144.71,-413.07 136.52,-406.35 134.12,-412.93"/>
</a>
</g>
</g>
<!-- Node3 -->
<g id="Node000003" class="node">
<title>Node3</title>
<g id="a_Node000003"><a xlink:href="parser_8c.html#a6921307fe08dc0ee20e9b6b3f7b02f5c" target="_top" xlink:title=" ">
<polygon fill="white" stroke="#666666" points="240.12,-396.25 134.12,-396.25 134.12,-377 240.12,-377 240.12,-396.25"/>
<text xml:space="preserve" text-anchor="middle" x="187.12" y="-382.75" font-family="Helvetica,sans-Serif" font-size="10.00">command_vec_push</text>
</a>
</g>
</g>
<!-- Node1&#45;&gt;Node3 -->
<g id="edge2_Node000001_Node000003" class="edge">
<title>Node1&#45;&gt;Node3</title>
<g id="a_edge2_Node000001_Node000003"><a xlink:title=" ">
<path fill="none" stroke="#63b8ff" d="M83.27,-358.71C100.18,-363.3 120.39,-368.78 138.4,-373.67"/>
<polygon fill="#63b8ff" stroke="#63b8ff" points="137.26,-376.99 147.83,-376.23 139.09,-370.23 137.26,-376.99"/>
</a>
</g>
</g>
<!-- Node4 -->
<g id="Node000004" class="node">
<title>Node4</title>
<g id="a_Node000004"><a xlink:href="parser_8c.html#ac48ab5078aab3b0f060e495b29368250" target="_top" xlink:title=" ">
<polygon fill="white" stroke="#666666" points="475.75,-208.25 420,-208.25 420,-189 475.75,-189 475.75,-208.25"/>
<text xml:space="preserve" text-anchor="middle" x="447.88" y="-194.75" font-family="Helvetica,sans-Serif" font-size="10.00">consume</text>
</a>
</g>
</g>
<!-- Node1&#45;&gt;Node4 -->
<g id="edge3_Node000001_Node000004" class="edge">
<title>Node1&#45;&gt;Node4</title>
<g id="a_edge3_Node000001_Node000004"><a xlink:title=" ">
<path fill="none" stroke="#63b8ff" d="M90.62,-340.79C102.21,-338.76 114.7,-336.6 126.25,-334.62 240.73,-315.07 286.27,-354.38 384,-291.62 411.11,-274.22 429.42,-240.52 439,-218.82"/>
<polygon fill="#63b8ff" stroke="#63b8ff" points="442.12,-220.43 442.73,-209.85 435.66,-217.74 442.12,-220.43"/>
</a>
</g>
</g>
<!-- Node5 -->
<g id="Node000005" class="node">
<title>Node5</title>
<g id="a_Node000005"><a xlink:href="parser_8c.html#a793af97820cb571ba03b531de5e4b7bb" target="_top" xlink:title=" ">
<polygon fill="white" stroke="#666666" points="548.75,-208.25 511.75,-208.25 511.75,-189 548.75,-189 548.75,-208.25"/>
<text xml:space="preserve" text-anchor="middle" x="530.25" y="-194.75" font-family="Helvetica,sans-Serif" font-size="10.00">peek</text>
</a>
</g>
</g>
<!-- Node1&#45;&gt;Node5 -->
<g id="edge15_Node000001_Node000005" class="edge">
<title>Node1&#45;&gt;Node5</title>
<g id="a_edge15_Node000001_Node000005"><a xlink:title=" ">
<path fill="none" stroke="#63b8ff" d="M90.56,-353.98C157.18,-360.15 285.63,-364.71 384,-323.62 440.54,-300.01 490.91,-245.67 514.72,-217.04"/>
<polygon fill="#63b8ff" stroke="#63b8ff" points="517.2,-219.54 520.79,-209.58 511.77,-215.13 517.2,-219.54"/>
</a>
</g>
</g>
<!-- Node6 -->
<g id="Node000006" class="node">
<title>Node6</title>
<g id="a_Node000006"><a xlink:href="parser_8c.html#a37f7a67ba0c08a482eaaf54b0d5b5d0f" target="_top" xlink:title=" ">
<polygon fill="white" stroke="#666666" points="248,-170.25 126.25,-170.25 126.25,-151 248,-151 248,-170.25"/>
<text xml:space="preserve" text-anchor="middle" x="187.12" y="-156.75" font-family="Helvetica,sans-Serif" font-size="10.00">parse_simple_command</text>
</a>
</g>
</g>
<!-- Node1&#45;&gt;Node6 -->
<g id="edge5_Node000001_Node000006" class="edge">
<title>Node1&#45;&gt;Node6</title>
<g id="a_edge5_Node000001_Node000006"><a xlink:title=" ">
<path fill="none" stroke="#63b8ff" d="M53.65,-338.52C76.12,-308.35 142.94,-218.61 172.17,-179.36"/>
<polygon fill="#63b8ff" stroke="#63b8ff" points="174.83,-181.65 177.99,-171.54 169.22,-177.47 174.83,-181.65"/>
</a>
</g>
</g>
<!-- Node4&#45;&gt;Node5 -->
<g id="edge4_Node000004_Node000005" class="edge">
<title>Node4&#45;&gt;Node5</title>
<g id="a_edge4_Node000004_Node000005"><a xlink:title=" ">
<path fill="none" stroke="#63b8ff" d="M476.09,-198.62C483.83,-198.62 492.29,-198.62 500.14,-198.62"/>
<polygon fill="#63b8ff" stroke="#63b8ff" points="499.9,-202.13 509.9,-198.63 499.9,-195.13 499.9,-202.13"/>
</a>
</g>
</g>
<!-- Node6&#45;&gt;Node4 -->
<g id="edge6_Node000006_Node000004" class="edge">
<title>Node6&#45;&gt;Node4</title>
<g id="a_edge6_Node000006_Node000004"><a xlink:title=" ">
<path fill="none" stroke="#63b8ff" d="M248.14,-163.38C287.14,-165.92 338.92,-170.72 384,-179.62 392.06,-181.22 400.56,-183.42 408.62,-185.76"/>
<polygon fill="#63b8ff" stroke="#63b8ff" points="407.59,-189.1 418.18,-188.67 409.63,-182.41 407.59,-189.1"/>
</a>
</g>
</g>
<!-- Node6&#45;&gt;Node5 -->
<g id="edge10_Node000006_Node000005" class="edge">
<title>Node6&#45;&gt;Node5</title>
<g id="a_edge10_Node000006_Node000005"><a xlink:title=" ">
<path fill="none" stroke="#63b8ff" d="M200.15,-150.52C217.39,-136.75 250.76,-112.76 284,-103.62 326.86,-91.85 341.41,-90.93 384,-103.62 434.67,-118.72 484.11,-157.75 510.21,-180.81"/>
<polygon fill="#63b8ff" stroke="#63b8ff" points="507.84,-183.39 517.6,-187.5 512.53,-178.2 507.84,-183.39"/>
</a>
</g>
</g>
<!-- Node7 -->
<g id="Node000007" class="node">
<title>Node7</title>
<g id="a_Node000007"><a xlink:href="parser_8c.html#ad484bb938ead71c3f6d6a30860876bbe" target="_top" xlink:title=" ">
<polygon fill="white" stroke="#666666" points="379.12,-132.25 288.88,-132.25 288.88,-113 379.12,-113 379.12,-132.25"/>
<text xml:space="preserve" text-anchor="middle" x="334" y="-118.75" font-family="Helvetica,sans-Serif" font-size="10.00">parse_io_number</text>
</a>
</g>
</g>
<!-- Node6&#45;&gt;Node7 -->
<g id="edge7_Node000006_Node000007" class="edge">
<title>Node6&#45;&gt;Node7</title>
<g id="a_edge7_Node000006_Node000007"><a xlink:title=" ">
<path fill="none" stroke="#63b8ff" d="M226.57,-150.54C244.08,-145.95 265.01,-140.46 283.66,-135.57"/>
<polygon fill="#63b8ff" stroke="#63b8ff" points="284.38,-139 293.16,-133.07 282.6,-132.23 284.38,-139"/>
</a>
</g>
</g>
<!-- Node8 -->
<g id="Node000008" class="node">
<title>Node8</title>
<g id="a_Node000008"><a xlink:href="parser_8c.html#aba7c9b0b6127e1908704750fbd4d0796" target="_top" xlink:title=" ">
<polygon fill="white" stroke="#666666" points="379.12,-208.25 288.88,-208.25 288.88,-189 379.12,-189 379.12,-208.25"/>
<text xml:space="preserve" text-anchor="middle" x="334" y="-194.75" font-family="Helvetica,sans-Serif" font-size="10.00">parse_redirection</text>
</a>
</g>
</g>
<!-- Node6&#45;&gt;Node8 -->
<g id="edge8_Node000006_Node000008" class="edge">
<title>Node6&#45;&gt;Node8</title>
<g id="a_edge8_Node000006_Node000008"><a xlink:title=" ">
<path fill="none" stroke="#63b8ff" d="M226.57,-170.71C244.08,-175.3 265.01,-180.79 283.66,-185.68"/>
<polygon fill="#63b8ff" stroke="#63b8ff" points="282.6,-189.02 293.16,-188.18 284.38,-182.25 282.6,-189.02"/>
</a>
</g>
</g>
<!-- Node9 -->
<g id="Node000009" class="node">
<title>Node9</title>
<g id="a_Node000009"><a xlink:href="parser_8c.html#a76d09680f58d59770882fa4dccfbc499" target="_top" xlink:title=" ">
<polygon fill="white" stroke="#666666" points="381.38,-56.25 286.62,-56.25 286.62,-37 381.38,-37 381.38,-56.25"/>
<text xml:space="preserve" text-anchor="middle" x="334" y="-42.75" font-family="Helvetica,sans-Serif" font-size="10.00">redir_vec_dispose</text>
</a>
</g>
</g>
<!-- Node6&#45;&gt;Node9 -->
<g id="edge11_Node000006_Node000009" class="edge">
<title>Node6&#45;&gt;Node9</title>
<g id="a_edge11_Node000006_Node000009"><a xlink:title=" ">
<path fill="none" stroke="#63b8ff" d="M196.84,-150.68C212.79,-132.91 248.31,-95.28 284,-70.62 288.53,-67.49 293.54,-64.54 298.57,-61.86"/>
<polygon fill="#63b8ff" stroke="#63b8ff" points="300.05,-65.03 307.42,-57.41 296.91,-58.77 300.05,-65.03"/>
</a>
</g>
</g>
<!-- Node10 -->
<g id="Node000010" class="node">
<title>Node10</title>
<g id="a_Node000010"><a xlink:href="parser_8c.html#a2b33aaf8462c9ef50ab080ab6a5513e1" target="_top" xlink:title=" ">
<polygon fill="white" stroke="#666666" points="375,-19.25 293,-19.25 293,0 375,0 375,-19.25"/>
<text xml:space="preserve" text-anchor="middle" x="334" y="-5.75" font-family="Helvetica,sans-Serif" font-size="10.00">redir_vec_push</text>
</a>
</g>
</g>
<!-- Node6&#45;&gt;Node10 -->
<g id="edge12_Node000006_Node000010" class="edge">
<title>Node6&#45;&gt;Node10</title>
<g id="a_edge12_Node000006_Node000010"><a xlink:title=" ">
<path fill="none" stroke="#63b8ff" d="M192.66,-150.74C204.33,-126.34 237.74,-62.73 284,-27.62 285.16,-26.75 286.36,-25.91 287.6,-25.11"/>
<polygon fill="#63b8ff" stroke="#63b8ff" points="289.19,-28.23 296.33,-20.4 285.87,-22.07 289.19,-28.23"/>
</a>
</g>
</g>
<!-- Node11 -->
<g id="Node000011" class="node">
<title>Node11</title>
<g id="a_Node000011"><a xlink:href="parser_8c.html#af1bc145b17edf06601e844424ecab5c3" target="_top" xlink:title=" ">
<polygon fill="white" stroke="#666666" points="384,-282.25 284,-282.25 284,-263 384,-263 384,-282.25"/>
<text xml:space="preserve" text-anchor="middle" x="334" y="-268.75" font-family="Helvetica,sans-Serif" font-size="10.00">string_vec_dispose</text>
</a>
</g>
</g>
<!-- Node6&#45;&gt;Node11 -->
<g id="edge13_Node000006_Node000011" class="edge">
<title>Node6&#45;&gt;Node11</title>
<g id="a_edge13_Node000006_Node000011"><a xlink:title=" ">
<path fill="none" stroke="#63b8ff" d="M195.78,-170.53C210.79,-189.36 245.97,-230.58 284,-254.62 285.81,-255.77 287.7,-256.86 289.65,-257.88"/>
<polygon fill="#63b8ff" stroke="#63b8ff" points="287.76,-260.86 298.3,-261.92 290.72,-254.52 287.76,-260.86"/>
</a>
</g>
</g>
<!-- Node12 -->
<g id="Node000012" class="node">
<title>Node12</title>
<g id="a_Node000012"><a xlink:href="parser_8c.html#a717ec667e62144977537adb3214caff9" target="_top" xlink:title=" ">
<polygon fill="white" stroke="#666666" points="377.62,-245.25 290.38,-245.25 290.38,-226 377.62,-226 377.62,-245.25"/>
<text xml:space="preserve" text-anchor="middle" x="334" y="-231.75" font-family="Helvetica,sans-Serif" font-size="10.00">string_vec_push</text>
</a>
</g>
</g>
<!-- Node6&#45;&gt;Node12 -->
<g id="edge14_Node000006_Node000012" class="edge">
<title>Node6&#45;&gt;Node12</title>
<g id="a_edge14_Node000006_Node000012"><a xlink:title=" ">
<path fill="none" stroke="#63b8ff" d="M202.93,-170.6C221.37,-182.74 254.1,-203.39 284,-217.62 286.71,-218.91 289.53,-220.17 292.4,-221.38"/>
<polygon fill="#63b8ff" stroke="#63b8ff" points="290.85,-224.53 301.43,-224.98 293.44,-218.03 290.85,-224.53"/>
</a>
</g>
</g>
<!-- Node8&#45;&gt;Node4 -->
<g id="edge9_Node000008_Node000004" class="edge">
<title>Node8&#45;&gt;Node4</title>
<g id="a_edge9_Node000008_Node000004"><a xlink:title=" ">
<path fill="none" stroke="#63b8ff" d="M379.54,-198.62C389.05,-198.62 399.02,-198.62 408.29,-198.62"/>
<polygon fill="#63b8ff" stroke="#63b8ff" points="408.04,-202.13 418.04,-198.63 408.04,-195.13 408.04,-202.13"/>
</a>
</g>
</g>
</g>
</svg>
