<?xml version="1.0" encoding="UTF-8" standalone="no"?>
<!DOCTYPE svg PUBLIC "-//W3C//DTD SVG 1.1//EN"
 "http://www.w3.org/Graphics/SVG/1.1/DTD/svg11.dtd">
<!-- Generated by graphviz version 14.0.0 (20250921.2048)
 -->
<!-- Title: parse_simple_command Pages: 1 -->
<svg width="431pt" height="272pt"
 viewBox="0.00 0.00 431.00 272.00" xmlns="http://www.w3.org/2000/svg" xmlns:xlink="http://www.w3.org/1999/xlink">
<g id="graph0" class="graph" transform="scale(1 1) rotate(0) translate(4 267.58)">
<title>parse_simple_command</title>
<!-- Node1 -->
<g id="Node000001" class="node">
<title>Node1</title>
<g id="a_Node000001"><a xlink:title=" ">
<polygon fill="#999999" stroke="#666666" points="121.75,-148.25 0,-148.25 0,-129 121.75,-129 121.75,-148.25"/>
<text xml:space="preserve" text-anchor="middle" x="60.88" y="-134.75" font-family="Helvetica,sans-Serif" font-size="10.00">parse_simple_command</text>
</a>
</g>
</g>
<!-- Node2 -->
<g id="Node000002" class="node">
<title>Node2</title>
<g id="a_Node000002"><a xlink:href="parser_8c.html#ac48ab5078aab3b0f060e495b29368250" target="_top" xlink:title=" ">
<polygon fill="white" stroke="#666666" points="349.5,-242.25 293.75,-242.25 293.75,-223 349.5,-223 349.5,-242.25"/>
<text xml:space="preserve" text-anchor="middle" x="321.62" y="-228.75" font-family="Helvetica,sans-Serif" font-size="10.00">consume</text>
</a>
</g>
</g>
<!-- Node1&#45;&gt;Node2 -->
<g id="edge1_Node000001_Node000002" class="edge">
<title>Node1&#45;&gt;Node2</title>
<g id="a_edge1_Node000001_Node000002"><a xlink:title=" ">
<path fill="none" stroke="#63b8ff" d="M70.8,-148.49C86.52,-165.15 121,-198.52 157.75,-213.62 197.91,-230.13 248.03,-233.71 281.99,-233.91"/>
<polygon fill="#63b8ff" stroke="#63b8ff" points="281.78,-237.41 291.77,-233.87 281.75,-230.41 281.78,-237.41"/>
</a>
</g>
</g>
<!-- Node3 -->
<g id="Node000003" class="node">
<title>Node3</title>
<g id="a_Node000003"><a xlink:href="parser_8c.html#a793af97820cb571ba03b531de5e4b7bb" target="_top" xlink:title=" ">
<polygon fill="white" stroke="#666666" points="422.5,-261.25 385.5,-261.25 385.5,-242 422.5,-242 422.5,-261.25"/>
<text xml:space="preserve" text-anchor="middle" x="404" y="-247.75" font-family="Helvetica,sans-Serif" font-size="10.00">peek</text>
</a>
</g>
</g>
<!-- Node1&#45;&gt;Node3 -->
<g id="edge6_Node000001_Node000003" class="edge">
<title>Node1&#45;&gt;Node3</title>
<g id="a_edge6_Node000001_Node000003"><a xlink:title=" ">
<path fill="none" stroke="#63b8ff" d="M68.05,-148.7C81.43,-169.51 115.35,-217.04 157.75,-237.62 229.04,-272.24 326.06,-263.98 373.89,-256.85"/>
<polygon fill="#63b8ff" stroke="#63b8ff" points="374.39,-260.31 383.72,-255.28 373.29,-253.4 374.39,-260.31"/>
</a>
</g>
</g>
<!-- Node4 -->
<g id="Node000004" class="node">
<title>Node4</title>
<g id="a_Node000004"><a xlink:href="parser_8c.html#ad484bb938ead71c3f6d6a30860876bbe" target="_top" xlink:title=" ">
<polygon fill="white" stroke="#666666" points="252.88,-204.25 162.62,-204.25 162.62,-185 252.88,-185 252.88,-204.25"/>
<text xml:space="preserve" text-anchor="middle" x="207.75" y="-190.75" font-family="Helvetica,sans-Serif" font-size="10.00">parse_io_number</text>
</a>
</g>
</g>
<!-- Node1&#45;&gt;Node4 -->
<g id="edge3_Node000001_Node000004" class="edge">
<title>Node1&#45;&gt;Node4</title>
<g id="a_edge3_Node000001_Node000004"><a xlink:title=" ">
<path fill="none" stroke="#63b8ff" d="M86.64,-148.64C105.96,-156.4 133.5,-167.37 157.75,-176.62 161.18,-177.93 164.75,-179.28 168.33,-180.62"/>
<polygon fill="#63b8ff" stroke="#63b8ff" points="166.96,-183.84 177.56,-184.04 169.4,-177.28 166.96,-183.84"/>
</a>
</g>
</g>
<!-- Node5 -->
<g id="Node000005" class="node">
<title>Node5</title>
<g id="a_Node000005"><a xlink:href="parser_8c.html#aba7c9b0b6127e1908704750fbd4d0796" target="_top" xlink:title=" ">
<polygon fill="white" stroke="#666666" points="252.88,-167.25 162.62,-167.25 162.62,-148 252.88,-148 252.88,-167.25"/>
<text xml:space="preserve" text-anchor="middle" x="207.75" y="-153.75" font-family="Helvetica,sans-Serif" font-size="10.00">parse_redirection</text>
</a>
</g>
</g>
<!-- Node1&#45;&gt;Node5 -->
<g id="edge4_Node000001_Node000005" class="edge">
<title>Node1&#45;&gt;Node5</title>
<g id="a_edge4_Node000001_Node000005"><a xlink:title=" ">
<path fill="none" stroke="#63b8ff" d="M122.06,-146.52C131.67,-147.78 141.59,-149.08 151.09,-150.33"/>
<polygon fill="#63b8ff" stroke="#63b8ff" points="150.57,-153.79 160.94,-151.62 151.48,-146.85 150.57,-153.79"/>
</a>
</g>
</g>
<!-- Node6 -->
<g id="Node000006" class="node">
<title>Node6</title>
<g id="a_Node000006"><a xlink:href="parser_8c.html#a76d09680f58d59770882fa4dccfbc499" target="_top" xlink:title=" ">
<polygon fill="white" stroke="#666666" points="255.12,-130.25 160.38,-130.25 160.38,-111 255.12,-111 255.12,-130.25"/>
<text xml:space="preserve" text-anchor="middle" x="207.75" y="-116.75" font-family="Helvetica,sans-Serif" font-size="10.00">redir_vec_dispose</text>
</a>
</g>
</g>
<!-- Node1&#45;&gt;Node6 -->
<g id="edge7_Node000001_Node000006" class="edge">
<title>Node1&#45;&gt;Node6</title>
<g id="a_edge7_Node000001_Node000006"><a xlink:title=" ">
<path fill="none" stroke="#63b8ff" d="M122.06,-131.15C130.92,-130.05 140.04,-128.91 148.86,-127.82"/>
<polygon fill="#63b8ff" stroke="#63b8ff" points="149.23,-131.3 158.73,-126.59 148.37,-124.35 149.23,-131.3"/>
</a>
</g>
</g>
<!-- Node7 -->
<g id="Node000007" class="node">
<title>Node7</title>
<g id="a_Node000007"><a xlink:href="parser_8c.html#a2b33aaf8462c9ef50ab080ab6a5513e1" target="_top" xlink:title=" ">
<polygon fill="white" stroke="#666666" points="248.75,-93.25 166.75,-93.25 166.75,-74 248.75,-74 248.75,-93.25"/>
<text xml:space="preserve" text-anchor="middle" x="207.75" y="-79.75" font-family="Helvetica,sans-Serif" font-size="10.00">redir_vec_push</text>
</a>
</g>
</g>
<!-- Node1&#45;&gt;Node7 -->
<g id="edge8_Node000001_Node000007" class="edge">
<title>Node1&#45;&gt;Node7</title>
<g id="a_edge8_Node000001_Node000007"><a xlink:title=" ">
<path fill="none" stroke="#63b8ff" d="M87.47,-128.62C106.76,-121.11 133.87,-110.62 157.75,-101.62 161.18,-100.33 164.76,-99 168.34,-97.67"/>
<polygon fill="#63b8ff" stroke="#63b8ff" points="169.41,-101 177.57,-94.26 166.98,-94.44 169.41,-101"/>
</a>
</g>
</g>
<!-- Node8 -->
<g id="Node000008" class="node">
<title>Node8</title>
<g id="a_Node000008"><a xlink:href="parser_8c.html#af1bc145b17edf06601e844424ecab5c3" target="_top" xlink:title=" ">
<polygon fill="white" stroke="#666666" points="257.75,-56.25 157.75,-56.25 157.75,-37 257.75,-37 257.75,-56.25"/>
<text xml:space="preserve" text-anchor="middle" x="207.75" y="-42.75" font-family="Helvetica,sans-Serif" font-size="10.00">string_vec_dispose</text>
</a>
</g>
</g>
<!-- Node1&#45;&gt;Node8 -->
<g id="edge9_Node000001_Node000008" class="edge">
<title>Node1&#45;&gt;Node8</title>
<g id="a_edge9_Node000001_Node000008"><a xlink:title=" ">
<path fill="none" stroke="#63b8ff" d="M72.6,-128.54C89.55,-113.05 124.07,-83.23 157.75,-64.62 159.94,-63.41 162.23,-62.26 164.57,-61.15"/>
<polygon fill="#63b8ff" stroke="#63b8ff" points="165.81,-64.43 173.62,-57.27 163.05,-57.99 165.81,-64.43"/>
</a>
</g>
</g>
<!-- Node9 -->
<g id="Node000009" class="node">
<title>Node9</title>
<g id="a_Node000009"><a xlink:href="parser_8c.html#a717ec667e62144977537adb3214caff9" target="_top" xlink:title=" ">
<polygon fill="white" stroke="#666666" points="251.38,-19.25 164.12,-19.25 164.12,0 251.38,0 251.38,-19.25"/>
<text xml:space="preserve" text-anchor="middle" x="207.75" y="-5.75" font-family="Helvetica,sans-Serif" font-size="10.00">string_vec_push</text>
</a>
</g>
</g>
<!-- Node1&#45;&gt;Node9 -->
<g id="edge10_Node000001_Node000009" class="edge">
<title>Node1&#45;&gt;Node9</title>
<g id="a_edge10_Node000001_Node000009"><a xlink:title=" ">
<path fill="none" stroke="#63b8ff" d="M68.02,-128.53C81.61,-107.02 116.29,-56.31 157.75,-27.62 159.29,-26.56 160.89,-25.55 162.55,-24.6"/>
<polygon fill="#63b8ff" stroke="#63b8ff" points="163.68,-27.94 171.07,-20.36 160.56,-21.68 163.68,-27.94"/>
</a>
</g>
</g>
<!-- Node2&#45;&gt;Node3 -->
<g id="edge2_Node000002_Node000003" class="edge">
<title>Node2&#45;&gt;Node3</title>
<g id="a_edge2_Node000002_Node000003"><a xlink:title=" ">
<path fill="none" stroke="#63b8ff" d="M349.84,-239.06C357.67,-240.91 366.24,-242.94 374.17,-244.81"/>
<polygon fill="#63b8ff" stroke="#63b8ff" points="373.15,-248.17 383.69,-247.06 374.76,-241.35 373.15,-248.17"/>
</a>
</g>
</g>
<!-- Node5&#45;&gt;Node2 -->
<g id="edge5_Node000005_Node000002" class="edge">
<title>Node5&#45;&gt;Node2</title>
<g id="a_edge5_Node000005_Node000002"><a xlink:title=" ">
<path fill="none" stroke="#63b8ff" d="M241.72,-167.74C247.24,-170 252.79,-172.62 257.75,-175.62 275.4,-186.31 292.55,-202.35 304.47,-214.7"/>
<polygon fill="#63b8ff" stroke="#63b8ff" points="301.73,-216.9 311.12,-221.81 306.84,-212.12 301.73,-216.9"/>
</a>
</g>
</g>
</g>
</svg>
