<?xml version="1.0" encoding="UTF-8" standalone="no"?>
<!DOCTYPE svg PUBLIC "-//W3C//DTD SVG 1.1//EN"
 "http://www.w3.org/Graphics/SVG/1.1/DTD/svg11.dtd">
<!-- Generated by graphviz version 14.0.0 (20250921.2048)
 -->
<!-- Title: consume Pages: 1 -->
<svg width="740pt" height="60pt"
 viewBox="0.00 0.00 740.00 60.00" xmlns="http://www.w3.org/2000/svg" xmlns:xlink="http://www.w3.org/1999/xlink">
<g id="graph0" class="graph" transform="scale(1 1) rotate(0) translate(4 55.54)">
<title>consume</title>
<!-- Node1 -->
<g id="Node000001" class="node">
<title>Node1</title>
<g id="a_Node000001"><a xlink:title=" ">
<polygon fill="#999999" stroke="#666666" points="731.5,-32.54 675.75,-32.54 675.75,-13.29 731.5,-13.29 731.5,-32.54"/>
<text xml:space="preserve" text-anchor="middle" x="703.62" y="-19.04" font-family="Helvetica,sans-Serif" font-size="10.00">consume</text>
</a>
</g>
</g>
<!-- Node2 -->
<g id="Node000002" class="node">
<title>Node2</title>
<g id="a_Node000002"><a xlink:href="parser_8c.html#ae01cc8718a9451c74715a4b8cacfe73b" target="_top" xlink:title=" ">
<polygon fill="white" stroke="#666666" points="355.75,-51.54 265.5,-51.54 265.5,-32.29 355.75,-32.29 355.75,-51.54"/>
<text xml:space="preserve" text-anchor="middle" x="310.62" y="-38.04" font-family="Helvetica,sans-Serif" font-size="10.00">gs_parse_tokens</text>
</a>
</g>
</g>
<!-- Node1&#45;&gt;Node2 -->
<g id="edge1_Node000001_Node000002" class="edge">
<title>Node1&#45;&gt;Node2</title>
<g id="a_edge1_Node000001_Node000002"><a xlink:title=" ">
<path fill="none" stroke="#63b8ff" d="M664.48,-36.38C656.41,-38.68 647.88,-40.71 639.75,-41.91 539.3,-56.76 419.65,-50.93 356.24,-46.02"/>
<polygon fill="#63b8ff" stroke="#63b8ff" points="665.49,-39.73 674.03,-33.46 663.44,-33.04 665.49,-39.73"/>
</a>
</g>
</g>
<!-- Node6 -->
<g id="Node000006" class="node">
<title>Node6</title>
<g id="a_Node000006"><a xlink:href="parser_8c.html#aba7c9b0b6127e1908704750fbd4d0796" target="_top" xlink:title=" ">
<polygon fill="white" stroke="#666666" points="639.75,-32.54 549.5,-32.54 549.5,-13.29 639.75,-13.29 639.75,-32.54"/>
<text xml:space="preserve" text-anchor="middle" x="594.62" y="-19.04" font-family="Helvetica,sans-Serif" font-size="10.00">parse_redirection</text>
</a>
</g>
</g>
<!-- Node1&#45;&gt;Node6 -->
<g id="edge5_Node000001_Node000006" class="edge">
<title>Node1&#45;&gt;Node6</title>
<g id="a_edge5_Node000001_Node000006"><a xlink:title=" ">
<path fill="none" stroke="#63b8ff" d="M663.95,-22.91C656.14,-22.91 647.88,-22.91 639.9,-22.91"/>
<polygon fill="#63b8ff" stroke="#63b8ff" points="663.83,-26.41 673.83,-22.91 663.83,-19.41 663.83,-26.41"/>
</a>
</g>
</g>
<!-- Node7 -->
<g id="Node000007" class="node">
<title>Node7</title>
<g id="a_Node000007"><a xlink:href="parser_8c.html#a37f7a67ba0c08a482eaaf54b0d5b5d0f" target="_top" xlink:title=" ">
<polygon fill="white" stroke="#666666" points="513.5,-32.54 391.75,-32.54 391.75,-13.29 513.5,-13.29 513.5,-32.54"/>
<text xml:space="preserve" text-anchor="middle" x="452.62" y="-19.04" font-family="Helvetica,sans-Serif" font-size="10.00">parse_simple_command</text>
</a>
</g>
</g>
<!-- Node1&#45;&gt;Node7 -->
<g id="edge8_Node000001_Node000007" class="edge">
<title>Node1&#45;&gt;Node7</title>
<g id="a_edge8_Node000001_Node000007"><a xlink:title=" ">
<path fill="none" stroke="#63b8ff" d="M664.48,-9.44C656.41,-7.14 647.88,-5.11 639.75,-3.91 600.07,1.95 589.42,0.01 549.5,-3.91 531.6,-5.67 512.08,-9.23 495.36,-12.8"/>
<polygon fill="#63b8ff" stroke="#63b8ff" points="663.44,-12.78 674.03,-12.36 665.49,-6.09 663.44,-12.78"/>
</a>
</g>
</g>
<!-- Node3 -->
<g id="Node000003" class="node">
<title>Node3</title>
<g id="a_Node000003"><a xlink:href="shell_8c.html#add8fb7be4e80992b6d5e0e74b22e513f" target="_top" xlink:title=" ">
<polygon fill="white" stroke="#666666" points="229.5,-51.54 179.75,-51.54 179.75,-32.29 229.5,-32.29 229.5,-51.54"/>
<text xml:space="preserve" text-anchor="middle" x="204.62" y="-38.04" font-family="Helvetica,sans-Serif" font-size="10.00">run_line</text>
</a>
</g>
</g>
<!-- Node2&#45;&gt;Node3 -->
<g id="edge2_Node000002_Node000003" class="edge">
<title>Node2&#45;&gt;Node3</title>
<g id="a_edge2_Node000002_Node000003"><a xlink:title=" ">
<path fill="none" stroke="#63b8ff" d="M253.75,-41.91C245.34,-41.91 237.07,-41.91 229.81,-41.91"/>
<polygon fill="#63b8ff" stroke="#63b8ff" points="253.7,-45.41 263.7,-41.91 253.7,-38.41 253.7,-45.41"/>
</a>
</g>
</g>
<!-- Node4 -->
<g id="Node000004" class="node">
<title>Node4</title>
<g id="a_Node000004"><a xlink:href="shell_8c.html#ac693cbc15f3a72c516535611b597062c" target="_top" xlink:title=" ">
<polygon fill="white" stroke="#666666" points="143.75,-51.54 73,-51.54 73,-32.29 143.75,-32.29 143.75,-51.54"/>
<text xml:space="preserve" text-anchor="middle" x="108.38" y="-38.04" font-family="Helvetica,sans-Serif" font-size="10.00">gs_shell_run</text>
</a>
</g>
</g>
<!-- Node3&#45;&gt;Node4 -->
<g id="edge3_Node000003_Node000004" class="edge">
<title>Node3&#45;&gt;Node4</title>
<g id="a_edge3_Node000003_Node000004"><a xlink:title=" ">
<path fill="none" stroke="#63b8ff" d="M168,-41.91C160.21,-41.91 151.98,-41.91 144.22,-41.91"/>
<polygon fill="#63b8ff" stroke="#63b8ff" points="167.84,-45.41 177.84,-41.91 167.84,-38.41 167.84,-45.41"/>
</a>
</g>
</g>
<!-- Node5 -->
<g id="Node000005" class="node">
<title>Node5</title>
<g id="a_Node000005"><a xlink:href="main_8c.html#a3c04138a5bfe5d72780bb7e82a18e627" target="_top" xlink:title=" ">
<polygon fill="white" stroke="#666666" points="37,-51.54 0,-51.54 0,-32.29 37,-32.29 37,-51.54"/>
<text xml:space="preserve" text-anchor="middle" x="18.5" y="-38.04" font-family="Helvetica,sans-Serif" font-size="10.00">main</text>
</a>
</g>
</g>
<!-- Node4&#45;&gt;Node5 -->
<g id="edge4_Node000004_Node000005" class="edge">
<title>Node4&#45;&gt;Node5</title>
<g id="a_edge4_Node000004_Node000005"><a xlink:title=" ">
<path fill="none" stroke="#63b8ff" d="M61.14,-41.91C52.68,-41.91 44.32,-41.91 37.34,-41.91"/>
<polygon fill="#63b8ff" stroke="#63b8ff" points="61.13,-45.41 71.13,-41.91 61.13,-38.41 61.13,-45.41"/>
</a>
</g>
</g>
<!-- Node6&#45;&gt;Node7 -->
<g id="edge6_Node000006_Node000007" class="edge">
<title>Node6&#45;&gt;Node7</title>
<g id="a_edge6_Node000006_Node000007"><a xlink:title=" ">
<path fill="none" stroke="#63b8ff" d="M537.92,-22.91C529.98,-22.91 521.78,-22.91 513.76,-22.91"/>
<polygon fill="#63b8ff" stroke="#63b8ff" points="537.81,-26.41 547.81,-22.91 537.81,-19.41 537.81,-26.41"/>
</a>
</g>
</g>
<!-- Node7&#45;&gt;Node2 -->
<g id="edge7_Node000007_Node000002" class="edge">
<title>Node7&#45;&gt;Node2</title>
<g id="a_edge7_Node000007_Node000002"><a xlink:title=" ">
<path fill="none" stroke="#63b8ff" d="M380.25,-32.6C372.03,-33.71 363.83,-34.83 356.11,-35.87"/>
<polygon fill="#63b8ff" stroke="#63b8ff" points="380.5,-36.1 389.94,-31.28 379.56,-29.16 380.5,-36.1"/>
</a>
</g>
</g>
</g>
</svg>
