<?xml version="1.0" encoding="UTF-8" standalone="no"?>
<!DOCTYPE svg PUBLIC "-//W3C//DTD SVG 1.1//EN"
 "http://www.w3.org/Graphics/SVG/1.1/DTD/svg11.dtd">
<!-- Generated by graphviz version 14.0.0 (20250921.2048)
 -->
<!-- Title: parse_redirection Pages: 1 -->
<svg width="263pt" height="27pt"
 viewBox="0.00 0.00 263.00 27.00" xmlns="http://www.w3.org/2000/svg" xmlns:xlink="http://www.w3.org/1999/xlink">
<g id="graph0" class="graph" transform="scale(1 1) rotate(0) translate(4 23.25)">
<title>parse_redirection</title>
<!-- Node1 -->
<g id="Node000001" class="node">
<title>Node1</title>
<g id="a_Node000001"><a xlink:title=" ">
<polygon fill="#999999" stroke="#666666" points="90.25,-19.25 0,-19.25 0,0 90.25,0 90.25,-19.25"/>
<text xml:space="preserve" text-anchor="middle" x="45.12" y="-5.75" font-family="Helvetica,sans-Serif" font-size="10.00">parse_redirection</text>
</a>
</g>
</g>
<!-- Node2 -->
<g id="Node000002" class="node">
<title>Node2</title>
<g id="a_Node000002"><a xlink:href="parser_8c.html#ac48ab5078aab3b0f060e495b29368250" target="_top" xlink:title=" ">
<polygon fill="white" stroke="#666666" points="182,-19.25 126.25,-19.25 126.25,0 182,0 182,-19.25"/>
<text xml:space="preserve" text-anchor="middle" x="154.12" y="-5.75" font-family="Helvetica,sans-Serif" font-size="10.00">consume</text>
</a>
</g>
</g>
<!-- Node1&#45;&gt;Node2 -->
<g id="edge1_Node000001_Node000002" class="edge">
<title>Node1&#45;&gt;Node2</title>
<g id="a_edge1_Node000001_Node000002"><a xlink:title=" ">
<path fill="none" stroke="#63b8ff" d="M90.57,-9.62C98.5,-9.62 106.71,-9.62 114.46,-9.62"/>
<polygon fill="#63b8ff" stroke="#63b8ff" points="114.27,-13.13 124.27,-9.63 114.27,-6.13 114.27,-13.13"/>
</a>
</g>
</g>
<!-- Node3 -->
<g id="Node000003" class="node">
<title>Node3</title>
<g id="a_Node000003"><a xlink:href="parser_8c.html#a793af97820cb571ba03b531de5e4b7bb" target="_top" xlink:title=" ">
<polygon fill="white" stroke="#666666" points="255,-19.25 218,-19.25 218,0 255,0 255,-19.25"/>
<text xml:space="preserve" text-anchor="middle" x="236.5" y="-5.75" font-family="Helvetica,sans-Serif" font-size="10.00">peek</text>
</a>
</g>
</g>
<!-- Node2&#45;&gt;Node3 -->
<g id="edge2_Node000002_Node000003" class="edge">
<title>Node2&#45;&gt;Node3</title>
<g id="a_edge2_Node000002_Node000003"><a xlink:title=" ">
<path fill="none" stroke="#63b8ff" d="M182.34,-9.62C190.08,-9.62 198.54,-9.62 206.39,-9.62"/>
<polygon fill="#63b8ff" stroke="#63b8ff" points="206.15,-13.13 216.15,-9.63 206.15,-6.13 206.15,-13.13"/>
</a>
</g>
</g>
</g>
</svg>
