<?xml version="1.0" encoding="UTF-8" standalone="no"?>
<!DOCTYPE svg PUBLIC "-//W3C//DTD SVG 1.1//EN"
 "http://www.w3.org/Graphics/SVG/1.1/DTD/svg11.dtd">
<!-- Generated by graphviz version 14.0.0 (20250921.2048)
 -->
<!-- Title: peek Pages: 1 -->
<svg width="813pt" height="95pt"
 viewBox="0.00 0.00 813.00 95.00" xmlns="http://www.w3.org/2000/svg" xmlns:xlink="http://www.w3.org/1999/xlink">
<g id="graph0" class="graph" transform="scale(1 1) rotate(0) translate(4 91.32)">
<title>peek</title>
<!-- Node1 -->
<g id="Node000001" class="node">
<title>Node1</title>
<g id="a_Node000001"><a xlink:title=" ">
<polygon fill="#999999" stroke="#666666" points="804.5,-57.25 767.5,-57.25 767.5,-38 804.5,-38 804.5,-57.25"/>
<text xml:space="preserve" text-anchor="middle" x="786" y="-43.75" font-family="Helvetica,sans-Serif" font-size="10.00">peek</text>
</a>
</g>
</g>
<!-- Node2 -->
<g id="Node000002" class="node">
<title>Node2</title>
<g id="a_Node000002"><a xlink:href="parser_8c.html#ac48ab5078aab3b0f060e495b29368250" target="_top" xlink:title=" ">
<polygon fill="white" stroke="#666666" points="731.5,-57.25 675.75,-57.25 675.75,-38 731.5,-38 731.5,-57.25"/>
<text xml:space="preserve" text-anchor="middle" x="703.62" y="-43.75" font-family="Helvetica,sans-Serif" font-size="10.00">consume</text>
</a>
</g>
</g>
<!-- Node1&#45;&gt;Node2 -->
<g id="edge1_Node000001_Node000002" class="edge">
<title>Node1&#45;&gt;Node2</title>
<g id="a_edge1_Node000001_Node000002"><a xlink:title=" ">
<path fill="none" stroke="#63b8ff" d="M755.91,-47.62C748.07,-47.62 739.63,-47.62 731.89,-47.62"/>
<polygon fill="#63b8ff" stroke="#63b8ff" points="755.65,-51.13 765.65,-47.63 755.65,-44.13 755.65,-51.13"/>
</a>
</g>
</g>
<!-- Node3 -->
<g id="Node000003" class="node">
<title>Node3</title>
<g id="a_Node000003"><a xlink:href="parser_8c.html#ae01cc8718a9451c74715a4b8cacfe73b" target="_top" xlink:title=" ">
<polygon fill="white" stroke="#666666" points="355.75,-19.25 265.5,-19.25 265.5,0 355.75,0 355.75,-19.25"/>
<text xml:space="preserve" text-anchor="middle" x="310.62" y="-5.75" font-family="Helvetica,sans-Serif" font-size="10.00">gs_parse_tokens</text>
</a>
</g>
</g>
<!-- Node1&#45;&gt;Node3 -->
<g id="edge10_Node000001_Node000003" class="edge">
<title>Node1&#45;&gt;Node3</title>
<g id="a_edge10_Node000001_Node000003"><a xlink:title=" ">
<path fill="none" stroke="#63b8ff" d="M756.68,-36.57C748.63,-33.7 739.79,-30.8 731.5,-28.62 691.47,-18.11 680.86,-17.5 639.75,-12.62 530.24,0.35 501.98,-1.19 391.75,-4.62 380.19,-4.99 367.7,-5.64 356.1,-6.35"/>
<polygon fill="#63b8ff" stroke="#63b8ff" points="755.39,-39.82 765.98,-40 757.82,-33.25 755.39,-39.82"/>
</a>
</g>
</g>
<!-- Node8 -->
<g id="Node000008" class="node">
<title>Node8</title>
<g id="a_Node000008"><a xlink:href="parser_8c.html#a37f7a67ba0c08a482eaaf54b0d5b5d0f" target="_top" xlink:title=" ">
<polygon fill="white" stroke="#666666" points="513.5,-76.25 391.75,-76.25 391.75,-57 513.5,-57 513.5,-76.25"/>
<text xml:space="preserve" text-anchor="middle" x="452.62" y="-62.75" font-family="Helvetica,sans-Serif" font-size="10.00">parse_simple_command</text>
</a>
</g>
</g>
<!-- Node1&#45;&gt;Node8 -->
<g id="edge11_Node000001_Node000008" class="edge">
<title>Node1&#45;&gt;Node8</title>
<g id="a_edge11_Node000001_Node000008"><a xlink:title=" ">
<path fill="none" stroke="#63b8ff" d="M756.67,-58.63C748.61,-61.5 739.78,-64.4 731.5,-66.62 653.04,-87.69 630.43,-90.74 549.5,-83.62 533.5,-82.22 516.18,-79.51 500.71,-76.67"/>
<polygon fill="#63b8ff" stroke="#63b8ff" points="757.8,-61.94 765.97,-55.2 755.38,-55.37 757.8,-61.94"/>
</a>
</g>
</g>
<!-- Node2&#45;&gt;Node3 -->
<g id="edge2_Node000002_Node000003" class="edge">
<title>Node2&#45;&gt;Node3</title>
<g id="a_edge2_Node000002_Node000003"><a xlink:title=" ">
<path fill="none" stroke="#63b8ff" d="M664.42,-34.52C656.36,-32.19 647.84,-30.06 639.75,-28.62 539.46,-10.83 419.5,-8.61 356.06,-8.9"/>
<polygon fill="#63b8ff" stroke="#63b8ff" points="663.39,-37.86 673.97,-37.43 665.43,-31.17 663.39,-37.86"/>
</a>
</g>
</g>
<!-- Node7 -->
<g id="Node000007" class="node">
<title>Node7</title>
<g id="a_Node000007"><a xlink:href="parser_8c.html#aba7c9b0b6127e1908704750fbd4d0796" target="_top" xlink:title=" ">
<polygon fill="white" stroke="#666666" points="639.75,-57.25 549.5,-57.25 549.5,-38 639.75,-38 639.75,-57.25"/>
<text xml:space="preserve" text-anchor="middle" x="594.62" y="-43.75" font-family="Helvetica,sans-Serif" font-size="10.00">parse_redirection</text>
</a>
</g>
</g>
<!-- Node2&#45;&gt;Node7 -->
<g id="edge6_Node000002_Node000007" class="edge">
<title>Node2&#45;&gt;Node7</title>
<g id="a_edge6_Node000002_Node000007"><a xlink:title=" ">
<path fill="none" stroke="#63b8ff" d="M663.95,-47.62C656.14,-47.62 647.88,-47.62 639.9,-47.62"/>
<polygon fill="#63b8ff" stroke="#63b8ff" points="663.83,-51.13 673.83,-47.63 663.83,-44.13 663.83,-51.13"/>
</a>
</g>
</g>
<!-- Node2&#45;&gt;Node8 -->
<g id="edge9_Node000002_Node000008" class="edge">
<title>Node2&#45;&gt;Node8</title>
<g id="a_edge9_Node000002_Node000008"><a xlink:title=" ">
<path fill="none" stroke="#63b8ff" d="M664.48,-61.1C656.41,-63.39 647.88,-65.42 639.75,-66.62 598.03,-72.79 550.48,-72.67 513.88,-71.07"/>
<polygon fill="#63b8ff" stroke="#63b8ff" points="665.49,-64.45 674.03,-58.17 663.44,-57.75 665.49,-64.45"/>
</a>
</g>
</g>
<!-- Node4 -->
<g id="Node000004" class="node">
<title>Node4</title>
<g id="a_Node000004"><a xlink:href="shell_8c.html#add8fb7be4e80992b6d5e0e74b22e513f" target="_top" xlink:title=" ">
<polygon fill="white" stroke="#666666" points="229.5,-19.25 179.75,-19.25 179.75,0 229.5,0 229.5,-19.25"/>
<text xml:space="preserve" text-anchor="middle" x="204.62" y="-5.75" font-family="Helvetica,sans-Serif" font-size="10.00">run_line</text>
</a>
</g>
</g>
<!-- Node3&#45;&gt;Node4 -->
<g id="edge3_Node000003_Node000004" class="edge">
<title>Node3&#45;&gt;Node4</title>
<g id="a_edge3_Node000003_Node000004"><a xlink:title=" ">
<path fill="none" stroke="#63b8ff" d="M253.75,-9.62C245.34,-9.62 237.07,-9.62 229.81,-9.62"/>
<polygon fill="#63b8ff" stroke="#63b8ff" points="253.7,-13.13 263.7,-9.63 253.7,-6.13 253.7,-13.13"/>
</a>
</g>
</g>
<!-- Node5 -->
<g id="Node000005" class="node">
<title>Node5</title>
<g id="a_Node000005"><a xlink:href="shell_8c.html#ac693cbc15f3a72c516535611b597062c" target="_top" xlink:title=" ">
<polygon fill="white" stroke="#666666" points="143.75,-19.25 73,-19.25 73,0 143.75,0 143.75,-19.25"/>
<text xml:space="preserve" text-anchor="middle" x="108.38" y="-5.75" font-family="Helvetica,sans-Serif" font-size="10.00">gs_shell_run</text>
</a>
</g>
</g>
<!-- Node4&#45;&gt;Node5 -->
<g id="edge4_Node000004_Node000005" class="edge">
<title>Node4&#45;&gt;Node5</title>
<g id="a_edge4_Node000004_Node000005"><a xlink:title=" ">
<path fill="none" stroke="#63b8ff" d="M168,-9.62C160.21,-9.62 151.98,-9.62 144.22,-9.62"/>
<polygon fill="#63b8ff" stroke="#63b8ff" points="167.84,-13.13 177.84,-9.63 167.84,-6.13 167.84,-13.13"/>
</a>
</g>
</g>
<!-- Node6 -->
<g id="Node000006" class="node">
<title>Node6</title>
<g id="a_Node000006"><a xlink:href="main_8c.html#a3c04138a5bfe5d72780bb7e82a18e627" target="_top" xlink:title=" ">
<polygon fill="white" stroke="#666666" points="37,-19.25 0,-19.25 0,0 37,0 37,-19.25"/>
<text xml:space="preserve" text-anchor="middle" x="18.5" y="-5.75" font-family="Helvetica,sans-Serif" font-size="10.00">main</text>
</a>
</g>
</g>
<!-- Node5&#45;&gt;Node6 -->
<g id="edge5_Node000005_Node000006" class="edge">
<title>Node5&#45;&gt;Node6</title>
<g id="a_edge5_Node000005_Node000006"><a xlink:title=" ">
<path fill="none" stroke="#63b8ff" d="M61.14,-9.62C52.68,-9.62 44.32,-9.62 37.34,-9.62"/>
<polygon fill="#63b8ff" stroke="#63b8ff" points="61.13,-13.13 71.13,-9.63 61.13,-6.13 61.13,-13.13"/>
</a>
</g>
</g>
<!-- Node7&#45;&gt;Node8 -->
<g id="edge7_Node000007_Node000008" class="edge">
<title>Node7&#45;&gt;Node8</title>
<g id="a_edge7_Node000007_Node000008"><a xlink:title=" ">
<path fill="none" stroke="#63b8ff" d="M537.92,-55.18C529.98,-56.26 521.78,-57.38 513.76,-58.46"/>
<polygon fill="#63b8ff" stroke="#63b8ff" points="538.39,-58.65 547.83,-53.84 537.45,-51.72 538.39,-58.65"/>
</a>
</g>
</g>
<!-- Node8&#45;&gt;Node3 -->
<g id="edge8_Node000008_Node000003" class="edge">
<title>Node8&#45;&gt;Node3</title>
<g id="a_edge8_Node000008_Node000003"><a xlink:title=" ">
<path fill="none" stroke="#63b8ff" d="M416.38,-52.27C391.32,-42.07 358.3,-28.63 336.08,-19.58"/>
<polygon fill="#63b8ff" stroke="#63b8ff" points="414.93,-55.47 425.52,-56 417.57,-48.98 414.93,-55.47"/>
</a>
</g>
</g>
</g>
</svg>
