<?xml version="1.0" encoding="UTF-8" standalone="no"?>
<!DOCTYPE svg PUBLIC "-//W3C//DTD SVG 1.1//EN"
 "http://www.w3.org/Graphics/SVG/1.1/DTD/svg11.dtd">
<!-- Generated by graphviz version 14.0.0 (20250921.2048)
 -->
<!-- Title: parser.h Pages: 1 -->
<svg width="156pt" height="193pt"
 viewBox="0.00 0.00 156.00 193.00" xmlns="http://www.w3.org/2000/svg" xmlns:xlink="http://www.w3.org/1999/xlink">
<g id="graph0" class="graph" transform="scale(1 1) rotate(0) translate(4 189)">
<title>parser.h</title>
<!-- Node1 -->
<g id="Node000001" class="node">
<title>Node1</title>
<g id="a_Node000001"><a xlink:title=" ">
<polygon fill="#999999" stroke="#666666" points="109.12,-185 58.62,-185 58.62,-165.75 109.12,-165.75 109.12,-185"/>
<text xml:space="preserve" text-anchor="middle" x="83.88" y="-171.5" font-family="Helvetica,sans-Serif" font-size="10.00">parser.h</text>
</a>
</g>
</g>
<!-- Node2 -->
<g id="Node000002" class="node">
<title>Node2</title>
<g id="a_Node000002"><a xlink:href="ast_8h.html" target="_top" xlink:title=" ">
<polygon fill="white" stroke="#666666" points="73.75,-129.75 36,-129.75 36,-110.5 73.75,-110.5 73.75,-129.75"/>
<text xml:space="preserve" text-anchor="middle" x="54.88" y="-116.25" font-family="Helvetica,sans-Serif" font-size="10.00">ast.h</text>
</a>
</g>
</g>
<!-- Node1&#45;&gt;Node2 -->
<g id="edge1_Node000001_Node000002" class="edge">
<title>Node1&#45;&gt;Node2</title>
<g id="a_edge1_Node000001_Node000002"><a xlink:title=" ">
<path fill="none" stroke="#63b8ff" d="M79.09,-165.58C75.33,-158.69 69.97,-148.84 65.24,-140.16"/>
<polygon fill="#63b8ff" stroke="#63b8ff" points="68.35,-138.55 60.49,-131.44 62.2,-141.89 68.35,-138.55"/>
</a>
</g>
</g>
<!-- Node6 -->
<g id="Node000006" class="node">
<title>Node6</title>
<g id="a_Node000006"><a xlink:href="lexer_8h.html" target="_top" xlink:title=" ">
<polygon fill="white" stroke="#666666" points="136.12,-129.75 91.62,-129.75 91.62,-110.5 136.12,-110.5 136.12,-129.75"/>
<text xml:space="preserve" text-anchor="middle" x="113.88" y="-116.25" font-family="Helvetica,sans-Serif" font-size="10.00">lexer.h</text>
</a>
</g>
</g>
<!-- Node1&#45;&gt;Node6 -->
<g id="edge7_Node000001_Node000006" class="edge">
<title>Node1&#45;&gt;Node6</title>
<g id="a_edge7_Node000001_Node000006"><a xlink:title=" ">
<path fill="none" stroke="#63b8ff" d="M88.83,-165.58C92.76,-158.61 98.39,-148.62 103.31,-139.87"/>
<polygon fill="#63b8ff" stroke="#63b8ff" points="106.21,-141.86 108.07,-131.43 100.11,-138.42 106.21,-141.86"/>
</a>
</g>
</g>
<!-- Node3 -->
<g id="Node000003" class="node">
<title>Node3</title>
<g id="a_Node000003"><a xlink:title=" ">
<polygon fill="#e0e0e0" stroke="#999999" points="55.75,-19.25 0,-19.25 0,0 55.75,0 55.75,-19.25"/>
<text xml:space="preserve" text-anchor="middle" x="27.88" y="-5.75" font-family="Helvetica,sans-Serif" font-size="10.00">stdbool.h</text>
</a>
</g>
</g>
<!-- Node2&#45;&gt;Node3 -->
<g id="edge2_Node000002_Node000003" class="edge">
<title>Node2&#45;&gt;Node3</title>
<g id="a_edge2_Node000002_Node000003"><a xlink:title=" ">
<path fill="none" stroke="#63b8ff" d="M51.81,-110.31C48.78,-101.37 44.12,-87.08 40.88,-74.5 37.1,-59.87 33.73,-43.13 31.36,-30.46"/>
<polygon fill="#63b8ff" stroke="#63b8ff" points="34.85,-30.08 29.63,-20.86 27.96,-31.32 34.85,-30.08"/>
</a>
</g>
</g>
<!-- Node4 -->
<g id="Node000004" class="node">
<title>Node4</title>
<g id="a_Node000004"><a xlink:title=" ">
<polygon fill="#e0e0e0" stroke="#999999" points="135.5,-19.25 84.25,-19.25 84.25,0 135.5,0 135.5,-19.25"/>
<text xml:space="preserve" text-anchor="middle" x="109.88" y="-5.75" font-family="Helvetica,sans-Serif" font-size="10.00">stddef.h</text>
</a>
</g>
</g>
<!-- Node2&#45;&gt;Node4 -->
<g id="edge3_Node000002_Node000004" class="edge">
<title>Node2&#45;&gt;Node4</title>
<g id="a_edge3_Node000002_Node000004"><a xlink:title=" ">
<path fill="none" stroke="#63b8ff" d="M56.42,-110.03C58.85,-97.24 64.29,-73.48 73.88,-55.25 79.07,-45.37 86.62,-35.58 93.46,-27.71"/>
<polygon fill="#63b8ff" stroke="#63b8ff" points="95.83,-30.31 99.98,-20.56 90.65,-25.59 95.83,-30.31"/>
</a>
</g>
</g>
<!-- Node5 -->
<g id="Node000005" class="node">
<title>Node5</title>
<g id="a_Node000005"><a xlink:href="shell_8h.html" target="_top" xlink:title=" ">
<polygon fill="white" stroke="#666666" points="136.62,-74.5 83.12,-74.5 83.12,-55.25 136.62,-55.25 136.62,-74.5"/>
<text xml:space="preserve" text-anchor="middle" x="109.88" y="-61" font-family="Helvetica,sans-Serif" font-size="10.00">../shell.h</text>
</a>
</g>
</g>
<!-- Node2&#45;&gt;Node5 -->
<g id="edge4_Node000002_Node000005" class="edge">
<title>Node2&#45;&gt;Node5</title>
<g id="a_edge4_Node000002_Node000005"><a xlink:title=" ">
<path fill="none" stroke="#63b8ff" d="M63.96,-110.33C71.71,-102.82 83.09,-91.81 92.57,-82.63"/>
<polygon fill="#63b8ff" stroke="#63b8ff" points="94.76,-85.38 99.51,-75.91 89.89,-80.35 94.76,-85.38"/>
</a>
</g>
</g>
<!-- Node5&#45;&gt;Node3 -->
<g id="edge5_Node000005_Node000003" class="edge">
<title>Node5&#45;&gt;Node3</title>
<g id="a_edge5_Node000005_Node000003"><a xlink:title=" ">
<path fill="none" stroke="#63b8ff" d="M95.96,-54.84C83.71,-46.89 65.62,-35.14 51.16,-25.75"/>
<polygon fill="#63b8ff" stroke="#63b8ff" points="53.42,-23.04 43.12,-20.53 49.6,-28.91 53.42,-23.04"/>
</a>
</g>
</g>
<!-- Node5&#45;&gt;Node4 -->
<g id="edge6_Node000005_Node000004" class="edge">
<title>Node5&#45;&gt;Node4</title>
<g id="a_edge6_Node000005_Node000004"><a xlink:title=" ">
<path fill="none" stroke="#63b8ff" d="M109.88,-55.08C109.88,-48.57 109.88,-39.42 109.88,-31.12"/>
<polygon fill="#63b8ff" stroke="#63b8ff" points="113.38,-31.12 109.88,-21.12 106.38,-31.12 113.38,-31.12"/>
</a>
</g>
</g>
<!-- Node6&#45;&gt;Node4 -->
<g id="edge8_Node000006_Node000004" class="edge">
<title>Node6&#45;&gt;Node4</title>
<g id="a_edge8_Node000006_Node000004"><a xlink:title=" ">
<path fill="none" stroke="#63b8ff" d="M123.43,-110.34C135.29,-98.31 153.14,-75.83 145.88,-55.25 142.25,-45 135.17,-35.37 128.23,-27.7"/>
<polygon fill="#63b8ff" stroke="#63b8ff" points="130.93,-25.45 121.44,-20.75 125.93,-30.35 130.93,-25.45"/>
</a>
</g>
</g>
<!-- Node6&#45;&gt;Node5 -->
<g id="edge9_Node000006_Node000005" class="edge">
<title>Node6&#45;&gt;Node5</title>
<g id="a_edge9_Node000006_Node000005"><a xlink:title=" ">
<path fill="none" stroke="#63b8ff" d="M113.21,-110.33C112.72,-103.74 112.02,-94.46 111.39,-86.07"/>
<polygon fill="#63b8ff" stroke="#63b8ff" points="114.9,-86.08 110.66,-76.37 107.92,-86.6 114.9,-86.08"/>
</a>
</g>
</g>
</g>
</svg>
