<?xml version="1.0" encoding="UTF-8" standalone="no"?>
<!DOCTYPE svg PUBLIC "-//W3C//DTD SVG 1.1//EN"
 "http://www.w3.org/Graphics/SVG/1.1/DTD/svg11.dtd">
<!-- Generated by graphviz version 14.0.0 (20250921.2048)
 -->
<!-- Title: builtin_export Pages: 1 -->
<svg width="347pt" height="64pt"
 viewBox="0.00 0.00 347.00 64.00" xmlns="http://www.w3.org/2000/svg" xmlns:xlink="http://www.w3.org/1999/xlink">
<g id="graph0" class="graph" transform="scale(1 1) rotate(0) translate(4 60.25)">
<title>builtin_export</title>
<!-- Node1 -->
<g id="Node000001" class="node">
<title>Node1</title>
<g id="a_Node000001"><a xlink:title=" ">
<polygon fill="#999999" stroke="#666666" points="73.75,-37.25 0,-37.25 0,-18 73.75,-18 73.75,-37.25"/>
<text xml:space="preserve" text-anchor="middle" x="36.88" y="-23.75" font-family="Helvetica,sans-Serif" font-size="10.00">builtin_export</text>
</a>
</g>
</g>
<!-- Node2 -->
<g id="Node000002" class="node">
<title>Node2</title>
<g id="a_Node000002"><a xlink:href="export_8c.html#a9955adbe87f1c552b5cdd3606e784652" target="_top" xlink:title=" ">
<polygon fill="white" stroke="#666666" points="224.75,-37.25 109.75,-37.25 109.75,-18 224.75,-18 224.75,-37.25"/>
<text xml:space="preserve" text-anchor="middle" x="167.25" y="-23.75" font-family="Helvetica,sans-Serif" font-size="10.00">genshell_builtin_export</text>
</a>
</g>
</g>
<!-- Node1&#45;&gt;Node2 -->
<g id="edge1_Node000001_Node000002" class="edge">
<title>Node1&#45;&gt;Node2</title>
<g id="a_edge1_Node000001_Node000002"><a xlink:title=" ">
<path fill="none" stroke="#63b8ff" d="M73.98,-27.62C81.52,-27.62 89.71,-27.62 97.99,-27.62"/>
<polygon fill="#63b8ff" stroke="#63b8ff" points="97.78,-31.13 107.78,-27.63 97.78,-24.13 97.78,-31.13"/>
</a>
</g>
</g>
<!-- Node3 -->
<g id="Node000003" class="node">
<title>Node3</title>
<g id="a_Node000003"><a xlink:href="export_8c.html#ae9218e18d9959ff9e563224f7a275bad" target="_top" xlink:title=" ">
<polygon fill="white" stroke="#666666" points="339,-56.25 260.75,-56.25 260.75,-37 339,-37 339,-56.25"/>
<text xml:space="preserve" text-anchor="middle" x="299.88" y="-42.75" font-family="Helvetica,sans-Serif" font-size="10.00">is_valid_name</text>
</a>
</g>
</g>
<!-- Node2&#45;&gt;Node3 -->
<g id="edge2_Node000002_Node000003" class="edge">
<title>Node2&#45;&gt;Node3</title>
<g id="a_edge2_Node000002_Node000003"><a xlink:title=" ">
<path fill="none" stroke="#63b8ff" d="M225.16,-35.9C233.2,-37.07 241.41,-38.27 249.3,-39.41"/>
<polygon fill="#63b8ff" stroke="#63b8ff" points="248.66,-42.86 259.06,-40.83 249.67,-35.93 248.66,-42.86"/>
</a>
</g>
</g>
<!-- Node4 -->
<g id="Node000004" class="node">
<title>Node4</title>
<g id="a_Node000004"><a xlink:href="export_8c.html#ab811e3ff3a92d61a545cda94f6631aa3" target="_top" xlink:title=" ">
<polygon fill="white" stroke="#666666" points="336,-19.25 263.75,-19.25 263.75,0 336,0 336,-19.25"/>
<text xml:space="preserve" text-anchor="middle" x="299.88" y="-5.75" font-family="Helvetica,sans-Serif" font-size="10.00">print_exports</text>
</a>
</g>
</g>
<!-- Node2&#45;&gt;Node4 -->
<g id="edge3_Node000002_Node000004" class="edge">
<title>Node2&#45;&gt;Node4</title>
<g id="a_edge3_Node000002_Node000004"><a xlink:title=" ">
<path fill="none" stroke="#63b8ff" d="M225.16,-19.78C234.25,-18.53 243.55,-17.25 252.35,-16.04"/>
<polygon fill="#63b8ff" stroke="#63b8ff" points="252.65,-19.53 262.08,-14.69 251.7,-12.59 252.65,-19.53"/>
</a>
</g>
</g>
</g>
</svg>
