<?xml version="1.0" encoding="UTF-8" standalone="no"?>
<!DOCTYPE svg PUBLIC "-//W3C//DTD SVG 1.1//EN"
 "http://www.w3.org/Graphics/SVG/1.1/DTD/svg11.dtd">
<!-- Generated by graphviz version 14.0.0 (20250921.2048)
 -->
<!-- Title: genshell_builtin_export Pages: 1 -->
<svg width="237pt" height="64pt"
 viewBox="0.00 0.00 237.00 64.00" xmlns="http://www.w3.org/2000/svg" xmlns:xlink="http://www.w3.org/1999/xlink">
<g id="graph0" class="graph" transform="scale(1 1) rotate(0) translate(4 60.25)">
<title>genshell_builtin_export</title>
<!-- Node1 -->
<g id="Node000001" class="node">
<title>Node1</title>
<g id="a_Node000001"><a xlink:title=" ">
<polygon fill="#999999" stroke="#666666" points="115,-37.25 0,-37.25 0,-18 115,-18 115,-37.25"/>
<text xml:space="preserve" text-anchor="middle" x="57.5" y="-23.75" font-family="Helvetica,sans-Serif" font-size="10.00">genshell_builtin_export</text>
</a>
</g>
</g>
<!-- Node2 -->
<g id="Node000002" class="node">
<title>Node2</title>
<g id="a_Node000002"><a xlink:href="export_8c.html#ae9218e18d9959ff9e563224f7a275bad" target="_top" xlink:title=" ">
<polygon fill="white" stroke="#666666" points="229.25,-56.25 151,-56.25 151,-37 229.25,-37 229.25,-56.25"/>
<text xml:space="preserve" text-anchor="middle" x="190.12" y="-42.75" font-family="Helvetica,sans-Serif" font-size="10.00">is_valid_name</text>
</a>
</g>
</g>
<!-- Node1&#45;&gt;Node2 -->
<g id="edge1_Node000001_Node000002" class="edge">
<title>Node1&#45;&gt;Node2</title>
<g id="a_edge1_Node000001_Node000002"><a xlink:title=" ">
<path fill="none" stroke="#63b8ff" d="M115.41,-35.9C123.45,-37.07 131.66,-38.27 139.55,-39.41"/>
<polygon fill="#63b8ff" stroke="#63b8ff" points="138.91,-42.86 149.31,-40.83 139.92,-35.93 138.91,-42.86"/>
</a>
</g>
</g>
<!-- Node3 -->
<g id="Node000003" class="node">
<title>Node3</title>
<g id="a_Node000003"><a xlink:href="export_8c.html#ab811e3ff3a92d61a545cda94f6631aa3" target="_top" xlink:title=" ">
<polygon fill="white" stroke="#666666" points="226.25,-19.25 154,-19.25 154,0 226.25,0 226.25,-19.25"/>
<text xml:space="preserve" text-anchor="middle" x="190.12" y="-5.75" font-family="Helvetica,sans-Serif" font-size="10.00">print_exports</text>
</a>
</g>
</g>
<!-- Node1&#45;&gt;Node3 -->
<g id="edge2_Node000001_Node000003" class="edge">
<title>Node1&#45;&gt;Node3</title>
<g id="a_edge2_Node000001_Node000003"><a xlink:title=" ">
<path fill="none" stroke="#63b8ff" d="M115.41,-19.78C124.5,-18.53 133.8,-17.25 142.6,-16.04"/>
<polygon fill="#63b8ff" stroke="#63b8ff" points="142.9,-19.53 152.33,-14.69 141.95,-12.59 142.9,-19.53"/>
</a>
</g>
</g>
</g>
</svg>
