<?xml version="1.0" encoding="UTF-8" standalone="no"?>
<!DOCTYPE svg PUBLIC "-//W3C//DTD SVG 1.1//EN"
 "http://www.w3.org/Graphics/SVG/1.1/DTD/svg11.dtd">
<!-- Generated by graphviz version 14.0.0 (20250921.2048)
 -->
<!-- Title: registry.c Pages: 1 -->
<svg width="229pt" height="193pt"
 viewBox="0.00 0.00 229.00 193.00" xmlns="http://www.w3.org/2000/svg" xmlns:xlink="http://www.w3.org/1999/xlink">
<g id="graph0" class="graph" transform="scale(1 1) rotate(0) translate(4 189)">
<title>registry.c</title>
<!-- Node1 -->
<g id="Node000001" class="node">
<title>Node1</title>
<g id="a_Node000001"><a xlink:title=" ">
<polygon fill="#999999" stroke="#666666" points="158.38,-185 103.38,-185 103.38,-165.75 158.38,-165.75 158.38,-185"/>
<text xml:space="preserve" text-anchor="middle" x="130.88" y="-171.5" font-family="Helvetica,sans-Serif" font-size="10.00">registry.c</text>
</a>
</g>
</g>
<!-- Node2 -->
<g id="Node000002" class="node">
<title>Node2</title>
<g id="a_Node000002"><a xlink:href="builtin_8h.html" target="_top" xlink:title=" ">
<polygon fill="white" stroke="#666666" points="88.75,-129.75 39,-129.75 39,-110.5 88.75,-110.5 88.75,-129.75"/>
<text xml:space="preserve" text-anchor="middle" x="63.88" y="-116.25" font-family="Helvetica,sans-Serif" font-size="10.00">builtin.h</text>
</a>
</g>
</g>
<!-- Node1&#45;&gt;Node2 -->
<g id="edge1_Node000001_Node000002" class="edge">
<title>Node1&#45;&gt;Node2</title>
<g id="a_edge1_Node000001_Node000002"><a xlink:title=" ">
<path fill="none" stroke="#63b8ff" d="M119.51,-165.34C109.83,-157.65 95.68,-146.4 84.07,-137.18"/>
<polygon fill="#63b8ff" stroke="#63b8ff" points="86.26,-134.45 76.26,-130.97 81.91,-139.93 86.26,-134.45"/>
</a>
</g>
</g>
<!-- Node6 -->
<g id="Node000006" class="node">
<title>Node6</title>
<g id="a_Node000006"><a xlink:title=" ">
<polygon fill="#e0e0e0" stroke="#999999" points="154.62,-129.75 107.12,-129.75 107.12,-110.5 154.62,-110.5 154.62,-129.75"/>
<text xml:space="preserve" text-anchor="middle" x="130.88" y="-116.25" font-family="Helvetica,sans-Serif" font-size="10.00">stdlib.h</text>
</a>
</g>
</g>
<!-- Node1&#45;&gt;Node6 -->
<g id="edge5_Node000001_Node000006" class="edge">
<title>Node1&#45;&gt;Node6</title>
<g id="a_edge5_Node000001_Node000006"><a xlink:title=" ">
<path fill="none" stroke="#63b8ff" d="M130.88,-165.58C130.88,-159.07 130.88,-149.92 130.88,-141.62"/>
<polygon fill="#63b8ff" stroke="#63b8ff" points="134.38,-141.62 130.88,-131.62 127.38,-141.62 134.38,-141.62"/>
</a>
</g>
</g>
<!-- Node7 -->
<g id="Node000007" class="node">
<title>Node7</title>
<g id="a_Node000007"><a xlink:title=" ">
<polygon fill="#e0e0e0" stroke="#999999" points="221,-129.75 172.75,-129.75 172.75,-110.5 221,-110.5 221,-129.75"/>
<text xml:space="preserve" text-anchor="middle" x="196.88" y="-116.25" font-family="Helvetica,sans-Serif" font-size="10.00">string.h</text>
</a>
</g>
</g>
<!-- Node1&#45;&gt;Node7 -->
<g id="edge6_Node000001_Node000007" class="edge">
<title>Node1&#45;&gt;Node7</title>
<g id="a_edge6_Node000001_Node000007"><a xlink:title=" ">
<path fill="none" stroke="#63b8ff" d="M142.07,-165.34C151.61,-157.65 165.55,-146.4 176.98,-137.18"/>
<polygon fill="#63b8ff" stroke="#63b8ff" points="179.08,-139.98 184.67,-130.98 174.69,-134.53 179.08,-139.98"/>
</a>
</g>
</g>
<!-- Node3 -->
<g id="Node000003" class="node">
<title>Node3</title>
<g id="a_Node000003"><a xlink:href="shell_8h.html" target="_top" xlink:title=" ">
<polygon fill="white" stroke="#666666" points="90.62,-74.5 37.12,-74.5 37.12,-55.25 90.62,-55.25 90.62,-74.5"/>
<text xml:space="preserve" text-anchor="middle" x="63.88" y="-61" font-family="Helvetica,sans-Serif" font-size="10.00">../shell.h</text>
</a>
</g>
</g>
<!-- Node2&#45;&gt;Node3 -->
<g id="edge2_Node000002_Node000003" class="edge">
<title>Node2&#45;&gt;Node3</title>
<g id="a_edge2_Node000002_Node000003"><a xlink:title=" ">
<path fill="none" stroke="#63b8ff" d="M63.88,-110.33C63.88,-103.82 63.88,-94.67 63.88,-86.37"/>
<polygon fill="#63b8ff" stroke="#63b8ff" points="67.38,-86.37 63.88,-76.37 60.38,-86.37 67.38,-86.37"/>
</a>
</g>
</g>
<!-- Node4 -->
<g id="Node000004" class="node">
<title>Node4</title>
<g id="a_Node000004"><a xlink:title=" ">
<polygon fill="#e0e0e0" stroke="#999999" points="55.75,-19.25 0,-19.25 0,0 55.75,0 55.75,-19.25"/>
<text xml:space="preserve" text-anchor="middle" x="27.88" y="-5.75" font-family="Helvetica,sans-Serif" font-size="10.00">stdbool.h</text>
</a>
</g>
</g>
<!-- Node3&#45;&gt;Node4 -->
<g id="edge3_Node000003_Node000004" class="edge">
<title>Node3&#45;&gt;Node4</title>
<g id="a_edge3_Node000003_Node000004"><a xlink:title=" ">
<path fill="none" stroke="#63b8ff" d="M57.93,-55.08C53.16,-48.03 46.31,-37.9 40.35,-29.08"/>
<polygon fill="#63b8ff" stroke="#63b8ff" points="43.3,-27.19 34.8,-20.86 37.5,-31.11 43.3,-27.19"/>
</a>
</g>
</g>
<!-- Node5 -->
<g id="Node000005" class="node">
<title>Node5</title>
<g id="a_Node000005"><a xlink:title=" ">
<polygon fill="#e0e0e0" stroke="#999999" points="125.5,-19.25 74.25,-19.25 74.25,0 125.5,0 125.5,-19.25"/>
<text xml:space="preserve" text-anchor="middle" x="99.88" y="-5.75" font-family="Helvetica,sans-Serif" font-size="10.00">stddef.h</text>
</a>
</g>
</g>
<!-- Node3&#45;&gt;Node5 -->
<g id="edge4_Node000003_Node000005" class="edge">
<title>Node3&#45;&gt;Node5</title>
<g id="a_edge4_Node000003_Node000005"><a xlink:title=" ">
<path fill="none" stroke="#63b8ff" d="M69.82,-55.08C74.59,-48.03 81.44,-37.9 87.4,-29.08"/>
<polygon fill="#63b8ff" stroke="#63b8ff" points="90.25,-31.11 92.95,-20.86 84.45,-27.19 90.25,-31.11"/>
</a>
</g>
</g>
</g>
</svg>
