<?xml version="1.0" encoding="UTF-8" standalone="no"?>
<!DOCTYPE svg PUBLIC "-//W3C//DTD SVG 1.1//EN"
 "http://www.w3.org/Graphics/SVG/1.1/DTD/svg11.dtd">
<!-- Generated by graphviz version 14.0.0 (20250921.2048)
 -->
<!-- Title: builtin_umask Pages: 1 -->
<svg width="352pt" height="64pt"
 viewBox="0.00 0.00 352.00 64.00" xmlns="http://www.w3.org/2000/svg" xmlns:xlink="http://www.w3.org/1999/xlink">
<g id="graph0" class="graph" transform="scale(1 1) rotate(0) translate(4 60.25)">
<title>builtin_umask</title>
<!-- Node1 -->
<g id="Node000001" class="node">
<title>Node1</title>
<g id="a_Node000001"><a xlink:title=" ">
<polygon fill="#999999" stroke="#666666" points="76,-37.25 0,-37.25 0,-18 76,-18 76,-37.25"/>
<text xml:space="preserve" text-anchor="middle" x="38" y="-23.75" font-family="Helvetica,sans-Serif" font-size="10.00">builtin_umask</text>
</a>
</g>
</g>
<!-- Node2 -->
<g id="Node000002" class="node">
<title>Node2</title>
<g id="a_Node000002"><a xlink:href="umask_8c.html#a39a1afa29d9fc46e03a9ad821141fcc6" target="_top" xlink:title=" ">
<polygon fill="white" stroke="#666666" points="229.25,-37.25 112,-37.25 112,-18 229.25,-18 229.25,-37.25"/>
<text xml:space="preserve" text-anchor="middle" x="170.62" y="-23.75" font-family="Helvetica,sans-Serif" font-size="10.00">genshell_builtin_umask</text>
</a>
</g>
</g>
<!-- Node1&#45;&gt;Node2 -->
<g id="edge1_Node000001_Node000002" class="edge">
<title>Node1&#45;&gt;Node2</title>
<g id="a_edge1_Node000001_Node000002"><a xlink:title=" ">
<path fill="none" stroke="#63b8ff" d="M76.43,-27.62C84,-27.62 92.18,-27.62 100.45,-27.62"/>
<polygon fill="#63b8ff" stroke="#63b8ff" points="100.2,-31.13 110.2,-27.63 100.2,-24.13 100.2,-31.13"/>
</a>
</g>
</g>
<!-- Node3 -->
<g id="Node000003" class="node">
<title>Node3</title>
<g id="a_Node000003"><a xlink:href="umask_8c.html#ae2fba09ff929a1375093770a22484d6b" target="_top" xlink:title=" ">
<polygon fill="white" stroke="#666666" points="335.25,-56.25 274.25,-56.25 274.25,-37 335.25,-37 335.25,-56.25"/>
<text xml:space="preserve" text-anchor="middle" x="304.75" y="-42.75" font-family="Helvetica,sans-Serif" font-size="10.00">print_octal</text>
</a>
</g>
</g>
<!-- Node2&#45;&gt;Node3 -->
<g id="edge2_Node000002_Node000003" class="edge">
<title>Node2&#45;&gt;Node3</title>
<g id="a_edge2_Node000002_Node000003"><a xlink:title=" ">
<path fill="none" stroke="#63b8ff" d="M229.58,-35.96C240.66,-37.55 252.05,-39.19 262.48,-40.69"/>
<polygon fill="#63b8ff" stroke="#63b8ff" points="261.88,-44.14 272.28,-42.1 262.88,-37.21 261.88,-44.14"/>
</a>
</g>
</g>
<!-- Node4 -->
<g id="Node000004" class="node">
<title>Node4</title>
<g id="a_Node000004"><a xlink:href="umask_8c.html#abccb41a6463c69d3490f2ddae5bf9103" target="_top" xlink:title=" ">
<polygon fill="white" stroke="#666666" points="344.25,-19.25 265.25,-19.25 265.25,0 344.25,0 344.25,-19.25"/>
<text xml:space="preserve" text-anchor="middle" x="304.75" y="-5.75" font-family="Helvetica,sans-Serif" font-size="10.00">print_symbolic</text>
</a>
</g>
</g>
<!-- Node2&#45;&gt;Node4 -->
<g id="edge3_Node000002_Node000004" class="edge">
<title>Node2&#45;&gt;Node4</title>
<g id="a_edge3_Node000002_Node000004"><a xlink:title=" ">
<path fill="none" stroke="#63b8ff" d="M229.58,-19.73C237.59,-18.64 245.76,-17.52 253.62,-16.45"/>
<polygon fill="#63b8ff" stroke="#63b8ff" points="253.91,-19.95 263.34,-15.13 252.96,-13.01 253.91,-19.95"/>
</a>
</g>
</g>
</g>
</svg>
