<?xml version="1.0" encoding="UTF-8" standalone="no"?>
<!DOCTYPE svg PUBLIC "-//W3C//DTD SVG 1.1//EN"
 "http://www.w3.org/Graphics/SVG/1.1/DTD/svg11.dtd">
<!-- Generated by graphviz version 14.0.0 (20250921.2048)
 -->
<!-- Title: shell.h Pages: 1 -->
<svg width="779pt" height="193pt"
 viewBox="0.00 0.00 779.00 193.00" xmlns="http://www.w3.org/2000/svg" xmlns:xlink="http://www.w3.org/1999/xlink">
<g id="graph0" class="graph" transform="scale(1 1) rotate(0) translate(4 189)">
<title>shell.h</title>
<!-- Node1 -->
<g id="Node000001" class="node">
<title>Node1</title>
<g id="a_Node000001"><a xlink:title=" ">
<polygon fill="#999999" stroke="#666666" points="185.5,-185 141,-185 141,-165.75 185.5,-165.75 185.5,-185"/>
<text xml:space="preserve" text-anchor="middle" x="163.25" y="-171.5" font-family="Helvetica,sans-Serif" font-size="10.00">shell.h</text>
</a>
</g>
</g>
<!-- Node2 -->
<g id="Node000002" class="node">
<title>Node2</title>
<g id="a_Node000002"><a xlink:href="ast_8h.html" target="_top" xlink:title=" ">
<polygon fill="white" stroke="#666666" points="159.12,-129.75 121.38,-129.75 121.38,-110.5 159.12,-110.5 159.12,-129.75"/>
<text xml:space="preserve" text-anchor="middle" x="140.25" y="-116.25" font-family="Helvetica,sans-Serif" font-size="10.00">ast.h</text>
</a>
</g>
</g>
<!-- Node1&#45;&gt;Node2 -->
<g id="edge1_Node000001_Node000002" class="edge">
<title>Node1&#45;&gt;Node2</title>
<g id="a_edge1_Node000001_Node000002"><a xlink:title=" ">
<path fill="none" stroke="#63b8ff" d="M155.01,-155.29C151.3,-146.71 147.1,-136.98 144.13,-130.11"/>
<polygon fill="#63b8ff" stroke="#63b8ff" points="151.67,-156.4 158.85,-164.19 158.1,-153.62 151.67,-156.4"/>
</a>
</g>
</g>
<!-- Node3 -->
<g id="Node000003" class="node">
<title>Node3</title>
<g id="a_Node000003"><a xlink:href="executor_8h.html" target="_top" xlink:title=" ">
<polygon fill="white" stroke="#666666" points="217.75,-74.5 156.75,-74.5 156.75,-55.25 217.75,-55.25 217.75,-74.5"/>
<text xml:space="preserve" text-anchor="middle" x="187.25" y="-61" font-family="Helvetica,sans-Serif" font-size="10.00">executor.h</text>
</a>
</g>
</g>
<!-- Node1&#45;&gt;Node3 -->
<g id="edge18_Node000001_Node000003" class="edge">
<title>Node1&#45;&gt;Node3</title>
<g id="a_edge18_Node000001_Node000003"><a xlink:title=" ">
<path fill="none" stroke="#63b8ff" d="M167.68,-154.35C172.92,-130.65 181.42,-92.22 185.26,-74.88"/>
<polygon fill="#63b8ff" stroke="#63b8ff" points="164.28,-153.5 165.54,-164.02 171.12,-155.01 164.28,-153.5"/>
</a>
</g>
</g>
<!-- Node5 -->
<g id="Node000005" class="node">
<title>Node5</title>
<g id="a_Node000005"><a xlink:href="shell_8c.html" target="_top" xlink:title=" ">
<polygon fill="white" stroke="#666666" points="44.5,-19.25 0,-19.25 0,0 44.5,0 44.5,-19.25"/>
<text xml:space="preserve" text-anchor="middle" x="22.25" y="-5.75" font-family="Helvetica,sans-Serif" font-size="10.00">shell.c</text>
</a>
</g>
</g>
<!-- Node1&#45;&gt;Node5 -->
<g id="edge24_Node000001_Node000005" class="edge">
<title>Node1&#45;&gt;Node5</title>
<g id="a_edge24_Node000001_Node000005"><a xlink:title=" ">
<path fill="none" stroke="#63b8ff" d="M129.63,-170.36C100.9,-165.32 60.09,-154.17 33.25,-129.75 7.42,-106.24 2.96,-89.77 8.25,-55.25 10.19,-42.57 15.07,-28.54 18.52,-19.66"/>
<polygon fill="#63b8ff" stroke="#63b8ff" points="128.83,-173.77 139.25,-171.87 129.91,-166.86 128.83,-173.77"/>
</a>
</g>
</g>
<!-- Node8 -->
<g id="Node000008" class="node">
<title>Node8</title>
<g id="a_Node000008"><a xlink:href="builtin_8h.html" target="_top" xlink:title=" ">
<polygon fill="white" stroke="#666666" points="489.12,-129.75 439.38,-129.75 439.38,-110.5 489.12,-110.5 489.12,-129.75"/>
<text xml:space="preserve" text-anchor="middle" x="464.25" y="-116.25" font-family="Helvetica,sans-Serif" font-size="10.00">builtin.h</text>
</a>
</g>
</g>
<!-- Node1&#45;&gt;Node8 -->
<g id="edge8_Node000001_Node000008" class="edge">
<title>Node1&#45;&gt;Node8</title>
<g id="a_edge8_Node000001_Node000008"><a xlink:title=" ">
<path fill="none" stroke="#63b8ff" d="M197.17,-168.37C258.25,-157.57 385.39,-135.08 439.26,-125.55"/>
<polygon fill="#63b8ff" stroke="#63b8ff" points="196.6,-164.92 187.36,-170.11 197.82,-171.81 196.6,-164.92"/>
</a>
</g>
</g>
<!-- Node17 -->
<g id="Node000017" class="node">
<title>Node17</title>
<g id="a_Node000017"><a xlink:href="lexer_8h.html" target="_top" xlink:title=" ">
<polygon fill="white" stroke="#666666" points="86.5,-129.75 42,-129.75 42,-110.5 86.5,-110.5 86.5,-129.75"/>
<text xml:space="preserve" text-anchor="middle" x="64.25" y="-116.25" font-family="Helvetica,sans-Serif" font-size="10.00">lexer.h</text>
</a>
</g>
</g>
<!-- Node1&#45;&gt;Node17 -->
<g id="edge19_Node000001_Node000017" class="edge">
<title>Node1&#45;&gt;Node17</title>
<g id="a_edge19_Node000001_Node000017"><a xlink:title=" ">
<path fill="none" stroke="#63b8ff" d="M136.73,-160.11C119.06,-150.61 96.37,-138.4 81.13,-130.2"/>
<polygon fill="#63b8ff" stroke="#63b8ff" points="134.66,-162.97 145.12,-164.62 137.97,-156.81 134.66,-162.97"/>
</a>
</g>
</g>
<!-- Node19 -->
<g id="Node000019" class="node">
<title>Node19</title>
<g id="a_Node000019"><a xlink:href="main_8c.html" target="_top" xlink:title=" ">
<polygon fill="white" stroke="#666666" points="552.88,-129.75 507.62,-129.75 507.62,-110.5 552.88,-110.5 552.88,-129.75"/>
<text xml:space="preserve" text-anchor="middle" x="530.25" y="-116.25" font-family="Helvetica,sans-Serif" font-size="10.00">main.c</text>
</a>
</g>
</g>
<!-- Node1&#45;&gt;Node19 -->
<g id="edge23_Node000001_Node000019" class="edge">
<title>Node1&#45;&gt;Node19</title>
<g id="a_edge23_Node000001_Node000019"><a xlink:title=" ">
<path fill="none" stroke="#63b8ff" d="M196.92,-171.36C257.57,-165.61 389.04,-151.64 498.25,-129.75 501.18,-129.16 504.25,-128.46 507.26,-127.71"/>
<polygon fill="#63b8ff" stroke="#63b8ff" points="196.9,-167.85 187.27,-172.26 197.55,-174.82 196.9,-167.85"/>
</a>
</g>
</g>
<!-- Node2&#45;&gt;Node3 -->
<g id="edge2_Node000002_Node000003" class="edge">
<title>Node2&#45;&gt;Node3</title>
<g id="a_edge2_Node000002_Node000003"><a xlink:title=" ">
<path fill="none" stroke="#63b8ff" d="M155.58,-101.76C163.5,-92.78 172.85,-82.2 179.32,-74.86"/>
<polygon fill="#63b8ff" stroke="#63b8ff" points="153.01,-99.38 149.01,-109.2 158.25,-104.02 153.01,-99.38"/>
</a>
</g>
</g>
<!-- Node6 -->
<g id="Node000006" class="node">
<title>Node6</title>
<g id="a_Node000006"><a xlink:href="parser_8h.html" target="_top" xlink:title=" ">
<polygon fill="white" stroke="#666666" points="138.5,-74.5 88,-74.5 88,-55.25 138.5,-55.25 138.5,-74.5"/>
<text xml:space="preserve" text-anchor="middle" x="113.25" y="-61" font-family="Helvetica,sans-Serif" font-size="10.00">parser.h</text>
</a>
</g>
</g>
<!-- Node2&#45;&gt;Node6 -->
<g id="edge5_Node000002_Node000006" class="edge">
<title>Node2&#45;&gt;Node6</title>
<g id="a_edge5_Node000002_Node000006"><a xlink:title=" ">
<path fill="none" stroke="#63b8ff" d="M130.72,-100.33C126.33,-91.67 121.33,-81.81 117.81,-74.86"/>
<polygon fill="#63b8ff" stroke="#63b8ff" points="127.46,-101.65 135.11,-108.98 133.71,-98.48 127.46,-101.65"/>
</a>
</g>
</g>
<!-- Node4 -->
<g id="Node000004" class="node">
<title>Node4</title>
<g id="a_Node000004"><a xlink:href="executor_8c.html" target="_top" xlink:title=" ">
<polygon fill="white" stroke="#666666" points="474.75,-19.25 413.75,-19.25 413.75,0 474.75,0 474.75,-19.25"/>
<text xml:space="preserve" text-anchor="middle" x="444.25" y="-5.75" font-family="Helvetica,sans-Serif" font-size="10.00">executor.c</text>
</a>
</g>
</g>
<!-- Node3&#45;&gt;Node4 -->
<g id="edge3_Node000003_Node000004" class="edge">
<title>Node3&#45;&gt;Node4</title>
<g id="a_edge3_Node000003_Node000004"><a xlink:title=" ">
<path fill="none" stroke="#63b8ff" d="M228.91,-54.92C301,-39.77 373.27,-25.02 413.33,-16.89"/>
<polygon fill="#63b8ff" stroke="#63b8ff" points="228.36,-51.46 219.3,-56.94 229.81,-58.31 228.36,-51.46"/>
</a>
</g>
</g>
<!-- Node3&#45;&gt;Node5 -->
<g id="edge4_Node000003_Node000005" class="edge">
<title>Node3&#45;&gt;Node5</title>
<g id="a_edge4_Node000003_Node000005"><a xlink:title=" ">
<path fill="none" stroke="#63b8ff" d="M148.43,-51.35C116.18,-40.94 71.43,-26.5 44.8,-17.9"/>
<polygon fill="#63b8ff" stroke="#63b8ff" points="147.23,-54.64 157.82,-54.38 149.38,-47.97 147.23,-54.64"/>
</a>
</g>
</g>
<!-- Node6&#45;&gt;Node5 -->
<g id="edge7_Node000006_Node000005" class="edge">
<title>Node6&#45;&gt;Node5</title>
<g id="a_edge7_Node000006_Node000005"><a xlink:title=" ">
<path fill="none" stroke="#63b8ff" d="M87.96,-49.07C71.85,-39.65 51.51,-27.75 37.76,-19.7"/>
<polygon fill="#63b8ff" stroke="#63b8ff" points="86.11,-52.05 96.51,-54.08 89.64,-46.01 86.11,-52.05"/>
</a>
</g>
</g>
<!-- Node7 -->
<g id="Node000007" class="node">
<title>Node7</title>
<g id="a_Node000007"><a xlink:href="parser_8c.html" target="_top" xlink:title=" ">
<polygon fill="white" stroke="#666666" points="138.5,-19.25 88,-19.25 88,0 138.5,0 138.5,-19.25"/>
<text xml:space="preserve" text-anchor="middle" x="113.25" y="-5.75" font-family="Helvetica,sans-Serif" font-size="10.00">parser.c</text>
</a>
</g>
</g>
<!-- Node6&#45;&gt;Node7 -->
<g id="edge6_Node000006_Node000007" class="edge">
<title>Node6&#45;&gt;Node7</title>
<g id="a_edge6_Node000006_Node000007"><a xlink:title=" ">
<path fill="none" stroke="#63b8ff" d="M113.25,-43.63C113.25,-35.34 113.25,-26.17 113.25,-19.61"/>
<polygon fill="#63b8ff" stroke="#63b8ff" points="109.75,-43.57 113.25,-53.57 116.75,-43.57 109.75,-43.57"/>
</a>
</g>
</g>
<!-- Node8&#45;&gt;Node4 -->
<g id="edge11_Node000008_Node000004" class="edge">
<title>Node8&#45;&gt;Node4</title>
<g id="a_edge11_Node000008_Node000004"><a xlink:title=" ">
<path fill="none" stroke="#63b8ff" d="M500.53,-110.35C593.37,-93.93 734.65,-118.39 682.25,-55.25 656.27,-23.95 533.59,-14.47 475.24,-11.71"/>
<polygon fill="#63b8ff" stroke="#63b8ff" points="500.07,-106.87 490.95,-112.27 501.44,-113.74 500.07,-106.87"/>
</a>
</g>
</g>
<!-- Node9 -->
<g id="Node000009" class="node">
<title>Node9</title>
<g id="a_Node000009"><a xlink:href="cd_8c.html" target="_top" xlink:title=" ">
<polygon fill="white" stroke="#666666" points="481.62,-74.5 446.88,-74.5 446.88,-55.25 481.62,-55.25 481.62,-74.5"/>
<text xml:space="preserve" text-anchor="middle" x="464.25" y="-61" font-family="Helvetica,sans-Serif" font-size="10.00">cd.c</text>
</a>
</g>
</g>
<!-- Node8&#45;&gt;Node9 -->
<g id="edge9_Node000008_Node000009" class="edge">
<title>Node8&#45;&gt;Node9</title>
<g id="a_edge9_Node000008_Node000009"><a xlink:title=" ">
<path fill="none" stroke="#63b8ff" d="M464.25,-98.88C464.25,-90.59 464.25,-81.42 464.25,-74.86"/>
<polygon fill="#63b8ff" stroke="#63b8ff" points="460.75,-98.82 464.25,-108.82 467.75,-98.82 460.75,-98.82"/>
</a>
</g>
</g>
<!-- Node10 -->
<g id="Node000010" class="node">
<title>Node10</title>
<g id="a_Node000010"><a xlink:href="echo_8c.html" target="_top" xlink:title=" ">
<polygon fill="white" stroke="#666666" points="544.88,-74.5 499.62,-74.5 499.62,-55.25 544.88,-55.25 544.88,-74.5"/>
<text xml:space="preserve" text-anchor="middle" x="522.25" y="-61" font-family="Helvetica,sans-Serif" font-size="10.00">echo.c</text>
</a>
</g>
</g>
<!-- Node8&#45;&gt;Node10 -->
<g id="edge10_Node000008_Node000010" class="edge">
<title>Node8&#45;&gt;Node10</title>
<g id="a_edge10_Node000008_Node000010"><a xlink:title=" ">
<path fill="none" stroke="#63b8ff" d="M482.51,-102.36C492.47,-93.22 504.39,-82.28 512.56,-74.77"/>
<polygon fill="#63b8ff" stroke="#63b8ff" points="480.2,-99.73 475.2,-109.07 484.94,-104.88 480.2,-99.73"/>
</a>
</g>
</g>
<!-- Node11 -->
<g id="Node000011" class="node">
<title>Node11</title>
<g id="a_Node000011"><a xlink:href="exit_8c.html" target="_top" xlink:title=" ">
<polygon fill="white" stroke="#666666" points="603.25,-74.5 563.25,-74.5 563.25,-55.25 603.25,-55.25 603.25,-74.5"/>
<text xml:space="preserve" text-anchor="middle" x="583.25" y="-61" font-family="Helvetica,sans-Serif" font-size="10.00">exit.c</text>
</a>
</g>
</g>
<!-- Node8&#45;&gt;Node11 -->
<g id="edge12_Node000008_Node000011" class="edge">
<title>Node8&#45;&gt;Node11</title>
<g id="a_edge12_Node000008_Node000011"><a xlink:title=" ">
<path fill="none" stroke="#63b8ff" d="M494.65,-105.52C516.09,-95.93 544.21,-83.34 562.96,-74.95"/>
<polygon fill="#63b8ff" stroke="#63b8ff" points="493.52,-102.19 485.82,-109.47 496.38,-108.58 493.52,-102.19"/>
</a>
</g>
</g>
<!-- Node12 -->
<g id="Node000012" class="node">
<title>Node12</title>
<g id="a_Node000012"><a xlink:href="export_8c.html" target="_top" xlink:title=" ">
<polygon fill="white" stroke="#666666" points="672.88,-74.5 621.62,-74.5 621.62,-55.25 672.88,-55.25 672.88,-74.5"/>
<text xml:space="preserve" text-anchor="middle" x="647.25" y="-61" font-family="Helvetica,sans-Serif" font-size="10.00">export.c</text>
</a>
</g>
</g>
<!-- Node8&#45;&gt;Node12 -->
<g id="edge13_Node000008_Node000012" class="edge">
<title>Node8&#45;&gt;Node12</title>
<g id="a_edge13_Node000008_Node000012"><a xlink:title=" ">
<path fill="none" stroke="#63b8ff" d="M500.2,-108.66C535.86,-98.29 589.63,-82.64 621.31,-73.42"/>
<polygon fill="#63b8ff" stroke="#63b8ff" points="499.39,-105.25 490.76,-111.41 501.34,-111.98 499.39,-105.25"/>
</a>
</g>
</g>
<!-- Node13 -->
<g id="Node000013" class="node">
<title>Node13</title>
<g id="a_Node000013"><a xlink:href="pwd_8c.html" target="_top" xlink:title=" ">
<polygon fill="white" stroke="#666666" points="771.38,-74.5 729.12,-74.5 729.12,-55.25 771.38,-55.25 771.38,-74.5"/>
<text xml:space="preserve" text-anchor="middle" x="750.25" y="-61" font-family="Helvetica,sans-Serif" font-size="10.00">pwd.c</text>
</a>
</g>
</g>
<!-- Node8&#45;&gt;Node13 -->
<g id="edge14_Node000008_Node000013" class="edge">
<title>Node8&#45;&gt;Node13</title>
<g id="a_edge14_Node000008_Node000013"><a xlink:title=" ">
<path fill="none" stroke="#63b8ff" d="M500.47,-110.19C595.88,-90.7 622.95,-93.5 715.25,-74.5 719.66,-73.59 724.36,-72.51 728.84,-71.43"/>
<polygon fill="#63b8ff" stroke="#63b8ff" points="500.01,-106.72 490.93,-112.17 501.43,-113.57 500.01,-106.72"/>
</a>
</g>
</g>
<!-- Node14 -->
<g id="Node000014" class="node">
<title>Node14</title>
<g id="a_Node000014"><a xlink:href="registry_8c.html" target="_top" xlink:title=" ">
<polygon fill="white" stroke="#666666" points="290.75,-74.5 235.75,-74.5 235.75,-55.25 290.75,-55.25 290.75,-74.5"/>
<text xml:space="preserve" text-anchor="middle" x="263.25" y="-61" font-family="Helvetica,sans-Serif" font-size="10.00">registry.c</text>
</a>
</g>
</g>
<!-- Node8&#45;&gt;Node14 -->
<g id="edge15_Node000008_Node000014" class="edge">
<title>Node8&#45;&gt;Node14</title>
<g id="a_edge15_Node000008_Node000014"><a xlink:title=" ">
<path fill="none" stroke="#63b8ff" d="M428.28,-109.6C389.02,-99.19 326.98,-82.76 291.2,-73.28"/>
<polygon fill="#63b8ff" stroke="#63b8ff" points="427.17,-112.92 437.74,-112.1 428.97,-106.16 427.17,-112.92"/>
</a>
</g>
</g>
<!-- Node15 -->
<g id="Node000015" class="node">
<title>Node15</title>
<g id="a_Node000015"><a xlink:href="umask_8c.html" target="_top" xlink:title=" ">
<polygon fill="white" stroke="#666666" points="362,-74.5 308.5,-74.5 308.5,-55.25 362,-55.25 362,-74.5"/>
<text xml:space="preserve" text-anchor="middle" x="335.25" y="-61" font-family="Helvetica,sans-Serif" font-size="10.00">umask.c</text>
</a>
</g>
</g>
<!-- Node8&#45;&gt;Node15 -->
<g id="edge16_Node000008_Node000015" class="edge">
<title>Node8&#45;&gt;Node15</title>
<g id="a_edge16_Node000008_Node000015"><a xlink:title=" ">
<path fill="none" stroke="#63b8ff" d="M431.93,-105.78C408.61,-96.16 377.75,-83.42 357.24,-74.95"/>
<polygon fill="#63b8ff" stroke="#63b8ff" points="430.39,-108.93 440.97,-109.51 433.06,-102.46 430.39,-108.93"/>
</a>
</g>
</g>
<!-- Node16 -->
<g id="Node000016" class="node">
<title>Node16</title>
<g id="a_Node000016"><a xlink:href="unset_8c.html" target="_top" xlink:title=" ">
<polygon fill="white" stroke="#666666" points="428.38,-74.5 380.12,-74.5 380.12,-55.25 428.38,-55.25 428.38,-74.5"/>
<text xml:space="preserve" text-anchor="middle" x="404.25" y="-61" font-family="Helvetica,sans-Serif" font-size="10.00">unset.c</text>
</a>
</g>
</g>
<!-- Node8&#45;&gt;Node16 -->
<g id="edge17_Node000008_Node000016" class="edge">
<title>Node8&#45;&gt;Node16</title>
<g id="a_edge17_Node000008_Node000016"><a xlink:title=" ">
<path fill="none" stroke="#63b8ff" d="M445.67,-102.64C435.31,-93.44 422.82,-82.35 414.28,-74.77"/>
<polygon fill="#63b8ff" stroke="#63b8ff" points="443.14,-105.07 452.94,-109.09 447.78,-99.83 443.14,-105.07"/>
</a>
</g>
</g>
<!-- Node17&#45;&gt;Node5 -->
<g id="edge22_Node000017_Node000005" class="edge">
<title>Node17&#45;&gt;Node5</title>
<g id="a_edge22_Node000017_Node000005"><a xlink:title=" ">
<path fill="none" stroke="#63b8ff" d="M40.35,-103.54C30.99,-96.01 21.29,-86.08 16.25,-74.5 8.33,-56.32 14.32,-32.54 18.71,-19.74"/>
<polygon fill="#63b8ff" stroke="#63b8ff" points="38.08,-106.21 48.2,-109.34 42.24,-100.58 38.08,-106.21"/>
</a>
</g>
</g>
<!-- Node17&#45;&gt;Node6 -->
<g id="edge21_Node000017_Node000006" class="edge">
<title>Node17&#45;&gt;Node6</title>
<g id="a_edge21_Node000017_Node000006"><a xlink:title=" ">
<path fill="none" stroke="#63b8ff" d="M79.97,-102.04C88.29,-93 98.16,-82.27 104.98,-74.86"/>
<polygon fill="#63b8ff" stroke="#63b8ff" points="77.56,-99.49 73.37,-109.22 82.71,-104.23 77.56,-99.49"/>
</a>
</g>
</g>
<!-- Node18 -->
<g id="Node000018" class="node">
<title>Node18</title>
<g id="a_Node000018"><a xlink:href="lexer_8c.html" target="_top" xlink:title=" ">
<polygon fill="white" stroke="#666666" points="69.5,-74.5 25,-74.5 25,-55.25 69.5,-55.25 69.5,-74.5"/>
<text xml:space="preserve" text-anchor="middle" x="47.25" y="-61" font-family="Helvetica,sans-Serif" font-size="10.00">lexer.c</text>
</a>
</g>
</g>
<!-- Node17&#45;&gt;Node18 -->
<g id="edge20_Node000017_Node000018" class="edge">
<title>Node17&#45;&gt;Node18</title>
<g id="a_edge20_Node000017_Node000018"><a xlink:title=" ">
<path fill="none" stroke="#63b8ff" d="M57.97,-99.46C55.28,-91.02 52.26,-81.58 50.12,-74.86"/>
<polygon fill="#63b8ff" stroke="#63b8ff" points="54.61,-100.43 60.98,-108.89 61.28,-98.3 54.61,-100.43"/>
</a>
</g>
</g>
</g>
</svg>
