<?xml version="1.0" encoding="UTF-8" standalone="no"?>
<!DOCTYPE svg PUBLIC "-//W3C//DTD SVG 1.1//EN"
 "http://www.w3.org/Graphics/SVG/1.1/DTD/svg11.dtd">
<!-- Generated by graphviz version 14.0.0 (20250921.2048)
 -->
<!-- Title: shell.c Pages: 1 -->
<svg width="666pt" height="248pt"
 viewBox="0.00 0.00 666.00 248.00" xmlns="http://www.w3.org/2000/svg" xmlns:xlink="http://www.w3.org/1999/xlink">
<g id="graph0" class="graph" transform="scale(1 1) rotate(0) translate(4 244.25)">
<title>shell.c</title>
<!-- Node1 -->
<g id="Node000001" class="node">
<title>Node1</title>
<g id="a_Node000001"><a xlink:title=" ">
<polygon fill="#999999" stroke="#666666" points="325.56,-240.25 281.06,-240.25 281.06,-221 325.56,-221 325.56,-240.25"/>
<text xml:space="preserve" text-anchor="middle" x="303.31" y="-226.75" font-family="Helvetica,sans-Serif" font-size="10.00">shell.c</text>
</a>
</g>
</g>
<!-- Node2 -->
<g id="Node000002" class="node">
<title>Node2</title>
<g id="a_Node000002"><a xlink:href="shell_8h.html" target="_top" xlink:title=" ">
<polygon fill="white" stroke="#666666" points="80.56,-74.5 36.06,-74.5 36.06,-55.25 80.56,-55.25 80.56,-74.5"/>
<text xml:space="preserve" text-anchor="middle" x="58.31" y="-61" font-family="Helvetica,sans-Serif" font-size="10.00">shell.h</text>
</a>
</g>
</g>
<!-- Node1&#45;&gt;Node2 -->
<g id="edge1_Node000001_Node000002" class="edge">
<title>Node1&#45;&gt;Node2</title>
<g id="a_edge1_Node000001_Node000002"><a xlink:title=" ">
<path fill="none" stroke="#63b8ff" d="M280.83,-229.48C221.72,-228.58 64.24,-222.62 32.31,-185 7.98,-156.33 29.93,-110.1 45.65,-84.47"/>
<polygon fill="#63b8ff" stroke="#63b8ff" points="48.55,-86.44 51.03,-76.14 42.67,-82.64 48.55,-86.44"/>
</a>
</g>
</g>
<!-- Node3 -->
<g id="Node000003" class="node">
<title>Node3</title>
<g id="a_Node000003"><a xlink:title=" ">
<polygon fill="#e0e0e0" stroke="#999999" points="86.18,-19.25 30.43,-19.25 30.43,0 86.18,0 86.18,-19.25"/>
<text xml:space="preserve" text-anchor="middle" x="58.31" y="-5.75" font-family="Helvetica,sans-Serif" font-size="10.00">stdbool.h</text>
</a>
</g>
</g>
<!-- Node1&#45;&gt;Node3 -->
<g id="edge6_Node000001_Node000003" class="edge">
<title>Node1&#45;&gt;Node3</title>
<g id="a_edge6_Node000001_Node000003"><a xlink:title=" ">
<path fill="none" stroke="#63b8ff" d="M280.66,-229.67C219.44,-229.25 53.04,-224.45 19.31,-185 -18.24,-141.09 7.08,-109.37 27.31,-55.25 30.93,-45.56 37.14,-35.98 43.06,-28.2"/>
<polygon fill="#63b8ff" stroke="#63b8ff" points="45.64,-30.57 49.22,-20.6 40.2,-26.16 45.64,-30.57"/>
</a>
</g>
</g>
<!-- Node5 -->
<g id="Node000005" class="node">
<title>Node5</title>
<g id="a_Node000005"><a xlink:title=" ">
<polygon fill="#e0e0e0" stroke="#999999" points="326.31,-185 280.31,-185 280.31,-165.75 326.31,-165.75 326.31,-185"/>
<text xml:space="preserve" text-anchor="middle" x="303.31" y="-171.5" font-family="Helvetica,sans-Serif" font-size="10.00">errno.h</text>
</a>
</g>
</g>
<!-- Node1&#45;&gt;Node5 -->
<g id="edge4_Node000001_Node000005" class="edge">
<title>Node1&#45;&gt;Node5</title>
<g id="a_edge4_Node000001_Node000005"><a xlink:title=" ">
<path fill="none" stroke="#63b8ff" d="M303.31,-220.83C303.31,-214.32 303.31,-205.17 303.31,-196.87"/>
<polygon fill="#63b8ff" stroke="#63b8ff" points="306.81,-196.87 303.31,-186.87 299.81,-196.87 306.81,-196.87"/>
</a>
</g>
</g>
<!-- Node6 -->
<g id="Node000006" class="node">
<title>Node6</title>
<g id="a_Node000006"><a xlink:title=" ">
<polygon fill="#e0e0e0" stroke="#999999" points="394.18,-185 344.43,-185 344.43,-165.75 394.18,-165.75 394.18,-185"/>
<text xml:space="preserve" text-anchor="middle" x="369.31" y="-171.5" font-family="Helvetica,sans-Serif" font-size="10.00">signal.h</text>
</a>
</g>
</g>
<!-- Node1&#45;&gt;Node6 -->
<g id="edge5_Node000001_Node000006" class="edge">
<title>Node1&#45;&gt;Node6</title>
<g id="a_edge5_Node000001_Node000006"><a xlink:title=" ">
<path fill="none" stroke="#63b8ff" d="M314.5,-220.59C324.04,-212.9 337.98,-201.65 349.42,-192.43"/>
<polygon fill="#63b8ff" stroke="#63b8ff" points="351.52,-195.23 357.1,-186.23 347.12,-189.78 351.52,-195.23"/>
</a>
</g>
</g>
<!-- Node7 -->
<g id="Node000007" class="node">
<title>Node7</title>
<g id="a_Node000007"><a xlink:title=" ">
<polygon fill="#e0e0e0" stroke="#999999" points="457.93,-185 412.68,-185 412.68,-165.75 457.93,-165.75 457.93,-185"/>
<text xml:space="preserve" text-anchor="middle" x="435.31" y="-171.5" font-family="Helvetica,sans-Serif" font-size="10.00">stdio.h</text>
</a>
</g>
</g>
<!-- Node1&#45;&gt;Node7 -->
<g id="edge7_Node000001_Node000007" class="edge">
<title>Node1&#45;&gt;Node7</title>
<g id="a_edge7_Node000001_Node000007"><a xlink:title=" ">
<path fill="none" stroke="#63b8ff" d="M325.7,-220.59C346.75,-212.1 378.51,-199.29 402.43,-189.64"/>
<polygon fill="#63b8ff" stroke="#63b8ff" points="403.44,-193.01 411.4,-186.02 400.82,-186.51 403.44,-193.01"/>
</a>
</g>
</g>
<!-- Node8 -->
<g id="Node000008" class="node">
<title>Node8</title>
<g id="a_Node000008"><a xlink:title=" ">
<polygon fill="#e0e0e0" stroke="#999999" points="523.06,-185 475.56,-185 475.56,-165.75 523.06,-165.75 523.06,-185"/>
<text xml:space="preserve" text-anchor="middle" x="499.31" y="-171.5" font-family="Helvetica,sans-Serif" font-size="10.00">stdlib.h</text>
</a>
</g>
</g>
<!-- Node1&#45;&gt;Node8 -->
<g id="edge8_Node000001_Node000008" class="edge">
<title>Node1&#45;&gt;Node8</title>
<g id="a_edge8_Node000001_Node000008"><a xlink:title=" ">
<path fill="none" stroke="#63b8ff" d="M325.79,-223.52C359.73,-214.3 424.31,-196.75 464.4,-185.86"/>
<polygon fill="#63b8ff" stroke="#63b8ff" points="465.06,-189.31 473.8,-183.31 463.23,-182.55 465.06,-189.31"/>
</a>
</g>
</g>
<!-- Node9 -->
<g id="Node000009" class="node">
<title>Node9</title>
<g id="a_Node000009"><a xlink:title=" ">
<polygon fill="#e0e0e0" stroke="#999999" points="589.43,-185 541.18,-185 541.18,-165.75 589.43,-165.75 589.43,-185"/>
<text xml:space="preserve" text-anchor="middle" x="565.31" y="-171.5" font-family="Helvetica,sans-Serif" font-size="10.00">string.h</text>
</a>
</g>
</g>
<!-- Node1&#45;&gt;Node9 -->
<g id="edge9_Node000001_Node000009" class="edge">
<title>Node1&#45;&gt;Node9</title>
<g id="a_edge9_Node000001_Node000009"><a xlink:title=" ">
<path fill="none" stroke="#63b8ff" d="M325.84,-225.72C365.23,-218.79 449.43,-203.53 530.01,-185.41"/>
<polygon fill="#63b8ff" stroke="#63b8ff" points="530.39,-188.91 539.37,-183.29 528.84,-182.09 530.39,-188.91"/>
</a>
</g>
</g>
<!-- Node10 -->
<g id="Node000010" class="node">
<title>Node10</title>
<g id="a_Node000010"><a xlink:title=" ">
<polygon fill="#e0e0e0" stroke="#999999" points="657.56,-185 607.06,-185 607.06,-165.75 657.56,-165.75 657.56,-185"/>
<text xml:space="preserve" text-anchor="middle" x="632.31" y="-171.5" font-family="Helvetica,sans-Serif" font-size="10.00">unistd.h</text>
</a>
</g>
</g>
<!-- Node1&#45;&gt;Node10 -->
<g id="edge10_Node000001_Node000010" class="edge">
<title>Node1&#45;&gt;Node10</title>
<g id="a_edge10_Node000001_Node000010"><a xlink:title=" ">
<path fill="none" stroke="#63b8ff" d="M326.02,-226.96C373.97,-221.18 489.28,-206.41 595.51,-185.4"/>
<polygon fill="#63b8ff" stroke="#63b8ff" points="596.15,-188.84 605.27,-183.44 594.77,-181.98 596.15,-188.84"/>
</a>
</g>
</g>
<!-- Node11 -->
<g id="Node000011" class="node">
<title>Node11</title>
<g id="a_Node000011"><a xlink:href="executor_8h.html" target="_top" xlink:title=" ">
<polygon fill="white" stroke="#666666" points="125.81,-185 40.81,-185 40.81,-165.75 125.81,-165.75 125.81,-185"/>
<text xml:space="preserve" text-anchor="middle" x="83.31" y="-171.5" font-family="Helvetica,sans-Serif" font-size="10.00">exec/executor.h</text>
</a>
</g>
</g>
<!-- Node1&#45;&gt;Node11 -->
<g id="edge11_Node000001_Node000011" class="edge">
<title>Node1&#45;&gt;Node11</title>
<g id="a_edge11_Node000001_Node000011"><a xlink:title=" ">
<path fill="none" stroke="#63b8ff" d="M280.59,-224.13C245.7,-215.68 178.12,-199.32 131.87,-188.13"/>
<polygon fill="#63b8ff" stroke="#63b8ff" points="132.91,-184.78 122.37,-185.83 131.26,-191.58 132.91,-184.78"/>
</a>
</g>
</g>
<!-- Node13 -->
<g id="Node000013" class="node">
<title>Node13</title>
<g id="a_Node000013"><a xlink:href="lexer_8h.html" target="_top" xlink:title=" ">
<polygon fill="white" stroke="#666666" points="247.56,-129.75 173.06,-129.75 173.06,-110.5 247.56,-110.5 247.56,-129.75"/>
<text xml:space="preserve" text-anchor="middle" x="210.31" y="-116.25" font-family="Helvetica,sans-Serif" font-size="10.00">parser/lexer.h</text>
</a>
</g>
</g>
<!-- Node1&#45;&gt;Node13 -->
<g id="edge17_Node000001_Node000013" class="edge">
<title>Node1&#45;&gt;Node13</title>
<g id="a_edge17_Node000001_Node000013"><a xlink:title=" ">
<path fill="none" stroke="#63b8ff" d="M295.7,-220.75C280.37,-202.86 245.53,-162.22 225.41,-138.75"/>
<polygon fill="#63b8ff" stroke="#63b8ff" points="228.18,-136.59 219.01,-131.28 222.86,-141.15 228.18,-136.59"/>
</a>
</g>
</g>
<!-- Node14 -->
<g id="Node000014" class="node">
<title>Node14</title>
<g id="a_Node000014"><a xlink:href="parser_8h.html" target="_top" xlink:title=" ">
<polygon fill="white" stroke="#666666" points="224.56,-185 144.06,-185 144.06,-165.75 224.56,-165.75 224.56,-185"/>
<text xml:space="preserve" text-anchor="middle" x="184.31" y="-171.5" font-family="Helvetica,sans-Serif" font-size="10.00">parser/parser.h</text>
</a>
</g>
</g>
<!-- Node1&#45;&gt;Node14 -->
<g id="edge20_Node000001_Node000014" class="edge">
<title>Node1&#45;&gt;Node14</title>
<g id="a_edge20_Node000001_Node000014"><a xlink:title=" ">
<path fill="none" stroke="#63b8ff" d="M283.12,-220.59C264.4,-212.22 236.29,-199.63 214.82,-190.03"/>
<polygon fill="#63b8ff" stroke="#63b8ff" points="216.53,-186.96 205.98,-186.07 213.67,-193.35 216.53,-186.96"/>
</a>
</g>
</g>
<!-- Node2&#45;&gt;Node3 -->
<g id="edge2_Node000002_Node000003" class="edge">
<title>Node2&#45;&gt;Node3</title>
<g id="a_edge2_Node000002_Node000003"><a xlink:title=" ">
<path fill="none" stroke="#63b8ff" d="M58.31,-55.08C58.31,-48.57 58.31,-39.42 58.31,-31.12"/>
<polygon fill="#63b8ff" stroke="#63b8ff" points="61.81,-31.12 58.31,-21.12 54.81,-31.12 61.81,-31.12"/>
</a>
</g>
</g>
<!-- Node4 -->
<g id="Node000004" class="node">
<title>Node4</title>
<g id="a_Node000004"><a xlink:title=" ">
<polygon fill="#e0e0e0" stroke="#999999" points="171.93,-19.25 120.68,-19.25 120.68,0 171.93,0 171.93,-19.25"/>
<text xml:space="preserve" text-anchor="middle" x="146.31" y="-5.75" font-family="Helvetica,sans-Serif" font-size="10.00">stddef.h</text>
</a>
</g>
</g>
<!-- Node2&#45;&gt;Node4 -->
<g id="edge3_Node000002_Node000004" class="edge">
<title>Node2&#45;&gt;Node4</title>
<g id="a_edge3_Node000002_Node000004"><a xlink:title=" ">
<path fill="none" stroke="#63b8ff" d="M73.24,-54.84C86.51,-46.81 106.18,-34.91 121.76,-25.48"/>
<polygon fill="#63b8ff" stroke="#63b8ff" points="123.27,-28.66 130.01,-20.49 119.65,-22.67 123.27,-28.66"/>
</a>
</g>
</g>
<!-- Node11&#45;&gt;Node2 -->
<g id="edge16_Node000011_Node000002" class="edge">
<title>Node11&#45;&gt;Node2</title>
<g id="a_edge16_Node000011_Node000002"><a xlink:title=" ">
<path fill="none" stroke="#63b8ff" d="M80.17,-165.58C77.07,-156.65 72.36,-142.38 69.31,-129.75 65.78,-115.15 62.94,-98.41 61.03,-85.73"/>
<polygon fill="#63b8ff" stroke="#63b8ff" points="64.54,-85.53 59.65,-76.13 57.61,-86.52 64.54,-85.53"/>
</a>
</g>
</g>
<!-- Node12 -->
<g id="Node000012" class="node">
<title>Node12</title>
<g id="a_Node000012"><a xlink:href="ast_8h.html" target="_top" xlink:title=" ">
<polygon fill="white" stroke="#666666" points="154.68,-129.75 77.93,-129.75 77.93,-110.5 154.68,-110.5 154.68,-129.75"/>
<text xml:space="preserve" text-anchor="middle" x="116.31" y="-116.25" font-family="Helvetica,sans-Serif" font-size="10.00">../parser/ast.h</text>
</a>
</g>
</g>
<!-- Node11&#45;&gt;Node12 -->
<g id="edge12_Node000011_Node000012" class="edge">
<title>Node11&#45;&gt;Node12</title>
<g id="a_edge12_Node000011_Node000012"><a xlink:title=" ">
<path fill="none" stroke="#63b8ff" d="M88.76,-165.58C93.08,-158.61 99.27,-148.62 104.69,-139.87"/>
<polygon fill="#63b8ff" stroke="#63b8ff" points="107.65,-141.74 109.94,-131.4 101.7,-138.05 107.65,-141.74"/>
</a>
</g>
</g>
<!-- Node12&#45;&gt;Node2 -->
<g id="edge15_Node000012_Node000002" class="edge">
<title>Node12&#45;&gt;Node2</title>
<g id="a_edge15_Node000012_Node000002"><a xlink:title=" ">
<path fill="none" stroke="#63b8ff" d="M106.47,-110.09C98.25,-102.55 86.33,-91.6 76.4,-82.48"/>
<polygon fill="#63b8ff" stroke="#63b8ff" points="78.85,-79.98 69.12,-75.8 74.12,-85.14 78.85,-79.98"/>
</a>
</g>
</g>
<!-- Node12&#45;&gt;Node3 -->
<g id="edge13_Node000012_Node000003" class="edge">
<title>Node12&#45;&gt;Node3</title>
<g id="a_edge13_Node000012_Node000003"><a xlink:title=" ">
<path fill="none" stroke="#63b8ff" d="M113.2,-110.18C108.66,-97.57 99.65,-74.02 89.31,-55.25 84.25,-46.07 77.75,-36.45 72,-28.51"/>
<polygon fill="#63b8ff" stroke="#63b8ff" points="74.98,-26.65 66.2,-20.71 69.36,-30.82 74.98,-26.65"/>
</a>
</g>
</g>
<!-- Node12&#45;&gt;Node4 -->
<g id="edge14_Node000012_Node000004" class="edge">
<title>Node12&#45;&gt;Node4</title>
<g id="a_edge14_Node000012_Node000004"><a xlink:title=" ">
<path fill="none" stroke="#63b8ff" d="M118.76,-110.25C123.55,-92.92 134.25,-54.23 140.82,-30.49"/>
<polygon fill="#63b8ff" stroke="#63b8ff" points="144.13,-31.66 143.42,-21.09 137.38,-29.79 144.13,-31.66"/>
</a>
</g>
</g>
<!-- Node13&#45;&gt;Node2 -->
<g id="edge19_Node000013_Node000002" class="edge">
<title>Node13&#45;&gt;Node2</title>
<g id="a_edge19_Node000013_Node000002"><a xlink:title=" ">
<path fill="none" stroke="#63b8ff" d="M184.52,-110.09C158.92,-101.12 119.54,-87.33 91.59,-77.53"/>
<polygon fill="#63b8ff" stroke="#63b8ff" points="92.77,-74.24 82.18,-74.24 90.46,-80.85 92.77,-74.24"/>
</a>
</g>
</g>
<!-- Node13&#45;&gt;Node4 -->
<g id="edge18_Node000013_Node000004" class="edge">
<title>Node13&#45;&gt;Node4</title>
<g id="a_edge18_Node000013_Node000004"><a xlink:title=" ">
<path fill="none" stroke="#63b8ff" d="M205.07,-110.25C194.71,-92.68 171.4,-53.16 157.45,-29.52"/>
<polygon fill="#63b8ff" stroke="#63b8ff" points="160.48,-27.77 152.39,-20.93 154.45,-31.32 160.48,-27.77"/>
</a>
</g>
</g>
<!-- Node14&#45;&gt;Node12 -->
<g id="edge21_Node000014_Node000012" class="edge">
<title>Node14&#45;&gt;Node12</title>
<g id="a_edge21_Node000014_Node000012"><a xlink:title=" ">
<path fill="none" stroke="#63b8ff" d="M172.77,-165.34C162.85,-157.57 148.3,-146.17 136.45,-136.9"/>
<polygon fill="#63b8ff" stroke="#63b8ff" points="138.9,-134.37 128.87,-130.96 134.58,-139.88 138.9,-134.37"/>
</a>
</g>
</g>
<!-- Node14&#45;&gt;Node13 -->
<g id="edge22_Node000014_Node000013" class="edge">
<title>Node14&#45;&gt;Node13</title>
<g id="a_edge22_Node000014_Node000013"><a xlink:title=" ">
<path fill="none" stroke="#63b8ff" d="M188.6,-165.58C191.93,-158.76 196.67,-149.06 200.87,-140.45"/>
<polygon fill="#63b8ff" stroke="#63b8ff" points="204.02,-141.99 205.26,-131.47 197.73,-138.92 204.02,-141.99"/>
</a>
</g>
</g>
</g>
</svg>
