<?xml version="1.0" encoding="UTF-8" standalone="no"?>
<!DOCTYPE svg PUBLIC "-//W3C//DTD SVG 1.1//EN"
 "http://www.w3.org/Graphics/SVG/1.1/DTD/svg11.dtd">
<!-- Generated by graphviz version 14.0.0 (20250921.2048)
 -->
<!-- Title: gs_builtin_spec Pages: 1 -->
<svg width="90pt" height="237pt"
 viewBox="0.00 0.00 90.00 237.00" xmlns="http://www.w3.org/2000/svg" xmlns:xlink="http://www.w3.org/1999/xlink">
<g id="graph0" class="graph" transform="scale(1 1) rotate(0) translate(4 233)">
<title>gs_builtin_spec</title>
<!-- Node1 -->
<g id="Node000001" class="node">
<title>Node1</title>
<g id="a_Node000001"><a xlink:title=" ">
<polygon fill="#999999" stroke="none" points="78.62,-65 3.12,-65 3.12,0 78.62,0 78.62,-65"/>
<text xml:space="preserve" text-anchor="start" x="7.12" y="-51.5" font-family="Helvetica,sans-Serif" font-size="10.00">gs_builtin_spec</text>
<text xml:space="preserve" text-anchor="start" x="15.5" y="-36.25" font-family="Helvetica,sans-Serif" font-size="10.00">+</text>
<text xml:space="preserve" text-anchor="start" x="33.88" y="-36.25" font-family="Helvetica,sans-Serif" font-size="10.00">name</text>
<text xml:space="preserve" text-anchor="start" x="15.5" y="-21" font-family="Helvetica,sans-Serif" font-size="10.00">+</text>
<text xml:space="preserve" text-anchor="start" x="33.88" y="-21" font-family="Helvetica,sans-Serif" font-size="10.00">flags</text>
<text xml:space="preserve" text-anchor="start" x="39.38" y="-5.75" font-family="Helvetica,sans-Serif" font-size="10.00"> </text>
<polygon fill="#666666" stroke="#666666" points="3.12,-47.75 3.12,-47.75 78.62,-47.75 78.62,-47.75 3.12,-47.75"/>
<polygon fill="#666666" stroke="#666666" points="3.12,-17.25 3.12,-17.25 31.88,-17.25 31.88,-17.25 3.12,-17.25"/>
<polygon fill="#666666" stroke="#666666" points="31.88,-17.25 31.88,-17.25 78.62,-17.25 78.62,-17.25 31.88,-17.25"/>
<polygon fill="none" stroke="#666666" points="3.12,0 3.12,-65 78.62,-65 78.62,0 3.12,0"/>
</a>
</g>
</g>
<!-- Node2 -->
<g id="Node000002" class="node">
<title>Node2</title>
<g id="a_Node000002"><a xlink:href="structgs__shell.html" target="_top" xlink:title=" ">
<polygon fill="white" stroke="none" points="81.75,-229 0,-229 0,-118.25 81.75,-118.25 81.75,-229"/>
<text xml:space="preserve" text-anchor="start" x="22.88" y="-215.5" font-family="Helvetica,sans-Serif" font-size="10.00">gs_shell</text>
<text xml:space="preserve" text-anchor="start" x="4" y="-200.25" font-family="Helvetica,sans-Serif" font-size="10.00">+</text>
<text xml:space="preserve" text-anchor="start" x="14" y="-200.25" font-family="Helvetica,sans-Serif" font-size="10.00">progname</text>
<text xml:space="preserve" text-anchor="start" x="4" y="-185" font-family="Helvetica,sans-Serif" font-size="10.00">+</text>
<text xml:space="preserve" text-anchor="start" x="14" y="-185" font-family="Helvetica,sans-Serif" font-size="10.00">last_status</text>
<text xml:space="preserve" text-anchor="start" x="4" y="-169.75" font-family="Helvetica,sans-Serif" font-size="10.00">+</text>
<text xml:space="preserve" text-anchor="start" x="14" y="-169.75" font-family="Helvetica,sans-Serif" font-size="10.00">exit_requested</text>
<text xml:space="preserve" text-anchor="start" x="4" y="-154.5" font-family="Helvetica,sans-Serif" font-size="10.00">+</text>
<text xml:space="preserve" text-anchor="start" x="14" y="-154.5" font-family="Helvetica,sans-Serif" font-size="10.00">exit_status</text>
<text xml:space="preserve" text-anchor="start" x="4" y="-139.25" font-family="Helvetica,sans-Serif" font-size="10.00">+</text>
<text xml:space="preserve" text-anchor="start" x="14" y="-139.25" font-family="Helvetica,sans-Serif" font-size="10.00">interactive</text>
<text xml:space="preserve" text-anchor="start" x="39.38" y="-124" font-family="Helvetica,sans-Serif" font-size="10.00"> </text>
<polygon fill="#666666" stroke="#666666" points="0,-211.75 0,-211.75 81.75,-211.75 81.75,-211.75 0,-211.75"/>
<polygon fill="#666666" stroke="#666666" points="0,-135.5 0,-135.5 12,-135.5 12,-135.5 0,-135.5"/>
<polygon fill="#666666" stroke="#666666" points="12,-135.5 12,-135.5 81.75,-135.5 81.75,-135.5 12,-135.5"/>
<polygon fill="none" stroke="#666666" points="0,-118.25 0,-229 81.75,-229 81.75,-118.25 0,-118.25"/>
</a>
</g>
</g>
<!-- Node2&#45;&gt;Node1 -->
<g id="edge1_Node000001_Node000002" class="edge">
<title>Node2&#45;&gt;Node1</title>
<g id="a_edge1_Node000001_Node000002"><a xlink:title=" ">
<path fill="none" stroke="#63b8ff" d="M40.88,-118.44C40.88,-104.96 40.88,-90.67 40.88,-77.74"/>
<polygon fill="none" stroke="#63b8ff" points="40.88,-77.74 36.88,-71.74 40.88,-65.74 44.88,-71.74 40.88,-77.74"/>
</a>
</g>
<text xml:space="preserve" text-anchor="start" x="43.88" y="-87.75" font-family="Helvetica,sans-Serif" font-size="10.00" fill="grey">+fn</text>
</g>
</g>
</svg>
