<?xml version="1.0" encoding="UTF-8" standalone="no"?>
<!DOCTYPE svg PUBLIC "-//W3C//DTD SVG 1.1//EN"
 "http://www.w3.org/Graphics/SVG/1.1/DTD/svg11.dtd">
<!-- Generated by graphviz version 14.0.0 (20250921.2048)
 -->
<!-- Title: gemma_sampling_config Pages: 1 -->
<svg width="130pt" height="329pt"
 viewBox="0.00 0.00 130.00 329.00" xmlns="http://www.w3.org/2000/svg" xmlns:xlink="http://www.w3.org/1999/xlink">
<g id="graph0" class="graph" transform="scale(1 1) rotate(0) translate(4 324.5)">
<title>gemma_sampling_config</title>
<!-- Node1 -->
<g id="Node000001" class="node">
<title>Node1</title>
<g id="a_Node000001"><a xlink:title=" ">
<polygon fill="#999999" stroke="none" points="116,-202.25 0,-202.25 0,0 116,0 116,-202.25"/>
<text xml:space="preserve" text-anchor="start" x="4" y="-188.75" font-family="Helvetica,sans-Serif" font-size="10.00">gemma_sampling_config</text>
<text xml:space="preserve" text-anchor="start" x="8.62" y="-173.5" font-family="Helvetica,sans-Serif" font-size="10.00">+</text>
<text xml:space="preserve" text-anchor="start" x="23.25" y="-173.5" font-family="Helvetica,sans-Serif" font-size="10.00">max_new_tokens</text>
<text xml:space="preserve" text-anchor="start" x="8.62" y="-158.25" font-family="Helvetica,sans-Serif" font-size="10.00">+</text>
<text xml:space="preserve" text-anchor="start" x="23.25" y="-158.25" font-family="Helvetica,sans-Serif" font-size="10.00">temperature</text>
<text xml:space="preserve" text-anchor="start" x="8.62" y="-143" font-family="Helvetica,sans-Serif" font-size="10.00">+</text>
<text xml:space="preserve" text-anchor="start" x="23.25" y="-143" font-family="Helvetica,sans-Serif" font-size="10.00">top_p</text>
<text xml:space="preserve" text-anchor="start" x="8.62" y="-127.75" font-family="Helvetica,sans-Serif" font-size="10.00">+</text>
<text xml:space="preserve" text-anchor="start" x="23.25" y="-127.75" font-family="Helvetica,sans-Serif" font-size="10.00">top_k</text>
<text xml:space="preserve" text-anchor="start" x="8.62" y="-112.5" font-family="Helvetica,sans-Serif" font-size="10.00">+</text>
<text xml:space="preserve" text-anchor="start" x="23.25" y="-112.5" font-family="Helvetica,sans-Serif" font-size="10.00">repetition_penalty</text>
<text xml:space="preserve" text-anchor="start" x="8.62" y="-97.25" font-family="Helvetica,sans-Serif" font-size="10.00">+</text>
<text xml:space="preserve" text-anchor="start" x="23.25" y="-97.25" font-family="Helvetica,sans-Serif" font-size="10.00">repetition_last_n</text>
<text xml:space="preserve" text-anchor="start" x="8.62" y="-82" font-family="Helvetica,sans-Serif" font-size="10.00">+</text>
<text xml:space="preserve" text-anchor="start" x="23.25" y="-82" font-family="Helvetica,sans-Serif" font-size="10.00">frequency_penalty</text>
<text xml:space="preserve" text-anchor="start" x="8.62" y="-66.75" font-family="Helvetica,sans-Serif" font-size="10.00">+</text>
<text xml:space="preserve" text-anchor="start" x="23.25" y="-66.75" font-family="Helvetica,sans-Serif" font-size="10.00">presence_penalty</text>
<text xml:space="preserve" text-anchor="start" x="8.62" y="-51.5" font-family="Helvetica,sans-Serif" font-size="10.00">+</text>
<text xml:space="preserve" text-anchor="start" x="23.25" y="-51.5" font-family="Helvetica,sans-Serif" font-size="10.00">min_p</text>
<text xml:space="preserve" text-anchor="start" x="8.62" y="-36.25" font-family="Helvetica,sans-Serif" font-size="10.00">+</text>
<text xml:space="preserve" text-anchor="start" x="23.25" y="-36.25" font-family="Helvetica,sans-Serif" font-size="10.00">typical_p</text>
<text xml:space="preserve" text-anchor="start" x="8.62" y="-21" font-family="Helvetica,sans-Serif" font-size="10.00">+</text>
<text xml:space="preserve" text-anchor="start" x="23.25" y="-21" font-family="Helvetica,sans-Serif" font-size="10.00">num_logit_biases</text>
<text xml:space="preserve" text-anchor="start" x="56.5" y="-5.75" font-family="Helvetica,sans-Serif" font-size="10.00"> </text>
<polygon fill="#666666" stroke="#666666" points="0,-185 0,-185 116,-185 116,-185 0,-185"/>
<polygon fill="#666666" stroke="#666666" points="0,-17.25 0,-17.25 21.25,-17.25 21.25,-17.25 0,-17.25"/>
<polygon fill="#666666" stroke="#666666" points="21.25,-17.25 21.25,-17.25 116,-17.25 116,-17.25 21.25,-17.25"/>
<polygon fill="none" stroke="#666666" points="0,0 0,-202.25 116,-202.25 116,0 0,0"/>
</a>
</g>
</g>
<!-- Node2 -->
<g id="Node000002" class="node">
<title>Node2</title>
<g id="a_Node000002"><a xlink:href="structgemma__logit__bias__entry.html" target="_top" xlink:title=" ">
<polygon fill="white" stroke="none" points="114.88,-320.5 1.12,-320.5 1.12,-255.5 114.88,-255.5 114.88,-320.5"/>
<text xml:space="preserve" text-anchor="start" x="5.12" y="-307" font-family="Helvetica,sans-Serif" font-size="10.00">gemma_logit_bias_entry</text>
<text xml:space="preserve" text-anchor="start" x="24.56" y="-291.75" font-family="Helvetica,sans-Serif" font-size="10.00">+</text>
<text xml:space="preserve" text-anchor="start" x="54" y="-291.75" font-family="Helvetica,sans-Serif" font-size="10.00">text</text>
<text xml:space="preserve" text-anchor="start" x="24.56" y="-276.5" font-family="Helvetica,sans-Serif" font-size="10.00">+</text>
<text xml:space="preserve" text-anchor="start" x="54" y="-276.5" font-family="Helvetica,sans-Serif" font-size="10.00">bias</text>
<text xml:space="preserve" text-anchor="start" x="56.5" y="-261.25" font-family="Helvetica,sans-Serif" font-size="10.00"> </text>
<polygon fill="#666666" stroke="#666666" points="1.12,-303.25 1.12,-303.25 114.88,-303.25 114.88,-303.25 1.12,-303.25"/>
<polygon fill="#666666" stroke="#666666" points="1.12,-272.75 1.12,-272.75 52,-272.75 52,-272.75 1.12,-272.75"/>
<polygon fill="#666666" stroke="#666666" points="52,-272.75 52,-272.75 114.88,-272.75 114.88,-272.75 52,-272.75"/>
<polygon fill="none" stroke="#666666" points="1.12,-255.5 1.12,-320.5 114.88,-320.5 114.88,-255.5 1.12,-255.5"/>
</a>
</g>
</g>
<!-- Node2&#45;&gt;Node1 -->
<g id="edge1_Node000001_Node000002" class="edge">
<title>Node2&#45;&gt;Node1</title>
<g id="a_edge1_Node000001_Node000002"><a xlink:title=" ">
<path fill="none" stroke="#63b8ff" d="M58,-255.64C58,-243.81 58,-229.56 58,-214.58"/>
<polygon fill="none" stroke="#63b8ff" points="58,-214.75 54,-208.75 58,-202.75 62,-208.75 58,-214.75"/>
</a>
</g>
<text xml:space="preserve" text-anchor="start" x="61" y="-225" font-family="Helvetica,sans-Serif" font-size="10.00" fill="grey">+logit_biases</text>
</g>
</g>
</svg>
