<?xml version="1.0" encoding="UTF-8" standalone="no"?>
<!DOCTYPE svg PUBLIC "-//W3C//DTD SVG 1.1//EN"
 "http://www.w3.org/Graphics/SVG/1.1/DTD/svg11.dtd">
<!-- Generated by graphviz version 14.0.0 (20250921.2048)
 -->
<!-- Title: gs_pipeline Pages: 1 -->
<svg width="118pt" height="355pt"
 viewBox="0.00 0.00 118.00 355.00" xmlns="http://www.w3.org/2000/svg" xmlns:xlink="http://www.w3.org/1999/xlink">
<g id="graph0" class="graph" transform="scale(1 1) rotate(0) translate(4 351.25)">
<title>gs_pipeline</title>
<!-- Node1 -->
<g id="Node000001" class="node">
<title>Node1</title>
<g id="a_Node000001"><a xlink:title=" ">
<polygon fill="#999999" stroke="none" points="84.25,-80.25 16,-80.25 16,0 84.25,0 84.25,-80.25"/>
<text xml:space="preserve" text-anchor="start" x="25.75" y="-66.75" font-family="Helvetica,sans-Serif" font-size="10.00">gs_pipeline</text>
<text xml:space="preserve" text-anchor="start" x="20" y="-51.5" font-family="Helvetica,sans-Serif" font-size="10.00">+</text>
<text xml:space="preserve" text-anchor="start" x="30" y="-51.5" font-family="Helvetica,sans-Serif" font-size="10.00">length</text>
<text xml:space="preserve" text-anchor="start" x="20" y="-36.25" font-family="Helvetica,sans-Serif" font-size="10.00">+</text>
<text xml:space="preserve" text-anchor="start" x="30" y="-36.25" font-family="Helvetica,sans-Serif" font-size="10.00">background</text>
<text xml:space="preserve" text-anchor="start" x="20" y="-21" font-family="Helvetica,sans-Serif" font-size="10.00">+</text>
<text xml:space="preserve" text-anchor="start" x="30" y="-21" font-family="Helvetica,sans-Serif" font-size="10.00">terminator</text>
<text xml:space="preserve" text-anchor="start" x="48.62" y="-5.75" font-family="Helvetica,sans-Serif" font-size="10.00"> </text>
<polygon fill="#666666" stroke="#666666" points="16,-63 16,-63 84.25,-63 84.25,-63 16,-63"/>
<polygon fill="#666666" stroke="#666666" points="16,-17.25 16,-17.25 28,-17.25 28,-17.25 16,-17.25"/>
<polygon fill="#666666" stroke="#666666" points="28,-17.25 28,-17.25 84.25,-17.25 84.25,-17.25 28,-17.25"/>
<polygon fill="none" stroke="#666666" points="16,0 16,-80.25 84.25,-80.25 84.25,0 16,0"/>
</a>
</g>
</g>
<!-- Node2 -->
<g id="Node000002" class="node">
<title>Node2</title>
<g id="a_Node000002"><a xlink:href="structgs__simple__command.html" target="_top" xlink:title=" ">
<polygon fill="white" stroke="none" points="100.25,-213.75 0,-213.75 0,-133.5 100.25,-133.5 100.25,-213.75"/>
<text xml:space="preserve" text-anchor="start" x="4" y="-200.25" font-family="Helvetica,sans-Serif" font-size="10.00">gs_simple_command</text>
<text xml:space="preserve" text-anchor="start" x="12.56" y="-185" font-family="Helvetica,sans-Serif" font-size="10.00">+</text>
<text xml:space="preserve" text-anchor="start" x="31.12" y="-185" font-family="Helvetica,sans-Serif" font-size="10.00">argv</text>
<text xml:space="preserve" text-anchor="start" x="12.56" y="-169.75" font-family="Helvetica,sans-Serif" font-size="10.00">+</text>
<text xml:space="preserve" text-anchor="start" x="31.12" y="-169.75" font-family="Helvetica,sans-Serif" font-size="10.00">argc</text>
<text xml:space="preserve" text-anchor="start" x="12.56" y="-154.5" font-family="Helvetica,sans-Serif" font-size="10.00">+</text>
<text xml:space="preserve" text-anchor="start" x="31.12" y="-154.5" font-family="Helvetica,sans-Serif" font-size="10.00">redir_count</text>
<text xml:space="preserve" text-anchor="start" x="48.62" y="-139.25" font-family="Helvetica,sans-Serif" font-size="10.00"> </text>
<polygon fill="#666666" stroke="#666666" points="0,-196.5 0,-196.5 100.25,-196.5 100.25,-196.5 0,-196.5"/>
<polygon fill="#666666" stroke="#666666" points="0,-150.75 0,-150.75 29.12,-150.75 29.12,-150.75 0,-150.75"/>
<polygon fill="#666666" stroke="#666666" points="29.12,-150.75 29.12,-150.75 100.25,-150.75 100.25,-150.75 29.12,-150.75"/>
<polygon fill="none" stroke="#666666" points="0,-133.5 0,-213.75 100.25,-213.75 100.25,-133.5 0,-133.5"/>
</a>
</g>
</g>
<!-- Node2&#45;&gt;Node1 -->
<g id="edge1_Node000001_Node000002" class="edge">
<title>Node2&#45;&gt;Node1</title>
<g id="a_edge1_Node000001_Node000002"><a xlink:title=" ">
<path fill="none" stroke="#63b8ff" d="M50.12,-133.53C50.12,-120.68 50.12,-106.19 50.12,-92.56"/>
<polygon fill="none" stroke="#63b8ff" points="50.13,-92.75 46.13,-86.75 50.13,-80.75 54.13,-86.75 50.13,-92.75"/>
</a>
</g>
<text xml:space="preserve" text-anchor="start" x="53.12" y="-103" font-family="Helvetica,sans-Serif" font-size="10.00" fill="grey">+commands</text>
</g>
<!-- Node3 -->
<g id="Node000003" class="node">
<title>Node3</title>
<g id="a_Node000003"><a xlink:href="structgs__redirection.html" target="_top" xlink:title=" ">
<polygon fill="white" stroke="none" points="84.5,-347.25 15.75,-347.25 15.75,-267 84.5,-267 84.5,-347.25"/>
<text xml:space="preserve" text-anchor="start" x="19.75" y="-333.75" font-family="Helvetica,sans-Serif" font-size="10.00">gs_redirection</text>
<text xml:space="preserve" text-anchor="start" x="26.25" y="-318.5" font-family="Helvetica,sans-Serif" font-size="10.00">+</text>
<text xml:space="preserve" text-anchor="start" x="42.75" y="-318.5" font-family="Helvetica,sans-Serif" font-size="10.00">fd</text>
<text xml:space="preserve" text-anchor="start" x="26.25" y="-303.25" font-family="Helvetica,sans-Serif" font-size="10.00">+</text>
<text xml:space="preserve" text-anchor="start" x="42.75" y="-303.25" font-family="Helvetica,sans-Serif" font-size="10.00">type</text>
<text xml:space="preserve" text-anchor="start" x="26.25" y="-288" font-family="Helvetica,sans-Serif" font-size="10.00">+</text>
<text xml:space="preserve" text-anchor="start" x="42.75" y="-288" font-family="Helvetica,sans-Serif" font-size="10.00">target</text>
<text xml:space="preserve" text-anchor="start" x="48.62" y="-272.75" font-family="Helvetica,sans-Serif" font-size="10.00"> </text>
<polygon fill="#666666" stroke="#666666" points="15.75,-330 15.75,-330 84.5,-330 84.5,-330 15.75,-330"/>
<polygon fill="#666666" stroke="#666666" points="15.75,-284.25 15.75,-284.25 40.75,-284.25 40.75,-284.25 15.75,-284.25"/>
<polygon fill="#666666" stroke="#666666" points="40.75,-284.25 40.75,-284.25 84.5,-284.25 84.5,-284.25 40.75,-284.25"/>
<polygon fill="none" stroke="#666666" points="15.75,-267 15.75,-347.25 84.5,-347.25 84.5,-267 15.75,-267"/>
</a>
</g>
</g>
<!-- Node3&#45;&gt;Node2 -->
<g id="edge2_Node000002_Node000003" class="edge">
<title>Node3&#45;&gt;Node2</title>
<g id="a_edge2_Node000002_Node000003"><a xlink:title=" ">
<path fill="none" stroke="#63b8ff" d="M50.12,-267.03C50.12,-254.18 50.12,-239.69 50.12,-226.06"/>
<polygon fill="none" stroke="#63b8ff" points="50.13,-226.25 46.13,-220.25 50.13,-214.25 54.13,-220.25 50.13,-226.25"/>
</a>
</g>
<text xml:space="preserve" text-anchor="start" x="53.12" y="-236.5" font-family="Helvetica,sans-Serif" font-size="10.00" fill="grey">+redirs</text>
</g>
</g>
</svg>
