<?xml version="1.0" encoding="UTF-8" standalone="no"?>
<!DOCTYPE svg PUBLIC "-//W3C//DTD SVG 1.1//EN"
 "http://www.w3.org/Graphics/SVG/1.1/DTD/svg11.dtd">
<!-- Generated by graphviz version 14.0.0 (20250921.2048)
 -->
<!-- Title: gs_token_buffer Pages: 1 -->
<svg width="86pt" height="207pt"
 viewBox="0.00 0.00 86.00 207.00" xmlns="http://www.w3.org/2000/svg" xmlns:xlink="http://www.w3.org/1999/xlink">
<g id="graph0" class="graph" transform="scale(1 1) rotate(0) translate(4 202.5)">
<title>gs_token_buffer</title>
<!-- Node1 -->
<g id="Node000001" class="node">
<title>Node1</title>
<g id="a_Node000001"><a xlink:title=" ">
<polygon fill="#999999" stroke="none" points="77.75,-65 0,-65 0,0 77.75,0 77.75,-65"/>
<text xml:space="preserve" text-anchor="start" x="4" y="-51.5" font-family="Helvetica,sans-Serif" font-size="10.00">gs_token_buffer</text>
<text xml:space="preserve" text-anchor="start" x="9.75" y="-36.25" font-family="Helvetica,sans-Serif" font-size="10.00">+</text>
<text xml:space="preserve" text-anchor="start" x="25.5" y="-36.25" font-family="Helvetica,sans-Serif" font-size="10.00">length</text>
<text xml:space="preserve" text-anchor="start" x="9.75" y="-21" font-family="Helvetica,sans-Serif" font-size="10.00">+</text>
<text xml:space="preserve" text-anchor="start" x="25.5" y="-21" font-family="Helvetica,sans-Serif" font-size="10.00">capacity</text>
<text xml:space="preserve" text-anchor="start" x="37.38" y="-5.75" font-family="Helvetica,sans-Serif" font-size="10.00"> </text>
<polygon fill="#666666" stroke="#666666" points="0,-47.75 0,-47.75 77.75,-47.75 77.75,-47.75 0,-47.75"/>
<polygon fill="#666666" stroke="#666666" points="0,-17.25 0,-17.25 23.5,-17.25 23.5,-17.25 0,-17.25"/>
<polygon fill="#666666" stroke="#666666" points="23.5,-17.25 23.5,-17.25 77.75,-17.25 77.75,-17.25 23.5,-17.25"/>
<polygon fill="none" stroke="#666666" points="0,0 0,-65 77.75,-65 77.75,0 0,0"/>
</a>
</g>
</g>
<!-- Node2 -->
<g id="Node000002" class="node">
<title>Node2</title>
<g id="a_Node000002"><a xlink:href="structgs__token.html" target="_top" xlink:title=" ">
<polygon fill="white" stroke="none" points="63.62,-198.5 14.12,-198.5 14.12,-118.25 63.62,-118.25 63.62,-198.5"/>
<text xml:space="preserve" text-anchor="start" x="19" y="-185" font-family="Helvetica,sans-Serif" font-size="10.00">gs_token</text>
<text xml:space="preserve" text-anchor="start" x="18.12" y="-169.75" font-family="Helvetica,sans-Serif" font-size="10.00">+</text>
<text xml:space="preserve" text-anchor="start" x="28.12" y="-169.75" font-family="Helvetica,sans-Serif" font-size="10.00">type</text>
<text xml:space="preserve" text-anchor="start" x="18.12" y="-154.5" font-family="Helvetica,sans-Serif" font-size="10.00">+</text>
<text xml:space="preserve" text-anchor="start" x="28.12" y="-154.5" font-family="Helvetica,sans-Serif" font-size="10.00">lexeme</text>
<text xml:space="preserve" text-anchor="start" x="18.12" y="-139.25" font-family="Helvetica,sans-Serif" font-size="10.00">+</text>
<text xml:space="preserve" text-anchor="start" x="28.12" y="-139.25" font-family="Helvetica,sans-Serif" font-size="10.00">flags</text>
<text xml:space="preserve" text-anchor="start" x="37.38" y="-124" font-family="Helvetica,sans-Serif" font-size="10.00"> </text>
<polygon fill="#666666" stroke="#666666" points="14.12,-181.25 14.12,-181.25 63.62,-181.25 63.62,-181.25 14.12,-181.25"/>
<polygon fill="#666666" stroke="#666666" points="14.12,-135.5 14.12,-135.5 26.12,-135.5 26.12,-135.5 14.12,-135.5"/>
<polygon fill="#666666" stroke="#666666" points="26.12,-135.5 26.12,-135.5 63.62,-135.5 63.62,-135.5 26.12,-135.5"/>
<polygon fill="none" stroke="#666666" points="14.12,-118.25 14.12,-198.5 63.62,-198.5 63.62,-118.25 14.12,-118.25"/>
</a>
</g>
</g>
<!-- Node2&#45;&gt;Node1 -->
<g id="edge1_Node000001_Node000002" class="edge">
<title>Node2&#45;&gt;Node1</title>
<g id="a_edge1_Node000001_Node000002"><a xlink:title=" ">
<path fill="none" stroke="#63b8ff" d="M38.88,-118.52C38.88,-105.54 38.88,-90.97 38.88,-77.62"/>
<polygon fill="none" stroke="#63b8ff" points="38.88,-77.67 34.88,-71.67 38.88,-65.67 42.88,-71.67 38.88,-77.67"/>
</a>
</g>
<text xml:space="preserve" text-anchor="start" x="41.88" y="-87.75" font-family="Helvetica,sans-Serif" font-size="10.00" fill="grey">+items</text>
</g>
</g>
</svg>
