<?xml version="1.0" encoding="UTF-8" standalone="no"?>
<!DOCTYPE svg PUBLIC "-//W3C//DTD SVG 1.1//EN"
 "http://www.w3.org/Graphics/SVG/1.1/DTD/svg11.dtd">
<!-- Generated by graphviz version 14.0.0 (20250921.2048)
 -->
<!-- Title: umask.c Pages: 1 -->
<svg width="432pt" height="193pt"
 viewBox="0.00 0.00 432.00 193.00" xmlns="http://www.w3.org/2000/svg" xmlns:xlink="http://www.w3.org/1999/xlink">
<g id="graph0" class="graph" transform="scale(1 1) rotate(0) translate(4 189)">
<title>umask.c</title>
<!-- Node1 -->
<g id="Node000001" class="node">
<title>Node1</title>
<g id="a_Node000001"><a xlink:title=" ">
<polygon fill="#999999" stroke="#666666" points="210.75,-185 157.25,-185 157.25,-165.75 210.75,-165.75 210.75,-185"/>
<text xml:space="preserve" text-anchor="middle" x="184" y="-171.5" font-family="Helvetica,sans-Serif" font-size="10.00">umask.c</text>
</a>
</g>
</g>
<!-- Node2 -->
<g id="Node000002" class="node">
<title>Node2</title>
<g id="a_Node000002"><a xlink:title=" ">
<polygon fill="#e0e0e0" stroke="#999999" points="46,-129.75 0,-129.75 0,-110.5 46,-110.5 46,-129.75"/>
<text xml:space="preserve" text-anchor="middle" x="23" y="-116.25" font-family="Helvetica,sans-Serif" font-size="10.00">errno.h</text>
</a>
</g>
</g>
<!-- Node1&#45;&gt;Node2 -->
<g id="edge1_Node000001_Node000002" class="edge">
<title>Node1&#45;&gt;Node2</title>
<g id="a_edge1_Node000001_Node000002"><a xlink:title=" ">
<path fill="none" stroke="#63b8ff" d="M157.05,-165.46C129.59,-156.38 86.9,-142.26 57.1,-132.4"/>
<polygon fill="#63b8ff" stroke="#63b8ff" points="58.4,-129.15 47.81,-129.33 56.2,-135.79 58.4,-129.15"/>
</a>
</g>
</g>
<!-- Node3 -->
<g id="Node000003" class="node">
<title>Node3</title>
<g id="a_Node000003"><a xlink:title=" ">
<polygon fill="#e0e0e0" stroke="#999999" points="109.62,-129.75 64.38,-129.75 64.38,-110.5 109.62,-110.5 109.62,-129.75"/>
<text xml:space="preserve" text-anchor="middle" x="87" y="-116.25" font-family="Helvetica,sans-Serif" font-size="10.00">stdio.h</text>
</a>
</g>
</g>
<!-- Node1&#45;&gt;Node3 -->
<g id="edge2_Node000001_Node000003" class="edge">
<title>Node1&#45;&gt;Node3</title>
<g id="a_edge2_Node000001_Node000003"><a xlink:title=" ">
<path fill="none" stroke="#63b8ff" d="M167.55,-165.34C152.77,-157.23 130.82,-145.18 113.57,-135.71"/>
<polygon fill="#63b8ff" stroke="#63b8ff" points="115.31,-132.68 104.86,-130.93 111.94,-138.81 115.31,-132.68"/>
</a>
</g>
</g>
<!-- Node4 -->
<g id="Node000004" class="node">
<title>Node4</title>
<g id="a_Node000004"><a xlink:title=" ">
<polygon fill="#e0e0e0" stroke="#999999" points="174.75,-129.75 127.25,-129.75 127.25,-110.5 174.75,-110.5 174.75,-129.75"/>
<text xml:space="preserve" text-anchor="middle" x="151" y="-116.25" font-family="Helvetica,sans-Serif" font-size="10.00">stdlib.h</text>
</a>
</g>
</g>
<!-- Node1&#45;&gt;Node4 -->
<g id="edge3_Node000001_Node000004" class="edge">
<title>Node1&#45;&gt;Node4</title>
<g id="a_edge3_Node000001_Node000004"><a xlink:title=" ">
<path fill="none" stroke="#63b8ff" d="M178.55,-165.58C174.23,-158.61 168.04,-148.62 162.62,-139.87"/>
<polygon fill="#63b8ff" stroke="#63b8ff" points="165.61,-138.05 157.36,-131.4 159.66,-141.74 165.61,-138.05"/>
</a>
</g>
</g>
<!-- Node5 -->
<g id="Node000005" class="node">
<title>Node5</title>
<g id="a_Node000005"><a xlink:title=" ">
<polygon fill="#e0e0e0" stroke="#999999" points="241.12,-129.75 192.88,-129.75 192.88,-110.5 241.12,-110.5 241.12,-129.75"/>
<text xml:space="preserve" text-anchor="middle" x="217" y="-116.25" font-family="Helvetica,sans-Serif" font-size="10.00">string.h</text>
</a>
</g>
</g>
<!-- Node1&#45;&gt;Node5 -->
<g id="edge4_Node000001_Node000005" class="edge">
<title>Node1&#45;&gt;Node5</title>
<g id="a_edge4_Node000001_Node000005"><a xlink:title=" ">
<path fill="none" stroke="#63b8ff" d="M189.45,-165.58C193.77,-158.61 199.96,-148.62 205.38,-139.87"/>
<polygon fill="#63b8ff" stroke="#63b8ff" points="208.34,-141.74 210.64,-131.4 202.39,-138.05 208.34,-141.74"/>
</a>
</g>
</g>
<!-- Node6 -->
<g id="Node000006" class="node">
<title>Node6</title>
<g id="a_Node000006"><a xlink:title=" ">
<polygon fill="#e0e0e0" stroke="#999999" points="318.75,-129.75 259.25,-129.75 259.25,-110.5 318.75,-110.5 318.75,-129.75"/>
<text xml:space="preserve" text-anchor="middle" x="289" y="-116.25" font-family="Helvetica,sans-Serif" font-size="10.00">sys/stat.h</text>
</a>
</g>
</g>
<!-- Node1&#45;&gt;Node6 -->
<g id="edge5_Node000001_Node000006" class="edge">
<title>Node1&#45;&gt;Node6</title>
<g id="a_edge5_Node000001_Node000006"><a xlink:title=" ">
<path fill="none" stroke="#63b8ff" d="M201.81,-165.34C218.03,-157.12 242.24,-144.84 261.03,-135.31"/>
<polygon fill="#63b8ff" stroke="#63b8ff" points="262.42,-138.53 269.75,-130.89 259.25,-132.29 262.42,-138.53"/>
</a>
</g>
</g>
<!-- Node7 -->
<g id="Node000007" class="node">
<title>Node7</title>
<g id="a_Node000007"><a xlink:href="builtin_8h.html" target="_top" xlink:title=" ">
<polygon fill="white" stroke="#666666" points="386.88,-129.75 337.12,-129.75 337.12,-110.5 386.88,-110.5 386.88,-129.75"/>
<text xml:space="preserve" text-anchor="middle" x="362" y="-116.25" font-family="Helvetica,sans-Serif" font-size="10.00">builtin.h</text>
</a>
</g>
</g>
<!-- Node1&#45;&gt;Node7 -->
<g id="edge6_Node000001_Node000007" class="edge">
<title>Node1&#45;&gt;Node7</title>
<g id="a_edge6_Node000001_Node000007"><a xlink:title=" ">
<path fill="none" stroke="#63b8ff" d="M211.03,-166.29C241.7,-157.11 291.86,-142.11 325.87,-131.93"/>
<polygon fill="#63b8ff" stroke="#63b8ff" points="326.7,-135.34 335.28,-129.12 324.7,-128.63 326.7,-135.34"/>
</a>
</g>
</g>
<!-- Node8 -->
<g id="Node000008" class="node">
<title>Node8</title>
<g id="a_Node000008"><a xlink:href="shell_8h.html" target="_top" xlink:title=" ">
<polygon fill="white" stroke="#666666" points="388.75,-74.5 335.25,-74.5 335.25,-55.25 388.75,-55.25 388.75,-74.5"/>
<text xml:space="preserve" text-anchor="middle" x="362" y="-61" font-family="Helvetica,sans-Serif" font-size="10.00">../shell.h</text>
</a>
</g>
</g>
<!-- Node7&#45;&gt;Node8 -->
<g id="edge7_Node000007_Node000008" class="edge">
<title>Node7&#45;&gt;Node8</title>
<g id="a_edge7_Node000007_Node000008"><a xlink:title=" ">
<path fill="none" stroke="#63b8ff" d="M362,-110.33C362,-103.82 362,-94.67 362,-86.37"/>
<polygon fill="#63b8ff" stroke="#63b8ff" points="365.5,-86.37 362,-76.37 358.5,-86.37 365.5,-86.37"/>
</a>
</g>
</g>
<!-- Node9 -->
<g id="Node000009" class="node">
<title>Node9</title>
<g id="a_Node000009"><a xlink:title=" ">
<polygon fill="#e0e0e0" stroke="#999999" points="353.88,-19.25 298.12,-19.25 298.12,0 353.88,0 353.88,-19.25"/>
<text xml:space="preserve" text-anchor="middle" x="326" y="-5.75" font-family="Helvetica,sans-Serif" font-size="10.00">stdbool.h</text>
</a>
</g>
</g>
<!-- Node8&#45;&gt;Node9 -->
<g id="edge8_Node000008_Node000009" class="edge">
<title>Node8&#45;&gt;Node9</title>
<g id="a_edge8_Node000008_Node000009"><a xlink:title=" ">
<path fill="none" stroke="#63b8ff" d="M356.06,-55.08C351.29,-48.03 344.44,-37.9 338.48,-29.08"/>
<polygon fill="#63b8ff" stroke="#63b8ff" points="341.42,-27.19 332.92,-20.86 335.62,-31.11 341.42,-27.19"/>
</a>
</g>
</g>
<!-- Node10 -->
<g id="Node000010" class="node">
<title>Node10</title>
<g id="a_Node000010"><a xlink:title=" ">
<polygon fill="#e0e0e0" stroke="#999999" points="423.62,-19.25 372.38,-19.25 372.38,0 423.62,0 423.62,-19.25"/>
<text xml:space="preserve" text-anchor="middle" x="398" y="-5.75" font-family="Helvetica,sans-Serif" font-size="10.00">stddef.h</text>
</a>
</g>
</g>
<!-- Node8&#45;&gt;Node10 -->
<g id="edge9_Node000008_Node000010" class="edge">
<title>Node8&#45;&gt;Node10</title>
<g id="a_edge9_Node000008_Node000010"><a xlink:title=" ">
<path fill="none" stroke="#63b8ff" d="M367.94,-55.08C372.71,-48.03 379.56,-37.9 385.52,-29.08"/>
<polygon fill="#63b8ff" stroke="#63b8ff" points="388.38,-31.11 391.08,-20.86 382.58,-27.19 388.38,-31.11"/>
</a>
</g>
</g>
</g>
</svg>
