<?xml version="1.0" encoding="UTF-8" standalone="no"?>
<!DOCTYPE svg PUBLIC "-//W3C//DTD SVG 1.1//EN"
 "http://www.w3.org/Graphics/SVG/1.1/DTD/svg11.dtd">
<!-- Generated by graphviz version 14.0.0 (20250921.2048)
 -->
<!-- Title: genshell_builtin_umask Pages: 1 -->
<svg width="240pt" height="64pt"
 viewBox="0.00 0.00 240.00 64.00" xmlns="http://www.w3.org/2000/svg" xmlns:xlink="http://www.w3.org/1999/xlink">
<g id="graph0" class="graph" transform="scale(1 1) rotate(0) translate(4 60.25)">
<title>genshell_builtin_umask</title>
<!-- Node1 -->
<g id="Node000001" class="node">
<title>Node1</title>
<g id="a_Node000001"><a xlink:title=" ">
<polygon fill="#999999" stroke="#666666" points="117.25,-37.25 0,-37.25 0,-18 117.25,-18 117.25,-37.25"/>
<text xml:space="preserve" text-anchor="middle" x="58.62" y="-23.75" font-family="Helvetica,sans-Serif" font-size="10.00">genshell_builtin_umask</text>
</a>
</g>
</g>
<!-- Node2 -->
<g id="Node000002" class="node">
<title>Node2</title>
<g id="a_Node000002"><a xlink:href="umask_8c.html#ae2fba09ff929a1375093770a22484d6b" target="_top" xlink:title=" ">
<polygon fill="white" stroke="#666666" points="223.25,-56.25 162.25,-56.25 162.25,-37 223.25,-37 223.25,-56.25"/>
<text xml:space="preserve" text-anchor="middle" x="192.75" y="-42.75" font-family="Helvetica,sans-Serif" font-size="10.00">print_octal</text>
</a>
</g>
</g>
<!-- Node1&#45;&gt;Node2 -->
<g id="edge1_Node000001_Node000002" class="edge">
<title>Node1&#45;&gt;Node2</title>
<g id="a_edge1_Node000001_Node000002"><a xlink:title=" ">
<path fill="none" stroke="#63b8ff" d="M117.58,-35.96C128.66,-37.55 140.05,-39.19 150.48,-40.69"/>
<polygon fill="#63b8ff" stroke="#63b8ff" points="149.88,-44.14 160.28,-42.1 150.88,-37.21 149.88,-44.14"/>
</a>
</g>
</g>
<!-- Node3 -->
<g id="Node000003" class="node">
<title>Node3</title>
<g id="a_Node000003"><a xlink:href="umask_8c.html#abccb41a6463c69d3490f2ddae5bf9103" target="_top" xlink:title=" ">
<polygon fill="white" stroke="#666666" points="232.25,-19.25 153.25,-19.25 153.25,0 232.25,0 232.25,-19.25"/>
<text xml:space="preserve" text-anchor="middle" x="192.75" y="-5.75" font-family="Helvetica,sans-Serif" font-size="10.00">print_symbolic</text>
</a>
</g>
</g>
<!-- Node1&#45;&gt;Node3 -->
<g id="edge2_Node000001_Node000003" class="edge">
<title>Node1&#45;&gt;Node3</title>
<g id="a_edge2_Node000001_Node000003"><a xlink:title=" ">
<path fill="none" stroke="#63b8ff" d="M117.58,-19.73C125.59,-18.64 133.76,-17.52 141.62,-16.45"/>
<polygon fill="#63b8ff" stroke="#63b8ff" points="141.91,-19.95 151.34,-15.13 140.96,-13.01 141.91,-19.95"/>
</a>
</g>
</g>
</g>
</svg>
