<?xml version="1.0" encoding="UTF-8" standalone="no"?>
<!DOCTYPE svg PUBLIC "-//W3C//DTD SVG 1.1//EN"
 "http://www.w3.org/Graphics/SVG/1.1/DTD/svg11.dtd">
<!-- Generated by graphviz version 14.0.0 (20250921.2048)
 -->
<!-- Title: is_valid_name Pages: 1 -->
<svg width="341pt" height="27pt"
 viewBox="0.00 0.00 341.00 27.00" xmlns="http://www.w3.org/2000/svg" xmlns:xlink="http://www.w3.org/1999/xlink">
<g id="graph0" class="graph" transform="scale(1 1) rotate(0) translate(4 23.25)">
<title>is_valid_name</title>
<!-- Node1 -->
<g id="Node000001" class="node">
<title>Node1</title>
<g id="a_Node000001"><a xlink:title=" ">
<polygon fill="#999999" stroke="#666666" points="333,-19.25 254.75,-19.25 254.75,0 333,0 333,-19.25"/>
<text xml:space="preserve" text-anchor="middle" x="293.88" y="-5.75" font-family="Helvetica,sans-Serif" font-size="10.00">is_valid_name</text>
</a>
</g>
</g>
<!-- Node2 -->
<g id="Node000002" class="node">
<title>Node2</title>
<g id="a_Node000002"><a xlink:href="unset_8c.html#ada2980b936aee764aaac172ba6939c7c" target="_top" xlink:title=" ">
<polygon fill="white" stroke="#666666" points="218.75,-19.25 106.75,-19.25 106.75,0 218.75,0 218.75,-19.25"/>
<text xml:space="preserve" text-anchor="middle" x="162.75" y="-5.75" font-family="Helvetica,sans-Serif" font-size="10.00">genshell_builtin_unset</text>
</a>
</g>
</g>
<!-- Node1&#45;&gt;Node2 -->
<g id="edge1_Node000001_Node000002" class="edge">
<title>Node1&#45;&gt;Node2</title>
<g id="a_edge1_Node000001_Node000002"><a xlink:title=" ">
<path fill="none" stroke="#63b8ff" d="M243.16,-9.62C235.24,-9.62 227,-9.62 218.96,-9.62"/>
<polygon fill="#63b8ff" stroke="#63b8ff" points="242.97,-13.13 252.97,-9.63 242.97,-6.13 242.97,-13.13"/>
</a>
</g>
</g>
<!-- Node3 -->
<g id="Node000003" class="node">
<title>Node3</title>
<g id="a_Node000003"><a xlink:href="registry_8c.html#ae9b6151eae7b5232c4274f5c63f78a82" target="_top" xlink:title=" ">
<polygon fill="white" stroke="#666666" points="70.75,-19.25 0,-19.25 0,0 70.75,0 70.75,-19.25"/>
<text xml:space="preserve" text-anchor="middle" x="35.38" y="-5.75" font-family="Helvetica,sans-Serif" font-size="10.00">builtin_unset</text>
</a>
</g>
</g>
<!-- Node2&#45;&gt;Node3 -->
<g id="edge2_Node000002_Node000003" class="edge">
<title>Node2&#45;&gt;Node3</title>
<g id="a_edge2_Node000002_Node000003"><a xlink:title=" ">
<path fill="none" stroke="#63b8ff" d="M95.03,-9.62C86.69,-9.62 78.45,-9.62 70.9,-9.62"/>
<polygon fill="#63b8ff" stroke="#63b8ff" points="94.88,-13.13 104.88,-9.63 94.88,-6.13 94.88,-13.13"/>
</a>
</g>
</g>
</g>
</svg>
