<?xml version="1.0" encoding="UTF-8" standalone="no"?>
<!DOCTYPE svg PUBLIC "-//W3C//DTD SVG 1.1//EN"
 "http://www.w3.org/Graphics/SVG/1.1/DTD/svg11.dtd">
<!-- Generated by graphviz version 14.0.0 (20250921.2048)
 -->
<!-- Title: unset.c Pages: 1 -->
<svg width="290pt" height="193pt"
 viewBox="0.00 0.00 290.00 193.00" xmlns="http://www.w3.org/2000/svg" xmlns:xlink="http://www.w3.org/1999/xlink">
<g id="graph0" class="graph" transform="scale(1 1) rotate(0) translate(4 189)">
<title>unset.c</title>
<!-- Node1 -->
<g id="Node000001" class="node">
<title>Node1</title>
<g id="a_Node000001"><a xlink:title=" ">
<polygon fill="#999999" stroke="#666666" points="145.25,-185 97,-185 97,-165.75 145.25,-165.75 145.25,-185"/>
<text xml:space="preserve" text-anchor="middle" x="121.12" y="-171.5" font-family="Helvetica,sans-Serif" font-size="10.00">unset.c</text>
</a>
</g>
</g>
<!-- Node2 -->
<g id="Node000002" class="node">
<title>Node2</title>
<g id="a_Node000002"><a xlink:title=" ">
<polygon fill="#e0e0e0" stroke="#999999" points="48.25,-129.75 0,-129.75 0,-110.5 48.25,-110.5 48.25,-129.75"/>
<text xml:space="preserve" text-anchor="middle" x="24.12" y="-116.25" font-family="Helvetica,sans-Serif" font-size="10.00">ctype.h</text>
</a>
</g>
</g>
<!-- Node1&#45;&gt;Node2 -->
<g id="edge1_Node000001_Node000002" class="edge">
<title>Node1&#45;&gt;Node2</title>
<g id="a_edge1_Node000001_Node000002"><a xlink:title=" ">
<path fill="none" stroke="#63b8ff" d="M104.67,-165.34C89.9,-157.23 67.95,-145.18 50.69,-135.71"/>
<polygon fill="#63b8ff" stroke="#63b8ff" points="52.44,-132.68 41.99,-130.93 49.07,-138.81 52.44,-132.68"/>
</a>
</g>
</g>
<!-- Node3 -->
<g id="Node000003" class="node">
<title>Node3</title>
<g id="a_Node000003"><a xlink:title=" ">
<polygon fill="#e0e0e0" stroke="#999999" points="111.75,-129.75 66.5,-129.75 66.5,-110.5 111.75,-110.5 111.75,-129.75"/>
<text xml:space="preserve" text-anchor="middle" x="89.12" y="-116.25" font-family="Helvetica,sans-Serif" font-size="10.00">stdio.h</text>
</a>
</g>
</g>
<!-- Node1&#45;&gt;Node3 -->
<g id="edge2_Node000001_Node000003" class="edge">
<title>Node1&#45;&gt;Node3</title>
<g id="a_edge2_Node000001_Node000003"><a xlink:title=" ">
<path fill="none" stroke="#63b8ff" d="M115.84,-165.58C111.65,-158.61 105.65,-148.62 100.39,-139.87"/>
<polygon fill="#63b8ff" stroke="#63b8ff" points="103.45,-138.18 95.3,-131.41 97.45,-141.78 103.45,-138.18"/>
</a>
</g>
</g>
<!-- Node4 -->
<g id="Node000004" class="node">
<title>Node4</title>
<g id="a_Node000004"><a xlink:title=" ">
<polygon fill="#e0e0e0" stroke="#999999" points="176.88,-129.75 129.38,-129.75 129.38,-110.5 176.88,-110.5 176.88,-129.75"/>
<text xml:space="preserve" text-anchor="middle" x="153.12" y="-116.25" font-family="Helvetica,sans-Serif" font-size="10.00">stdlib.h</text>
</a>
</g>
</g>
<!-- Node1&#45;&gt;Node4 -->
<g id="edge3_Node000001_Node000004" class="edge">
<title>Node1&#45;&gt;Node4</title>
<g id="a_edge3_Node000001_Node000004"><a xlink:title=" ">
<path fill="none" stroke="#63b8ff" d="M126.41,-165.58C130.6,-158.61 136.6,-148.62 141.86,-139.87"/>
<polygon fill="#63b8ff" stroke="#63b8ff" points="144.8,-141.78 146.95,-131.41 138.8,-138.18 144.8,-141.78"/>
</a>
</g>
</g>
<!-- Node5 -->
<g id="Node000005" class="node">
<title>Node5</title>
<g id="a_Node000005"><a xlink:href="builtin_8h.html" target="_top" xlink:title=" ">
<polygon fill="white" stroke="#666666" points="245,-129.75 195.25,-129.75 195.25,-110.5 245,-110.5 245,-129.75"/>
<text xml:space="preserve" text-anchor="middle" x="220.12" y="-116.25" font-family="Helvetica,sans-Serif" font-size="10.00">builtin.h</text>
</a>
</g>
</g>
<!-- Node1&#45;&gt;Node5 -->
<g id="edge4_Node000001_Node000005" class="edge">
<title>Node1&#45;&gt;Node5</title>
<g id="a_edge4_Node000001_Node000005"><a xlink:title=" ">
<path fill="none" stroke="#63b8ff" d="M137.92,-165.34C153.14,-157.16 175.82,-144.96 193.51,-135.44"/>
<polygon fill="#63b8ff" stroke="#63b8ff" points="194.77,-138.74 201.92,-130.92 191.45,-132.57 194.77,-138.74"/>
</a>
</g>
</g>
<!-- Node6 -->
<g id="Node000006" class="node">
<title>Node6</title>
<g id="a_Node000006"><a xlink:href="shell_8h.html" target="_top" xlink:title=" ">
<polygon fill="white" stroke="#666666" points="246.88,-74.5 193.38,-74.5 193.38,-55.25 246.88,-55.25 246.88,-74.5"/>
<text xml:space="preserve" text-anchor="middle" x="220.12" y="-61" font-family="Helvetica,sans-Serif" font-size="10.00">../shell.h</text>
</a>
</g>
</g>
<!-- Node5&#45;&gt;Node6 -->
<g id="edge5_Node000005_Node000006" class="edge">
<title>Node5&#45;&gt;Node6</title>
<g id="a_edge5_Node000005_Node000006"><a xlink:title=" ">
<path fill="none" stroke="#63b8ff" d="M220.12,-110.33C220.12,-103.82 220.12,-94.67 220.12,-86.37"/>
<polygon fill="#63b8ff" stroke="#63b8ff" points="223.63,-86.37 220.13,-76.37 216.63,-86.37 223.63,-86.37"/>
</a>
</g>
</g>
<!-- Node7 -->
<g id="Node000007" class="node">
<title>Node7</title>
<g id="a_Node000007"><a xlink:title=" ">
<polygon fill="#e0e0e0" stroke="#999999" points="212,-19.25 156.25,-19.25 156.25,0 212,0 212,-19.25"/>
<text xml:space="preserve" text-anchor="middle" x="184.12" y="-5.75" font-family="Helvetica,sans-Serif" font-size="10.00">stdbool.h</text>
</a>
</g>
</g>
<!-- Node6&#45;&gt;Node7 -->
<g id="edge6_Node000006_Node000007" class="edge">
<title>Node6&#45;&gt;Node7</title>
<g id="a_edge6_Node000006_Node000007"><a xlink:title=" ">
<path fill="none" stroke="#63b8ff" d="M214.18,-55.08C209.41,-48.03 202.56,-37.9 196.6,-29.08"/>
<polygon fill="#63b8ff" stroke="#63b8ff" points="199.55,-27.19 191.05,-20.86 193.75,-31.11 199.55,-27.19"/>
</a>
</g>
</g>
<!-- Node8 -->
<g id="Node000008" class="node">
<title>Node8</title>
<g id="a_Node000008"><a xlink:title=" ">
<polygon fill="#e0e0e0" stroke="#999999" points="281.75,-19.25 230.5,-19.25 230.5,0 281.75,0 281.75,-19.25"/>
<text xml:space="preserve" text-anchor="middle" x="256.12" y="-5.75" font-family="Helvetica,sans-Serif" font-size="10.00">stddef.h</text>
</a>
</g>
</g>
<!-- Node6&#45;&gt;Node8 -->
<g id="edge7_Node000006_Node000008" class="edge">
<title>Node6&#45;&gt;Node8</title>
<g id="a_edge7_Node000006_Node000008"><a xlink:title=" ">
<path fill="none" stroke="#63b8ff" d="M226.07,-55.08C230.84,-48.03 237.69,-37.9 243.65,-29.08"/>
<polygon fill="#63b8ff" stroke="#63b8ff" points="246.5,-31.11 249.2,-20.86 240.7,-27.19 246.5,-31.11"/>
</a>
</g>
</g>
</g>
</svg>
