<?xml version="1.0" encoding="UTF-8" standalone="no"?>
<!DOCTYPE svg PUBLIC "-//W3C//DTD SVG 1.1//EN"
 "http://www.w3.org/Graphics/SVG/1.1/DTD/svg11.dtd">
<!-- Generated by graphviz version 14.0.0 (20250921.2048)
 -->
<!-- Title: ctx_yaml_unquote Pages: 1 -->
<svg width="387pt" height="27pt"
 viewBox="0.00 0.00 387.00 27.00" xmlns="http://www.w3.org/2000/svg" xmlns:xlink="http://www.w3.org/1999/xlink">
<g id="graph0" class="graph" transform="scale(1 1) rotate(0) translate(4 23.25)">
<title>ctx_yaml_unquote</title>
<!-- Node1 -->
<g id="Node000001" class="node">
<title>Node1</title>
<g id="a_Node000001"><a xlink:title=" ">
<polygon fill="#999999" stroke="#666666" points="378.75,-19.25 283.25,-19.25 283.25,0 378.75,0 378.75,-19.25"/>
<text xml:space="preserve" text-anchor="middle" x="331" y="-5.75" font-family="Helvetica,sans-Serif" font-size="10.00">ctx_yaml_unquote</text>
</a>
</g>
</g>
<!-- Node2 -->
<g id="Node000002" class="node">
<title>Node2</title>
<g id="a_Node000002"><a xlink:href="yaml__parser_8c.html#aad6c5f174e208fa806d28a78c060205f" target="_top" xlink:title=" ">
<polygon fill="white" stroke="#666666" points="247.25,-19.25 133,-19.25 133,0 247.25,0 247.25,-19.25"/>
<text xml:space="preserve" text-anchor="middle" x="190.12" y="-5.75" font-family="Helvetica,sans-Serif" font-size="10.00">ctx_yaml_parse_string</text>
</a>
</g>
</g>
<!-- Node1&#45;&gt;Node2 -->
<g id="edge1_Node000001_Node000002" class="edge">
<title>Node1&#45;&gt;Node2</title>
<g id="a_edge1_Node000001_Node000002"><a xlink:title=" ">
<path fill="none" stroke="#63b8ff" d="M271.59,-9.62C263.68,-9.62 255.58,-9.62 247.71,-9.62"/>
<polygon fill="#63b8ff" stroke="#63b8ff" points="271.47,-13.13 281.47,-9.63 271.47,-6.13 271.47,-13.13"/>
</a>
</g>
</g>
<!-- Node3 -->
<g id="Node000003" class="node">
<title>Node3</title>
<g id="a_Node000003"><a xlink:href="yaml__parser_8c.html#a9a0c56345104d287c5cda503fa66011b" target="_top" xlink:title=" ">
<polygon fill="white" stroke="#666666" points="97,-19.25 0,-19.25 0,0 97,0 97,-19.25"/>
<text xml:space="preserve" text-anchor="middle" x="48.5" y="-5.75" font-family="Helvetica,sans-Serif" font-size="10.00">ctx_yaml_load_file</text>
</a>
</g>
</g>
<!-- Node2&#45;&gt;Node3 -->
<g id="edge2_Node000002_Node000003" class="edge">
<title>Node2&#45;&gt;Node3</title>
<g id="a_edge2_Node000002_Node000003"><a xlink:title=" ">
<path fill="none" stroke="#63b8ff" d="M121.27,-9.62C113.12,-9.62 104.92,-9.62 97.14,-9.62"/>
<polygon fill="#63b8ff" stroke="#63b8ff" points="121.22,-13.13 131.22,-9.63 121.22,-6.13 121.22,-13.13"/>
</a>
</g>
</g>
</g>
</svg>
