<?xml version="1.0" encoding="UTF-8" standalone="no"?>
<!DOCTYPE svg PUBLIC "-//W3C//DTD SVG 1.1//EN"
 "http://www.w3.org/Graphics/SVG/1.1/DTD/svg11.dtd">
<!-- Generated by graphviz version 14.0.0 (20250921.2048)
 -->
<!-- Title: ctx_yaml_parse_string Pages: 1 -->
<svg width="466pt" height="175pt"
 viewBox="0.00 0.00 466.00 175.00" xmlns="http://www.w3.org/2000/svg" xmlns:xlink="http://www.w3.org/1999/xlink">
<g id="graph0" class="graph" transform="scale(1 1) rotate(0) translate(4 171.25)">
<title>ctx_yaml_parse_string</title>
<!-- Node1 -->
<g id="Node000001" class="node">
<title>Node1</title>
<g id="a_Node000001"><a xlink:title=" ">
<polygon fill="#999999" stroke="#666666" points="114.25,-93.25 0,-93.25 0,-74 114.25,-74 114.25,-93.25"/>
<text xml:space="preserve" text-anchor="middle" x="57.12" y="-79.75" font-family="Helvetica,sans-Serif" font-size="10.00">ctx_yaml_parse_string</text>
</a>
</g>
</g>
<!-- Node2 -->
<g id="Node000002" class="node">
<title>Node2</title>
<g id="a_Node000002"><a xlink:href="yaml__parser_8c.html#ac79f5350d3718ac8bf51500871de5226" target="_top" xlink:title=" ">
<polygon fill="white" stroke="#666666" points="290.75,-167.25 150.25,-167.25 150.25,-148 290.75,-148 290.75,-167.25"/>
<text xml:space="preserve" text-anchor="middle" x="220.5" y="-153.75" font-family="Helvetica,sans-Serif" font-size="10.00">ctx_yaml_document_append</text>
</a>
</g>
</g>
<!-- Node1&#45;&gt;Node2 -->
<g id="edge1_Node000001_Node000002" class="edge">
<title>Node1&#45;&gt;Node2</title>
<g id="a_edge1_Node000001_Node000002"><a xlink:title=" ">
<path fill="none" stroke="#63b8ff" d="M71.8,-93.7C89.21,-106.11 120.6,-127.08 150.25,-139.62 154.08,-141.24 158.09,-142.75 162.17,-144.14"/>
<polygon fill="#63b8ff" stroke="#63b8ff" points="161.02,-147.45 171.61,-147.1 163.12,-140.77 161.02,-147.45"/>
</a>
</g>
</g>
<!-- Node4 -->
<g id="Node000004" class="node">
<title>Node4</title>
<g id="a_Node000004"><a xlink:href="yaml__parser_8c.html#a217711991e84b9ab64a5ccfc29ca32c6" target="_top" xlink:title=" ">
<polygon fill="white" stroke="#666666" points="283.25,-130.25 157.75,-130.25 157.75,-111 283.25,-111 283.25,-130.25"/>
<text xml:space="preserve" text-anchor="middle" x="220.5" y="-116.75" font-family="Helvetica,sans-Serif" font-size="10.00">ctx_yaml_document_free</text>
</a>
</g>
</g>
<!-- Node1&#45;&gt;Node4 -->
<g id="edge3_Node000001_Node000004" class="edge">
<title>Node1&#45;&gt;Node4</title>
<g id="a_edge3_Node000001_Node000004"><a xlink:title=" ">
<path fill="none" stroke="#63b8ff" d="M102.22,-93.74C121.43,-98.14 144.16,-103.35 164.46,-108.01"/>
<polygon fill="#63b8ff" stroke="#63b8ff" points="163.45,-111.37 173.98,-110.19 165.02,-104.54 163.45,-111.37"/>
</a>
</g>
</g>
<!-- Node6 -->
<g id="Node000006" class="node">
<title>Node6</title>
<g id="a_Node000006"><a xlink:href="yaml__parser_8c.html#a67ed47390d6bf475ea0d72e8e7dda70e" target="_top" xlink:title=" ">
<polygon fill="white" stroke="#666666" points="270.12,-93.25 170.88,-93.25 170.88,-74 270.12,-74 270.12,-93.25"/>
<text xml:space="preserve" text-anchor="middle" x="220.5" y="-79.75" font-family="Helvetica,sans-Serif" font-size="10.00">ctx_yaml_set_error</text>
</a>
</g>
</g>
<!-- Node1&#45;&gt;Node6 -->
<g id="edge5_Node000001_Node000006" class="edge">
<title>Node1&#45;&gt;Node6</title>
<g id="a_edge5_Node000001_Node000006"><a xlink:title=" ">
<path fill="none" stroke="#63b8ff" d="M114.57,-83.62C128.98,-83.62 144.54,-83.62 159.14,-83.62"/>
<polygon fill="#63b8ff" stroke="#63b8ff" points="159.09,-87.13 169.09,-83.63 159.09,-80.13 159.09,-87.13"/>
</a>
</g>
</g>
<!-- Node7 -->
<g id="Node000007" class="node">
<title>Node7</title>
<g id="a_Node000007"><a xlink:href="yaml__parser_8c.html#a3f6195a14acab3736505de15e105be5c" target="_top" xlink:title=" ">
<polygon fill="white" stroke="#666666" points="259.25,-56.25 181.75,-56.25 181.75,-37 259.25,-37 259.25,-56.25"/>
<text xml:space="preserve" text-anchor="middle" x="220.5" y="-42.75" font-family="Helvetica,sans-Serif" font-size="10.00">ctx_yaml_trim</text>
</a>
</g>
</g>
<!-- Node1&#45;&gt;Node7 -->
<g id="edge6_Node000001_Node000007" class="edge">
<title>Node1&#45;&gt;Node7</title>
<g id="a_edge6_Node000001_Node000007"><a xlink:title=" ">
<path fill="none" stroke="#63b8ff" d="M102.22,-73.51C123.36,-68.67 148.75,-62.85 170.49,-57.86"/>
<polygon fill="#63b8ff" stroke="#63b8ff" points="171.05,-61.33 180.01,-55.68 169.48,-54.5 171.05,-61.33"/>
</a>
</g>
</g>
<!-- Node8 -->
<g id="Node000008" class="node">
<title>Node8</title>
<g id="a_Node000008"><a xlink:href="yaml__parser_8c.html#a99e7fa62d49c86bf0dcc0b23acd1a01e" target="_top" xlink:title=" ">
<polygon fill="white" stroke="#666666" points="268.25,-19.25 172.75,-19.25 172.75,0 268.25,0 268.25,-19.25"/>
<text xml:space="preserve" text-anchor="middle" x="220.5" y="-5.75" font-family="Helvetica,sans-Serif" font-size="10.00">ctx_yaml_unquote</text>
</a>
</g>
</g>
<!-- Node1&#45;&gt;Node8 -->
<g id="edge7_Node000001_Node000008" class="edge">
<title>Node1&#45;&gt;Node8</title>
<g id="a_edge7_Node000001_Node000008"><a xlink:title=" ">
<path fill="none" stroke="#63b8ff" d="M71.8,-73.55C89.21,-61.14 120.6,-40.17 150.25,-27.62 154.08,-26.01 158.09,-24.5 162.17,-23.11"/>
<polygon fill="#63b8ff" stroke="#63b8ff" points="163.12,-26.48 171.61,-20.15 161.02,-19.8 163.12,-26.48"/>
</a>
</g>
</g>
<!-- Node3 -->
<g id="Node000003" class="node">
<title>Node3</title>
<g id="a_Node000003"><a xlink:href="yaml__parser_8c.html#a78dbe8c7a5af4f4d19f449954e5868c7" target="_top" xlink:title=" ">
<polygon fill="white" stroke="#666666" points="436.12,-167.25 348.12,-167.25 348.12,-148 436.12,-148 436.12,-167.25"/>
<text xml:space="preserve" text-anchor="middle" x="392.12" y="-153.75" font-family="Helvetica,sans-Serif" font-size="10.00">ctx_yaml_strdup</text>
</a>
</g>
</g>
<!-- Node2&#45;&gt;Node3 -->
<g id="edge2_Node000002_Node000003" class="edge">
<title>Node2&#45;&gt;Node3</title>
<g id="a_edge2_Node000002_Node000003"><a xlink:title=" ">
<path fill="none" stroke="#63b8ff" d="M290.98,-157.62C306.14,-157.62 321.98,-157.62 336.47,-157.62"/>
<polygon fill="#63b8ff" stroke="#63b8ff" points="336.24,-161.13 346.24,-157.63 336.24,-154.13 336.24,-161.13"/>
</a>
</g>
</g>
<!-- Node5 -->
<g id="Node000005" class="node">
<title>Node5</title>
<g id="a_Node000005"><a xlink:href="yaml__parser_8c.html#a87d2fec306e08d3905f1bcae848d8eae" target="_top" xlink:title=" ">
<polygon fill="white" stroke="#666666" points="457.5,-130.25 326.75,-130.25 326.75,-111 457.5,-111 457.5,-130.25"/>
<text xml:space="preserve" text-anchor="middle" x="392.12" y="-116.75" font-family="Helvetica,sans-Serif" font-size="10.00">ctx_yaml_document_reset</text>
</a>
</g>
</g>
<!-- Node4&#45;&gt;Node5 -->
<g id="edge4_Node000004_Node000005" class="edge">
<title>Node4&#45;&gt;Node5</title>
<g id="a_edge4_Node000004_Node000005"><a xlink:title=" ">
<path fill="none" stroke="#63b8ff" d="M283.7,-120.62C293.91,-120.62 304.58,-120.62 315.08,-120.62"/>
<polygon fill="#63b8ff" stroke="#63b8ff" points="314.86,-124.13 324.86,-120.63 314.86,-117.13 314.86,-124.13"/>
</a>
</g>
</g>
</g>
</svg>
