<?xml version="1.0" encoding="UTF-8" standalone="no"?>
<!DOCTYPE svg PUBLIC "-//W3C//DTD SVG 1.1//EN"
 "http://www.w3.org/Graphics/SVG/1.1/DTD/svg11.dtd">
<!-- Generated by graphviz version 14.0.0 (20250921.2048)
 -->
<!-- Title: ctx_yaml_document_reset Pages: 1 -->
<svg width="584pt" height="64pt"
 viewBox="0.00 0.00 584.00 64.00" xmlns="http://www.w3.org/2000/svg" xmlns:xlink="http://www.w3.org/1999/xlink">
<g id="graph0" class="graph" transform="scale(1 1) rotate(0) translate(4 60.25)">
<title>ctx_yaml_document_reset</title>
<!-- Node1 -->
<g id="Node000001" class="node">
<title>Node1</title>
<g id="a_Node000001"><a xlink:title=" ">
<polygon fill="#999999" stroke="#666666" points="575.5,-37.25 444.75,-37.25 444.75,-18 575.5,-18 575.5,-37.25"/>
<text xml:space="preserve" text-anchor="middle" x="510.12" y="-23.75" font-family="Helvetica,sans-Serif" font-size="10.00">ctx_yaml_document_reset</text>
</a>
</g>
</g>
<!-- Node2 -->
<g id="Node000002" class="node">
<title>Node2</title>
<g id="a_Node000002"><a xlink:href="yaml__parser_8c.html#a217711991e84b9ab64a5ccfc29ca32c6" target="_top" xlink:title=" ">
<polygon fill="white" stroke="#666666" points="408.75,-56.25 283.25,-56.25 283.25,-37 408.75,-37 408.75,-56.25"/>
<text xml:space="preserve" text-anchor="middle" x="346" y="-42.75" font-family="Helvetica,sans-Serif" font-size="10.00">ctx_yaml_document_free</text>
</a>
</g>
</g>
<!-- Node1&#45;&gt;Node2 -->
<g id="edge1_Node000001_Node000002" class="edge">
<title>Node1&#45;&gt;Node2</title>
<g id="a_edge1_Node000001_Node000002"><a xlink:title=" ">
<path fill="none" stroke="#63b8ff" d="M433.27,-36.51C425.21,-37.46 417.08,-38.41 409.21,-39.33"/>
<polygon fill="#63b8ff" stroke="#63b8ff" points="433.56,-40.01 443.08,-35.37 432.74,-33.05 433.56,-40.01"/>
</a>
</g>
</g>
<!-- Node5 -->
<g id="Node000005" class="node">
<title>Node5</title>
<g id="a_Node000005"><a xlink:href="yaml__parser_8c.html#a14b2f79c7ae9b754bdec6b57ea77dc0b" target="_top" xlink:title=" ">
<polygon fill="white" stroke="#666666" points="406.88,-19.25 285.12,-19.25 285.12,0 406.88,0 406.88,-19.25"/>
<text xml:space="preserve" text-anchor="middle" x="346" y="-5.75" font-family="Helvetica,sans-Serif" font-size="10.00">ctx_yaml_document_init</text>
</a>
</g>
</g>
<!-- Node1&#45;&gt;Node5 -->
<g id="edge4_Node000001_Node000005" class="edge">
<title>Node1&#45;&gt;Node5</title>
<g id="a_edge4_Node000001_Node000005"><a xlink:title=" ">
<path fill="none" stroke="#63b8ff" d="M433.25,-19.2C424.57,-18.24 415.81,-17.26 407.37,-16.33"/>
<polygon fill="#63b8ff" stroke="#63b8ff" points="432.75,-22.67 443.08,-20.29 433.53,-15.71 432.75,-22.67"/>
</a>
</g>
</g>
<!-- Node3 -->
<g id="Node000003" class="node">
<title>Node3</title>
<g id="a_Node000003"><a xlink:href="yaml__parser_8c.html#aad6c5f174e208fa806d28a78c060205f" target="_top" xlink:title=" ">
<polygon fill="white" stroke="#666666" points="247.25,-56.25 133,-56.25 133,-37 247.25,-37 247.25,-56.25"/>
<text xml:space="preserve" text-anchor="middle" x="190.12" y="-42.75" font-family="Helvetica,sans-Serif" font-size="10.00">ctx_yaml_parse_string</text>
</a>
</g>
</g>
<!-- Node2&#45;&gt;Node3 -->
<g id="edge2_Node000002_Node000003" class="edge">
<title>Node2&#45;&gt;Node3</title>
<g id="a_edge2_Node000002_Node000003"><a xlink:title=" ">
<path fill="none" stroke="#63b8ff" d="M271.53,-46.62C263.46,-46.62 255.35,-46.62 247.54,-46.62"/>
<polygon fill="#63b8ff" stroke="#63b8ff" points="271.34,-50.13 281.34,-46.63 271.34,-43.13 271.34,-50.13"/>
</a>
</g>
</g>
<!-- Node4 -->
<g id="Node000004" class="node">
<title>Node4</title>
<g id="a_Node000004"><a xlink:href="yaml__parser_8c.html#a9a0c56345104d287c5cda503fa66011b" target="_top" xlink:title=" ">
<polygon fill="white" stroke="#666666" points="97,-56.25 0,-56.25 0,-37 97,-37 97,-56.25"/>
<text xml:space="preserve" text-anchor="middle" x="48.5" y="-42.75" font-family="Helvetica,sans-Serif" font-size="10.00">ctx_yaml_load_file</text>
</a>
</g>
</g>
<!-- Node3&#45;&gt;Node4 -->
<g id="edge3_Node000003_Node000004" class="edge">
<title>Node3&#45;&gt;Node4</title>
<g id="a_edge3_Node000003_Node000004"><a xlink:title=" ">
<path fill="none" stroke="#63b8ff" d="M121.27,-46.62C113.12,-46.62 104.92,-46.62 97.14,-46.62"/>
<polygon fill="#63b8ff" stroke="#63b8ff" points="121.22,-50.13 131.22,-46.63 121.22,-43.13 121.22,-50.13"/>
</a>
</g>
</g>
</g>
</svg>
