<?xml version="1.0" encoding="UTF-8" standalone="no"?>
<!DOCTYPE svg PUBLIC "-//W3C//DTD SVG 1.1//EN"
 "http://www.w3.org/Graphics/SVG/1.1/DTD/svg11.dtd">
<!-- Generated by graphviz version 14.0.0 (20250921.2048)
 -->
<!-- Title: ctx_yaml_set_error Pages: 1 -->
<svg width="391pt" height="46pt"
 viewBox="0.00 0.00 391.00 46.00" xmlns="http://www.w3.org/2000/svg" xmlns:xlink="http://www.w3.org/1999/xlink">
<g id="graph0" class="graph" transform="scale(1 1) rotate(0) translate(4 42.25)">
<title>ctx_yaml_set_error</title>
<!-- Node1 -->
<g id="Node000001" class="node">
<title>Node1</title>
<g id="a_Node000001"><a xlink:title=" ">
<polygon fill="#999999" stroke="#666666" points="382.5,-38.25 283.25,-38.25 283.25,-19 382.5,-19 382.5,-38.25"/>
<text xml:space="preserve" text-anchor="middle" x="332.88" y="-24.75" font-family="Helvetica,sans-Serif" font-size="10.00">ctx_yaml_set_error</text>
</a>
</g>
</g>
<!-- Node2 -->
<g id="Node000002" class="node">
<title>Node2</title>
<g id="a_Node000002"><a xlink:href="yaml__parser_8c.html#a9a0c56345104d287c5cda503fa66011b" target="_top" xlink:title=" ">
<polygon fill="white" stroke="#666666" points="97,-38.25 0,-38.25 0,-19 97,-19 97,-38.25"/>
<text xml:space="preserve" text-anchor="middle" x="48.5" y="-24.75" font-family="Helvetica,sans-Serif" font-size="10.00">ctx_yaml_load_file</text>
</a>
</g>
</g>
<!-- Node1&#45;&gt;Node2 -->
<g id="edge1_Node000001_Node000002" class="edge">
<title>Node1&#45;&gt;Node2</title>
<g id="a_edge1_Node000001_Node000002"><a xlink:title=" ">
<path fill="none" stroke="#63b8ff" d="M271.6,-28.62C219.55,-28.62 145.34,-28.62 97.29,-28.62"/>
<polygon fill="#63b8ff" stroke="#63b8ff" points="271.5,-32.13 281.5,-28.63 271.5,-25.13 271.5,-32.13"/>
</a>
</g>
</g>
<!-- Node3 -->
<g id="Node000003" class="node">
<title>Node3</title>
<g id="a_Node000003"><a xlink:href="yaml__parser_8c.html#aad6c5f174e208fa806d28a78c060205f" target="_top" xlink:title=" ">
<polygon fill="white" stroke="#666666" points="247.25,-19.25 133,-19.25 133,0 247.25,0 247.25,-19.25"/>
<text xml:space="preserve" text-anchor="middle" x="190.12" y="-5.75" font-family="Helvetica,sans-Serif" font-size="10.00">ctx_yaml_parse_string</text>
</a>
</g>
</g>
<!-- Node1&#45;&gt;Node3 -->
<g id="edge2_Node000001_Node000003" class="edge">
<title>Node1&#45;&gt;Node3</title>
<g id="a_edge2_Node000001_Node000003"><a xlink:title=" ">
<path fill="none" stroke="#63b8ff" d="M271.84,-20.52C263.8,-19.44 255.58,-18.33 247.6,-17.25"/>
<polygon fill="#63b8ff" stroke="#63b8ff" points="271.16,-23.96 281.54,-21.83 272.1,-17.02 271.16,-23.96"/>
</a>
</g>
</g>
<!-- Node3&#45;&gt;Node2 -->
<g id="edge3_Node000003_Node000002" class="edge">
<title>Node3&#45;&gt;Node2</title>
<g id="a_edge3_Node000003_Node000002"><a xlink:title=" ">
<path fill="none" stroke="#63b8ff" d="M121.55,-18.82C113.3,-19.94 105.01,-21.07 97.14,-22.14"/>
<polygon fill="#63b8ff" stroke="#63b8ff" points="121.8,-22.32 131.24,-17.5 120.86,-15.38 121.8,-22.32"/>
</a>
</g>
</g>
</g>
</svg>
