<?xml version="1.0" encoding="UTF-8" standalone="no"?>
<!DOCTYPE svg PUBLIC "-//W3C//DTD SVG 1.1//EN"
 "http://www.w3.org/Graphics/SVG/1.1/DTD/svg11.dtd">
<!-- Generated by graphviz version 14.0.0 (20250921.2048)
 -->
<!-- Title: yaml_parser.c Pages: 1 -->
<svg width="397pt" height="138pt"
 viewBox="0.00 0.00 397.00 138.00" xmlns="http://www.w3.org/2000/svg" xmlns:xlink="http://www.w3.org/1999/xlink">
<g id="graph0" class="graph" transform="scale(1 1) rotate(0) translate(4 133.75)">
<title>yaml_parser.c</title>
<!-- Node1 -->
<g id="Node000001" class="node">
<title>Node1</title>
<g id="a_Node000001"><a xlink:title=" ">
<polygon fill="#999999" stroke="#666666" points="241.38,-129.75 164.62,-129.75 164.62,-110.5 241.38,-110.5 241.38,-129.75"/>
<text xml:space="preserve" text-anchor="middle" x="203" y="-116.25" font-family="Helvetica,sans-Serif" font-size="10.00">yaml_parser.c</text>
</a>
</g>
</g>
<!-- Node2 -->
<g id="Node000002" class="node">
<title>Node2</title>
<g id="a_Node000002"><a xlink:href="ctx__yaml_8h.html" target="_top" xlink:title=" ">
<polygon fill="white" stroke="#666666" points="64,-74.5 0,-74.5 0,-55.25 64,-55.25 64,-74.5"/>
<text xml:space="preserve" text-anchor="middle" x="32" y="-61" font-family="Helvetica,sans-Serif" font-size="10.00">ctx_yaml.h</text>
</a>
</g>
</g>
<!-- Node1&#45;&gt;Node2 -->
<g id="edge1_Node000001_Node000002" class="edge">
<title>Node1&#45;&gt;Node2</title>
<g id="a_edge1_Node000001_Node000002"><a xlink:title=" ">
<path fill="none" stroke="#63b8ff" d="M173.99,-110.09C145.99,-101.37 103.34,-88.09 72.1,-78.36"/>
<polygon fill="#63b8ff" stroke="#63b8ff" points="73.18,-75.03 62.6,-75.4 71.1,-81.72 73.18,-75.03"/>
</a>
</g>
</g>
<!-- Node4 -->
<g id="Node000004" class="node">
<title>Node4</title>
<g id="a_Node000004"><a xlink:title=" ">
<polygon fill="#e0e0e0" stroke="#999999" points="130.12,-74.5 81.88,-74.5 81.88,-55.25 130.12,-55.25 130.12,-74.5"/>
<text xml:space="preserve" text-anchor="middle" x="106" y="-61" font-family="Helvetica,sans-Serif" font-size="10.00">ctype.h</text>
</a>
</g>
</g>
<!-- Node1&#45;&gt;Node4 -->
<g id="edge3_Node000001_Node000004" class="edge">
<title>Node1&#45;&gt;Node4</title>
<g id="a_edge3_Node000001_Node000004"><a xlink:title=" ">
<path fill="none" stroke="#63b8ff" d="M186.55,-110.09C171.77,-101.98 149.82,-89.93 132.57,-80.46"/>
<polygon fill="#63b8ff" stroke="#63b8ff" points="134.31,-77.43 123.86,-75.68 130.94,-83.56 134.31,-77.43"/>
</a>
</g>
</g>
<!-- Node5 -->
<g id="Node000005" class="node">
<title>Node5</title>
<g id="a_Node000005"><a xlink:title=" ">
<polygon fill="#e0e0e0" stroke="#999999" points="194,-74.5 148,-74.5 148,-55.25 194,-55.25 194,-74.5"/>
<text xml:space="preserve" text-anchor="middle" x="171" y="-61" font-family="Helvetica,sans-Serif" font-size="10.00">errno.h</text>
</a>
</g>
</g>
<!-- Node1&#45;&gt;Node5 -->
<g id="edge4_Node000001_Node000005" class="edge">
<title>Node1&#45;&gt;Node5</title>
<g id="a_edge4_Node000001_Node000005"><a xlink:title=" ">
<path fill="none" stroke="#63b8ff" d="M197.72,-110.33C193.53,-103.36 187.52,-93.37 182.27,-84.62"/>
<polygon fill="#63b8ff" stroke="#63b8ff" points="185.33,-82.93 177.18,-76.16 179.33,-86.53 185.33,-82.93"/>
</a>
</g>
</g>
<!-- Node6 -->
<g id="Node000006" class="node">
<title>Node6</title>
<g id="a_Node000006"><a xlink:title=" ">
<polygon fill="#e0e0e0" stroke="#999999" points="257.62,-74.5 212.38,-74.5 212.38,-55.25 257.62,-55.25 257.62,-74.5"/>
<text xml:space="preserve" text-anchor="middle" x="235" y="-61" font-family="Helvetica,sans-Serif" font-size="10.00">stdio.h</text>
</a>
</g>
</g>
<!-- Node1&#45;&gt;Node6 -->
<g id="edge5_Node000001_Node000006" class="edge">
<title>Node1&#45;&gt;Node6</title>
<g id="a_edge5_Node000001_Node000006"><a xlink:title=" ">
<path fill="none" stroke="#63b8ff" d="M208.28,-110.33C212.47,-103.36 218.48,-93.37 223.73,-84.62"/>
<polygon fill="#63b8ff" stroke="#63b8ff" points="226.67,-86.53 228.82,-76.16 220.67,-82.93 226.67,-86.53"/>
</a>
</g>
</g>
<!-- Node7 -->
<g id="Node000007" class="node">
<title>Node7</title>
<g id="a_Node000007"><a xlink:title=" ">
<polygon fill="#e0e0e0" stroke="#999999" points="322.75,-74.5 275.25,-74.5 275.25,-55.25 322.75,-55.25 322.75,-74.5"/>
<text xml:space="preserve" text-anchor="middle" x="299" y="-61" font-family="Helvetica,sans-Serif" font-size="10.00">stdlib.h</text>
</a>
</g>
</g>
<!-- Node1&#45;&gt;Node7 -->
<g id="edge6_Node000001_Node000007" class="edge">
<title>Node1&#45;&gt;Node7</title>
<g id="a_edge6_Node000001_Node000007"><a xlink:title=" ">
<path fill="none" stroke="#63b8ff" d="M219.29,-110.09C233.9,-101.98 255.63,-89.93 272.71,-80.46"/>
<polygon fill="#63b8ff" stroke="#63b8ff" points="274.26,-83.6 281.31,-75.69 270.87,-77.48 274.26,-83.6"/>
</a>
</g>
</g>
<!-- Node8 -->
<g id="Node000008" class="node">
<title>Node8</title>
<g id="a_Node000008"><a xlink:title=" ">
<polygon fill="#e0e0e0" stroke="#999999" points="389.12,-74.5 340.88,-74.5 340.88,-55.25 389.12,-55.25 389.12,-74.5"/>
<text xml:space="preserve" text-anchor="middle" x="365" y="-61" font-family="Helvetica,sans-Serif" font-size="10.00">string.h</text>
</a>
</g>
</g>
<!-- Node1&#45;&gt;Node8 -->
<g id="edge7_Node000001_Node000008" class="edge">
<title>Node1&#45;&gt;Node8</title>
<g id="a_edge7_Node000001_Node000008"><a xlink:title=" ">
<path fill="none" stroke="#63b8ff" d="M230.48,-110.09C257.86,-101.09 300,-87.24 329.8,-77.44"/>
<polygon fill="#63b8ff" stroke="#63b8ff" points="330.72,-80.83 339.13,-74.38 328.54,-74.18 330.72,-80.83"/>
</a>
</g>
</g>
<!-- Node3 -->
<g id="Node000003" class="node">
<title>Node3</title>
<g id="a_Node000003"><a xlink:title=" ">
<polygon fill="#e0e0e0" stroke="#999999" points="57.62,-19.25 6.38,-19.25 6.38,0 57.62,0 57.62,-19.25"/>
<text xml:space="preserve" text-anchor="middle" x="32" y="-5.75" font-family="Helvetica,sans-Serif" font-size="10.00">stddef.h</text>
</a>
</g>
</g>
<!-- Node2&#45;&gt;Node3 -->
<g id="edge2_Node000002_Node000003" class="edge">
<title>Node2&#45;&gt;Node3</title>
<g id="a_edge2_Node000002_Node000003"><a xlink:title=" ">
<path fill="none" stroke="#63b8ff" d="M32,-55.08C32,-48.57 32,-39.42 32,-31.12"/>
<polygon fill="#63b8ff" stroke="#63b8ff" points="35.5,-31.12 32,-21.12 28.5,-31.12 35.5,-31.12"/>
</a>
</g>
</g>
</g>
</svg>
